<?xml version="1.0" encoding="utf-8"?>
<!-- Generator: Adobe Illustrator 23.0.1, SVG Export Plug-In . SVG Version: 6.00 Build 0)  -->
<svg version="1.1" id="Layer_1" xmlns="http://www.w3.org/2000/svg" xmlns:xlink="http://www.w3.org/1999/xlink" x="0px" y="0px"
	 viewBox="0 0 192 282" style="enable-background:new 0 0 192 282;" xml:space="preserve">
<style type="text/css">
	.st0{stroke:#000000;stroke-miterlimit:10;}
	.st1{fill:#FAED23;}
</style>
<g>
	<path class="st1" d="M175.8,196.4c-6.1,53-50,71.6-80,67.9c-16.9-2-27-8.1-31.1-11.1l-16.2,8.4H41V27.2l-25.7-3.7V15l53.4-6.8V115
		c0,0,22.6-9.1,32.4-9.5C149.1,103.2,181.5,145.1,175.8,196.4z M100.8,117.4c-8.8,0-32.1,4.4-32.1,4.4v120.6
		c5.4,4.4,16.2,8.1,28.7,8.1c16.2,0,43.6-7.8,48.6-53C151.5,150.1,128.5,117.4,100.8,117.4z"/>
</g>
</svg>
