<?xml version="1.0" encoding="utf-8"?>
<!-- Generator: Adobe Illustrator 23.0.1, SVG Export Plug-In . SVG Version: 6.00 Build 0)  -->
<svg version="1.1" id="Layer_1" xmlns="http://www.w3.org/2000/svg" xmlns:xlink="http://www.w3.org/1999/xlink" x="0px" y="0px"
	 viewBox="0 0 179 282" style="enable-background:new 0 0 179 282;" xml:space="preserve">
<style type="text/css">
	.st0{stroke:#000000;stroke-miterlimit:10;}
	.st1{fill:#FAED23;}
</style>
<g>
	<path class="st1" d="M167.8,243.3v8.4l-51.3,9.8v-15.2c0,2.4-17.6,17.9-41.5,17.9c-44.6,0-66.9-38.5-66.9-77.7
		c0-41.5,25-83.4,76-81.1c9.8,0.3,32.4,9.5,32.4,9.5l0.3-89.5l-24.3-2V15l51.7-6.8v233L167.8,243.3z M116.5,235.2V121.8
		c0,0-23.3-4.4-32.1-4.4c-31.4,0-47.3,33.4-47.3,66.5c0,32.8,15.5,65.2,46.9,65.2C103.3,249.1,116.5,235.2,116.5,235.2z"/>
</g>
</svg>
