<?xml version="1.0" encoding="utf-8"?>
<!-- Generator: Adobe Illustrator 23.0.1, SVG Export Plug-In . SVG Version: 6.00 Build 0)  -->
<svg version="1.1" id="Layer_1" xmlns="http://www.w3.org/2000/svg" xmlns:xlink="http://www.w3.org/1999/xlink" x="0px" y="0px"
	 viewBox="0 0 164 182" style="enable-background:new 0 0 164 182;" xml:space="preserve">
<style type="text/css">
	.st0{stroke:#000000;stroke-miterlimit:10;}
	.st1{fill:#FAED23;}
</style>
<g>
	<path class="st1" d="M141.1,140.9l0.3,6.4c0,0-16.2,23.6-51,23.6c-32.1,0-75.3-23-75.3-80c0-56.1,42.2-81.1,73-81.1
		c43.2,0,58.1,39.2,58.1,66.9H44.8c-0.7,3.7-1,7.8-1,11.8c0,4.7,0.3,9.5,1.4,14.5c5.4,33.8,29.7,51,52,52
		C123.9,156.4,141.1,140.9,141.1,140.9z M118.4,60.5c-2-26.3-14.9-38.5-29.7-38.5c-17.2,0-36.5,16.5-42.6,46.6L118.4,60.5z"/>
</g>
</svg>
