<?xml version="1.0" encoding="utf-8"?>
<!-- Generator: Adobe Illustrator 23.0.1, SVG Export Plug-In . SVG Version: 6.00 Build 0)  -->
<svg version="1.1" id="Layer_1" xmlns="http://www.w3.org/2000/svg" xmlns:xlink="http://www.w3.org/1999/xlink" x="0px" y="0px"
	 viewBox="0 0 145 172" style="enable-background:new 0 0 145 172;" xml:space="preserve">
<style type="text/css">
	.st0{stroke:#000000;stroke-miterlimit:10;}
	.st1{fill:#FAED23;}
</style>
<g>
	<path class="st1" d="M132.9,124.4c0,13.2-7.4,43.2-54.4,43.2c-24.3,0-47.6-10.5-53.4-15.2c0.3-0.7,0-29,0-29H42l10.1,26.3
		c39.2,15.9,55.1-9.5,54.4-23.3c-1-24.7-38.5-26.7-62.8-46.3C22.4,63.9,22.8,50.8,24.8,40C29.5,16.3,55.2,5.5,81.9,5.5
		c23.6,0,38.2,10.1,44.2,15.2c-0.3,0,0,23.6,0,23.6h-16.9L95.4,17c-21.6-4.1-47.3,2.7-43.9,28.4C53.8,58.2,68.4,66,85.6,72
		C98.8,76.8,132.9,92,132.9,124.4z"/>
</g>
</svg>
