<?xml version="1.0" encoding="utf-8"?>
<!-- Generator: Adobe Illustrator 23.0.1, SVG Export Plug-In . SVG Version: 6.00 Build 0)  -->
<svg version="1.1" id="Layer_1" xmlns="http://www.w3.org/2000/svg" xmlns:xlink="http://www.w3.org/1999/xlink" x="0px" y="0px"
	 viewBox="0 0 184 242" style="enable-background:new 0 0 184 242;" xml:space="preserve">
<style type="text/css">
	.st0{stroke:#000000;stroke-miterlimit:10;}
	.st1{fill:#FAED23;}
</style>
<g>
	<path class="st1" d="M99.8,169.9c-19.9-2.4-29-12.8-29-12.8v65.5l30.1,5.1v8.4H17.7v-8.4l25.3-5.1V32.1l-25.7-3.7V20l47.3-7.4
		l6.1,18.9l18.6-18.9c40.9-13.5,86.8,20.9,88.5,73.3C179.5,138.2,140.7,174.7,99.8,169.9z M149.5,89.2c0-59.4-43.9-74.3-65.2-58.4
		L70.8,40.9v102.3c0,0,6.8,9.8,20.9,11.8C120.4,159.5,149.5,136.5,149.5,89.2z"/>
</g>
</svg>
