<?xml version="1.0" encoding="utf-8"?>
<!-- Generator: Adobe Illustrator 23.0.1, SVG Export Plug-In . SVG Version: 6.00 Build 0)  -->
<svg version="1.1" id="Layer_1" xmlns="http://www.w3.org/2000/svg" xmlns:xlink="http://www.w3.org/1999/xlink" x="0px" y="0px"
	 viewBox="0 0 205 180" style="enable-background:new 0 0 205 180;" xml:space="preserve">
<style type="text/css">
	.st0{stroke:#000000;stroke-miterlimit:10;}
	.st1{fill:#FAED23;}
</style>
<g>
	<path class="st1" d="M170.5,147.7v8.4l-29.4,11.8c-4.4,0-17.2-6.8-17.2-20.3c-9.1,5.4-27.4,21.6-45.9,21.6
		c-24.7,0-43.9-18.9-43.9-42.9c0-21.6,11.8-33.8,31.4-39.5c18.6-5.4,53.7-16.5,58.4-18.2v-6.4c0-36.8-21.6-51.7-45.9-44.6L64.2,45.3
		H45.2c0,0,0.3-25,0-25c6.4-5.4,18.2-16.2,44.2-16.2c60.5,0,61.5,39.2,62.1,61.5v76.3C151.6,154.8,170.5,147.7,170.5,147.7z
		 M123.9,139.2V78.1c-11.1,3.7-30.7,11.5-41.5,15.5c-7.8,2.7-19.3,13.2-19.3,31.7c0,16.2,11.8,27.7,28,26.7
		C111.1,150.7,123.9,139.2,123.9,139.2z"/>
</g>
</svg>
