<?xml version="1.0" encoding="utf-8"?>
<!-- Generator: Adobe Illustrator 23.0.1, SVG Export Plug-In . SVG Version: 6.00 Build 0)  -->
<svg version="1.1" id="Layer_1" xmlns="http://www.w3.org/2000/svg" xmlns:xlink="http://www.w3.org/1999/xlink" x="0px" y="0px"
	 viewBox="0 0 315 364" style="enable-background:new 0 0 315 364;" xml:space="preserve">
<style type="text/css">
	.st0{fill:#141C10;}
	.st1{fill:#F9F9FA;}
	.st2{fill:#FFFFFF;}
</style>
<g>
	<g>
		<path class="st1" d="M302.1,303v17.2l-59.7,24c-8.9,0-35-13.7-35-41.2c-18.5,11-55.6,43.9-93.3,43.9c-50.1,0-89.2-38.4-89.2-87.1
			c0-43.9,24-68.6,63.8-80.3c37.7-11,109.1-33.6,118.7-37v-13c0-74.8-43.9-105-93.3-90.6L86,95.1H47.5c0,0,0.7-50.8,0-50.8
			c13-11,37-32.9,89.9-32.9c122.8,0,124.9,79.6,126.2,124.9v155C263.6,317.4,302.1,303,302.1,303z M207.4,285.8V161.7
			c-22.6,7.5-62.4,23.3-84.4,31.6c-15.8,5.5-39.1,26.8-39.1,64.5c0,32.9,24,56.3,56.9,54.2C181.3,309.2,207.4,285.8,207.4,285.8z"/>
	</g>
</g>
</svg>
