<?xml version="1.0" encoding="utf-8"?>
<!-- Generator: Adobe Illustrator 23.0.1, SVG Export Plug-In . SVG Version: 6.00 Build 0)  -->
<svg version="1.1" id="Layer_1" xmlns="http://www.w3.org/2000/svg" xmlns:xlink="http://www.w3.org/1999/xlink" x="0px" y="0px"
	 viewBox="0 0 173 245" style="enable-background:new 0 0 173 245;" xml:space="preserve">
<style type="text/css">
	.st0{stroke:#000000;stroke-miterlimit:10;}
	.st1{fill:#FAED23;}
</style>
<g>
	<path class="st1" d="M82.6,242.9c-60.8,0-73.6-51.7-70.6-59.1l42.6-16.2l-26.3-18.2v-2l32.1-26.7c-23-11.1-34.4-30.1-34.4-52.3
		c0-32.1,26-58.1,58.4-58.1c16.5,0,31.1,6.8,42.2,17.6l8.4-15.2h33.4v3.7l-36.8,17.6c7.1,9.5,11.1,21.3,11.1,34.4
		c0,31.7-26.3,57.1-58.4,57.4c-6.8,0-12.2-1-17.2-2.7l-11.8,17.6l68.6,12.5c20.6,3.4,31.4,12.8,35.1,24.7
		C166.4,202.4,146.1,242.5,82.6,242.9z M62.7,169.6c-2.4,2-22.3,12.5-22.3,29.4c0,13.2,14.2,30.7,42.9,31.1c29,0,44.6-9.8,52.3-22.3
		c6.4-10.8,1-24.3-25.3-29.4L62.7,169.6z M85.3,114.2c21.6,0.3,30.1-20.9,29.4-47.3c-0.7-25.3-12.5-45.3-30.4-45.9
		c-21.6-0.7-30.1,21.3-30.7,46.9C53.3,93.9,67.4,114.2,85.3,114.2z"/>
</g>
</svg>
