<?xml version="1.0" encoding="utf-8"?>
<!-- Generator: Adobe Illustrator 23.0.1, SVG Export Plug-In . SVG Version: 6.00 Build 0)  -->
<svg version="1.1" id="Layer_1" xmlns="http://www.w3.org/2000/svg" xmlns:xlink="http://www.w3.org/1999/xlink" x="0px" y="0px"
	 viewBox="0 0 277 179" style="enable-background:new 0 0 277 179;" xml:space="preserve">
<style type="text/css">
	.st0{stroke:#000000;stroke-miterlimit:10;}
	.st1{fill:#FAED23;}
</style>
<g>
	<path class="st1" d="M267.4,162.1v8.4h-78v-8.4l25.7-5.7v-30.1V67.6c0-29-16.9-43.2-36.5-36.1c-14.2,5.4-23.6,11.5-25,12.5
		c1,3.4,1.7,7.4,1.7,11.5v101l25,5.7v8.4h-77.7v-8.4l25-5.7h0.3v-30.1V67.6c0-29-16.9-43.2-36.1-36.1c-15.5,5.7-25.3,12.5-25.3,12.5
		v112.5l24.7,5.7v8.4H13.4v-8.4l25-5.7V34.5l-22-4.1V22l44.2-7.4l5.4,20.6c0,0,5.1-3,24.7-15.5c20.6-12.8,49.3-4.4,60.1,16.9
		c3-1.7,11.5-7.1,26.7-16.9c25.7-16.2,64.8,1.4,64.8,35.8v101L267.4,162.1z"/>
</g>
</svg>
