<?xml version="1.0" encoding="utf-8"?>
<!-- Generator: Adobe Illustrator 23.0.1, SVG Export Plug-In . SVG Version: 6.00 Build 0)  -->
<svg version="1.1" id="Layer_1" xmlns="http://www.w3.org/2000/svg" xmlns:xlink="http://www.w3.org/1999/xlink" x="0px" y="0px"
	 viewBox="0 0 187 249" style="enable-background:new 0 0 187 249;" xml:space="preserve">
<style type="text/css">
	.st0{stroke:#000000;stroke-miterlimit:10;}
	.st1{fill:#FAED23;}
</style>
<g>
	<path class="st1" d="M147.9,39.1v190.5l25.3,5.1v8.4H90.1v-8.4l30.1-5.1v-67.2c0,0-9.1,11.5-29,14.5c-40.9,6.1-79.7-31.7-78-84.1
		C14.8,40.5,60.7,6,101.6,19.5l18.6,18.9l6.1-18.9l47.3,7.4v8.4L147.9,39.1z M120.2,148.6V47.9l-13.5-10.1
		c-21.3-15.9-65.2-1-65.2,58.4c0,47.3,29,71.6,57.8,65.9C113.4,159.4,120.2,148.6,120.2,148.6z"/>
</g>
</svg>
