<?xml version="1.0" encoding="utf-8"?>
<!-- Generator: Adobe Illustrator 23.0.1, SVG Export Plug-In . SVG Version: 6.00 Build 0)  -->
<svg version="1.1" id="Layer_1" xmlns="http://www.w3.org/2000/svg" xmlns:xlink="http://www.w3.org/1999/xlink" x="0px" y="0px"
	 viewBox="0 0 656 385" style="enable-background:new 0 0 656 385;" xml:space="preserve">
<style type="text/css">
	.st0{fill:#FFFFFF;}
	.st1{fill:#FCF6F5;}
	.st2{fill:#F3B5AE;}
	.st3{fill:#EE786C;}
	.st4{fill:#F04E34;}
	.st5{stroke:#FFFFFF;stroke-miterlimit:10;}
	.st6{fill:#FAED23;}
	.st7{fill:#2D2B2A;}
	.st8{fill:none;stroke:#FFFFFF;stroke-width:0.5;stroke-miterlimit:10;}
	.st9{fill:none;stroke:#000000;stroke-width:2.1805;}
</style>
<g>
	<path class="st0" d="M167.9,177.5c0,24-19.3,43.2-43.2,43.2s-43.2-19.3-43.2-43.2s19.3-43.2,43.2-43.2S167.9,153.6,167.9,177.5z
		 M161.5,177.5c0-20.5-16.6-36.9-36.9-36.9s-36.9,16.5-36.9,36.9c0,20.3,16.6,36.9,36.9,36.9S161.5,197.8,161.5,177.5z M139.6,186.4
		h4.2v10.1c0,0-6.7,7.9-18.9,7.9c-13.3,0-26.3-9.6-26.3-26.9c0-17.2,13.3-27.3,27.7-27.3c5.8,0,11.3,1.8,16.4,5c-0.1,0,0,9.7,0,9.7
		h-4.1l-3.8-8.1c-3.2-0.9-6-1.1-8.6-1.1c-13.8,0-18.2,12.2-18.2,21.6c0,13.3,7.3,20.5,18.1,20.9c3.8,0.1,7.4-0.7,10.5-1.9
		L139.6,186.4z"/>
	<path class="st0" d="M227.6,229.5c-9.6,0-18.8-4.1-21.1-6c0.1-0.2,0-11.4,0-11.4h6.6l4.1,10.4c3.6,1.5,7.1,2.2,9.8,2.2
		c7.5,0,12.6-5.6,11.6-11.4c-1.7-9.6-15.1-10.6-24.9-18.1c-6.3-5-7.7-9.1-7.7-12.7c0-7.5,4.8-12.4,11.4-14.9c-1.5-0.9-3-1.8-4.3-2.8
		c-6.4-4.8-7.9-8.9-7.9-12.5c0-11.6,11.3-17,23-17c9.3,0,15,4,17.4,6c-0.1,0,0,9.3,0,9.3H239l-5.5-10.8c-1.6-0.2-3.4-0.5-5.1-0.5
		c-7.9,0-15,3.3-14.2,11.6c1.3,14.6,31.6,11.2,32.8,31.3c0.2,4-1.5,11.7-9.9,15.2c5.6,3.2,10.2,7.4,10.7,15
		C248.1,217.7,244.9,229.5,227.6,229.5z M229.6,194c5.7-1.4,9.2-5.9,8.2-11c-1.6-6.5-7.9-9.2-14.8-12.5c-5,1.4-8.6,4.7-8.1,10.8
		C215.5,188,222.3,190.8,229.6,194z"/>
	<path class="st0" d="M352.9,182.1c-2.8,3.8-7.2,9.6-10.9,14.7l5.9,7.3c8.1,9.3,11.3,6.9,14.2,4.6l1.1,2.5l-10,8.8
		c-5-0.1-9.7-5-15-11.3l-2.7-3.3c-0.6,0.8-0.9,1.4-1.1,1.6c-14.6,18.1-33.8,14.1-40.3,6.8c-10.1-11.3-7.3-25.5,5.6-34.5
		c3-2,6.3-4.4,9.4-6.7c-2.5-3-4.2-5.2-4.8-5.9c-9.6-12.2-4.8-31.6,12.9-32.8c10.9-0.7,20.7,4.8,20.5,15.9c-0.1,5.3-2.5,10-13.4,18.1
		l-3.6,2.6l18.3,22.4c3-4,6.1-8.1,8.4-11l-12.1-2.4v-4.6h30.3v4.6L352.9,182.1z M332.3,201.4c-5.8-7.1-13.9-17.2-19.9-24.8l-6.6,4.9
		c-9.1,7.1-8.4,17.4-2.8,24.1c5.7,6.9,18.4,7.9,26.7-1.1C330.2,203.9,331.1,202.8,332.3,201.4z M317.4,166.5c1.7-1.3,2.8-2,3.1-2.3
		c11.6-9.3,9-27.3-1.6-26.9c-8.1,0.3-15.2,12.2-4.1,25.9L317.4,166.5z"/>
	<path class="st0" d="M503.4,184.6c-1.7,22.5-17.8,41-35.2,34.5c-5.1-1.9-5.3-7.5-5.3-7.5s-8.3,9.3-17.5,7.6
		c-6.6-1.3-11.8-6.8-11.9-17c-0.2-23.4,17.5-33.7,22.8-34.7c3.3-0.7,9.1-1.5,13,2.5l3.2-3.1l5.7,1.6l-6.1,34.3
		c-1.5,8.5-0.2,10.7,3.8,10.7c9.6,0,18.5-13.1,19.7-29.4c1.7-24.5-19.2-33-30.5-33.9c-17.5-1.4-45.5,7.7-47.8,41.2
		c-2.2,32.4,26.7,48.4,51.9,41.5l2.7,4.6c-39.6,11.8-65.1-15.8-63-47.5c1.5-23.7,21.4-49.8,56.3-47.2
		C493.7,145,504.5,167.3,503.4,184.6z M468.5,174.3c-1.4-1.3-3.2-2.6-5.5-3.1c-6.3-2-16.8,6.9-19.1,27.7c-0.8,8.2,1.8,12.9,5.6,14.1
		c4,1.4,9-1,13.4-5.2L468.5,174.3z"/>
	<path class="st0" d="M591.5,162.4c0,6.1-5.7,5.7-8.6,5.5c-2-0.1-11-2.4-15.6-3.6l2.8,12.9l-3.4,56.1H564l-3.4-56.1l2.8-12.9
		c-4.6,1.3-13.5,3.5-15.6,3.6c-3,0.2-8.6,0.7-8.6-5.5c0-6.3,5.9-5.8,8.6-5.6c1.9,0.1,10.7,2.4,15.4,3.6c-1.3-5.1-3.4-13.8-3.5-15.7
		c-0.2-2.7-0.7-8.6,5.6-8.6c6.1,0,5.7,5.7,5.5,8.6c-0.1,1.9-2.2,10.7-3.4,15.8c4.6-1.3,13.5-3.6,15.6-3.8
		C585.5,156.6,591.5,156.2,591.5,162.4z"/>
</g>
<line class="st8" x1="133.5" y1="279.9" x2="522.5" y2="279.9"/>
<g>
	<path class="st0" d="M139.2,311.1c0,0.7-0.3,2.2-2.6,2.3c-1.2,0-2.3-0.6-2.6-0.8c0,0,0-1.3,0-1.3h0.8l0.4,1.1
		c2,1.1,3.2-0.3,3.1-1.3c-0.2-1.5-2.2-1.3-3.4-2.2c-0.9-0.7-0.9-1.5-0.9-1.8c0.2-1.3,1.3-1.8,2.7-1.8c1.1,0,1.8,0.4,2.2,0.8
		c0,0,0,1,0,1h-0.7l-0.6-1.2c-1.2-0.4-2.7,0.1-2.6,1.4c0.1,0.8,1.1,1.1,2,1.4C137.6,309,139.2,309.3,139.2,311.1z"/>
	<path class="st0" d="M140.8,306.1h-1.1v-0.5c0,0,0.9-0.1,1.2-0.6c0.3-0.5,0.4-1.3,0.4-1.3h0.5v1.9h1.4v0.5h-1.4v5.6
		c0,1.3,1.4,1.2,1.4,1.2v0.2c0,0-0.3,0.1-1,0.1c-0.9,0-1.4-0.5-1.4-1.5V306.1z"/>
	<path class="st0" d="M150.3,312.4v0.3l-1.1,0.6c-0.4,0-0.8-0.4-0.8-0.9c-0.4,0.2-1.5,1-2.4,1c-1.2,0-2-0.8-2-1.9
		c0-1.1,0.6-1.8,1.6-2.1c0.9-0.2,2.6-0.7,2.9-0.8c0-1.7-0.4-3-2.6-2.5l-0.5,1.2h-0.8c0,0,0-1,0-1c0.3-0.3,1-0.8,2.2-0.8
		c2.7,0,2.7,2,2.7,3.3v3.4C149.3,312.6,150.3,312.4,150.3,312.4z M148.4,311.9V309l-2.2,0.7c-0.6,0.2-1.2,0.7-1.2,1.7
		c0,1.1,0.9,1.5,1.7,1.3C147.7,312.4,148.4,311.9,148.4,311.9z"/>
	<path class="st0" d="M158.9,312.7v0.4h-3.4v-0.4l1.2-0.2V311v-2.8c0-2-1.5-2.1-2.2-1.8l-1.6,0.5v5.7l1.2,0.2v0.4h-3.4v-0.4l1.2-0.2
		v-6l-1.1-0.2v-0.4l1.8-0.4l0.3,0.9l1.3-0.7c1.5-0.8,3.5-0.1,3.5,2.3c0,1.1,0,3.5,0,4.4L158.9,312.7z"/>
	<path class="st0" d="M166.3,312.2v0.4l-2.1,0.5v-0.8c0,0-0.5,0.7-1.5,0.9c-1.9,0.3-3.6-0.9-3.7-3.3c-0.2-2.5,1.3-4.5,3.7-4.4
		c0.5,0,1.6,0.5,1.6,0.5l0-4.3l-1.2-0.1v-0.4l2.1-0.3v11.3L166.3,312.2z M164.2,311.9v-5.5c0,0-1.1-0.2-1.6-0.2
		c-1.5,0-2.9,1.7-2.6,3.9c0.3,2.3,1.9,2.7,2.8,2.6C163.6,312.5,164.2,311.9,164.2,311.9z"/>
	<path class="st0" d="M173.3,312.4v0.3l-1.1,0.6c-0.4,0-0.8-0.4-0.8-0.9c-0.4,0.2-1.5,1-2.4,1c-1.2,0-2-0.8-2-1.9
		c0-1.1,0.6-1.8,1.6-2.1c0.9-0.2,2.6-0.7,2.9-0.8c0-1.7-0.4-3-2.6-2.5l-0.5,1.2h-0.8c0,0,0-1,0-1c0.3-0.3,1-0.8,2.2-0.8
		c2.7,0,2.7,2,2.7,3.3v3.4C172.4,312.6,173.3,312.4,173.3,312.4z M171.4,311.9V309l-2.2,0.7c-0.6,0.2-1.2,0.7-1.2,1.7
		c0,1.1,0.9,1.5,1.7,1.3C170.7,312.4,171.4,311.9,171.4,311.9z"/>
	<path class="st0" d="M178.8,305.8v1h-0.8l-0.5-0.7c-0.6,0-1.7,1.1-1.7,1.1v5.1l1.5,0.3v0.4h-3.6v-0.4l1.2-0.3l0-5.9l-1.2-0.2v-0.4
		l1.9-0.3l0.3,1.2c0,0,0.8-0.8,0.9-1C177.6,305.1,178.8,305.7,178.8,305.8z"/>
	<path class="st0" d="M186.3,312.2v0.4l-2.1,0.5v-0.8c0,0-0.5,0.7-1.5,0.9c-1.9,0.3-3.6-0.9-3.7-3.3c-0.2-2.5,1.3-4.5,3.7-4.4
		c0.5,0,1.6,0.5,1.6,0.5l0-4.3l-1.2-0.1v-0.4l2.1-0.3v11.3L186.3,312.2z M184.2,311.9v-5.5c0,0-1.1-0.2-1.6-0.2
		c-1.5,0-2.9,1.7-2.6,3.9c0.3,2.3,1.9,2.7,2.8,2.6C183.7,312.5,184.2,311.9,184.2,311.9z"/>
	<path class="st0" d="M197.1,311.1c0,0.7-0.3,2.2-2.6,2.3c-1.2,0-2.3-0.6-2.6-0.8c0,0,0-1.3,0-1.3h0.8l0.4,1.1
		c2,1.1,3.2-0.3,3.1-1.3c-0.2-1.5-2.2-1.3-3.4-2.2c-0.9-0.7-0.9-1.5-0.9-1.8c0.2-1.3,1.3-1.8,2.7-1.8c1.1,0,1.8,0.4,2.2,0.8
		c0,0,0,1,0,1H196l-0.6-1.2c-1.2-0.4-2.7,0.1-2.6,1.4c0.1,0.8,1.1,1.1,2,1.4C195.4,309,197,309.3,197.1,311.1z"/>
	<path class="st0" d="M205.5,305.6v0.4l-1,0.2l-3.9,9.2c-0.9,1.8-2.7,1.3-2.7,1.3v-1.4h0.7l0.6,0.6c0,0,0.4,0,0.7-0.6l1.1-2.4
		l-2.6-6.7l-1.1-0.2v-0.4h3.3v0.4l-1.1,0.2l2,5.5l2.2-5.5l-1.1-0.2v-0.4H205.5z"/>
	<path class="st0" d="M217.5,312.7v0.4H214v-0.4l1.2-0.3V311v-2.8c0-1.4-1-2.1-1.9-1.8c-0.6,0.2-1.1,0.6-1.2,0.6
		c0.1,0.2,0.1,0.5,0.1,0.8v4.7l1.2,0.3v0.4H210v-0.4l1.2-0.3h0V311v-2.8c0-1.4-1-2.1-1.9-1.8c-0.8,0.3-1.2,0.6-1.2,0.6v5.4l1.2,0.3
		v0.4h-3.4v-0.4l1.2-0.3v-5.9l-1.1-0.2v-0.4l1.8-0.4l0.3,1c0,0,0.2-0.1,1.2-0.8c0.9-0.6,2.1-0.1,2.7,0.9c0,0,0.5-0.3,1.4-0.9
		c1.2-0.8,3,0.3,3,2v4.7L217.5,312.7z"/>
	<path class="st0" d="M224.6,310c-0.3,2.6-2.4,3.5-3.9,3.3c-0.8-0.1-1.2-0.3-1.4-0.5l-0.5,0.4h-0.3v-11.4l-1.2-0.2v-0.4l2.2-0.3v5.2
		c0.1-0.1,1.1-0.4,1.6-0.5C223.3,305.5,224.9,307.5,224.6,310z M221,306.1c-0.4,0-1.4,0.2-1.5,0.2v5.9c0.3,0.2,0.8,0.5,1.4,0.5
		c0.9,0,2.4-0.4,2.7-2.7C223.8,307.7,222.5,306.1,221,306.1z"/>
	<path class="st0" d="M232.6,309.5c-0.1,2.2-1.8,3.8-3.8,3.7c-2-0.1-3.6-1.9-3.5-4.1c0.1-2.2,1.8-3.8,3.8-3.7
		C231.2,305.5,232.7,307.3,232.6,309.5z M231.6,309.3c0-1.9-1.1-3.3-2.8-3.2c-1.6,0-2.5,1.4-2.5,3.4c0,1.9,0.9,3.3,2.7,3.2
		C230.7,312.6,231.6,311.1,231.6,309.3z"/>
	<path class="st0" d="M234.9,300.9v11.6l1.2,0.2v0.4h-3.4v-0.4l1.2-0.2v-10.6l-1.3-0.2v-0.4L234.9,300.9z"/>
	<path class="st0" d="M242,311.1c0,0.7-0.3,2.2-2.6,2.3c-1.2,0-2.3-0.6-2.6-0.8c0,0,0-1.3,0-1.3h0.8l0.4,1.1c2,1.1,3.2-0.3,3.1-1.3
		c-0.2-1.5-2.2-1.3-3.4-2.2c-0.9-0.7-0.9-1.5-0.9-1.8c0.2-1.3,1.3-1.8,2.7-1.8c1.1,0,1.8,0.4,2.2,0.8c0,0,0,1,0,1H241l-0.6-1.2
		c-1.2-0.4-2.7,0.1-2.6,1.4c0.1,0.8,1.1,1.1,2,1.4C240.4,309,242,309.3,242,311.1z"/>
</g>
</svg>
