<?xml version="1.0" encoding="utf-8"?>
<!-- Generator: Adobe Illustrator 23.0.1, SVG Export Plug-In . SVG Version: 6.00 Build 0)  -->
<svg version="1.1" id="Layer_1" xmlns="http://www.w3.org/2000/svg" xmlns:xlink="http://www.w3.org/1999/xlink" x="0px" y="0px"
	 viewBox="0 0 656 385" style="enable-background:new 0 0 656 385;" xml:space="preserve">
<style type="text/css">
	.st0{fill:#FFFFFF;}
	.st1{fill:#FCF6F5;}
	.st2{fill:#F3B5AE;}
	.st3{fill:#EE786C;}
	.st4{fill:#F04E34;}
	.st5{stroke:#FFFFFF;stroke-miterlimit:10;}
	.st6{fill:#FAED23;}
	.st7{fill:#2D2B2A;}
	.st8{fill:none;stroke:#FFFFFF;stroke-width:0.5;stroke-miterlimit:10;}
	.st9{fill:none;stroke:#000000;stroke-width:2.1805;}
</style>
<g>
	<path class="st0" d="M191.4,220.6h-55.2c-4.4,1.1-9.1,1.5-13.8,0.9c-21.7-2.5-38.8-23.7-36.5-47.5c2.3-24,23.2-41.5,45.2-38.9
		c2.4,0.3,4.8,0.8,7.1,1.5h55.9l-0.6,19.1h-4.1l-4.7-13.4h-32.5v33.1h19.3l3.3-10.7h2.8v26.9h-2.8l-3.3-10.5h-19.3v33.8h31.4
		l7.9-14.8h4.1L191.4,220.6z M141.7,211.9v-67.8c-4.1-2.8-9-4.4-14.3-4.4c-17.3,0-29.5,15.8-29.6,38.5
		c-0.1,20.7,12.7,38.4,29.2,38.7C132.5,216.9,137.5,215.1,141.7,211.9z"/>
	<path class="st0" d="M348.5,200.1l-4.1,20.5H285v-4l9.7-1.9V194h-30.4l-12.4,20.8l9.8,1.8v4h-29.1v-4l10.5-1.9l43.9-73.3l-6.5-0.8
		v-4h66.6l-0.6,19.1h-4.1l-4.7-13.4h-32.5v33.1h19.3l3.3-10.7h2.8v26.9h-2.8l-3.3-10.5h-19.3v33.8h31.4l7.9-14.8L348.5,200.1
		L348.5,200.1z M294.7,188.5v-45.4l-27.1,45.4H294.7z M317.1,113.2c2.3-2.2,5.3-3.9,7.6-0.9c2.3,3.1,0.2,5.8-2.2,7.4
		c-2.3,1.5-17.1,10-17.1,10l-1.3-1.7C304.1,128,315.1,115.3,317.1,113.2z"/>
	<path class="st0" d="M470.1,216.6v4h-29.6v-4l8.9-1.9l-8.8-20.7h-30.5l-8.3,20.7l10.2,1.9v4h-27.5v-4l10.6-1.9l30.7-79.2h2.2
		l32.5,79.2L470.1,216.6z M438.4,188.5l-13.8-33.7l-13,33.7H438.4z M416.8,119.8c0-5.8,4.2-10.6,10.1-10.6c5.8,0,10,4.8,10,10.6
		c0,5.9-4.2,10.7-10,10.7C421,130.5,416.8,125.8,416.8,119.8z M421.1,119.8c0,3.6,2.4,6.4,5.8,6.4c3.5,0,5.8-2.7,5.8-6.4
		c0-3.4-2.3-6.3-5.8-6.3C423.5,113.6,421.1,116.4,421.1,119.8z"/>
	<path class="st0" d="M528.3,214.6l10.5,1.9v4h-31.1v-4l10.4-1.9v-72.1l-10.4-1.9v-4h31.1v4l-10.5,1.9v7.3h11.5
		c20.9,0,30.5,10.2,30.6,25c0.1,16.6-13.5,26.6-36.2,26.6h-5.9V214.6z M528.3,153.8v42.4h3.2c16.7,0,27.7-5.1,27.5-21.3
		c-0.1-14.1-12.1-21.2-23-21.2L528.3,153.8L528.3,153.8z"/>
</g>
<line class="st8" x1="133.5" y1="279.9" x2="522.5" y2="279.9"/>
<g>
	<path class="st0" d="M136.2,300.9v11.6l1.2,0.2v0.4H134v-0.4l1.2-0.2v-10.6l-1.3-0.2v-0.4L136.2,300.9z"/>
	<path class="st0" d="M144.5,312.4v0.3l-1.1,0.6c-0.4,0-0.8-0.4-0.8-0.9c-0.4,0.2-1.5,1-2.4,1c-1.2,0-2-0.8-2-1.9
		c0-1.1,0.6-1.8,1.6-2.1c0.9-0.2,2.6-0.7,2.9-0.8c0-1.7-0.4-3-2.6-2.5l-0.5,1.2h-0.8c0,0,0-1,0-1c0.3-0.3,1-0.8,2.2-0.8
		c2.7,0,2.7,2,2.7,3.3v3.4C143.6,312.6,144.5,312.4,144.5,312.4z M142.6,311.9V309l-2.2,0.7c-0.6,0.2-1.2,0.7-1.2,1.7
		c0,1.1,0.9,1.5,1.7,1.3C141.9,312.4,142.6,311.9,142.6,311.9z"/>
	<path class="st0" d="M153.1,312.7v0.4h-3.4v-0.4l1.2-0.2V311v-2.8c0-2-1.5-2.1-2.2-1.8l-1.6,0.5v5.7l1.2,0.2v0.4h-3.4v-0.4l1.2-0.2
		v-6l-1.1-0.2v-0.4l1.8-0.4l0.3,0.9l1.3-0.7c1.5-0.8,3.5-0.1,3.5,2.3c0,1.1,0,3.5,0,4.4L153.1,312.7z"/>
	<path class="st0" d="M160.5,305.7l-1.6,0.8l0,0.1c0.4,0.5,0.5,1.1,0.5,1.8c0,1.6-1.3,2.9-2.8,2.9c-0.5,0-0.8-0.1-1-0.2l-0.6,0.8
		l3.6,0.7c1,0.2,1.5,0.6,1.7,1.2c0.4,1.2-0.8,3.2-3.9,3c-2.9-0.2-3.4-2.5-3.3-2.9l1.9-1l-1.3-0.7v-0.1l1.4-1.2
		c-1-0.6-1.5-1.5-1.5-2.6c0-1.6,1.3-3,2.9-3c0.8,0,1.5,0.3,2,0.9c0.3-0.2,0.4-0.5,0.4-0.7h1.5V305.7z M155.5,313
		c0,0-1.2,0.5-1.2,1.5c0,0.6,0.8,1.6,2.2,1.7c1.4,0.1,2.6-0.4,2.9-1.1c0.2-0.5,0.1-1.3-1.4-1.6L155.5,313z M158.4,308.2
		c0-1.3-0.9-2.3-1.8-2.3c-1.1-0.1-1.9,1.2-1.8,2.5c0,1.4,0.9,2.3,1.9,2.3C157.9,310.7,158.5,309.6,158.4,308.2z"/>
	<path class="st0" d="M169,312.2v0.4l-2.1,0.6v-1.1c-0.5,0.3-1.7,1.1-1.9,1.1c-0.9,0-2.8,0.1-2.8-3v-3.8l-1.2-0.2v-0.4l2.2-0.3v4.8
		c0,2,1,2.2,2,2.1c0.6-0.1,1.7-0.7,1.7-0.7v-5.3l-1.2-0.2v-0.4l2.2-0.3v6.6L169,312.2z"/>
	<path class="st0" d="M175.8,312.4v0.3l-1.1,0.6c-0.4,0-0.8-0.4-0.8-0.9c-0.4,0.2-1.5,1-2.4,1c-1.2,0-2-0.8-2-1.9
		c0-1.1,0.6-1.8,1.6-2.1c0.9-0.2,2.6-0.7,2.9-0.8c0-1.7-0.4-3-2.6-2.5l-0.5,1.2H170c0,0,0-1,0-1c0.3-0.3,1-0.8,2.2-0.8
		c2.7,0,2.7,2,2.7,3.3v3.4C174.9,312.6,175.8,312.4,175.8,312.4z M173.9,311.9V309l-2.2,0.7c-0.6,0.2-1.2,0.7-1.2,1.7
		c0,1.1,0.9,1.5,1.7,1.3C173.2,312.4,173.9,311.9,173.9,311.9z"/>
	<path class="st0" d="M183.5,305.7l-1.6,0.8l0,0.1c0.4,0.5,0.5,1.1,0.5,1.8c0,1.6-1.3,2.9-2.8,2.9c-0.5,0-0.8-0.1-1-0.2l-0.6,0.8
		l3.6,0.7c1,0.2,1.5,0.6,1.7,1.2c0.4,1.2-0.8,3.2-3.9,3c-2.9-0.2-3.4-2.5-3.3-2.9l1.9-1l-1.3-0.7v-0.1l1.4-1.2
		c-1-0.6-1.5-1.5-1.5-2.6c0-1.6,1.3-3,2.9-3c0.8,0,1.5,0.3,2,0.9c0.3-0.2,0.4-0.5,0.4-0.7h1.5V305.7z M178.5,313
		c0,0-1.2,0.5-1.2,1.5c0,0.6,0.8,1.6,2.2,1.7c1.4,0.1,2.6-0.4,2.9-1.1c0.2-0.5,0.1-1.3-1.4-1.6L178.5,313z M181.4,308.2
		c0-1.3-0.8-2.3-1.8-2.3c-1.1-0.1-1.9,1.2-1.8,2.5c0,1.4,0.9,2.3,1.9,2.3C180.9,310.7,181.4,309.6,181.4,308.2z"/>
	<path class="st0" d="M189.6,312.1l0.1,0.4c0,0-1.1,0.8-2.5,0.8c-2.5-0.1-3.6-2.2-3.5-3.9c0-2.3,1.6-3.9,3.4-4
		c2.2-0.1,3.1,1.8,3.1,3.1h-5.3c-0.3,3.1,1.5,4.1,2.9,4.1C188.9,312.6,189.6,312.1,189.6,312.1z M184.8,308.1l4.2-0.2
		c0,0-0.2-2.1-2-1.9C185.3,306.1,184.8,308.1,184.8,308.1z"/>
	<path class="st0" d="M200.9,311.1c0,0.7-0.3,2.2-2.6,2.3c-1.2,0-2.3-0.6-2.6-0.8c0,0,0-1.3,0-1.3h0.8l0.4,1.1
		c2,1.1,3.2-0.3,3.1-1.3c-0.2-1.5-2.2-1.3-3.4-2.2c-0.9-0.7-0.9-1.5-0.9-1.8c0.2-1.3,1.3-1.8,2.7-1.8c1.1,0,1.8,0.4,2.2,0.8
		c0,0,0,1,0,1h-0.7l-0.6-1.2c-1.2-0.4-2.7,0.1-2.6,1.4c0.1,0.8,1.1,1.1,2,1.4C199.2,309,200.9,309.3,200.9,311.1z"/>
	<path class="st0" d="M209.4,312.2v0.4l-2.1,0.6v-1.1c-0.5,0.3-1.7,1.1-1.9,1.1c-0.9,0-2.8,0.1-2.8-3v-3.8l-1.2-0.2v-0.4l2.2-0.3
		v4.8c0,2,1,2.2,2,2.1c0.6-0.1,1.7-0.7,1.7-0.7v-5.3l-1.2-0.2v-0.4l2.2-0.3v6.6L209.4,312.2z"/>
	<path class="st0" d="M213.1,313.2c-0.9-0.1-1.4-0.7-1.4-0.7v3.3l1.5,0.2v0.4h-3.7V316l1.2-0.2v-9.5l-1.2,0v-0.4l1.9-0.4l0.3,0.9
		l1.1-0.9c2-0.5,4.1,1,4.2,3.5C217.2,311.6,215.4,313.5,213.1,313.2z M216,309.3c0-2.9-2.6-3.7-3.6-2.8l-0.7,0.6v4.8
		c0,0,0.3,0.5,1.2,0.7C214.6,312.8,216,311.6,216,309.3z"/>
	<path class="st0" d="M220.8,313.2c-0.9-0.1-1.4-0.7-1.4-0.7v3.3l1.5,0.2v0.4h-3.7V316l1.2-0.2v-9.5l-1.2,0v-0.4l1.9-0.4l0.3,0.9
		l1.1-0.9c2-0.5,4.1,1,4.2,3.5C224.9,311.6,223.1,313.5,220.8,313.2z M223.7,309.3c0-2.9-2.6-3.7-3.6-2.8l-0.7,0.6v4.8
		c0,0,0.3,0.5,1.2,0.7C222.3,312.8,223.7,311.6,223.7,309.3z"/>
	<path class="st0" d="M232.7,309.5c-0.1,2.2-1.8,3.8-3.8,3.7c-2-0.1-3.6-1.9-3.5-4.1c0.1-2.2,1.8-3.8,3.8-3.7
		C231.3,305.5,232.8,307.3,232.7,309.5z M231.7,309.3c0-1.9-1.1-3.3-2.8-3.2c-1.6,0-2.5,1.4-2.5,3.4c0,1.9,0.9,3.3,2.7,3.2
		C230.8,312.6,231.6,311.1,231.7,309.3z"/>
	<path class="st0" d="M238,305.8v1h-0.8l-0.5-0.7c-0.6,0-1.7,1.1-1.7,1.1v5.1l1.5,0.3v0.4h-3.6v-0.4l1.2-0.3l0-5.9l-1.2-0.2v-0.4
		l1.9-0.3l0.3,1.2c0,0,0.8-0.8,0.9-1C236.8,305.1,238,305.7,238,305.8z"/>
	<path class="st0" d="M239.8,306.1h-1.1v-0.5c0,0,0.9-0.1,1.2-0.6c0.3-0.5,0.4-1.3,0.4-1.3h0.5v1.9h1.4v0.5h-1.4v5.6
		c0,1.3,1.4,1.2,1.4,1.2v0.2c0,0-0.3,0.1-1,0.1c-0.9,0-1.4-0.5-1.4-1.5V306.1z"/>
</g>
</svg>
