<?xml version="1.0" encoding="utf-8"?>
<!-- Generator: Adobe Illustrator 23.0.1, SVG Export Plug-In . SVG Version: 6.00 Build 0)  -->
<svg version="1.1" id="Layer_1" xmlns="http://www.w3.org/2000/svg" xmlns:xlink="http://www.w3.org/1999/xlink" x="0px" y="0px"
	 viewBox="0 0 656 385" style="enable-background:new 0 0 656 385;" xml:space="preserve">
<style type="text/css">
	.st0{fill:#FFFFFF;}
	.st1{fill:#FCF6F5;}
	.st2{fill:#F3B5AE;}
	.st3{fill:#EE786C;}
	.st4{fill:#F04E34;}
	.st5{stroke:#FFFFFF;stroke-miterlimit:10;}
	.st6{fill:#FAED23;}
	.st7{fill:#2D2B2A;}
	.st8{fill:none;stroke:#FFFFFF;stroke-width:0.5;stroke-miterlimit:10;}
	.st9{fill:none;stroke:#000000;stroke-width:2.1805;}
</style>
<g>
	<path class="st0" d="M166.4,180.9h-18.1v-2.5l5.3-1.1v-34.9l-5.3,0.7v-2.7l9.8-2.8h3v39.8l5.3,1.1V180.9z M219.6,137.5l-61.8,84
		h-7.7l61.8-84H219.6z M213.4,217.8l5.5,1.1v2.5h-18.2v-2.5l5.3-1.1v-6h-17.6v-2.4l21.4-31.4h3.6v29.7h5v4.1h-5L213.4,217.8
		L213.4,217.8z M205.9,207.7v-17.9l-12.2,17.9H205.9z"/>
	<path class="st0" d="M355.7,137.5l-61.8,84h-7.7l61.8-84H355.7z M305.4,180.9h-18.1v-2.5l5.3-1.1v-34.9l-5.3,0.7v-2.7l9.8-2.8h3
		v39.8l5.3,1.1L305.4,180.9L305.4,180.9z M362,209.2l-2.7,12.3H333v-5.7c0,0,8.1-8.3,12.2-13c6-6.9,7.7-10.2,7.6-15.1
		c-0.1-4.9-3.2-7.5-6.7-7.5c-1.9,0-3.9,0.5-5.6,1.6l-2,5.8h-5.3l-0.5-6c1.6-1.3,6.1-4.7,13.4-4.6c9.3,0.1,14.8,4.3,14.6,10.9
		c-0.2,6.1-8.3,13.4-12.4,17.5c-2.8,2.8-6.4,6.5-9.2,9.6h17.3l3.4-5.8H362z"/>
	<path class="st0" d="M444.1,182.5c-8.4,0-13.3-5-14-9c-1.3-7.1,7.7-6.7,7.7-6.7c-3.2,6.4,0.5,12.3,6.4,12.3c5.5,0,8.2-4.7,8.3-9.3
		c0.1-6.9-6.9-9.8-9.9-10v-2c4.6-0.9,8.6-4.6,9.1-9c0.6-5.8-4.1-8.4-7.5-8.4c-1.9,0-3.4,0.3-5,1.7l-2.6,5.2h-5c0,0-0.3-5.5-0.5-5.6
		c1.7-1.4,6-4.2,12.5-4.2c6.9,0,14.6,2.8,15.2,10.6c0.3,3.6-1.9,9.3-8.1,10.6c5.9,1.1,9.3,6.6,8.9,11.9
		C459,178.2,451.9,182.5,444.1,182.5z M507.7,137.5l-61.8,84h-7.7l61.8-84H507.7z M501.5,217.8l5.5,1.1v2.5h-18.2v-2.5l5.3-1.1v-6
		h-17.6v-2.4l21.4-31.4h3.6v29.7h5v4.1h-5V217.8z M494.1,207.7v-17.9l-12.2,17.9H494.1z"/>
</g>
<line class="st8" x1="133.5" y1="279.9" x2="522.5" y2="279.9"/>
<g>
	<path class="st0" d="M139.3,301.3v0.8h-0.8l-0.4-0.9c-1,0-2,0.6-2,2.6v1.7h2.1v0.5h-2.1v6.4l1.5,0.2v0.4h-3.7v-0.4l1.2-0.2v-6.4
		h-0.9v-0.5h0.9V304c0-1.8,1.1-3.2,2.7-3.2C138.5,300.9,139.3,301.3,139.3,301.3z"/>
	<path class="st0" d="M144.2,305.8v1h-0.8l-0.5-0.7c-0.6,0-1.7,1.1-1.7,1.1v5.1l1.5,0.3v0.4h-3.6v-0.4l1.2-0.3l0-5.9l-1.2-0.2v-0.4
		l1.9-0.3l0.3,1.2c0,0,0.8-0.8,0.9-1C143,305.1,144.2,305.7,144.2,305.8z"/>
	<path class="st0" d="M151.1,312.4v0.3l-1.1,0.6c-0.4,0-0.8-0.4-0.8-0.9c-0.4,0.2-1.5,1-2.4,1c-1.2,0-2-0.8-2-1.9
		c0-1.1,0.6-1.8,1.6-2.1c0.9-0.2,2.6-0.7,2.9-0.8c0-1.7-0.4-3-2.6-2.5l-0.5,1.2h-0.8c0,0,0-1,0-1c0.3-0.3,1-0.8,2.2-0.8
		c2.7,0,2.7,2,2.7,3.3v3.4C150.2,312.6,151.1,312.4,151.1,312.4z M149.2,311.9V309l-2.2,0.7c-0.6,0.2-1.2,0.7-1.2,1.7
		c0,1.1,0.9,1.5,1.7,1.3C148.5,312.4,149.2,311.9,149.2,311.9z"/>
	<path class="st0" d="M151.4,309.4c0-2.8,2.1-4.1,3.6-4.1c1.1,0,1.9,0.4,2.2,0.7l0,1.1l-0.7,0l-0.5-1.1c-0.2,0-0.5-0.1-0.7-0.1
		c-1.8,0-2.8,1.5-2.8,3.5c0,2,1.2,3.3,3,3.2c1.1,0,2-0.6,2-0.6l0.1,0.5c0,0-1.1,0.8-2.5,0.8C153.4,313.2,151.4,312,151.4,309.4z"/>
	<path class="st0" d="M159.1,306.1H158v-0.5c0,0,0.9-0.1,1.2-0.6c0.3-0.5,0.4-1.3,0.4-1.3h0.5v1.9h1.4v0.5h-1.4v5.6
		c0,1.3,1.4,1.2,1.4,1.2v0.2c0,0-0.3,0.1-1,0.1c-0.9,0-1.4-0.5-1.4-1.5V306.1z"/>
	<path class="st0" d="M165.6,312.7v0.4h-3.4v-0.4l1.2-0.3v-5.9l-1.2-0.1V306l2.1-0.4v6.9L165.6,312.7z M163.1,303.1
		c0-0.4,0.3-0.7,0.7-0.7c0.4,0,0.8,0.3,0.8,0.7s-0.3,0.7-0.8,0.7C163.5,303.9,163.1,303.5,163.1,303.1z"/>
	<path class="st0" d="M173.1,309.5c-0.1,2.2-1.8,3.8-3.8,3.7c-2-0.1-3.6-1.9-3.5-4.1c0.1-2.2,1.8-3.8,3.8-3.7
		C171.7,305.5,173.2,307.3,173.1,309.5z M172.1,309.3c0-1.9-1.1-3.3-2.8-3.2c-1.6,0-2.5,1.4-2.5,3.4c0,1.9,0.9,3.3,2.7,3.2
		C171.2,312.6,172.1,311.1,172.1,309.3z"/>
	<path class="st0" d="M181.5,312.7v0.4h-3.4v-0.4l1.2-0.2V311v-2.8c0-2-1.5-2.1-2.2-1.8l-1.6,0.5v5.7l1.2,0.2v0.4h-3.4v-0.4l1.2-0.2
		v-6l-1.1-0.2v-0.4l1.8-0.4l0.3,0.9l1.3-0.7c1.5-0.8,3.5-0.1,3.5,2.3c0,1.1,0,3.5,0,4.4L181.5,312.7z"/>
	<path class="st0" d="M187.2,311.1c0,0.7-0.3,2.2-2.6,2.3c-1.2,0-2.3-0.6-2.6-0.8c0,0,0-1.3,0-1.3h0.8l0.4,1.1
		c2,1.1,3.2-0.3,3.1-1.3c-0.2-1.5-2.2-1.3-3.4-2.2c-0.9-0.7-0.9-1.5-0.9-1.8c0.2-1.3,1.3-1.8,2.7-1.8c1.1,0,1.8,0.4,2.2,0.8
		c0,0,0,1,0,1h-0.7l-0.6-1.2c-1.2-0.4-2.7,0.1-2.6,1.4c0.1,0.8,1.1,1.1,2,1.4C185.6,309,187.2,309.3,187.2,311.1z"/>
</g>
</svg>
