<?xml version="1.0" encoding="utf-8"?>
<!-- Generator: Adobe Illustrator 23.0.1, SVG Export Plug-In . SVG Version: 6.00 Build 0)  -->
<svg version="1.1" id="Layer_1" xmlns="http://www.w3.org/2000/svg" xmlns:xlink="http://www.w3.org/1999/xlink" x="0px" y="0px"
	 viewBox="0 0 656 385" style="enable-background:new 0 0 656 385;" xml:space="preserve">
<style type="text/css">
	.st0{fill:#FFFFFF;}
	.st1{fill:#FCF6F5;}
	.st2{fill:#F3B5AE;}
	.st3{fill:#EE786C;}
	.st4{fill:#F04E34;}
	.st5{stroke:#FFFFFF;stroke-miterlimit:10;}
	.st6{fill:#FAED23;}
	.st7{fill:#2D2B2A;}
	.st8{fill:none;stroke:#FFFFFF;stroke-width:0.5;stroke-miterlimit:10;}
	.st9{fill:none;stroke:#000000;stroke-width:2.1805;}
</style>
<g>
	<path class="st0" d="M170.7,129.8c-0.1,2.7-2.2,4.8-4.9,4.8s-3.8-2.2-3.8-4.9c0-1.3,0.2-2.4,0.7-3.3h-0.1
		c-3.9-1.1-8.6,2.3-9.1,14.3l-2.3,60.9c-0.5,11.8-5.5,18.3-16,18.3c-10.9,0-10.6-6.5-10.6-7.1c0.1-2.7,2.2-4.8,4.9-4.8
		s3.8,2.2,3.8,4.9c0,1.3-0.2,2.4-0.7,3.3h0.1c3.9,1.1,8.6-2.3,9.1-14.3l2.3-60.9c0.5-11.8,5.5-18.3,16-18.3
		C171,122.7,170.7,129.2,170.7,129.8z"/>
	<path class="st0" d="M280.3,200.2l-2.3,24.7h-58.4v-9.8l28.6-38.2l-28.6-44.3v-5.2H278l1.1,23.6h-5.5l-6.9-18.3h-34.5l25.8,39.9
		l-28,42.5h39.3l5.6-14.9H280.3z"/>
	<path class="st0" d="M397.7,203.8c-5.6,0.1-10.8-1.9-14.9-5.7l-9.3-10.1l-8.9,9c-3.9,4.1-9.1,6.4-14.7,6.5
		c-11.6,0.1-21.1-9-21.3-20.6c-0.2-11.5,9-21.2,20.5-21.3c5.7-0.1,10.9,1.9,14.9,5.8l9.4,10.1l8.9-9.1c3.9-4.1,9.1-6.4,14.7-6.5
		c11.5-0.1,21.1,9.1,21.3,20.6C418.5,194.2,409.2,203.7,397.7,203.8z M349.3,168.8c-7.6,0.1-13.7,6.5-13.5,14
		c0.1,7.6,6.4,13.7,14,13.5c3.6-0.1,7.1-1.5,9.6-4.2l9.1-9.3l-9.4-10.2C356.4,170.2,352.9,168.7,349.3,168.8z M387.8,192.9
		c2.7,2.5,6.1,3.9,9.8,3.8c7.6-0.1,13.7-6.4,13.5-14c-0.1-7.5-6.4-13.7-14-13.5c-3.6,0.1-7.2,1.6-9.8,4.3l-9,9.3L387.8,192.9z"/>
	<path class="st0" d="M531.4,169.2c0,23.7-14.1,42.1-31.8,42.1c-5.3,0-10.4-1.6-14.7-4.6l-3.3,6.9l-4.2-1.9l3.8-8
		c-8.2-7.5-13.5-20-13.5-34.6c0-23.6,14.1-41.9,32-41.9c5.5,0,10.7,1.8,15.1,4.9l3-6.3l4.2,1.9l-3.5,7.4
		C526.2,142.8,531.4,155.1,531.4,169.2z M484.7,196.3l27.1-57.8c-3.3-4.2-7.5-6.6-12.2-6.6c-12.5,0-21.1,16.4-21.1,37.3
		C478.6,180.1,480.8,189.6,484.7,196.3z M520.6,169.2c0-10.4-2.2-19.5-5.7-26.2l-27.1,57.7c3.3,3.8,7.3,5.9,11.8,5.9
		C511.8,206.7,520.6,190.3,520.6,169.2z"/>
</g>
<line class="st8" x1="133.5" y1="279.9" x2="522.5" y2="279.9"/>
<g>
	<path class="st0" d="M145.8,312.7v0.4h-3.4v-0.4l1.2-0.3V311v-2.8c0-1.4-1-2.1-1.9-1.8c-0.6,0.2-1.1,0.6-1.2,0.6
		c0.1,0.2,0.1,0.5,0.1,0.8v4.7l1.2,0.3v0.4h-3.4v-0.4l1.2-0.3h0V311v-2.8c0-1.4-1-2.1-1.9-1.8c-0.8,0.3-1.2,0.6-1.2,0.6v5.4l1.2,0.3
		v0.4h-3.4v-0.4l1.2-0.3v-5.9l-1.1-0.2v-0.4l1.8-0.4l0.3,1c0,0,0.2-0.1,1.2-0.8c0.9-0.6,2.1-0.1,2.7,0.9c0,0,0.5-0.3,1.4-0.9
		c1.2-0.8,3,0.3,3,2v4.7L145.8,312.7z"/>
	<path class="st0" d="M152.4,312.4v0.3l-1.1,0.6c-0.4,0-0.8-0.4-0.8-0.9c-0.4,0.2-1.5,1-2.4,1c-1.2,0-2-0.8-2-1.9
		c0-1.1,0.6-1.8,1.6-2.1c0.9-0.2,2.6-0.7,2.9-0.8c0-1.7-0.4-3-2.6-2.5l-0.5,1.2h-0.8c0,0,0-1,0-1c0.3-0.3,1-0.8,2.2-0.8
		c2.7,0,2.7,2,2.7,3.3v3.4C151.4,312.6,152.4,312.4,152.4,312.4z M150.5,311.9V309l-2.2,0.7c-0.6,0.2-1.2,0.7-1.2,1.7
		c0,1.1,0.9,1.5,1.7,1.3C149.8,312.4,150.5,311.9,150.5,311.9z"/>
	<path class="st0" d="M153.7,306.1h-1.1v-0.5c0,0,0.9-0.1,1.2-0.6c0.3-0.5,0.4-1.3,0.4-1.3h0.5v1.9h1.4v0.5h-1.4v5.6
		c0,1.3,1.4,1.2,1.4,1.2v0.2c0,0-0.3,0.1-1,0.1c-0.9,0-1.4-0.5-1.4-1.5V306.1z"/>
	<path class="st0" d="M164.9,312.7v0.4h-3.4v-0.4l1.2-0.2v-4.4c0-1.6-1.2-2-2.2-1.8l-1.6,0.4v5.7l1.2,0.2v0.4h-3.4v-0.4l1.2-0.2
		l0-10.6l-1.1-0.4v-0.3l2.1-0.3v5.5l1.7-0.8c1.1-0.5,3.2,0.2,3.2,2.4v4.5L164.9,312.7z"/>
	<path class="st0" d="M170.9,312.1l0.1,0.4c0,0-1.1,0.8-2.5,0.8c-2.5-0.1-3.6-2.2-3.5-3.9c0-2.3,1.6-3.9,3.4-4
		c2.2-0.1,3.1,1.8,3.1,3.1H166c-0.3,3.1,1.5,4.1,2.9,4.1C170.2,312.6,170.9,312.1,170.9,312.1z M166.1,308.1l4.2-0.2
		c0,0-0.2-2.1-2-1.9C166.6,306.1,166.1,308.1,166.1,308.1z"/>
	<path class="st0" d="M183.3,312.7v0.4h-3.4v-0.4l1.2-0.3V311v-2.8c0-1.4-1-2.1-1.9-1.8c-0.6,0.2-1.1,0.6-1.2,0.6
		c0.1,0.2,0.1,0.5,0.1,0.8v4.7l1.2,0.3v0.4h-3.4v-0.4l1.2-0.3h0V311v-2.8c0-1.4-1-2.1-1.9-1.8c-0.8,0.3-1.2,0.6-1.2,0.6v5.4l1.2,0.3
		v0.4h-3.4v-0.4l1.2-0.3v-5.9l-1.1-0.2v-0.4l1.8-0.4l0.3,1c0,0,0.2-0.1,1.2-0.8c0.9-0.6,2.1-0.1,2.7,0.9c0,0,0.5-0.3,1.4-0.9
		c1.2-0.8,3,0.3,3,2v4.7L183.3,312.7z"/>
	<path class="st0" d="M189.9,312.4v0.3l-1.1,0.6c-0.4,0-0.8-0.4-0.8-0.9c-0.4,0.2-1.5,1-2.4,1c-1.2,0-2-0.8-2-1.9
		c0-1.1,0.6-1.8,1.6-2.1c0.9-0.2,2.6-0.7,2.9-0.8c0-1.7-0.4-3-2.6-2.5l-0.5,1.2h-0.8c0,0,0-1,0-1c0.3-0.3,1-0.8,2.2-0.8
		c2.7,0,2.7,2,2.7,3.3v3.4C189,312.6,189.9,312.4,189.9,312.4z M188,311.9V309l-2.2,0.7c-0.6,0.2-1.2,0.7-1.2,1.7
		c0,1.1,0.9,1.5,1.7,1.3C187.3,312.4,188,311.9,188,311.9z"/>
	<path class="st0" d="M191.3,306.1h-1.1v-0.5c0,0,0.9-0.1,1.2-0.6c0.3-0.5,0.4-1.3,0.4-1.3h0.5v1.9h1.4v0.5h-1.4v5.6
		c0,1.3,1.4,1.2,1.4,1.2v0.2c0,0-0.3,0.1-1,0.1c-0.9,0-1.4-0.5-1.4-1.5V306.1z"/>
	<path class="st0" d="M197.8,312.7v0.4h-3.4v-0.4l1.2-0.3v-5.9l-1.2-0.1V306l2.1-0.4v6.9L197.8,312.7z M195.3,303.1
		c0-0.4,0.3-0.7,0.7-0.7c0.4,0,0.8,0.3,0.8,0.7s-0.3,0.7-0.8,0.7C195.7,303.9,195.3,303.5,195.3,303.1z"/>
	<path class="st0" d="M198,309.4c0-2.8,2.1-4.1,3.6-4.1c1.1,0,1.9,0.4,2.2,0.7l0,1.1l-0.7,0l-0.5-1.1c-0.2,0-0.5-0.1-0.7-0.1
		c-1.8,0-2.8,1.5-2.8,3.5c0,2,1.2,3.3,3,3.2c1.1,0,2-0.6,2-0.6l0.1,0.5c0,0-1.1,0.8-2.5,0.8C200,313.2,198,312,198,309.4z"/>
	<path class="st0" d="M210.8,312.4v0.3l-1.1,0.6c-0.4,0-0.8-0.4-0.8-0.9c-0.4,0.2-1.5,1-2.4,1c-1.2,0-2-0.8-2-1.9
		c0-1.1,0.6-1.8,1.6-2.1c0.9-0.2,2.6-0.7,2.9-0.8c0-1.7-0.4-3-2.6-2.5l-0.5,1.2H205c0,0,0-1,0-1c0.3-0.3,1-0.8,2.2-0.8
		c2.6,0,2.6,2,2.6,3.3v3.4C209.9,312.6,210.8,312.4,210.8,312.4z M208.9,311.9V309l-2.2,0.7c-0.6,0.2-1.2,0.7-1.2,1.7
		c0,1.1,0.9,1.5,1.7,1.3C208.3,312.4,208.9,311.9,208.9,311.9z"/>
	<path class="st0" d="M213.3,300.9v11.6l1.2,0.2v0.4h-3.4v-0.4l1.2-0.2v-10.6l-1.3-0.2v-0.4L213.3,300.9z"/>
	<path class="st0" d="M225.3,311.1c0,0.7-0.3,2.2-2.6,2.3c-1.2,0-2.3-0.6-2.6-0.8c0,0,0-1.3,0-1.3h0.8l0.4,1.1
		c2,1.1,3.2-0.3,3.1-1.3c-0.2-1.5-2.2-1.3-3.4-2.2c-0.9-0.7-0.9-1.5-0.9-1.8c0.2-1.3,1.3-1.8,2.7-1.8c1.1,0,1.8,0.4,2.2,0.8
		c0,0,0,1,0,1h-0.7l-0.6-1.2c-1.2-0.4-2.7,0.1-2.6,1.4c0.1,0.8,1.1,1.1,2,1.4C223.6,309,225.3,309.3,225.3,311.1z"/>
	<path class="st0" d="M233.7,305.6v0.4l-1,0.2l-3.9,9.2c-0.9,1.8-2.7,1.3-2.7,1.3v-1.4h0.7l0.6,0.6c0,0,0.4,0,0.7-0.6l1.1-2.4
		l-2.6-6.7l-1.1-0.2v-0.4h3.3v0.4l-1.1,0.2l2,5.5l2.2-5.5l-1.1-0.2v-0.4H233.7z"/>
	<path class="st0" d="M245.7,312.7v0.4h-3.4v-0.4l1.2-0.3V311v-2.8c0-1.4-1-2.1-1.9-1.8c-0.6,0.2-1.1,0.6-1.2,0.6
		c0.1,0.2,0.1,0.5,0.1,0.8v4.7l1.2,0.3v0.4h-3.4v-0.4l1.2-0.3h0V311v-2.8c0-1.4-1-2.1-1.9-1.8c-0.8,0.3-1.2,0.6-1.2,0.6v5.4l1.2,0.3
		v0.4h-3.4v-0.4l1.2-0.3v-5.9l-1.1-0.2v-0.4l1.8-0.4l0.3,1c0,0,0.2-0.1,1.2-0.8c0.9-0.6,2.1-0.1,2.7,0.9c0,0,0.5-0.3,1.4-0.9
		c1.2-0.8,3,0.3,3,2v4.7L245.7,312.7z"/>
	<path class="st0" d="M252.9,310c-0.3,2.6-2.4,3.5-3.9,3.3c-0.8-0.1-1.2-0.3-1.4-0.5l-0.5,0.4h-0.3v-11.4l-1.2-0.2v-0.4l2.2-0.3v5.2
		c0.1-0.1,1.1-0.4,1.6-0.5C251.6,305.5,253.1,307.5,252.9,310z M249.2,306.1c-0.4,0-1.4,0.2-1.5,0.2v5.9c0.3,0.2,0.8,0.5,1.4,0.5
		c0.9,0,2.4-0.4,2.7-2.7C252,307.7,250.8,306.1,249.2,306.1z"/>
	<path class="st0" d="M260.9,309.5c-0.1,2.2-1.8,3.8-3.8,3.7c-2-0.1-3.6-1.9-3.5-4.1c0.1-2.2,1.8-3.8,3.8-3.7
		C259.4,305.5,261,307.3,260.9,309.5z M259.8,309.3c0-1.9-1.1-3.3-2.8-3.2c-1.6,0-2.5,1.4-2.5,3.4c0,1.9,0.9,3.3,2.7,3.2
		C259,312.6,259.8,311.1,259.8,309.3z"/>
	<path class="st0" d="M263.2,300.9v11.6l1.2,0.2v0.4H261v-0.4l1.2-0.2v-10.6l-1.3-0.2v-0.4L263.2,300.9z"/>
	<path class="st0" d="M270.3,311.1c0,0.7-0.3,2.2-2.6,2.3c-1.2,0-2.3-0.6-2.6-0.8c0,0,0-1.3,0-1.3h0.8l0.4,1.1
		c2,1.1,3.2-0.3,3.1-1.3c-0.2-1.5-2.2-1.3-3.4-2.2c-0.9-0.7-0.9-1.5-0.9-1.8c0.2-1.3,1.3-1.8,2.7-1.8c1.1,0,1.8,0.4,2.2,0.8
		c0,0,0,1,0,1h-0.7l-0.6-1.2c-1.2-0.4-2.7,0.1-2.6,1.4c0.1,0.8,1.1,1.1,2,1.4C268.6,309,270.3,309.3,270.3,311.1z"/>
</g>
</svg>
