<?xml version="1.0" encoding="utf-8"?>
<!-- Generator: Adobe Illustrator 23.0.1, SVG Export Plug-In . SVG Version: 6.00 Build 0)  -->
<svg version="1.1" id="Layer_1" xmlns="http://www.w3.org/2000/svg" xmlns:xlink="http://www.w3.org/1999/xlink" x="0px" y="0px"
	 viewBox="0 0 656 385" style="enable-background:new 0 0 656 385;" xml:space="preserve">
<style type="text/css">
	.st0{fill:#FFFFFF;}
	.st1{fill:#FCF6F5;}
	.st2{fill:#F3B5AE;}
	.st3{fill:#EE786C;}
	.st4{fill:#F04E34;}
	.st5{stroke:#FFFFFF;stroke-miterlimit:10;}
	.st6{fill:#FAED23;}
	.st7{fill:#2D2B2A;}
	.st8{fill:none;stroke:#FFFFFF;stroke-width:0.5;stroke-miterlimit:10;}
	.st9{fill:none;stroke:#000000;stroke-width:2.1805;}
</style>
<g>
	<path class="st0" d="M213.6,210.9l0.1,2.2c0,0-5.5,8-17.2,8c-6.7,0-15-3.1-20.3-10c-3.4,4.2-11.3,10.5-20.4,10.5
		c-8.3,0-14.8-6.4-14.8-14.5c0-7.3,4-11.4,10.6-13.3c6.3-1.8,18.1-5.6,19.7-6.1v-2.2c0-12.4-7.3-17.4-15.5-15l-4.7,9.3h-6.4
		c0,0,0.1-8.4,0-8.4c2.2-1.8,6.1-5.5,14.9-5.5c9.9,0,15,4.7,17.8,9.6c5.1-5.9,12.3-8.6,18.2-8.6c14.6,0,19.6,13.2,19.6,22.5h-34.1
		c-0.2,1.3-0.3,2.6-0.3,4c0,1.6,0.2,3.2,0.5,4.9c1.5,11.4,10,17.2,17.5,17.5C207.8,216.2,213.6,210.9,213.6,210.9z M174.7,208.5
		c-2.2-3.8-3.5-8.6-3.5-14.5c0-1.1,0-2.3,0.1-3.3c-3.8,1.3-10.2,3.9-13.9,5.2c-2.6,0.9-6.5,4.4-6.5,10.7c0,5.5,4,9.3,9.4,9
		C165.5,215.4,171.3,212.7,174.7,208.5z M182.2,139.8c1-3.1,3.2-5.7,6.5-4.1c3.4,1.8,2.7,5.1,1.3,7.6c-1.5,2.4-11.3,16.3-11.3,16.3
		l-1.9-1C176.5,158.8,181.3,142.4,182.2,139.8z M181.6,186.6l24.4-2.7c-0.7-8.9-5-13-10-13C190.2,170.9,183.7,176.4,181.6,186.6z"/>
	<path class="st0" d="M311.3,195.9c-0.1,1.3-0.2,2.6-0.6,3.9c-3.4,14.3-17.1,23.2-30.5,19.8c-13.2-3.3-21.2-17.6-17.9-31.9
		c3.4-14.3,17.1-23.2,30.4-19.9c3,0.8,5.6,2,8,3.8c-1.9-6.3-5.6-12.9-11.3-18.8l-12.2,7.2l-2.8-4.8l10.8-6.3
		c-4.8-3.9-10.6-7.3-17.6-9.8l1.6-4c8.3,2.2,15.5,5.9,21.4,10.6l11.8-6.9l2.8,4.8l-10.4,6C307.7,162.2,313.2,180.1,311.3,195.9z
		 M301.3,192.9c-0.1-12.5-5.7-21.7-16-21.1c-9.9,0.7-13.4,10-13.3,22.5c0.1,12.4,4.8,21.5,15.7,20.8
		C297.6,214.7,301.4,205.5,301.3,192.9z"/>
	<path class="st0" d="M406.7,221.3c-8.2,0-16-3.5-18-5.1c0.1-0.2,0-9.8,0-9.8h5.7l3.4,8.9c13.2,5.3,18.5-3.2,18.3-7.9
		c-0.5-8.3-13.8-8-21.2-15.6c-5-5.2-9.2-13.9,2.8-26.6c8.9-9.3,6.7-22.9-2-26.1c-1.4-0.5-2.7-0.7-4.3-0.7c-5.3,0-15.8,3.8-15.8,17.4
		v59.9l10.2,1.7v2.8h-28v-2.8l8.4-1.7v-44.5h-6.4v-3.5h6.4v-10.6c0-12.5,12.1-22.2,25.1-22.2c11.8,0,20.5,5.7,22.2,15.8
		c1.6,9.3-5.9,16.2-11.9,24.9c-4,5.9,1.4,10.9,5.1,12.5c12.2,5.2,18.2,9.4,18.2,18.5C425,211.1,422.5,221.3,406.7,221.3z"/>
	<path class="st0" d="M496.5,220.9l-1.9,8c6.3,0.2,11.8,1.6,11.5,8.5c-0.2,5.8-6.5,7.9-15.6,7.5v-3.5c5.9,0,9.1-1.4,9.1-4.4
		c0-3.1-2.5-4-9.3-4v-1.1l3.5-11.2c-9.7-1.7-20.5-9.2-21.3-24.8c-0.9-19.3,14.1-28.9,24.8-29.2c7.4-0.2,13,2.8,14.9,4.2v9.3
		l-5.7-0.1l-5.7-9.2c-11.2,0-20.8,11.7-18.2,27.3c1.7,11.3,10,17.2,17.5,17.5c9,0.5,14.8-4.8,14.8-4.8l0.1,2.2c0,0-4.9,6.9-15.2,7.9
		C498.7,221,497.6,221,496.5,220.9z"/>
</g>
<line class="st8" x1="133.5" y1="279.9" x2="522.5" y2="279.9"/>
<g>
	<path class="st0" d="M136.2,300.9v11.6l1.2,0.2v0.4H134v-0.4l1.2-0.2v-10.6l-1.3-0.2v-0.4L136.2,300.9z"/>
	<path class="st0" d="M144.5,312.4v0.3l-1.1,0.6c-0.4,0-0.8-0.4-0.8-0.9c-0.4,0.2-1.5,1-2.4,1c-1.2,0-2-0.8-2-1.9
		c0-1.1,0.6-1.8,1.6-2.1c0.9-0.2,2.6-0.7,2.9-0.8c0-1.7-0.4-3-2.6-2.5l-0.5,1.2h-0.8c0,0,0-1,0-1c0.3-0.3,1-0.8,2.2-0.8
		c2.7,0,2.7,2,2.7,3.3v3.4C143.6,312.6,144.5,312.4,144.5,312.4z M142.6,311.9V309l-2.2,0.7c-0.6,0.2-1.2,0.7-1.2,1.7
		c0,1.1,0.9,1.5,1.7,1.3C141.9,312.4,142.6,311.9,142.6,311.9z"/>
	<path class="st0" d="M153.1,312.7v0.4h-3.4v-0.4l1.2-0.2V311v-2.8c0-2-1.5-2.1-2.2-1.8l-1.6,0.5v5.7l1.2,0.2v0.4h-3.4v-0.4l1.2-0.2
		v-6l-1.1-0.2v-0.4l1.8-0.4l0.3,0.9l1.3-0.7c1.5-0.8,3.5-0.1,3.5,2.3c0,1.1,0,3.5,0,4.4L153.1,312.7z"/>
	<path class="st0" d="M160.5,305.7l-1.6,0.8l0,0.1c0.4,0.5,0.5,1.1,0.5,1.8c0,1.6-1.3,2.9-2.8,2.9c-0.5,0-0.8-0.1-1-0.2l-0.6,0.8
		l3.6,0.7c1,0.2,1.5,0.6,1.7,1.2c0.4,1.2-0.8,3.2-3.9,3c-2.9-0.2-3.4-2.5-3.3-2.9l1.9-1l-1.3-0.7v-0.1l1.4-1.2
		c-1-0.6-1.5-1.5-1.5-2.6c0-1.6,1.3-3,2.9-3c0.8,0,1.5,0.3,2,0.9c0.3-0.2,0.4-0.5,0.4-0.7h1.5V305.7z M155.5,313
		c0,0-1.2,0.5-1.2,1.5c0,0.6,0.8,1.6,2.2,1.7c1.4,0.1,2.6-0.4,2.9-1.1c0.2-0.5,0.1-1.3-1.4-1.6L155.5,313z M158.4,308.2
		c0-1.3-0.9-2.3-1.8-2.3c-1.1-0.1-1.9,1.2-1.8,2.5c0,1.4,0.9,2.3,1.9,2.3C157.9,310.7,158.5,309.6,158.4,308.2z"/>
	<path class="st0" d="M169,312.2v0.4l-2.1,0.6v-1.1c-0.5,0.3-1.7,1.1-1.9,1.1c-0.9,0-2.8,0.1-2.8-3v-3.8l-1.2-0.2v-0.4l2.2-0.3v4.8
		c0,2,1,2.2,2,2.1c0.6-0.1,1.7-0.7,1.7-0.7v-5.3l-1.2-0.2v-0.4l2.2-0.3v6.6L169,312.2z"/>
	<path class="st0" d="M175.8,312.4v0.3l-1.1,0.6c-0.4,0-0.8-0.4-0.8-0.9c-0.4,0.2-1.5,1-2.4,1c-1.2,0-2-0.8-2-1.9
		c0-1.1,0.6-1.8,1.6-2.1c0.9-0.2,2.6-0.7,2.9-0.8c0-1.7-0.4-3-2.6-2.5l-0.5,1.2H170c0,0,0-1,0-1c0.3-0.3,1-0.8,2.2-0.8
		c2.7,0,2.7,2,2.7,3.3v3.4C174.9,312.6,175.8,312.4,175.8,312.4z M173.9,311.9V309l-2.2,0.7c-0.6,0.2-1.2,0.7-1.2,1.7
		c0,1.1,0.9,1.5,1.7,1.3C173.2,312.4,173.9,311.9,173.9,311.9z"/>
	<path class="st0" d="M183.5,305.7l-1.6,0.8l0,0.1c0.4,0.5,0.5,1.1,0.5,1.8c0,1.6-1.3,2.9-2.8,2.9c-0.5,0-0.8-0.1-1-0.2l-0.6,0.8
		l3.6,0.7c1,0.2,1.5,0.6,1.7,1.2c0.4,1.2-0.8,3.2-3.9,3c-2.9-0.2-3.4-2.5-3.3-2.9l1.9-1l-1.3-0.7v-0.1l1.4-1.2
		c-1-0.6-1.5-1.5-1.5-2.6c0-1.6,1.3-3,2.9-3c0.8,0,1.5,0.3,2,0.9c0.3-0.2,0.4-0.5,0.4-0.7h1.5V305.7z M178.5,313
		c0,0-1.2,0.5-1.2,1.5c0,0.6,0.8,1.6,2.2,1.7c1.4,0.1,2.6-0.4,2.9-1.1c0.2-0.5,0.1-1.3-1.4-1.6L178.5,313z M181.4,308.2
		c0-1.3-0.8-2.3-1.8-2.3c-1.1-0.1-1.9,1.2-1.8,2.5c0,1.4,0.9,2.3,1.9,2.3C180.9,310.7,181.4,309.6,181.4,308.2z"/>
	<path class="st0" d="M189.6,312.1l0.1,0.4c0,0-1.1,0.8-2.5,0.8c-2.5-0.1-3.6-2.2-3.5-3.9c0-2.3,1.6-3.9,3.4-4
		c2.2-0.1,3.1,1.8,3.1,3.1h-5.3c-0.3,3.1,1.5,4.1,2.9,4.1C188.9,312.6,189.6,312.1,189.6,312.1z M184.8,308.1l4.2-0.2
		c0,0-0.2-2.1-2-1.9C185.3,306.1,184.8,308.1,184.8,308.1z"/>
	<path class="st0" d="M200.9,311.1c0,0.7-0.3,2.2-2.6,2.3c-1.2,0-2.3-0.6-2.6-0.8c0,0,0-1.3,0-1.3h0.8l0.4,1.1
		c2,1.1,3.2-0.3,3.1-1.3c-0.2-1.5-2.2-1.3-3.4-2.2c-0.9-0.7-0.9-1.5-0.9-1.8c0.2-1.3,1.3-1.8,2.7-1.8c1.1,0,1.8,0.4,2.2,0.8
		c0,0,0,1,0,1h-0.7l-0.6-1.2c-1.2-0.4-2.7,0.1-2.6,1.4c0.1,0.8,1.1,1.1,2,1.4C199.2,309,200.9,309.3,200.9,311.1z"/>
	<path class="st0" d="M209.4,312.2v0.4l-2.1,0.6v-1.1c-0.5,0.3-1.7,1.1-1.9,1.1c-0.9,0-2.8,0.1-2.8-3v-3.8l-1.2-0.2v-0.4l2.2-0.3
		v4.8c0,2,1,2.2,2,2.1c0.6-0.1,1.7-0.7,1.7-0.7v-5.3l-1.2-0.2v-0.4l2.2-0.3v6.6L209.4,312.2z"/>
	<path class="st0" d="M213.1,313.2c-0.9-0.1-1.4-0.7-1.4-0.7v3.3l1.5,0.2v0.4h-3.7V316l1.2-0.2v-9.5l-1.2,0v-0.4l1.9-0.4l0.3,0.9
		l1.1-0.9c2-0.5,4.1,1,4.2,3.5C217.2,311.6,215.4,313.5,213.1,313.2z M216,309.3c0-2.9-2.6-3.7-3.6-2.8l-0.7,0.6v4.8
		c0,0,0.3,0.5,1.2,0.7C214.6,312.8,216,311.6,216,309.3z"/>
	<path class="st0" d="M220.8,313.2c-0.9-0.1-1.4-0.7-1.4-0.7v3.3l1.5,0.2v0.4h-3.7V316l1.2-0.2v-9.5l-1.2,0v-0.4l1.9-0.4l0.3,0.9
		l1.1-0.9c2-0.5,4.1,1,4.2,3.5C224.9,311.6,223.1,313.5,220.8,313.2z M223.7,309.3c0-2.9-2.6-3.7-3.6-2.8l-0.7,0.6v4.8
		c0,0,0.3,0.5,1.2,0.7C222.3,312.8,223.7,311.6,223.7,309.3z"/>
	<path class="st0" d="M232.7,309.5c-0.1,2.2-1.8,3.8-3.8,3.7c-2-0.1-3.6-1.9-3.5-4.1c0.1-2.2,1.8-3.8,3.8-3.7
		C231.3,305.5,232.8,307.3,232.7,309.5z M231.7,309.3c0-1.9-1.1-3.3-2.8-3.2c-1.6,0-2.5,1.4-2.5,3.4c0,1.9,0.9,3.3,2.7,3.2
		C230.8,312.6,231.6,311.1,231.7,309.3z"/>
	<path class="st0" d="M238,305.8v1h-0.8l-0.5-0.7c-0.6,0-1.7,1.1-1.7,1.1v5.1l1.5,0.3v0.4h-3.6v-0.4l1.2-0.3l0-5.9l-1.2-0.2v-0.4
		l1.9-0.3l0.3,1.2c0,0,0.8-0.8,0.9-1C236.8,305.1,238,305.7,238,305.8z"/>
	<path class="st0" d="M239.8,306.1h-1.1v-0.5c0,0,0.9-0.1,1.2-0.6c0.3-0.5,0.4-1.3,0.4-1.3h0.5v1.9h1.4v0.5h-1.4v5.6
		c0,1.3,1.4,1.2,1.4,1.2v0.2c0,0-0.3,0.1-1,0.1c-0.9,0-1.4-0.5-1.4-1.5V306.1z"/>
</g>
</svg>
