<?xml version="1.0" encoding="utf-8"?>
<!-- Generator: Adobe Illustrator 23.0.1, SVG Export Plug-In . SVG Version: 6.00 Build 0)  -->
<svg version="1.1" id="Layer_1" xmlns="http://www.w3.org/2000/svg" xmlns:xlink="http://www.w3.org/1999/xlink" x="0px" y="0px"
	 viewBox="0 0 656 385" style="enable-background:new 0 0 656 385;" xml:space="preserve">
<style type="text/css">
	.st0{fill:#FFFFFF;}
	.st1{fill:#FCF6F5;}
	.st2{fill:#F3B5AE;}
	.st3{fill:#EE786C;}
	.st4{fill:#F04E34;}
	.st5{stroke:#FFFFFF;stroke-miterlimit:10;}
	.st6{fill:#FAED23;}
	.st7{fill:#2D2B2A;}
	.st8{fill:none;stroke:#FFFFFF;stroke-width:0.5;stroke-miterlimit:10;}
	.st9{fill:none;stroke:#000000;stroke-width:2.1805;}
</style>
<g>
	<path class="st0" d="M238.1,212.9v2.8h-26.5v-2.8l8.6-1.8v-44.4h-22.4v44.5l10.2,1.7v2.8h-28v-2.8l8.4-1.7v-44.5H182v-3.5h6.4
		v-10.6c0-12.5,8.6-22.2,21.7-22.2c11.8,0,20.7,5.9,20.7,16.2c0,3.2-2.6,5.8-5.8,5.8s-5.8-2.6-5.8-5.8c0-8.3-2.2-12.6-9.1-12.6
		c-5.3,0-12.4,3.8-12.4,17.4v11.8h31.9v47.9L238.1,212.9z"/>
	<path class="st0" d="M340.7,212.9v2.8h-26.5v-2.8l8.6-1.8v-64.5c0-8.3-3.1-12.6-10-12.6c-5.3,0-12.4,3.8-12.4,17.4v11.8H313v3.5
		h-12.6v44.5l10.2,1.7v2.8h-28v-2.8l8.4-1.7v-44.5h-6.4v-3.5h6.4v-10.6c0-12.5,8.6-22.2,21.7-22.2c5.3,0,9.8,1.3,13.1,3.4l4.8-3.4
		h1.6v80.7L340.7,212.9z"/>
	<path class="st0" d="M476,212.9v2.8h-26.5v-2.8l8.6-1.8v-44.4h-22.4v44.5l10.2,1.7v2.8h-28v-2.8l8.4-1.7v-44.5h-22.1v44.5l10.2,1.7
		v2.8h-28v-2.8l8.4-1.7v-44.5h-6.4v-3.5h6.4v-10.6c0-12.5,9-22.2,20.3-22.2c5.2,0,10.2,3.4,10.2,3.4v6.9h-6.8l-3.9-6.8
		c-4.6,0.2-10.5,3.8-10.5,17.4v11.8h22.2v-10.6c0-12.5,8.6-22.2,21.7-22.2c11.8,0,20.7,5.9,20.7,16.2c0,3.2-2.6,5.8-5.8,5.8
		c-3.2,0-5.8-2.6-5.8-5.8c0-8.3-2.2-12.6-9.1-12.6c-5.3,0-12.4,3.8-12.4,17.4v11.8h31.9V211L476,212.9z"/>
</g>
<line class="st8" x1="133.5" y1="279.9" x2="522.5" y2="279.9"/>
<g>
	<path class="st0" d="M139.2,311.1c0,0.7-0.3,2.2-2.6,2.3c-1.2,0-2.3-0.6-2.6-0.8c0,0,0-1.3,0-1.3h0.8l0.4,1.1
		c2,1.1,3.2-0.3,3.1-1.3c-0.2-1.5-2.2-1.3-3.4-2.2c-0.9-0.7-0.9-1.5-0.9-1.8c0.2-1.3,1.3-1.8,2.7-1.8c1.1,0,1.8,0.4,2.2,0.8
		c0,0,0,1,0,1h-0.7l-0.6-1.2c-1.2-0.4-2.7,0.1-2.6,1.4c0.1,0.8,1.1,1.1,2,1.4C137.6,309,139.2,309.3,139.2,311.1z"/>
	<path class="st0" d="M140.8,306.1h-1.1v-0.5c0,0,0.9-0.1,1.2-0.6c0.3-0.5,0.4-1.3,0.4-1.3h0.5v1.9h1.4v0.5h-1.4v5.6
		c0,1.3,1.4,1.2,1.4,1.2v0.2c0,0-0.3,0.1-1,0.1c-0.9,0-1.4-0.5-1.4-1.5V306.1z"/>
	<path class="st0" d="M150.3,312.4v0.3l-1.1,0.6c-0.4,0-0.8-0.4-0.8-0.9c-0.4,0.2-1.5,1-2.4,1c-1.2,0-2-0.8-2-1.9
		c0-1.1,0.6-1.8,1.6-2.1c0.9-0.2,2.6-0.7,2.9-0.8c0-1.7-0.4-3-2.6-2.5l-0.5,1.2h-0.8c0,0,0-1,0-1c0.3-0.3,1-0.8,2.2-0.8
		c2.7,0,2.7,2,2.7,3.3v3.4C149.3,312.6,150.3,312.4,150.3,312.4z M148.4,311.9V309l-2.2,0.7c-0.6,0.2-1.2,0.7-1.2,1.7
		c0,1.1,0.9,1.5,1.7,1.3C147.7,312.4,148.4,311.9,148.4,311.9z"/>
	<path class="st0" d="M158.9,312.7v0.4h-3.4v-0.4l1.2-0.2V311v-2.8c0-2-1.5-2.1-2.2-1.8l-1.6,0.5v5.7l1.2,0.2v0.4h-3.4v-0.4l1.2-0.2
		v-6l-1.1-0.2v-0.4l1.8-0.4l0.3,0.9l1.3-0.7c1.5-0.8,3.5-0.1,3.5,2.3c0,1.1,0,3.5,0,4.4L158.9,312.7z"/>
	<path class="st0" d="M166.3,312.2v0.4l-2.1,0.5v-0.8c0,0-0.5,0.7-1.5,0.9c-1.9,0.3-3.6-0.9-3.7-3.3c-0.2-2.5,1.3-4.5,3.7-4.4
		c0.5,0,1.6,0.5,1.6,0.5l0-4.3l-1.2-0.1v-0.4l2.1-0.3v11.3L166.3,312.2z M164.2,311.9v-5.5c0,0-1.1-0.2-1.6-0.2
		c-1.5,0-2.9,1.7-2.6,3.9c0.3,2.3,1.9,2.7,2.8,2.6C163.6,312.5,164.2,311.9,164.2,311.9z"/>
	<path class="st0" d="M173.3,312.4v0.3l-1.1,0.6c-0.4,0-0.8-0.4-0.8-0.9c-0.4,0.2-1.5,1-2.4,1c-1.2,0-2-0.8-2-1.9
		c0-1.1,0.6-1.8,1.6-2.1c0.9-0.2,2.6-0.7,2.9-0.8c0-1.7-0.4-3-2.6-2.5l-0.5,1.2h-0.8c0,0,0-1,0-1c0.3-0.3,1-0.8,2.2-0.8
		c2.7,0,2.7,2,2.7,3.3v3.4C172.4,312.6,173.3,312.4,173.3,312.4z M171.4,311.9V309l-2.2,0.7c-0.6,0.2-1.2,0.7-1.2,1.7
		c0,1.1,0.9,1.5,1.7,1.3C170.7,312.4,171.4,311.9,171.4,311.9z"/>
	<path class="st0" d="M178.8,305.8v1h-0.8l-0.5-0.7c-0.6,0-1.7,1.1-1.7,1.1v5.1l1.5,0.3v0.4h-3.6v-0.4l1.2-0.3l0-5.9l-1.2-0.2v-0.4
		l1.9-0.3l0.3,1.2c0,0,0.8-0.8,0.9-1C177.6,305.1,178.8,305.7,178.8,305.8z"/>
	<path class="st0" d="M186.3,312.2v0.4l-2.1,0.5v-0.8c0,0-0.5,0.7-1.5,0.9c-1.9,0.3-3.6-0.9-3.7-3.3c-0.2-2.5,1.3-4.5,3.7-4.4
		c0.5,0,1.6,0.5,1.6,0.5l0-4.3l-1.2-0.1v-0.4l2.1-0.3v11.3L186.3,312.2z M184.2,311.9v-5.5c0,0-1.1-0.2-1.6-0.2
		c-1.5,0-2.9,1.7-2.6,3.9c0.3,2.3,1.9,2.7,2.8,2.6C183.7,312.5,184.2,311.9,184.2,311.9z"/>
	<path class="st0" d="M194,300.9v11.6l1.2,0.2v0.4h-3.4v-0.4l1.2-0.2v-10.6l-1.3-0.2v-0.4L194,300.9z"/>
	<path class="st0" d="M199.3,312.7v0.4h-3.4v-0.4l1.2-0.3v-5.9l-1.2-0.1V306l2.1-0.4v6.9L199.3,312.7z M196.8,303.1
		c0-0.4,0.3-0.7,0.7-0.7c0.4,0,0.8,0.3,0.8,0.7s-0.3,0.7-0.8,0.7C197.1,303.9,196.8,303.5,196.8,303.1z"/>
	<path class="st0" d="M206.8,305.7l-1.6,0.8l0,0.1c0.4,0.5,0.5,1.1,0.5,1.8c0,1.6-1.3,2.9-2.8,2.9c-0.5,0-0.8-0.1-1-0.2l-0.6,0.8
		l3.6,0.7c1,0.2,1.5,0.6,1.7,1.2c0.4,1.2-0.8,3.2-3.9,3c-2.9-0.2-3.4-2.5-3.3-2.9l1.9-1l-1.3-0.7v-0.1l1.4-1.2
		c-1-0.6-1.5-1.5-1.5-2.6c0-1.6,1.3-3,2.9-3c0.8,0,1.5,0.3,2,0.9c0.3-0.2,0.4-0.5,0.4-0.7h1.5V305.7z M201.8,313
		c0,0-1.2,0.5-1.2,1.5c0,0.6,0.8,1.6,2.2,1.7c1.4,0.1,2.6-0.4,2.9-1.1c0.2-0.5,0.1-1.3-1.4-1.6L201.8,313z M204.7,308.2
		c0-1.3-0.8-2.3-1.8-2.3c-1.1-0.1-1.9,1.2-1.8,2.5c0,1.4,0.9,2.3,1.9,2.3C204.2,310.7,204.7,309.6,204.7,308.2z"/>
	<path class="st0" d="M213.4,312.4v0.3l-1.1,0.6c-0.4,0-0.8-0.4-0.8-0.9c-0.4,0.2-1.5,1-2.4,1c-1.2,0-2-0.8-2-1.9
		c0-1.1,0.6-1.8,1.6-2.1c0.9-0.2,2.6-0.7,2.9-0.8c0-1.7-0.4-3-2.6-2.5l-0.5,1.2h-0.8c0,0,0-1,0-1c0.3-0.3,1-0.8,2.2-0.8
		c2.6,0,2.6,2,2.6,3.3v3.4C212.5,312.6,213.4,312.4,213.4,312.4z M211.5,311.9V309l-2.2,0.7c-0.6,0.2-1.2,0.7-1.2,1.7
		c0,1.1,0.9,1.5,1.7,1.3C210.9,312.4,211.5,311.9,211.5,311.9z"/>
	<path class="st0" d="M214.8,306.1h-1.1v-0.5c0,0,0.9-0.1,1.2-0.6c0.3-0.5,0.4-1.3,0.4-1.3h0.5v1.9h1.4v0.5h-1.4v5.6
		c0,1.3,1.4,1.2,1.4,1.2v0.2c0,0-0.3,0.1-1,0.1c-0.9,0-1.4-0.5-1.4-1.5V306.1z"/>
	<path class="st0" d="M225.9,312.2v0.4l-2.1,0.6v-1.1c-0.5,0.3-1.7,1.1-1.9,1.1c-0.9,0-2.8,0.1-2.8-3v-3.8l-1.2-0.2v-0.4l2.2-0.3
		v4.8c0,2,1,2.2,2,2.1c0.6-0.1,1.7-0.7,1.7-0.7v-5.3l-1.2-0.2v-0.4l2.2-0.3v6.6L225.9,312.2z"/>
	<path class="st0" d="M231.4,305.8v1h-0.8l-0.5-0.7c-0.6,0-1.7,1.1-1.7,1.1v5.1l1.5,0.3v0.4h-3.6v-0.4l1.2-0.3l0-5.9l-1.2-0.2v-0.4
		l1.9-0.3l0.3,1.2c0,0,0.8-0.8,0.9-1C230.2,305.1,231.4,305.7,231.4,305.8z"/>
	<path class="st0" d="M237.4,312.1l0.1,0.4c0,0-1.1,0.8-2.5,0.8c-2.5-0.1-3.6-2.2-3.5-3.9c0-2.3,1.6-3.9,3.4-4
		c2.2-0.1,3.1,1.8,3.1,3.1h-5.3c-0.3,3.1,1.5,4.1,2.9,4.1C236.7,312.6,237.4,312.1,237.4,312.1z M232.6,308.1l4.2-0.2
		c0,0-0.2-2.1-2-1.9C233.2,306.1,232.6,308.1,232.6,308.1z"/>
	<path class="st0" d="M243.8,311.1c0,0.7-0.3,2.2-2.6,2.3c-1.2,0-2.3-0.6-2.6-0.8c0,0,0-1.3,0-1.3h0.8l0.4,1.1
		c2,1.1,3.2-0.3,3.1-1.3c-0.2-1.5-2.2-1.3-3.4-2.2c-0.9-0.7-0.9-1.5-0.9-1.8c0.2-1.3,1.3-1.8,2.7-1.8c1.1,0,1.8,0.4,2.2,0.8
		c0,0,0,1,0,1h-0.7l-0.6-1.2c-1.2-0.4-2.7,0.1-2.6,1.4c0.1,0.8,1.1,1.1,2,1.4C242.1,309,243.8,309.3,243.8,311.1z"/>
</g>
</svg>
