<?xml version="1.0" encoding="utf-8"?>
<!-- Generator: Adobe Illustrator 23.0.1, SVG Export Plug-In . SVG Version: 6.00 Build 0)  -->
<svg version="1.1" id="Layer_1" xmlns="http://www.w3.org/2000/svg" xmlns:xlink="http://www.w3.org/1999/xlink" x="0px" y="0px"
	 viewBox="0 0 656 385" style="enable-background:new 0 0 656 385;" xml:space="preserve">
<style type="text/css">
	.st0{fill:#FFFFFF;}
	.st1{fill:#FCF6F5;}
	.st2{fill:#F3B5AE;}
	.st3{fill:#EE786C;}
	.st4{fill:#F04E34;}
	.st5{stroke:#FFFFFF;stroke-miterlimit:10;}
	.st6{fill:#FAED23;}
	.st7{fill:#2D2B2A;}
	.st8{fill:none;stroke:#FFFFFF;stroke-width:0.5;stroke-miterlimit:10;}
	.st9{fill:none;stroke:#000000;stroke-width:2.1805;}
</style>
<g>
	<path class="st0" d="M152.3,218.4v10.7h-5.9v-10.8c-12.6-1.3-21.8-8.2-21.8-8c0-0.2,3.8-11.3,3.8-11.3h7.1l-0.2,10.1
		c4.2,1.8,8,2.7,11.3,3.1v-32.4c-4.7-1.7-9.4-3.4-13.3-6.5c-10.6-8.4-9.7-16.2-9-20.5c1.3-8.2,8.9-15.4,22.3-16.6v-9.1h5.9v8.9
		c11.2,0.5,20.5,5.7,20.5,5.7l-3.4,11.7H163l-1.5-10.5c-3.1-1.1-6.1-1.8-9-1.9v30c0.5,0.2,0.8,0.3,1.3,0.5c8.9,3,20.1,7.6,21.8,21.4
		C176.6,202.5,170.9,217.4,152.3,218.4z M146.3,168.9v-27.7c-8.8,1.4-14.6,7.6-12.9,16C134.6,163,140.4,166.5,146.3,168.9z
		 M152.3,181.9v30.2c8.6-1.5,13-8.2,13.3-13.3C166.4,188.5,160.1,184.7,152.3,181.9z"/>
	<path class="st0" d="M247.2,168h19.1v5.9h-20c-0.1,1.1-0.2,2.3-0.2,3.3c0,1.8,0,3.5,0.1,5.2h19.6v5.9h-19
		c2.7,15.2,11.8,25.7,22.9,26.5c2.8,0.2,5.6-0.1,7.9-0.8l2.7-14.1h8.5l2.8,9.3c0,0-9.1,11.4-23.2,11.4c-14.8,0-29.4-11.4-33.1-32.3
		h-8.4v-5.9h7.7c-0.1-1.6-0.2-3.2-0.2-4.9c0-1.3,0-2.5,0.1-3.6h-7.2V168h7.9c3.8-21.4,19.8-33.2,37-34.1c8.4-0.5,14.3,3,20.3,8
		c-0.1,0-2.3,9.7-2.3,9.7h-9.4l-2.2-12.2C259.4,137.1,250.1,153.7,247.2,168z"/>
	<path class="st0" d="M401.6,202l2.6,1l-5.7,15.2c-4.4,7.6-23.7-5.9-35.8-4.6c-8,0.9-15.4,4.6-18.9,5.7v-6
		c6.3-10.4,7.9-19.5,8.4-32.7h-10.6v-6h10.7c0.2-6.4,0.2-13.8,0.6-22.6c0.3-9.7,11.2-17.9,28.3-18c12.6-0.1,20.6,6,23.8,8.5
		c-0.1,0.1-4.6,12.5-4.6,12.5h-7.2l-1-13.5c-14.5-5-28.2-1-29.2,14.1c-0.5,6.5-0.6,12.9-0.8,19h25.4v6H362
		c-0.5,10.4-1.3,19.7-3.9,27.2c3.3-1.7,6.7-2.7,10.6-2.7c8.1,0,13,3.4,20.6,3.4S401.6,202,401.6,202z"/>
	<path class="st0" d="M522.6,141.4l-22.3,39.7h13.5v5.9h-14.5v8.5h14v5.9h-14v12.1l11.8,1.9v4h-34.3v-4l11.9-1.9v-12.1h-14.5v-5.9
		h14.5V187h-14v-5.9h13l-23.2-39.7l-9-1.9v-4h29.9v4l-9,1.8l20.4,34.5l18-34.4l-9.1-1.9v-4h26.4v4L522.6,141.4z"/>
</g>
<line class="st8" x1="133.5" y1="279.9" x2="522.5" y2="279.9"/>
<g>
	<path class="st0" d="M134,309.4c0-2.8,2.1-4.1,3.6-4.1c1.1,0,1.9,0.4,2.2,0.7l0,1.1l-0.7,0l-0.5-1.1c-0.2,0-0.5-0.1-0.7-0.1
		c-1.8,0-2.8,1.5-2.8,3.5c0,2,1.2,3.3,3,3.2c1.1,0,2-0.6,2-0.6l0.1,0.5c0,0-1.1,0.8-2.5,0.8C136,313.2,134,312,134,309.4z"/>
	<path class="st0" d="M148.5,312.2v0.4l-2.1,0.6v-1.1c-0.5,0.3-1.7,1.1-1.9,1.1c-0.9,0-2.8,0.1-2.8-3v-3.8l-1.2-0.2v-0.4l2.2-0.3
		v4.8c0,2,1,2.2,2,2.1c0.6-0.1,1.7-0.7,1.7-0.7v-5.3l-1.2-0.2v-0.4l2.2-0.3v6.6L148.5,312.2z"/>
	<path class="st0" d="M154,305.8v1h-0.8l-0.5-0.7c-0.6,0-1.7,1.1-1.7,1.1v5.1l1.5,0.3v0.4h-3.6v-0.4l1.2-0.3l0-5.9l-1.2-0.2v-0.4
		l1.9-0.3l0.3,1.2c0,0,0.8-0.8,0.9-1C152.8,305.1,154,305.7,154,305.8z"/>
	<path class="st0" d="M159.8,305.8v1H159l-0.5-0.7c-0.6,0-1.7,1.1-1.7,1.1v5.1l1.5,0.3v0.4h-3.6v-0.4l1.2-0.3l0-5.9l-1.2-0.2v-0.4
		l1.9-0.3l0.3,1.2c0,0,0.8-0.8,0.9-1C158.6,305.1,159.8,305.7,159.8,305.8z"/>
	<path class="st0" d="M165.8,312.1l0.1,0.4c0,0-1.1,0.8-2.5,0.8c-2.5-0.1-3.6-2.2-3.5-3.9c0-2.3,1.6-3.9,3.4-4
		c2.2-0.1,3.1,1.8,3.1,3.1H161c-0.3,3.1,1.5,4.1,2.9,4.1C165.1,312.6,165.8,312.1,165.8,312.1z M161,308.1l4.2-0.2
		c0,0-0.2-2.1-2-1.9C161.6,306.1,161,308.1,161,308.1z"/>
	<path class="st0" d="M174.9,312.7v0.4h-3.4v-0.4l1.2-0.2V311v-2.8c0-2-1.5-2.1-2.2-1.8l-1.6,0.5v5.7l1.2,0.2v0.4h-3.4v-0.4l1.2-0.2
		v-6l-1.1-0.2v-0.4l1.8-0.4l0.3,0.9l1.3-0.7c1.5-0.8,3.5-0.1,3.5,2.3c0,1.1,0,3.5,0,4.4L174.9,312.7z"/>
	<path class="st0" d="M174.9,309.4c0-2.8,2.1-4.1,3.6-4.1c1.1,0,1.9,0.4,2.2,0.7l0,1.1l-0.7,0l-0.5-1.1c-0.2,0-0.5-0.1-0.7-0.1
		c-1.8,0-2.8,1.5-2.8,3.5c0,2,1.2,3.3,3,3.2c1.1,0,2-0.6,2-0.6l0.1,0.5c0,0-1.1,0.8-2.5,0.8C176.9,313.2,174.9,312,174.9,309.4z"/>
	<path class="st0" d="M189.6,305.6v0.4l-1,0.2l-3.9,9.2c-0.9,1.8-2.7,1.3-2.7,1.3v-1.4h0.7l0.6,0.6c0,0,0.4,0,0.7-0.6l1.1-2.4
		l-2.6-6.7l-1.1-0.2v-0.4h3.3v0.4l-1.1,0.2l2,5.5l2.2-5.5l-1.1-0.2v-0.4H189.6z"/>
</g>
</svg>
