<?xml version="1.0" encoding="utf-8"?>
<!-- Generator: Adobe Illustrator 23.0.1, SVG Export Plug-In . SVG Version: 6.00 Build 0)  -->
<svg version="1.1" id="Layer_1" xmlns="http://www.w3.org/2000/svg" xmlns:xlink="http://www.w3.org/1999/xlink" x="0px" y="0px"
	 viewBox="0 0 656 385" style="enable-background:new 0 0 656 385;" xml:space="preserve">
<style type="text/css">
	.st0{fill:#FFFFFF;}
	.st1{fill:#FCF6F5;}
	.st2{fill:#F3B5AE;}
	.st3{fill:#EE786C;}
	.st4{fill:#F04E34;}
	.st5{stroke:#FFFFFF;stroke-miterlimit:10;}
	.st6{fill:#FAED23;}
	.st7{fill:#2D2B2A;}
	.st8{fill:none;stroke:#FFFFFF;stroke-width:0.5;stroke-miterlimit:10;}
	.st9{fill:none;stroke:#000000;stroke-width:2.1805;}
</style>
<g>
	<path class="st0" d="M279.2,167.2v38.2c0,8.8,9.4,8.5,9.4,8.5v2.3c0,0-2.4,0.6-6.7,0.6c-8.3,0-12.1-3.3-12.1-10.4v-39.3h-7.7v-3.5
		c0,0,4.7-0.9,8.8-3.5c5.2-3.3,5-9.6,5-9.6c0.9-13.4-17.2-13.9-23.9-7.9c-5.5,5-8,14.2-3.5,21.2c3.3,1.3,5.6,2.8,6.8,3.9
		c-0.1,0,0,8,0,8h-5.7l-4.7-9.2c-7.3-1.4-15.9,0.9-14.8,9.6c0.8,4.3,5.7,6.9,11.5,9c4.4,1.6,15.9,6.7,15.9,17.6
		c0,4.4-2.5,14.6-18.3,14.6c-8.2,0-16-3.5-18-5.1c0.1-0.2,0-9.8,0-9.8h5.7l3.4,8.9c13.2,5.3,18.5-3.2,18.3-7.9
		c-0.3-8.3-13-9-21.2-15.6c-7.2-5.5-7.1-9.9-6.4-13.5c1.6-8,10.2-11.6,19.2-11.6c2,0,4,0.2,5.7,0.6c-4.2-5.2-5.7-15.7,0.6-23.1
		c7.6-9.2,32-10.1,32.5,10.5v1.5v11.6h9.6v3.5h-9.4V167.2z"/>
	<path class="st0" d="M405.2,206.9l0.1,2.2c0,0-4.9,6.9-15.2,7.9c-10.6,0.9-26.4-6-27.3-25c-0.9-19.3,14.1-28.9,24.8-29.2
		c7.4-0.2,13,2.8,14.9,4.2v9.3l-5.7-0.1l-5.7-9.2c-11.2,0-20.8,11.7-18.2,27.3c1.7,11.3,10,17.2,17.5,17.5
		C399.4,212.2,405.2,206.9,405.2,206.9z M425.8,167.2v38.2c0,8.8,9.4,8.5,9.4,8.5v2.3c0,0-2.4,0.6-6.7,0.6
		c-8.3,0-12.1-3.3-12.1-10.4v-39.3h-7.7v-3.5c0,0,4.8-1,8.8-3.5c4.1-2.6,5-9.6,5-9.6h3.3v13.1h9.6v3.5h-9.6V167.2z"/>
</g>
<line class="st8" x1="133.5" y1="279.9" x2="522.5" y2="279.9"/>
<g>
	<path class="st0" d="M141.4,312.2v0.4l-2.1,0.5v-0.8c0,0-0.5,0.7-1.5,0.9c-1.9,0.3-3.6-0.9-3.7-3.3c-0.2-2.5,1.3-4.5,3.7-4.4
		c0.5,0,1.6,0.5,1.6,0.5l0-4.3l-1.2-0.1v-0.4l2.1-0.3v11.3L141.4,312.2z M139.3,311.9v-5.5c0,0-1.1-0.2-1.6-0.2
		c-1.5,0-2.9,1.7-2.6,3.9c0.3,2.3,1.9,2.7,2.8,2.6C138.8,312.5,139.3,311.9,139.3,311.9z"/>
	<path class="st0" d="M145.4,312.7v0.4H142v-0.4l1.2-0.3v-5.9l-1.2-0.1V306l2.1-0.4v6.9L145.4,312.7z M142.9,303.1
		c0-0.4,0.3-0.7,0.7-0.7c0.4,0,0.8,0.3,0.8,0.7s-0.3,0.7-0.8,0.7C143.2,303.9,142.9,303.5,142.9,303.1z"/>
	<path class="st0" d="M151.1,311.1c0,0.7-0.3,2.2-2.6,2.3c-1.2,0-2.3-0.6-2.6-0.8c0,0,0-1.3,0-1.3h0.8l0.4,1.1
		c2,1.1,3.2-0.3,3.1-1.3c-0.2-1.5-2.2-1.3-3.4-2.2c-0.9-0.7-0.9-1.5-0.9-1.8c0.2-1.3,1.3-1.8,2.7-1.8c1.1,0,1.8,0.4,2.2,0.8
		c0,0,0,1,0,1H150l-0.6-1.2c-1.2-0.4-2.7,0.1-2.6,1.4c0.1,0.8,1.1,1.1,2,1.4C149.5,309,151.1,309.3,151.1,311.1z"/>
	<path class="st0" d="M151.8,309.4c0-2.8,2.1-4.1,3.6-4.1c1.1,0,1.9,0.4,2.2,0.7l0,1.1l-0.7,0l-0.5-1.1c-0.2,0-0.5-0.1-0.7-0.1
		c-1.8,0-2.8,1.5-2.8,3.5c0,2,1.2,3.3,3,3.2c1.1,0,2-0.6,2-0.6l0.1,0.5c0,0-1.1,0.8-2.5,0.8C153.8,313.2,151.8,312,151.8,309.4z"/>
	<path class="st0" d="M163.4,305.8v1h-0.8l-0.5-0.7c-0.6,0-1.7,1.1-1.7,1.1v5.1l1.5,0.3v0.4h-3.6v-0.4l1.2-0.3l0-5.9l-1.2-0.2v-0.4
		l1.9-0.3l0.3,1.2c0,0,0.8-0.8,0.9-1C162.1,305.1,163.4,305.7,163.4,305.8z"/>
	<path class="st0" d="M169.4,312.1l0.1,0.4c0,0-1.1,0.8-2.5,0.8c-2.5-0.1-3.6-2.2-3.5-3.9c0-2.3,1.6-3.9,3.4-4
		c2.2-0.1,3.1,1.8,3.1,3.1h-5.3c-0.3,3.1,1.5,4.1,2.9,4.1C168.7,312.6,169.4,312.1,169.4,312.1z M164.6,308.1l4.2-0.2
		c0,0-0.2-2.1-2-1.9C165.1,306.1,164.6,308.1,164.6,308.1z"/>
	<path class="st0" d="M171.5,306.1h-1.1v-0.5c0,0,0.9-0.1,1.2-0.6c0.3-0.5,0.4-1.3,0.4-1.3h0.5v1.9h1.4v0.5h-1.4v5.6
		c0,1.3,1.4,1.2,1.4,1.2v0.2c0,0-0.3,0.1-1,0.1c-0.9,0-1.4-0.5-1.4-1.5V306.1z"/>
	<path class="st0" d="M178.1,312.7v0.4h-3.4v-0.4l1.2-0.3v-5.9l-1.2-0.1V306l2.1-0.4v6.9L178.1,312.7z M175.5,303.1
		c0-0.4,0.3-0.7,0.7-0.7c0.4,0,0.8,0.3,0.8,0.7s-0.3,0.7-0.8,0.7C175.9,303.9,175.5,303.5,175.5,303.1z"/>
	<path class="st0" d="M185.6,309.5c-0.1,2.2-1.8,3.8-3.8,3.7c-2-0.1-3.6-1.9-3.5-4.1c0.1-2.2,1.8-3.8,3.8-3.7
		C184.1,305.5,185.7,307.3,185.6,309.5z M184.5,309.3c0-1.9-1.1-3.3-2.8-3.2c-1.6,0-2.5,1.4-2.5,3.4c0,1.9,0.9,3.3,2.7,3.2
		C183.7,312.6,184.5,311.1,184.5,309.3z"/>
	<path class="st0" d="M193.9,312.7v0.4h-3.4v-0.4l1.2-0.2V311v-2.8c0-2-1.5-2.1-2.2-1.8l-1.6,0.5v5.7l1.2,0.2v0.4h-3.4v-0.4l1.2-0.2
		v-6l-1.1-0.2v-0.4l1.8-0.4l0.3,0.9l1.3-0.7c1.5-0.8,3.5-0.1,3.5,2.3c0,1.1,0,3.5,0,4.4L193.9,312.7z"/>
	<path class="st0" d="M200.5,312.4v0.3l-1.1,0.6c-0.4,0-0.8-0.4-0.8-0.9c-0.4,0.2-1.5,1-2.4,1c-1.2,0-2-0.8-2-1.9
		c0-1.1,0.6-1.8,1.6-2.1c0.9-0.2,2.6-0.7,2.9-0.8c0-1.7-0.4-3-2.6-2.5l-0.5,1.2h-0.8c0,0,0-1,0-1c0.3-0.3,1-0.8,2.2-0.8
		c2.6,0,2.6,2,2.6,3.3v3.4C199.6,312.6,200.5,312.4,200.5,312.4z M198.6,311.9V309l-2.2,0.7c-0.6,0.2-1.2,0.7-1.2,1.7
		c0,1.1,0.9,1.5,1.7,1.3C197.9,312.4,198.6,311.9,198.6,311.9z"/>
	<path class="st0" d="M206.1,305.8v1h-0.8l-0.5-0.7c-0.6,0-1.7,1.1-1.7,1.1v5.1l1.5,0.3v0.4H201v-0.4l1.2-0.3l0-5.9l-1.2-0.2v-0.4
		l1.9-0.3l0.3,1.2c0,0,0.8-0.8,0.9-1C204.8,305.1,206.1,305.7,206.1,305.8z"/>
	<path class="st0" d="M214.8,305.6v0.4l-1,0.2l-3.9,9.2c-0.9,1.8-2.7,1.3-2.7,1.3v-1.4h0.7l0.6,0.6c0,0,0.4,0,0.7-0.6l1.1-2.4
		l-2.6-6.7l-1.1-0.2v-0.4h3.3v0.4l-1.1,0.2l2,5.5l2.2-5.5l-1.1-0.2v-0.4H214.8z"/>
	<path class="st0" d="M225.6,312.4v0.3l-1.1,0.6c-0.4,0-0.8-0.4-0.8-0.9c-0.4,0.2-1.5,1-2.4,1c-1.2,0-2-0.8-2-1.9
		c0-1.1,0.6-1.8,1.6-2.1c0.9-0.2,2.6-0.7,2.9-0.8c0-1.7-0.4-3-2.6-2.5l-0.5,1.2h-0.8c0,0,0-1,0-1c0.3-0.3,1-0.8,2.2-0.8
		c2.6,0,2.6,2,2.6,3.3v3.4C224.7,312.6,225.6,312.4,225.6,312.4z M223.7,311.9V309l-2.2,0.7c-0.6,0.2-1.2,0.7-1.2,1.7
		c0,1.1,0.9,1.5,1.7,1.3C223,312.4,223.7,311.9,223.7,311.9z"/>
	<path class="st0" d="M234.2,312.7v0.4h-3.4v-0.4l1.2-0.2V311v-2.8c0-2-1.5-2.1-2.2-1.8l-1.6,0.5v5.7l1.2,0.2v0.4H226v-0.4l1.2-0.2
		v-6l-1.1-0.2v-0.4l1.8-0.4l0.3,0.9l1.3-0.7c1.5-0.8,3.5-0.1,3.5,2.3c0,1.1,0,3.5,0,4.4L234.2,312.7z"/>
	<path class="st0" d="M241.6,312.2v0.4l-2.1,0.5v-0.8c0,0-0.5,0.7-1.5,0.9c-1.9,0.3-3.6-0.9-3.7-3.3c-0.2-2.5,1.3-4.5,3.7-4.4
		c0.5,0,1.6,0.5,1.6,0.5l0-4.3l-1.2-0.1v-0.4l2.1-0.3v11.3L241.6,312.2z M239.5,311.9v-5.5c0,0-1.1-0.2-1.6-0.2
		c-1.5,0-2.9,1.7-2.6,3.9c0.3,2.3,1.9,2.7,2.8,2.6C238.9,312.5,239.5,311.9,239.5,311.9z"/>
	<path class="st0" d="M254.5,312.2v0.4l-2.1,0.5v-0.8c0,0-0.5,0.7-1.5,0.9c-1.9,0.3-3.6-0.9-3.7-3.3c-0.2-2.5,1.3-4.5,3.7-4.4
		c0.5,0,1.6,0.5,1.6,0.5l0-4.3l-1.2-0.1v-0.4l2.1-0.3v11.3L254.5,312.2z M252.4,311.9v-5.5c0,0-1.1-0.2-1.6-0.2
		c-1.5,0-2.9,1.7-2.6,3.9c0.3,2.3,1.9,2.7,2.8,2.6C251.9,312.5,252.4,311.9,252.4,311.9z"/>
	<path class="st0" d="M260.5,312.1l0.1,0.4c0,0-1.1,0.8-2.5,0.8c-2.5-0.1-3.6-2.2-3.5-3.9c0-2.3,1.6-3.9,3.4-4
		c2.2-0.1,3.1,1.8,3.1,3.1h-5.3c-0.3,3.1,1.5,4.1,2.9,4.1C259.9,312.6,260.5,312.1,260.5,312.1z M255.8,308.1l4.2-0.2
		c0,0-0.2-2.1-2-1.9C256.3,306.1,255.8,308.1,255.8,308.1z"/>
	<path class="st0" d="M261.7,309.4c0-2.8,2.1-4.1,3.6-4.1c1.1,0,1.9,0.4,2.2,0.7l0,1.1l-0.7,0l-0.5-1.1c-0.2,0-0.5-0.1-0.7-0.1
		c-1.8,0-2.8,1.5-2.8,3.5c0,2,1.2,3.3,3,3.2c1.1,0,2-0.6,2-0.6l0.1,0.5c0,0-1.1,0.8-2.5,0.8C263.7,313.2,261.7,312,261.7,309.4z"/>
	<path class="st0" d="M275.4,309.5c-0.1,2.2-1.8,3.8-3.8,3.7c-2-0.1-3.6-1.9-3.5-4.1c0.1-2.2,1.8-3.8,3.8-3.7
		C273.9,305.5,275.5,307.3,275.4,309.5z M274.3,309.3c0-1.9-1.1-3.3-2.8-3.2c-1.6,0-2.5,1.4-2.5,3.4c0,1.9,0.9,3.3,2.7,3.2
		C273.5,312.6,274.3,311.1,274.3,309.3z"/>
	<path class="st0" d="M280.7,305.8v1h-0.8l-0.5-0.7c-0.6,0-1.7,1.1-1.7,1.1v5.1l1.5,0.3v0.4h-3.6v-0.4l1.2-0.3l0-5.9l-1.2-0.2v-0.4
		l1.9-0.3l0.3,1.2c0,0,0.8-0.8,0.9-1C279.4,305.1,280.7,305.7,280.7,305.8z"/>
	<path class="st0" d="M287.6,312.4v0.3l-1.1,0.6c-0.4,0-0.8-0.4-0.8-0.9c-0.4,0.2-1.5,1-2.4,1c-1.2,0-2-0.8-2-1.9
		c0-1.1,0.6-1.8,1.6-2.1c0.9-0.2,2.6-0.7,2.9-0.8c0-1.7-0.4-3-2.6-2.5l-0.5,1.2h-0.8c0,0,0-1,0-1c0.3-0.3,1-0.8,2.2-0.8
		c2.6,0,2.6,2,2.6,3.3v3.4C286.7,312.6,287.6,312.4,287.6,312.4z M285.7,311.9V309l-2.2,0.7c-0.6,0.2-1.2,0.7-1.2,1.7
		c0,1.1,0.9,1.5,1.7,1.3C285,312.4,285.7,311.9,285.7,311.9z"/>
	<path class="st0" d="M288.9,306.1h-1.1v-0.5c0,0,0.9-0.1,1.2-0.6c0.3-0.5,0.4-1.3,0.4-1.3h0.5v1.9h1.4v0.5h-1.4v5.6
		c0,1.3,1.4,1.2,1.4,1.2v0.2c0,0-0.3,0.1-1,0.1c-0.9,0-1.4-0.5-1.4-1.5V306.1z"/>
	<path class="st0" d="M295.5,312.7v0.4h-3.4v-0.4l1.2-0.3v-5.9l-1.2-0.1V306l2.1-0.4v6.9L295.5,312.7z M293,303.1
		c0-0.4,0.3-0.7,0.7-0.7c0.4,0,0.8,0.3,0.8,0.7s-0.3,0.7-0.8,0.7C293.3,303.9,293,303.5,293,303.1z"/>
	<path class="st0" d="M302.9,305.6v0.4l-0.9,0.2l-2.9,7h-0.2l-2.9-7l-1.1-0.2v-0.4h3.2v0.4l-1,0.2l2.1,5.3l2.1-5.3l-0.9-0.2v-0.4
		H302.9z"/>
	<path class="st0" d="M308.3,312.1l0.1,0.4c0,0-1.1,0.8-2.5,0.8c-2.5-0.1-3.6-2.2-3.5-3.9c0-2.3,1.6-3.9,3.4-4
		c2.2-0.1,3.1,1.8,3.1,3.1h-5.3c-0.3,3.1,1.5,4.1,2.9,4.1C307.6,312.6,308.3,312.1,308.3,312.1z M303.5,308.1l4.2-0.2
		c0,0-0.2-2.1-2-1.9C304,306.1,303.5,308.1,303.5,308.1z"/>
	<path class="st0" d="M316.6,300.9v11.6l1.2,0.2v0.4h-3.4v-0.4l1.2-0.2v-10.6l-1.3-0.2v-0.4L316.6,300.9z"/>
	<path class="st0" d="M321.8,312.7v0.4h-3.4v-0.4l1.2-0.3v-5.9l-1.2-0.1V306l2.1-0.4v6.9L321.8,312.7z M319.3,303.1
		c0-0.4,0.3-0.7,0.7-0.7c0.4,0,0.8,0.3,0.8,0.7s-0.3,0.7-0.8,0.7C319.7,303.9,319.3,303.5,319.3,303.1z"/>
	<path class="st0" d="M329.3,305.7l-1.6,0.8l0,0.1c0.4,0.5,0.5,1.1,0.5,1.8c0,1.6-1.3,2.9-2.8,2.9c-0.5,0-0.8-0.1-1-0.2l-0.6,0.8
		l3.6,0.7c1,0.2,1.5,0.6,1.7,1.2c0.4,1.2-0.8,3.2-3.9,3c-2.9-0.2-3.4-2.5-3.3-2.9l1.9-1l-1.3-0.7v-0.1l1.4-1.2
		c-1-0.6-1.5-1.5-1.5-2.6c0-1.6,1.3-3,2.9-3c0.8,0,1.5,0.3,2,0.9c0.3-0.2,0.4-0.5,0.4-0.7h1.5V305.7z M324.3,313
		c0,0-1.2,0.5-1.2,1.5c0,0.6,0.8,1.6,2.2,1.7c1.4,0.1,2.6-0.4,2.9-1.1c0.2-0.5,0.1-1.3-1.4-1.6L324.3,313z M327.2,308.2
		c0-1.3-0.9-2.3-1.8-2.3c-1.1-0.1-1.9,1.2-1.8,2.5c0,1.4,0.9,2.3,1.9,2.3C326.7,310.7,327.3,309.6,327.2,308.2z"/>
	<path class="st0" d="M336,312.4v0.3l-1.1,0.6c-0.4,0-0.8-0.4-0.8-0.9c-0.4,0.2-1.5,1-2.4,1c-1.2,0-2-0.8-2-1.9
		c0-1.1,0.6-1.8,1.6-2.1c0.9-0.2,2.6-0.7,2.9-0.8c0-1.7-0.4-3-2.6-2.5l-0.5,1.2h-0.8c0,0,0-1,0-1c0.3-0.3,1-0.8,2.2-0.8
		c2.6,0,2.6,2,2.6,3.3v3.4C335.1,312.6,336,312.4,336,312.4z M334.1,311.9V309l-2.2,0.7c-0.6,0.2-1.2,0.7-1.2,1.7
		c0,1.1,0.9,1.5,1.7,1.3C333.4,312.4,334.1,311.9,334.1,311.9z"/>
	<path class="st0" d="M337.3,306.1h-1.1v-0.5c0,0,0.9-0.1,1.2-0.6c0.3-0.5,0.4-1.3,0.4-1.3h0.5v1.9h1.4v0.5h-1.4v5.6
		c0,1.3,1.4,1.2,1.4,1.2v0.2c0,0-0.3,0.1-1,0.1c-0.9,0-1.4-0.5-1.4-1.5V306.1z"/>
	<path class="st0" d="M348.4,312.2v0.4l-2.1,0.6v-1.1c-0.5,0.3-1.7,1.1-1.9,1.1c-0.9,0-2.8,0.1-2.8-3v-3.8l-1.2-0.2v-0.4l2.2-0.3
		v4.8c0,2,1,2.2,2,2.1c0.6-0.1,1.7-0.7,1.7-0.7v-5.3l-1.2-0.2v-0.4l2.2-0.3v6.6L348.4,312.2z"/>
	<path class="st0" d="M354,305.8v1h-0.8l-0.5-0.7c-0.6,0-1.7,1.1-1.7,1.1v5.1l1.5,0.3v0.4h-3.6v-0.4l1.2-0.3l0-5.9l-1.2-0.2v-0.4
		l1.9-0.3l0.3,1.2c0,0,0.8-0.8,0.9-1C352.7,305.1,354,305.7,354,305.8z"/>
	<path class="st0" d="M360,312.1l0.1,0.4c0,0-1.1,0.8-2.5,0.8c-2.5-0.1-3.6-2.2-3.5-3.9c0-2.3,1.6-3.9,3.4-4
		c2.2-0.1,3.1,1.8,3.1,3.1h-5.3c-0.3,3.1,1.5,4.1,2.9,4.1C359.3,312.6,360,312.1,360,312.1z M355.2,308.1l4.2-0.2c0,0-0.2-2.1-2-1.9
		C355.7,306.1,355.2,308.1,355.2,308.1z"/>
	<path class="st0" d="M366.4,311.1c0,0.7-0.3,2.2-2.6,2.3c-1.2,0-2.3-0.6-2.6-0.8c0,0,0-1.3,0-1.3h0.8l0.4,1.1
		c2,1.1,3.2-0.3,3.1-1.3c-0.2-1.5-2.2-1.3-3.4-2.2c-0.9-0.7-0.9-1.5-0.9-1.8c0.2-1.3,1.3-1.8,2.7-1.8c1.1,0,1.8,0.4,2.2,0.8
		c0,0,0,1,0,1h-0.7l-0.6-1.2c-1.2-0.4-2.7,0.1-2.6,1.4c0.1,0.8,1.1,1.1,2,1.4C364.7,309,366.3,309.3,366.4,311.1z"/>
</g>
</svg>
