<?xml version="1.0" encoding="utf-8"?>
<!-- Generator: Adobe Illustrator 23.0.1, SVG Export Plug-In . SVG Version: 6.00 Build 0)  -->
<svg version="1.1" id="Layer_1" xmlns="http://www.w3.org/2000/svg" xmlns:xlink="http://www.w3.org/1999/xlink" x="0px" y="0px"
	 viewBox="0 0 2963 1286" style="enable-background:new 0 0 2963 1286;" xml:space="preserve">
<style type="text/css">
	.st0{fill:#141C10;}
	.st1{fill:none;stroke:#F7901E;stroke-width:6;stroke-miterlimit:10;}
	.st2{fill:#F9F9FA;}
	.st3{fill:#FFFFFF;}
	.st4{fill:none;stroke:#F79420;stroke-width:5;}
	.st5{fill:#F79420;}
</style>
<rect x="-279" y="806" class="st0" width="3989" height="645"/>
<rect x="-279" y="2287" class="st0" width="3989" height="645"/>
<rect x="-279" y="3927" class="st0" width="3989" height="645"/>
<rect x="-279" y="5372" class="st0" width="3989" height="995"/>
<rect x="-279" y="6555" class="st0" width="3989" height="1273"/>
<rect x="4236" y="-1522" class="st0" width="2963" height="2108"/>
<text transform="matrix(1 0 0 1 12694.752 3463.3428)" style="fill:#F7901E; font-family:'Taylor-Regular'; font-size:754.6314px;">z</text>
<text transform="matrix(1 0 0 1 12098.752 3463.3428)" style="fill:#F7901E; font-family:'Taylor-Regular'; font-size:754.6314px;">y</text>
<text transform="matrix(1 0 0 1 11558.752 3199.3428)" style="fill:#F7901E; font-family:'Taylor-Regular'; font-size:754.6314px;">x</text>
<text transform="matrix(1 0 0 1 12210.752 2716.3428)" style="fill:#F7901E; font-family:'Taylor-Regular'; font-size:754.6314px;">w</text>
<text transform="matrix(1 0 0 1 12210.752 2165.3428)" style="fill:#F7901E; font-family:'Taylor-Regular'; font-size:754.6314px;">v</text>
<text transform="matrix(1 0 0 1 11675.752 1801.3428)" style="fill:#F7901E; font-family:'Taylor-Regular'; font-size:754.6314px;">u</text>
<text transform="matrix(1 0 0 1 11270.752 2468.3428)" style="fill:#F7901E; font-family:'Taylor-Regular'; font-size:754.6314px;">t</text>
<text transform="matrix(1 0 0 1 10867.752 1746.3428)" style="fill:#F7901E; font-family:'Taylor-Regular'; font-size:754.6314px;">s</text>
<text transform="matrix(1 0 0 1 10483.752 2416.3428)" style="fill:#F7901E; font-family:'Taylor-Regular'; font-size:754.6314px;">r</text>
<text transform="matrix(1 0 0 1 9951.752 1928.3428)" style="fill:#F7901E; font-family:'Taylor-Regular'; font-size:754.6314px;">q</text>
<text transform="matrix(1 0 0 1 9455.752 2693.3428)" style="fill:#F7901E; font-family:'Taylor-Regular'; font-size:754.6314px;">p</text>
<text transform="matrix(1 0 0 1 9114.752 2052.3428)" style="fill:#F7901E; font-family:'Taylor-Regular'; font-size:754.6314px;">o</text>
<text transform="matrix(1 0 0 1 8580.752 1619.3428)" style="fill:#F7901E; font-family:'Taylor-Regular'; font-size:754.6314px;">n</text>
<text transform="matrix(1 0 0 1 7816.752 1619.3428)" style="font-family:'Taylor-Regular'; font-size:754.6314px;">l</text>
<text transform="matrix(1 0 0 1 8099.752 2052.3428)" style="font-family:'Taylor-Regular'; font-size:754.6314px;">m</text>
<text transform="matrix(1 0 0 1 11678.752 864.3428)" style="fill:#F7901E; font-family:'Taylor-Regular'; font-size:754.6314px;">k</text>
<text transform="matrix(1 0 0 1 11300.752 864.3428)" style="fill:#F7901E; font-family:'Taylor-Regular'; font-size:754.6314px;">j</text>
<text transform="matrix(1 0 0 1 10895.752 864.3428)" style="fill:#F7901E; font-family:'Taylor-Regular'; font-size:754.6314px;">i</text>
<text transform="matrix(1 0 0 1 10492.752 864.3428)" style="fill:#F7901E; font-family:'Taylor-Regular'; font-size:754.6314px;">h</text>
<text transform="matrix(1 0 0 1 10108.752 892.3428)" style="fill:#F7901E; font-family:'Taylor-Regular'; font-size:754.6314px;">g</text>
<g>
	<path class="st1" d="M9823.6,3443.4l-171.5,82.3l5.1,6.9c37.7,49.7,56.6,113.2,56.6,183.5c0,169.8-135.5,307-296.7,307
		c-54.9,0-85.8-12-109.8-22.3l-60,84l377.3,70.3c104.6,17.2,159.5,65.2,178.4,125.2c37.7,125.2-82.3,331-404.8,313.9
		c-308.7-17.2-356.7-262.4-341.3-300.1l199-101.2l-133.8-73.7v-10.3l149.2-125.2c-106.3-58.3-161.2-154.4-161.2-267.6
		c0-171.5,135.5-310.4,307-310.4c82.3,0,152.6,34.3,209.2,89.2c30.9-22.3,41.2-49.7,42.9-70.3h154.4V3443.4z M9297.1,4203.2
		c0,0-125.2,53.2-125.2,157.8c0,66.9,84,162.9,229.8,173.2c147.5,10.3,267.6-41.2,300.1-118.3c24-56.6,13.7-137.2-145.8-168.1
		L9297.1,4203.2z M9602.3,3704.1c-5.1-138.9-89.2-240.1-188.7-245.3c-120.1-6.9-195.5,121.8-192.1,264.1
		c1.7,142.4,90.9,241.8,204.1,238.4C9552.6,3958,9609.2,3848.2,9602.3,3704.1z"/>
</g>
<g>
	<path class="st1" d="M9401.5,4591.3c-308.7,0-373.9-262.4-358.5-300.1l216.1-82.3l-133.8-92.6V4106l162.9-135.5
		c-116.6-56.6-174.9-152.6-174.9-265.8c0-162.9,132.1-295,296.7-295c84,0,157.8,34.3,214.4,89.2l42.9-77.2h169.8v18.9l-186.9,89.2
		c36,48,56.6,108.1,56.6,174.9c0,161.2-133.8,291.6-296.7,291.6c-22.3,0-49.7-3.4-61.7-6.9c-12-1.7-25.7-6.9-25.7-6.9l-60,89.2
		l348.2,63.5c104.6,17.2,159.5,65.2,178.4,125.2C9826.8,4385.5,9723.9,4589.6,9401.5,4591.3z M9300.3,4219.2
		c-12,10.3-113.2,63.5-113.2,149.2c0,66.9,72,161.2,217.8,162.9c147.5,0,226.4-54.9,265.8-118.3c32.6-54.9,5.1-123.5-128.6-149.2
		L9300.3,4219.2z M9415.2,3937.9c109.8,1.7,152.6-106.3,149.2-240.1c-3.4-128.6-63.5-229.8-154.4-233.3
		c-109.8-3.4-152.6,108-156.1,238.4C9252.2,3835,9324.3,3937.9,9415.2,3937.9z"/>
</g>
<g>
	<path class="st1" d="M9391.6,4593.9c-313.9-20.6-380.8-267.6-365.3-305.3l173.2-78.9l-89.2-99.5v-12l137.2-113.2
		c-97.8-63.5-149.2-156.1-149.2-264.1c0-174.9,140.6-315.6,317.3-315.6c89.2,0,169.8,36,229.8,96l15.4-77.2h183.5v37.7l-171.5,72
		c37.7,51.5,61.7,114.9,61.7,186.9c0,174.9-144.1,312.1-319,310.4c-24,0-53.2-3.4-65.2-6.9c-13.7-1.7-29.2-6.9-29.2-6.9l-18.9-6.9
		l-8.6,56.6l373.9,54.9C9995.3,4170.3,9882.1,4626.5,9391.6,4593.9z M9597.4,4280.1l-317.3-51.5c-12,10.3-78.9,60-78.9,128.6
		s46.3,142.4,193.8,156.1c178.4,17.2,274.4-56.6,293.3-101.2C9708.9,4364.1,9705.5,4302.4,9597.4,4280.1z M9288.7,3738.1
		c5.1,135.5,68.6,226.4,147.5,217.8c89.2-17.2,114.9-125.2,106.3-260.7c-8.6-130.3-60-226.4-135.5-217.8
		C9314.4,3487.7,9283.6,3602.6,9288.7,3738.1z"/>
</g>
<g>
	<path class="st1" d="M9877.2,3440.1l-176.7,65.2c49.7,61.7,75.5,138.9,72,224.7c-8.6,190.4-173.2,355-365.3,331
		c-44.6-1.7-87.5-12-126.9-29.2l-22.3,58.3l418.5,56.6c111.5,15.4,178.4,61.7,195.5,138.9c29.2,132.1-96,361.9-466.5,341.3
		c-327.6-18.9-418.5-253.8-403-291.6l162.9-85.8l-101.2-130.3l-1.7-10.3l157.8-111.5c-94.3-65.2-154.4-173.2-147.5-295
		c5.1-190.4,171.5-337.9,368.7-329.3c78.9,3.4,149.2,30.9,204.1,75.5l27.4-48h204.1V3440.1z M9252.9,4294.2c0,0-37.7,8.6-34.3,77.2
		c3.4,66.9,84,156.1,192.1,164.6c132.1,10.3,240.1-37.7,240.1-106.3c0-49.7-63.5-92.6-180.1-108L9252.9,4294.2z M9547.9,3707.6
		c-5.1-138.9-44.6-233.3-125.2-229.8c-96,3.4-130.3,106.3-126.9,245.3c3.4,132.1,44.6,226.4,133.8,224.7
		C9515.3,3946,9553,3843.1,9547.9,3707.6z"/>
</g>
<text transform="matrix(1 0 0 1 9724.752 864.3428)" style="fill:#F7901E; font-family:'Taylor-Regular'; font-size:754.6314px;">f</text>
<text transform="matrix(1 0 0 1 9344.752 864.3428)" style="fill:#F7901E; font-family:'Taylor-Regular'; font-size:754.6314px;">e</text>
<text transform="matrix(1 0 0 1 8967.752 864.3428)" style="fill:#F7901E; font-family:'Taylor-Regular'; font-size:754.6314px;">d</text>
<text transform="matrix(1 0 0 1 8580.752 864.3428)" style="fill:#F7901E; font-family:'Taylor-Regular'; font-size:754.6314px;">c</text>
<g>
	<g>
		<path class="st2" d="M8504.1,828v17.2l-59.7,24c-8.9,0-35-13.7-35-41.2c-18.5,11-55.6,43.9-93.3,43.9c-50.1,0-89.2-38.4-89.2-87.1
			c0-43.9,24-68.6,63.8-80.3c37.7-11,109.1-33.6,118.7-37v-13c0-74.8-43.9-105-93.3-90.6l-28.1,56.3h-38.4c0,0,0.7-50.8,0-50.8
			c13-11,37-32.9,89.9-32.9c122.8,0,124.9,79.6,126.2,124.9v155C8465.6,842.4,8504.1,828,8504.1,828z M8409.4,810.8V686.7
			c-22.6,7.5-62.4,23.3-84.4,31.6c-15.8,5.5-39.1,26.8-39.1,64.5c0,32.9,24,56.3,56.9,54.2C8383.3,834.2,8409.4,810.8,8409.4,810.8z
			"/>
	</g>
</g>
<text transform="matrix(1 0 0 1 7816.752 864.3428)" style="font-family:'Taylor-Regular'; font-size:754.6314px;">b</text>
<text transform="matrix(0.7071 -0.7071 0.7071 0.7071 5498.5254 -851.9383)" class="st5" style="font-family:'Taylor-Regular'; font-size:754.6314px;">¥</text>
<text transform="matrix(0.8674 -0.4977 0.4977 0.8674 7816.6504 -573.9357)" style="font-family:'Taylor-Regular'; font-size:754.6314px;">g</text>
<text transform="matrix(0.8676 -0.4972 0.4972 0.8676 8559.5107 -256.9426)" style="font-family:'Taylor-BlackItalic'; font-size:754.6314px;">f</text>
<g>
	<path class="st3" d="M717.5,6840.7h-52.1l-73.6-135.8H426.7V7419l118.8,24.9v39.6H172v-39.6l118.8-24.9v-714.1H125.6l-73.6,135.8H0
		l7.9-192.4h701.7L717.5,6840.7z"/>
	<path class="st3" d="M1134,7410v28.3l-118.8,53.2c-36.2,0-64.5-41.9-64.5-67.9c0,0-61.1,72.4-153.9,72.4
		c-82.6,0-150.5-44.1-152.8-127.9c-2.3-86,45.3-127.9,110.9-148.3c62.2-18.1,180-55.5,195.8-61.1v-32.8c0-112-57.7-146-110.9-138.1
		c-22.6,3.4-37.3,10.2-37.3,10.2l-40.7,92.8h-81.5c0,0,1.1-96.2,0-96.2c21.5-18.1,89.4-52.1,176.6-52.1
		c202.6,0,211.6,131.3,213.9,206v249C1070.7,7430.3,1134,7410,1134,7410z M950.7,7389.6v-190.1c-37.3,12.4-80.4,28.3-116.6,41.9
		c-45.3,17-70.2,45.3-70.2,107.5c0,53.2,39.6,84.9,93.9,81.5C924.7,7425.8,950.7,7389.6,950.7,7389.6z"/>
	<path class="st3" d="M1351.3,7642c-66.8,127.9-206,87.1-206,87.1v-127.9h56.6l32.8,47.5c7.9,0,47.5-2.3,71.3-44.1l60-126.8
		l-195.8-455l-70.2-34v-28.3h276.2v28.3l-77,27.2l133.5,314.6c0,0,103-242.2,134.7-314.6l-82.6-27.2v-28.3h225.2v28.3l-81.5,31.7
		l-229.7,522.9C1398.9,7543.5,1395.5,7551.4,1351.3,7642z"/>
	<path class="st3" d="M1893.5,6634.7v792.2l83.8,28.3v28.3h-287.5v-28.3l84.9-28.3v-717.5l-87.1-23.8v-28.3L1893.5,6634.7z"/>
	<path class="st3" d="M2517.1,7267.4c-24.9,152.8-157.3,251.3-309,221.8c-140.3-27.2-227.5-177.7-196.9-328.2
		c29.4-146,169.8-241.1,309-209.4C2459.4,6979.9,2540.9,7120.2,2517.1,7267.4z M2399.4,7201.7c-2.3-120-54.3-204.9-149.4-195.8
		c-91.7,11.3-123.4,103-121.1,224.1c3.4,123.4,47.5,215,148.3,202.6C2366.6,7422.4,2401.6,7326.2,2399.4,7201.7z"/>
	<path class="st3" d="M2963,6979.9v99.6h-83.8l-43-60c-39.6,3.4-93.9,62.2-93.9,62.2v344.1l103,29.4v28.3h-304.4v-28.3l82.6-29.4
		l-1.1-388.2l-83.8-23.8v-28.3l186.7-23.8l17,82.6c0,0,62.2-69,75.8-75.8C2874.7,6930.1,2963,6966.3,2963,6979.9z"/>
</g>
<g>
	<path class="st3" d="M717.5,5315.7h-52.1l-73.6-135.8H426.7V5894l118.8,24.9v39.6H172v-39.6l118.8-24.9v-714.1H125.6l-73.6,135.8H0
		l7.9-192.4h701.7L717.5,5315.7z"/>
	<path class="st3" d="M1134,5885v28.3l-118.8,53.2c-36.2,0-64.5-41.9-64.5-67.9c0,0-61.1,72.4-153.9,72.4
		c-82.6,0-150.5-44.1-152.8-127.9c-2.3-86,45.3-127.9,110.9-148.3c62.2-18.1,180-55.5,195.8-61.1v-32.8c0-112-57.7-146-110.9-138.1
		c-22.6,3.4-37.3,10.2-37.3,10.2l-40.7,92.8h-81.5c0,0,1.1-96.2,0-96.2c21.5-18.1,89.4-52.1,176.6-52.1
		c202.6,0,211.6,131.3,213.9,206v249C1070.7,5905.3,1134,5885,1134,5885z M950.7,5864.6v-190.1c-37.3,12.4-80.4,28.3-116.6,41.9
		c-45.3,17-70.2,45.3-70.2,107.5c0,53.2,39.6,84.9,93.9,81.5C924.7,5900.8,950.7,5864.6,950.7,5864.6z"/>
	<path class="st3" d="M1351.3,6117c-66.8,127.9-206,87.1-206,87.1v-127.9h56.6l32.8,47.5c7.9,0,47.5-2.3,71.3-44.1l60-126.8
		l-195.8-455l-70.2-34v-28.3h276.2v28.3l-77,27.2l133.5,314.6c0,0,103-242.2,134.7-314.6l-82.6-27.2v-28.3h225.2v28.3l-81.5,31.7
		l-229.7,522.9C1398.9,6018.5,1395.5,6026.4,1351.3,6117z"/>
	<path class="st3" d="M1893.5,5109.7v792.2l83.8,28.3v28.3h-287.5v-28.3l84.9-28.3v-717.5l-87.1-23.8v-28.3L1893.5,5109.7z"/>
	<path class="st3" d="M2517.1,5742.4c-24.9,152.8-157.3,251.3-309,221.8c-140.3-27.2-227.5-177.7-196.9-328.2
		c29.4-146,169.8-241.1,309-209.4C2459.4,5454.9,2540.9,5595.2,2517.1,5742.4z M2399.4,5676.7c-2.3-120-54.3-204.9-149.4-195.8
		c-91.7,11.3-123.4,103-121.1,224.1c3.4,123.4,47.5,215,148.3,202.6C2366.6,5897.4,2401.6,5801.2,2399.4,5676.7z"/>
	<path class="st3" d="M2963,5454.9v99.6h-83.8l-43-60c-39.6,3.4-93.9,62.2-93.9,62.2v344.1l103,29.4v28.3h-304.4v-28.3l82.6-29.4
		l-1.1-388.2l-83.8-23.8v-28.3l186.7-23.8l17,82.6c0,0,62.2-69,75.8-75.8C2874.7,5405.1,2963,5441.3,2963,5454.9z"/>
</g>
<g>
	<path class="st3" d="M717.5,3626.7h-52.1l-73.6-135.8H426.7V4205l118.8,24.9v39.6H172v-39.6l118.8-24.9v-714.1H125.6l-73.6,135.8H0
		l7.9-192.4h701.7L717.5,3626.7z"/>
	<path class="st3" d="M1134,4196v28.3l-118.8,53.2c-36.2,0-64.5-41.9-64.5-67.9c0,0-61.1,72.4-153.9,72.4
		c-82.6,0-150.5-44.1-152.8-127.9c-2.3-86,45.3-127.9,110.9-148.3c62.2-18.1,180-55.5,195.8-61.1v-32.8c0-112-57.7-146-110.9-138.1
		c-22.6,3.4-37.3,10.2-37.3,10.2l-40.7,92.8h-81.5c0,0,1.1-96.2,0-96.2c21.5-18.1,89.4-52.1,176.6-52.1
		c202.6,0,211.6,131.3,213.9,206v249C1070.7,4216.3,1134,4196,1134,4196z M950.7,4175.6v-190.1c-37.3,12.4-80.4,28.3-116.6,41.9
		c-45.3,17-70.2,45.3-70.2,107.5c0,53.2,39.6,84.9,93.9,81.5C924.7,4211.8,950.7,4175.6,950.7,4175.6z"/>
	<path class="st3" d="M1351.3,4428c-66.8,127.9-206,87.1-206,87.1v-127.9h56.6l32.8,47.5c7.9,0,47.5-2.3,71.3-44.1l60-126.8
		l-195.8-455l-70.2-34v-28.3h276.2v28.3l-77,27.2l133.5,314.6c0,0,103-242.2,134.7-314.6l-82.6-27.2v-28.3h225.2v28.3l-81.5,31.7
		l-229.7,522.9C1398.9,4329.5,1395.5,4337.4,1351.3,4428z"/>
	<path class="st3" d="M1893.5,3420.7v792.2l83.8,28.3v28.3h-287.5v-28.3l84.9-28.3v-717.5l-87.1-23.8v-28.3L1893.5,3420.7z"/>
	<path class="st3" d="M2517.1,4053.4c-24.9,152.8-157.3,251.3-309,221.8c-140.3-27.2-227.5-177.7-196.9-328.2
		c29.4-146,169.8-241.1,309-209.4C2459.4,3765.9,2540.9,3906.2,2517.1,4053.4z M2399.4,3987.7c-2.3-120-54.3-204.9-149.4-195.8
		c-91.7,11.3-123.4,103-121.1,224.1c3.4,123.4,47.5,215,148.3,202.6C2366.6,4208.4,2401.6,4112.2,2399.4,3987.7z"/>
	<path class="st3" d="M2963,3765.9v99.6h-83.8l-43-60c-39.6,3.4-93.9,62.2-93.9,62.2v344.1l103,29.4v28.3h-304.4v-28.3l82.6-29.4
		l-1.1-388.2l-83.8-23.8v-28.3l186.7-23.8l17,82.6c0,0,62.2-69,75.8-75.8C2874.7,3716.1,2963,3752.3,2963,3765.9z"/>
</g>
<g>
	<path class="st3" d="M717.5,1914.7h-52.1l-73.6-135.8H426.7V2493l118.8,24.9v39.6H172v-39.6l118.8-24.9v-714.1H125.6l-73.6,135.8H0
		l7.9-192.4h701.7L717.5,1914.7z"/>
	<path class="st3" d="M1134,2484v28.3l-118.8,53.2c-36.2,0-64.5-41.9-64.5-67.9c0,0-61.1,72.4-153.9,72.4
		c-82.6,0-150.5-44.1-152.8-127.9c-2.3-86,45.3-127.9,110.9-148.3c62.2-18.1,180-55.5,195.8-61.1v-32.8c0-112-57.7-146-110.9-138.1
		c-22.6,3.4-37.3,10.2-37.3,10.2l-40.7,92.8h-81.5c0,0,1.1-96.2,0-96.2c21.5-18.1,89.4-52.1,176.6-52.1
		c202.6,0,211.6,131.3,213.9,206v249C1070.7,2504.3,1134,2484,1134,2484z M950.7,2463.6v-190.1c-37.3,12.4-80.4,28.3-116.6,41.9
		c-45.3,17-70.2,45.3-70.2,107.5c0,53.2,39.6,84.9,93.9,81.5C924.7,2499.8,950.7,2463.6,950.7,2463.6z"/>
	<path class="st3" d="M1351.3,2716c-66.8,127.9-206,87.1-206,87.1v-127.9h56.6l32.8,47.5c7.9,0,47.5-2.3,71.3-44.1l60-126.8
		l-195.8-455l-70.2-34v-28.3h276.2v28.3l-77,27.2l133.5,314.6c0,0,103-242.2,134.7-314.6l-82.6-27.2v-28.3h225.2v28.3l-81.5,31.7
		l-229.7,522.9C1398.9,2617.5,1395.5,2625.4,1351.3,2716z"/>
	<path class="st3" d="M1893.5,1708.7v792.2l83.8,28.3v28.3h-287.5v-28.3l84.9-28.3v-717.5l-87.1-23.8v-28.3L1893.5,1708.7z"/>
	<path class="st3" d="M2517.1,2341.4c-24.9,152.8-157.3,251.3-309,221.8c-140.3-27.2-227.5-177.7-196.9-328.2
		c29.4-146,169.8-241.1,309-209.4C2459.4,2053.9,2540.9,2194.2,2517.1,2341.4z M2399.4,2275.7c-2.3-120-54.3-204.9-149.4-195.8
		c-91.7,11.3-123.4,103-121.1,224.1c3.4,123.4,47.5,215,148.3,202.6C2366.6,2496.4,2401.6,2400.2,2399.4,2275.7z"/>
	<path class="st3" d="M2963,2053.9v99.6h-83.8l-43-60c-39.6,3.4-93.9,62.2-93.9,62.2v344.1l103,29.4v28.3h-304.4v-28.3l82.6-29.4
		l-1.1-388.2l-83.8-23.8v-28.3l186.7-23.8l17,82.6c0,0,62.2-69,75.8-75.8C2874.7,2004.1,2963,2040.3,2963,2053.9z"/>
</g>
<g>
	<path class="st3" d="M717.5,298.7h-52.1l-73.6-135.8H426.7V877l118.8,24.9v39.6H172v-39.6L290.9,877V162.9H125.6L52.1,298.7H0
		l7.9-192.4h701.7L717.5,298.7z"/>
	<path class="st3" d="M1134,868v28.3l-118.8,53.2c-36.2,0-64.5-41.9-64.5-67.9c0,0-61.1,72.4-153.9,72.4
		c-82.6,0-150.5-44.1-152.8-127.9c-2.3-86,45.3-127.9,110.9-148.3c62.2-18.1,180-55.5,195.8-61.1v-32.8c0-112-57.7-146-110.9-138.1
		c-22.6,3.4-37.3,10.2-37.3,10.2l-40.7,92.8h-81.5c0,0,1.1-96.2,0-96.2c21.5-18.1,89.4-52.1,176.6-52.1
		c202.6,0,211.6,131.3,213.9,206v249C1070.7,888.3,1134,868,1134,868z M950.7,847.6V657.5c-37.3,12.4-80.4,28.3-116.6,41.9
		c-45.3,17-70.2,45.3-70.2,107.5c0,53.2,39.6,84.9,93.9,81.5C924.7,883.8,950.7,847.6,950.7,847.6z"/>
	<path class="st3" d="M1351.3,1100c-66.8,127.9-206,87.1-206,87.1v-127.9h56.6l32.8,47.5c7.9,0,47.5-2.3,71.3-44.1l60-126.8
		l-195.8-455l-70.2-34v-28.3h276.2v28.3l-77,27.2l133.5,314.6c0,0,103-242.2,134.7-314.6l-82.6-27.2v-28.3h225.2v28.3l-81.5,31.7
		l-229.7,522.9C1398.9,1001.5,1395.5,1009.4,1351.3,1100z"/>
	<path class="st3" d="M1893.5,92.7v792.2l83.8,28.3v28.3h-287.5v-28.3l84.9-28.3V167.4l-87.1-23.8v-28.3L1893.5,92.7z"/>
	<path class="st3" d="M2517.1,725.4c-24.9,152.8-157.3,251.3-309,221.8C2067.8,920,1980.6,769.5,2011.2,619
		c29.4-146,169.8-241.1,309-209.4C2459.4,437.9,2540.9,578.2,2517.1,725.4z M2399.4,659.7c-2.3-120-54.3-204.9-149.4-195.8
		c-91.7,11.3-123.4,103-121.1,224.1c3.4,123.4,47.5,215,148.3,202.6C2366.6,880.4,2401.6,784.2,2399.4,659.7z"/>
	<path class="st3" d="M2963,437.9v99.6h-83.8l-43-60c-39.6,3.4-93.9,62.2-93.9,62.2v344.1l103,29.4v28.3h-304.4v-28.3l82.6-29.4
		l-1.1-388.2l-83.8-23.8v-28.3l186.7-23.8l17,82.6c0,0,62.2-69,75.8-75.8C2874.7,388.1,2963,424.3,2963,437.9z"/>
</g>
<g>
	<path class="st3" d="M717.5-1232.3h-52.1l-73.6-135.8H426.7V-654l118.8,24.9v39.6H172v-39.6L290.9-654v-714.1H125.6l-73.6,135.8H0
		l7.9-192.4h701.7L717.5-1232.3z"/>
	<path class="st3" d="M1134-663v28.3l-118.8,53.2c-36.2,0-64.5-41.9-64.5-67.9c0,0-61.1,72.4-153.9,72.4
		c-82.6,0-150.5-44.1-152.8-127.9c-2.3-86,45.3-127.9,110.9-148.3c62.2-18.1,180-55.5,195.8-61.1v-32.8c0-112-57.7-146-110.9-138.1
		c-22.6,3.4-37.3,10.2-37.3,10.2l-40.7,92.8h-81.5c0,0,1.1-96.2,0-96.2c21.5-18.1,89.4-52.1,176.6-52.1
		c202.6,0,211.6,131.3,213.9,206v249C1070.7-642.7,1134-663,1134-663z M950.7-683.4v-190.1c-37.3,12.4-80.4,28.3-116.6,41.9
		c-45.3,17-70.2,45.3-70.2,107.5c0,53.2,39.6,84.9,93.9,81.5C924.7-647.2,950.7-683.4,950.7-683.4z"/>
	<path class="st3" d="M1351.3-431c-66.8,127.9-206,87.1-206,87.1v-127.9h56.6l32.8,47.5c7.9,0,47.5-2.3,71.3-44.1l60-126.8
		l-195.8-455l-70.2-34v-28.3h276.2v28.3l-77,27.2l133.5,314.6c0,0,103-242.2,134.7-314.6l-82.6-27.2v-28.3h225.2v28.3l-81.5,31.7
		l-229.7,522.9C1398.9-529.5,1395.5-521.6,1351.3-431z"/>
	<path class="st3" d="M1893.5-1438.3v792.2l83.8,28.3v28.3h-287.5v-28.3l84.9-28.3v-717.5l-87.1-23.8v-28.3L1893.5-1438.3z"/>
	<path class="st3" d="M2517.1-805.6c-24.9,152.8-157.3,251.3-309,221.8C2067.8-611,1980.6-761.5,2011.2-912
		c29.4-146,169.8-241.1,309-209.4C2459.4-1093.1,2540.9-952.8,2517.1-805.6z M2399.4-871.3c-2.3-120-54.3-204.9-149.4-195.8
		c-91.7,11.3-123.4,103-121.1,224.1c3.4,123.4,47.5,215,148.3,202.6C2366.6-650.6,2401.6-746.8,2399.4-871.3z"/>
	<path class="st3" d="M2963-1093.1v99.6h-83.8l-43-60c-39.6,3.4-93.9,62.2-93.9,62.2v344.1l103,29.4v28.3h-304.4v-28.3l82.6-29.4
		l-1.1-388.2l-83.8-23.8v-28.3l186.7-23.8l17,82.6c0,0,62.2-69,75.8-75.8C2874.7-1142.9,2963-1106.7,2963-1093.1z"/>
</g>
<rect x="5662.6" y="547.9" style="fill:none;" width="7.4" height="3.7"/>
<rect x="6344.5" y="-1694" style="fill:none;" width="3.2" height="9.6"/>
<text transform="matrix(1 0 0 1 6986.752 -1776.1133)" style="font-family:'Taylor-Regular'; font-size:754.6314px;">æ</text>
<g>
	
		<text transform="matrix(0.8401 0.5424 -0.5424 0.8401 4337.627 -257.1803)" class="st5" style="font-family:'Taylor-Regular'; font-size:754.6314px;">£</text>
</g>
<text transform="matrix(0.9321 -0.3621 0.3621 0.9321 7816.5444 -1113.9496)" style="font-family:'Taylor-Regular'; font-size:754.6314px;">§</text>
<text transform="matrix(1 0 0 1 5386.8623 -468.0547)" class="st3" style="font-family:'Taylor-BlackItalic'; font-size:192.9981px;">currency</text>
<g>
	<path class="st4" d="M6395.6,4206.2v33.7l-147.4,73.7c-56.9,0-96.9-52.7-96.9-111.6c-56.9,31.6-191.7,126.4-307.5,126.4
		c-160.1,0-263.3-103.2-263.3-250.6c0-147.4,77.9-235.9,202.2-269.6c115.8-31.6,339.1-86.4,368.6-96.9c0-219.1-54.8-391.8-337-318
		l-65.3,155.9h-99c0,0,0-133.1,0-134.8c40-33.7,130.6-96.9,286.5-96.9c341.2,0,341.2,254.9,341.2,425.5v431.8
		C6277.6,4237.8,6395.6,4206.2,6395.6,4206.2z M6151.3,4138.8v-368.6l-280.1,84.3c-80,23.2-151.7,94.8-151.7,219.1
		c0,136.9,118,189.6,221.2,162.2C6062.8,4204.1,6151.3,4138.8,6151.3,4138.8z"/>
</g>
<g>
	<path class="st4" d="M6413.5,4203v52.7l-183.2,73.7c-27.4,0-107.4-42.1-107.4-126.4c-56.9,33.7-170.6,134.8-286.5,134.8
		c-153.8,0-273.8-118-273.8-267.5c0-134.8,73.7-210.6,195.9-246.4c115.8-33.7,334.9-103.2,364.4-113.7v-40
		c0-229.6-134.8-322.3-286.5-278l-86.4,172.7h-118c0,0-0.1-152.9,0-155.9c40-33.7,113.7-101.1,275.9-101.1
		c377,0,383.3,244.3,387.6,383.3v476C6295.5,4247.3,6413.5,4203,6413.5,4203z M6122.8,4150.4v-375.2
		c-69.5,23.2-191.7,65.6-259.1,90.9c-48.4,16.9-120.1,82.1-120.1,198c0,101.1,73.7,172.7,174.8,166.4
		C6042.8,4222,6122.8,4150.4,6122.8,4150.4z"/>
</g>
<g>
	<path class="st4" d="M6444.1,4177.8v52.7l-221.2,99c-67.4,0-120.1-77.9-120.1-126.4c0,0-113.7,134.8-286.5,134.8
		c-153.8,0-280.1-82.1-284.3-238c-4.2-160.1,84.3-238,206.4-275.9c115.8-33.7,334.9-103.2,364.4-113.7v-61.1
		c0-208.5-107.4-271.7-206.4-257c-42.1,6.3-69.5,19-69.5,19l-75.8,172.7h-151.7c0,0-0.1-179.5,0-179c0.5,1.2,0,0,0-0.1
		c40.1-33.7,166.4-96.9,328.5-96.9c377,0,393.9,244.3,398.1,383.3v463.4C6326.2,4215.7,6444.1,4177.8,6444.1,4177.8z M6102.9,4139.9
		V3786c-69.5,23.2-149.5,52.7-216.9,77.9c-84.2,31.6-130.6,84.3-130.6,200.1c0,99,73.7,158,174.8,151.7
		C6054.4,4207.3,6102.9,4139.9,6102.9,4139.9z"/>
</g>
<g>
	<path class="st4" d="M6466.4,4137.1v69.5L6211.6,4335c-67.4,0-136.9-75.8-136.9-122.2c0,0-94.8,115.8-240.1,124.3
		c-153.8,8.4-311.7-35.8-324.4-235.9c-12.6-202.2,200.1-263.3,238-275.9l324.4-103.2V3661c0-208.5-113.7-240.1-212.7-240.1
		c-21.1,0-40,8.4-40,8.4l-69.5,176.9h-187.5V3423c40-33.7,166.2-115.4,328.4-115.4c377,0,478.3,207.4,478.3,382.9V4116
		C6369.5,4164.4,6466.4,4137.1,6466.4,4137.1z M6074.7,4124.4v-315.9l-170.6,63.2c-84.3,31.6-111.6,105.3-103.2,191.7
		c10.5,99,46.3,139,147.4,132.7C6038.9,4187.6,6074.7,4124.4,6074.7,4124.4z"/>
</g>
<g>
	<path class="st4" d="M7964.6,4206.2v33.7l-147.4,73.7c-56.9,0-96.9-52.7-96.9-111.6c-56.9,31.6-191.7,126.4-307.5,126.4
		c-160.1,0-263.3-103.2-263.3-250.6c0-147.4,77.9-235.9,202.2-269.6c115.8-31.6,339.1-86.4,368.6-96.9c0-219.1-54.8-391.8-337-318
		l-65.3,155.9h-99c0,0,0-133.1,0-134.8c40-33.7,130.6-96.9,286.5-96.9c341.2,0,341.2,254.9,341.2,425.5v431.8
		C7846.6,4237.8,7964.6,4206.2,7964.6,4206.2z M7720.3,4138.8v-368.6l-280.1,84.3c-80,23.2-151.7,94.8-151.7,219.1
		c0,136.9,118,189.6,221.2,162.2C7631.8,4204.1,7720.3,4138.8,7720.3,4138.8z"/>
</g>
<g>
	<path class="st4" d="M7982.5,4203v52.7l-183.2,73.7c-27.4,0-107.4-42.1-107.4-126.4c-56.9,33.7-170.6,134.8-286.5,134.8
		c-153.8,0-273.8-118-273.8-267.5c0-134.8,73.7-210.6,195.9-246.4c115.8-33.7,334.9-103.2,364.4-113.7v-40
		c0-229.6-134.8-322.3-286.5-278l-86.4,172.7h-118c0,0-0.1-152.9,0-155.9c40-33.7,113.7-101.1,275.9-101.1
		c377,0,383.3,244.3,387.6,383.3v476C7864.5,4247.3,7982.5,4203,7982.5,4203z M7691.8,4150.4v-375.2
		c-69.5,23.2-191.7,65.6-259.1,90.9c-48.4,16.9-120.1,82.1-120.1,198c0,101.1,73.7,172.7,174.8,166.4
		C7611.8,4222,7691.8,4150.4,7691.8,4150.4z"/>
</g>
<g>
	<path class="st4" d="M8013.1,4177.8v52.7l-221.2,99c-67.4,0-120.1-77.9-120.1-126.4c0,0-113.7,134.8-286.5,134.8
		c-153.8,0-280.1-82.1-284.3-238c-4.2-160.1,84.3-238,206.4-275.9c115.8-33.7,334.9-103.2,364.4-113.7v-61.1
		c0-208.5-107.4-271.7-206.4-257c-42.1,6.3-69.5,19-69.5,19l-75.8,172.7h-151.7c0,0-0.1-179.5,0-179c0.5,1.2,0,0,0-0.1
		c40.1-33.7,166.4-96.9,328.5-96.9c377,0,393.9,244.3,398.1,383.3v463.4C7895.2,4215.7,8013.1,4177.8,8013.1,4177.8z M7671.9,4139.9
		V3786c-69.5,23.2-149.5,52.7-216.9,77.9c-84.2,31.6-130.6,84.3-130.6,200.1c0,99,73.7,158,174.8,151.7
		C7623.4,4207.3,7671.9,4139.9,7671.9,4139.9z"/>
</g>
<g>
	<path class="st4" d="M6395.6,5563.2v33.7l-147.4,73.7c-56.9,0-96.9-52.7-96.9-111.6c-56.9,31.6-191.7,126.4-307.5,126.4
		c-160.1,0-263.3-103.2-263.3-250.6c0-147.4,77.9-235.9,202.2-269.6c115.8-31.6,339.1-86.4,368.6-96.9c0-219.1-54.8-391.8-337-318
		l-65.3,155.9h-99c0,0,0-133.1,0-134.8c40-33.7,130.6-96.9,286.5-96.9c341.2,0,341.2,254.9,341.2,425.5v431.8
		C6277.6,5594.8,6395.6,5563.2,6395.6,5563.2z M6151.3,5495.8v-368.6l-280.1,84.3c-80,23.2-151.7,94.8-151.7,219.1
		c0,136.9,118,189.6,221.2,162.2C6062.8,5561.1,6151.3,5495.8,6151.3,5495.8z"/>
</g>
<g>
	<path class="st4" d="M6413.5,5560v52.7l-183.2,73.7c-27.4,0-107.4-42.1-107.4-126.4c-56.9,33.7-170.6,134.8-286.5,134.8
		c-153.8,0-273.8-118-273.8-267.5c0-134.8,73.7-210.6,195.9-246.4c115.8-33.7,334.9-103.2,364.4-113.7v-40
		c0-229.6-134.8-322.3-286.5-278l-86.4,172.7h-118c0,0-0.1-152.9,0-155.9c40-33.7,113.7-101.1,275.9-101.1
		c377,0,383.3,244.3,387.6,383.3v476C6295.5,5604.3,6413.5,5560,6413.5,5560z M6122.8,5507.4v-375.2
		c-69.5,23.2-191.7,65.6-259.1,90.9c-48.4,16.9-120.1,82.1-120.1,198c0,101.1,73.7,172.7,174.8,166.4
		C6042.8,5579,6122.8,5507.4,6122.8,5507.4z"/>
</g>
<g>
	<path class="st4" d="M7964.6,5563.2v33.7l-147.4,73.7c-56.9,0-96.9-52.7-96.9-111.6c-56.9,31.6-191.7,126.4-307.5,126.4
		c-160.1,0-263.3-103.2-263.3-250.6c0-147.4,77.9-235.9,202.2-269.6c115.8-31.6,339.1-86.4,368.6-96.9c0-219.1-54.8-391.8-337-318
		l-65.3,155.9h-99c0,0,0-133.1,0-134.8c40-33.7,130.6-96.9,286.5-96.9c341.2,0,341.2,254.9,341.2,425.5v431.8
		C7846.6,5594.8,7964.6,5563.2,7964.6,5563.2z M7720.3,5495.8v-368.6l-280.1,84.3c-80,23.2-151.7,94.8-151.7,219.1
		c0,136.9,118,189.6,221.2,162.2C7631.8,5561.1,7720.3,5495.8,7720.3,5495.8z"/>
</g>
<circle class="st5" cx="10734" cy="5139" r="6"/>
</svg>
