<?xml version="1.0" encoding="utf-8"?>
<!-- Generator: Adobe Illustrator 23.0.1, SVG Export Plug-In . SVG Version: 6.00 Build 0)  -->
<svg version="1.1" id="Layer_1" xmlns="http://www.w3.org/2000/svg" xmlns:xlink="http://www.w3.org/1999/xlink" x="0px" y="0px"
	 viewBox="0 0 2963 1286" style="enable-background:new 0 0 2963 1286;" xml:space="preserve">
<style type="text/css">
	.st0{fill:#141C10;}
	.st1{fill:none;stroke:#F7901E;stroke-width:6;stroke-miterlimit:10;}
	.st2{fill:#F9F9FA;}
	.st3{fill:#FFFFFF;}
	.st4{fill:none;}
	.st5{fill:none;stroke:#F79420;stroke-width:5;}
	.st6{fill:#F79420;}
</style>
<g>
	<path class="st3" d="M717.5,298.7h-52.1l-73.6-135.8H426.7V877l118.8,24.9v39.6H172v-39.6L290.9,877V162.9H125.6L52.1,298.7H0
		l7.9-192.4h701.7L717.5,298.7z"/>
	<path class="st3" d="M1134,868v28.3l-118.8,53.2c-36.2,0-64.5-41.9-64.5-67.9c0,0-61.1,72.4-153.9,72.4
		c-82.6,0-150.5-44.1-152.8-127.9c-2.3-86,45.3-127.9,110.9-148.3c62.2-18.1,180-55.5,195.8-61.1v-32.8c0-112-57.7-146-110.9-138.1
		c-22.6,3.4-37.3,10.2-37.3,10.2l-40.7,92.8h-81.5c0,0,1.1-96.2,0-96.2c21.5-18.1,89.4-52.1,176.6-52.1
		c202.6,0,211.6,131.3,213.9,206v249C1070.7,888.3,1134,868,1134,868z M950.7,847.6V657.5c-37.3,12.4-80.4,28.3-116.6,41.9
		c-45.3,17-70.2,45.3-70.2,107.5c0,53.2,39.6,84.9,93.9,81.5C924.7,883.8,950.7,847.6,950.7,847.6z"/>
	<path class="st3" d="M1351.3,1100c-66.8,127.9-206,87.1-206,87.1v-127.9h56.6l32.8,47.5c7.9,0,47.5-2.3,71.3-44.1l60-126.8
		l-195.8-455l-70.2-34v-28.3h276.2v28.3l-77,27.2l133.5,314.6c0,0,103-242.2,134.7-314.6l-82.6-27.2v-28.3H1710v28.3l-81.5,31.7
		l-229.7,522.9C1398.9,1001.5,1395.5,1009.4,1351.3,1100z"/>
	<path class="st3" d="M1893.5,92.7v792.2l83.8,28.3v28.3h-287.5v-28.3l84.9-28.3V167.4l-87.1-23.8v-28.3L1893.5,92.7z"/>
	<path class="st3" d="M2517.1,725.4c-24.9,152.8-157.3,251.3-309,221.8C2067.8,920,1980.6,769.5,2011.2,619
		c29.4-146,169.8-241.1,309-209.4C2459.4,437.9,2540.9,578.2,2517.1,725.4z M2399.4,659.7c-2.3-120-54.3-204.9-149.4-195.8
		c-91.7,11.3-123.4,103-121.1,224.1c3.4,123.4,47.5,215,148.3,202.6C2366.6,880.4,2401.6,784.2,2399.4,659.7z"/>
	<path class="st3" d="M2963,437.9v99.6h-83.8l-43-60c-39.6,3.4-93.9,62.2-93.9,62.2v344.1l103,29.4v28.3h-304.4v-28.3l82.6-29.4
		l-1.1-388.2l-83.8-23.8v-28.3l186.7-23.8l17,82.6c0,0,62.2-69,75.8-75.8C2874.7,388.1,2963,424.3,2963,437.9z"/>
</g>
</svg>
