<?xml version="1.0" encoding="utf-8"?>
<!-- Generator: Adobe Illustrator 23.0.1, SVG Export Plug-In . SVG Version: 6.00 Build 0)  -->
<svg version="1.1" id="Layer_1" xmlns="http://www.w3.org/2000/svg" xmlns:xlink="http://www.w3.org/1999/xlink" x="0px" y="0px"
	 viewBox="0 0 1881 1070" style="enable-background:new 0 0 1881 1070;" xml:space="preserve">
<style type="text/css">
	.st0{fill:#FFFFFF;}
	.st1{stroke:#FFFFFF;stroke-miterlimit:10;}
</style>
<g>
	<path class="st0" d="M296.9,453.5v6.4h-56.8v-6.4l16.9-5v-18.8h-55.2v-7.4l66.6-98.4l11.6,0.2V417h15.6v12.9H280v18.8L296.9,453.5z
		 M257,417v-61l-41.2,61H257z"/>
	<path class="st0" d="M507.9,375v4.6l-13.2,5.1l-29.6,75.8H460l-21.5-55.9l-22.6,55.9h-5l-32.5-75.8l-11.8-5.1V375h43.6v4.6
		l-10.7,4.6l19.3,45.4l14.9-37.3l-3.3-8.1l-11-4.6V375h42.3v4.6l-10.7,4.6l17.3,43.8l17.1-43.6l-12.5-4.8V375H507.9z"/>
	<path class="st0" d="M582.6,444.2v4c0-0.2-5.9,14-29.1,14c-25.4,0-43.4-18.8-43.4-44.5c0-23,16-44.5,40.5-44.5
		c25.2,0,35.5,22.6,34,40.6h-55.2c0,21.5,14.5,36.4,30.5,37.3C575.8,452.1,582.6,444.2,582.6,444.2z M529.6,407.4l35.1-4
		c0-3.3-4.2-20.2-16.4-20.2C533.3,383.1,529.6,400.2,529.6,407.4z"/>
	<path class="st0" d="M643.4,455.4v4.6h-46.3v-4.6l14-4.6v-63.1l-13.4-3.3v-4.6l32.2-4.8v75.8L643.4,455.4z M607.2,348.4
		c0-6.3,5.3-11.8,11.8-11.8c6.3,0,11.8,5.5,11.8,11.8c0,6.4-5.5,11.8-11.8,11.8C612.5,360.1,607.2,354.8,607.2,348.4z"/>
	<path class="st0" d="M687.7,500.4c-33.6-2.2-40.8-28.7-39.2-32.7l18.6-8.5l-9.6-10.7v-1.3l14.7-12.1c-10.5-6.8-16-16.7-16-28.3
		c0-18.8,15.1-33.8,34-33.8c9.6,0,18.2,3.9,24.6,10.3l1.7-8.3h19.7v4l-18.4,7.7c4,5.5,6.6,12.3,6.6,20c0,18.8-15.4,33.3-34.2,33.3
		c-6.8,0-12.1-2.2-12.1-2.2l-0.9,6.1l40.1,5.9C752.4,455,740.3,503.9,687.7,500.4z M709.8,466.8l-34-5.5c-1.3,1.1-8.5,6.4-8.5,13.8
		c0,7.4,5,15.3,20.8,16.7c19.1,1.8,29.4-6.1,31.4-10.8C721.7,475.8,721.4,469.2,709.8,466.8z M676.7,408.7
		c0.6,14.5,7.4,24.3,15.8,23.4c9.6-1.8,12.3-13.4,11.4-27.9c-0.9-14-6.4-24.3-14.5-23.4C679.4,381.8,676.1,394.2,676.7,408.7z"/>
	<path class="st0" d="M841.3,455.4v4.6h-46.5v-4.6l13.8-4.6v-47.6c0-15.6-5.9-20.6-17.5-17.8l-18.4,4.6v60.9l13.6,4.6v4.6h-46.5
		v-4.6l13.6-4.6l-0.4-116.6l-12-3.9v-4.6l31.4-3.7v61.8l18.8-8.5c12.5-5.7,36.4,5.3,36.6,26.5v48.9L841.3,455.4z"/>
	<path class="st0" d="M859.7,383.3h-12.5V375c0,0,9.7-0.9,15.3-6.1c6.6-6.3,9.7-15.1,9.7-15.1h7V375h15.4v8.3h-15.4v58.1
		c0,14.2,15.3,11,15.3,11v5c0,0-8.5,3.5-15.4,3.5c-16.7,0-19.3-9.7-19.3-21.1V383.3z"/>
	<path class="st0" d="M943.3,463.3c-14.2,0-28.9-7-32.5-9.6c0.4-0.6,0-17.5,0-17.5h13.1l5.5,14.7c0,0,5.7,4.2,13.4,3.9
		c8.5-0.4,16-6.6,15.6-14.5c-0.7-14.2-22.2-13.2-36.8-23.9c-12.5-9.2-11.6-19.1-10.1-25.4c3.3-13.8,18.6-19.1,34-19.1
		c13.8,0,24.5,5.7,27.8,8.6c-0.2,0,0,17.5,0,17.5h-12.7l-6.4-17.5c0,0-4.2-1.3-8.3-1.3c-8.3,0-19.5,4.4-18.2,15.4
		c1.8,16.4,48.5,8.6,48.5,41.6C976.3,445.6,971.1,463.3,943.3,463.3z"/>
	<path class="st0" d="M296.9,700.1h-44.1l-9.4,44.1h-12l9.4-44.1h-44.1l2.6-12h44.1l9.4-44.1h12l-9.4,44.1h44.1L296.9,700.1z"/>
	<path class="st0" d="M396.1,722.5l2.6,3.1l-20.4,20c-13.6,0-11.6-9.2-9-21.1l10.1-43.9c3.1-14.2-3.9-6.1-13.2,1.7l-2.6-3.1l20.4-20
		c13.6,0,11.8,9.2,9.2,21.1l-10.3,43.9C379.8,738.3,386.8,730.4,396.1,722.5z M403.9,632.4c-1.1,5.1-5.9,9.4-10.7,9.4
		c-4.8,0-7.7-4.2-6.6-9.4c1.1-5.1,5.9-9.4,10.7-9.4C402,623,405,627.2,403.9,632.4z"/>
	<path class="st0" d="M431.1,724.1c-3.1,14.2,3.7,6.3,13.1-1.7l2.6,3.1l-20.4,20c-13.6,0-11.8-9.2-9.2-21.1l12.9-59.4h-11.6l1.3-5.7
		h0.2v-0.2c0,0,7.2-1.3,14-5.5c7-4.2,11.2-15.3,11.2-15.3h4.8l-4.6,21h14.3l-1.3,5.7h-14.3L431.1,724.1z"/>
	<path class="st0" d="M539.9,725.6l-20,20c-11.2,0-12.3-6.3-10.8-15.1c-6.1,6.1-18,16.5-30,15.1c-11-1.5-17.7-12.7-16.5-29.4
		c3.1-38.8,32.7-55.5,41.9-57.4c14.7-2.9,19.1,4.2,19.1,4.2l6.8-3.7h8.5l-14.7,64.7c-3.1,14.2,3.9,6.3,13.2-1.7L539.9,725.6z
		 M510.7,722.9l11.4-52.6c-2-2.9-3.1-5.1-6.8-5.7c-10.5-1.8-32.2,10.5-37.7,46.2c-2.2,14.7,2.6,23.9,9.4,25.2
		C494.1,737,503.7,728.9,510.7,722.9z"/>
	<path class="st0" d="M581.8,722.5l2.6,3.1l-20.4,20c-13.6,0-11.4-9.2-8.8-21.1l23.2-107.2l-0.2,0.2l-15.4-2.2l0.9-4.2l30.9-4.6
		l-25.9,117.7C565.4,738.3,572.4,730.4,581.8,722.5z"/>
	<path class="st0" d="M632.5,722.5l2.6,3.1l-20.4,20c-13.6,0-11.6-9.2-9-21.1l10.1-43.9c3.1-14.2-3.9-6.1-13.2,1.7l-2.6-3.1l20.4-20
		c13.6,0,11.8,9.2,9.2,21.1l-10.3,43.9C616.2,738.3,623.2,730.4,632.5,722.5z M640.3,632.4c-1.1,5.1-5.9,9.4-10.7,9.4
		c-4.8,0-7.7-4.2-6.6-9.4c1.1-5.1,5.9-9.4,10.7-9.4C638.4,623,641.4,627.2,640.3,632.4z"/>
	<path class="st0" d="M718.6,670.8c-0.2,5.1-4.2,9-9.2,9c-8.3,0-6.1-10.1-5.5-15.4c-1.7-0.4-4.4-0.7-7.9,0
		c-10.7,2-29.2,19.7-29.8,44.3c0,17.8,8.5,30.5,20.4,27.8c7.2-1.7,24.1-18.8,24.1-18.8l4.4,2.2c0,0-17.7,20.6-28.9,24.6
		c-16.5,5.9-39-7.9-34.4-39.2c4.8-31.1,30.2-47.1,46-47.8C709.2,657,719.5,663.1,718.6,670.8z"/>
	<path class="st0" d="M794.8,673c-0.2,5.1-4.2,9-9.2,9c-8.6,0-5.9-11-5.5-16c-1.7-1.1-4-2.4-7.5-2.8c-6.6-0.6-17.5,2.6-18.8,16.5
		c-0.4,6.8,6.1,11,13.8,14.3c6.1,2.6,21.3,10.7,17.7,28.1c-1.7,7.2-9,23.5-32.4,23.5c-12,0-25.6-6.6-24.8-16.4c0.2-5.1,4.2-9,9.2-9
		c8.3,0,6.1,10.1,5.5,15.4c2.8,2.2,6.8,3.9,11,3.7c10.3-0.2,16.7-8.6,18-16.2c2.4-13.2-16.5-14-26.1-24.8c-7.5-8.5-6.4-17.5-4.2-23
		c6.3-14.7,20.4-18.4,32-17.8C785.3,658.3,795.4,665.3,794.8,673z"/>
</g>
<g>
	<path class="st0" d="M1488.2,258.4v3.4l-15,7.5c-5.8,0-9.9-5.4-9.9-11.4c-5.8,3.2-19.6,12.9-31.4,12.9c-16.3,0-26.9-10.5-26.9-25.6
		c0-15,8-24.1,20.6-27.5c11.8-3.2,34.6-8.8,37.6-9.9c0-22.4-5.6-40-34.4-32.5l-6.7,15.9h-10.1c0,0,0.2-13.8,0-13.8
		c4.1-3.4,13.3-9.9,29.2-9.9c34.8,0,34.8,26,34.8,43.4v44.1C1476.1,261.6,1488.2,258.4,1488.2,258.4z M1463.2,251.5v-37.6l-28.6,8.6
		c-8.2,2.4-15.5,9.7-15.5,22.4c0,14,12,19.3,22.6,16.5C1454.2,258.1,1463.2,251.5,1463.2,251.5z"/>
</g>
<g>
	<path class="st0" d="M1484.3,461.1v5.4l-18.7,7.5c-2.8,0-11-4.3-11-12.9c-5.8,3.4-17.4,13.8-29.2,13.8c-15.7,0-27.9-12-27.9-27.3
		c0-13.8,7.5-21.5,20-25.1c11.8-3.4,34.2-10.5,37.2-11.6v-4.1c0-23.4-13.8-32.9-29.2-28.4l-8.8,17.6h-12c0,0,0.2-15.9,0-15.9
		c4.1-3.4,11.6-10.3,28.2-10.3c38.5,0,39.1,24.9,39.5,39.1v48.6C1472.3,465.7,1484.3,461.1,1484.3,461.1z M1454.7,455.8v-38.9
		c-7.1,2.4-19.6,7.3-26.4,9.9c-4.9,1.7-12.2,8.4-12.2,20.2c0,10.3,7.5,17.6,17.8,17C1446.5,463.1,1454.7,455.8,1454.7,455.8z"/>
</g>
<g>
	<path class="st0" d="M1487.5,661.7v5.4l-22.6,10.1c-6.9,0-12.2-8-12.2-12.9c0,0-11.6,13.8-29.2,13.8c-15.7,0-28.6-8.4-29-24.3
		c-0.4-16.3,8.6-24.3,21.1-28.2c11.8-3.4,34.2-10.5,37.2-11.6v-6.2c0-21.3-11-27.7-21.1-26.2c-4.3,0.6-7.1,1.9-7.1,1.9l-7.7,17.6
		h-15.5c0,0,0.2-18.3,0-18.3c4.1-3.4,17-9.9,33.5-9.9c38.5,0,40.2,24.9,40.6,39.1v47.3C1475.5,665.5,1487.5,661.7,1487.5,661.7z
		 M1452.7,657.8v-36.1c-7.1,2.4-15.3,5.4-22.1,8c-8.6,3.2-13.3,8.6-13.3,20.4c0,10.1,7.5,16.1,17.8,15.5
		C1447.8,664.7,1452.7,657.8,1452.7,657.8z"/>
</g>
<g>
	<path class="st0" d="M1489.9,860.2v7.1l-26,13.1c-6.9,0-14-7.7-14-12.5c0,0-9.7,11.8-24.5,12.7c-15.7,0.9-31.8-3.7-33.1-24.1
		c-1.3-20.6,20.4-26.9,24.3-28.2l33.1-10.5v-6.2c0-21.3-11.6-24.5-21.7-24.5c-2.1,0-4.1,0.9-4.1,0.9l-7.1,18.1h-19.1v-18.7
		c4.1-3.4,16.5-11,33.1-11c38.5,0,49.2,22.1,49.2,38.3V858C1480,863,1489.9,860.2,1489.9,860.2z M1449.9,858.9v-32.2l-17.4,6.4
		c-8.6,3.2-11.4,10.7-10.5,19.6c1.1,10.1,4.7,14.2,15,13.5C1446.2,865.4,1449.9,858.9,1449.9,858.9z"/>
</g>
<line class="st1" x1="1149" y1="238" x2="1149" y2="801"/>
</svg>
