<?xml version="1.0" encoding="utf-8"?>
<!-- Generator: Adobe Illustrator 23.0.0, SVG Export Plug-In . SVG Version: 6.00 Build 0)  -->
<svg version="1.1" id="Layer_1" xmlns="http://www.w3.org/2000/svg" xmlns:xlink="http://www.w3.org/1999/xlink" x="0px" y="0px"
	 viewBox="0 0 777.2 541.8" style="enable-background:new 0 0 777.2 541.8;" xml:space="preserve">
<style type="text/css">
	.st0{fill:#DFDBCF;}
	.st1{fill:#002E2D;}
</style>
<g>
	<rect x="-4.3" y="-2.9" class="st0" width="785.7" height="547.7"/>
	<g>
		<path class="st1" d="M146.1,69.1v1.1h-8.8v-1.1l2.3-0.9l-2.1-5.1h-8.3l-2,5.1l3,0.9v1.1H122v-1.1l3.2-1l8.6-21.5h0.9l9.2,21.5
			L146.1,69.1z M133.2,53l-3.3,8.3h6.9L133.2,53z"/>
		<path class="st1" d="M153.6,70.2v-1.1l2.5-0.9V49l-2.5-1v-1.1h9c5.2,0,8.1,2,8.3,5.6c0.2,3-2.1,5.1-4.4,5.3
			c3.1,0.3,5.5,3.1,5.5,6.1c0,3.2-2.5,6.3-6.2,6.3L153.6,70.2L153.6,70.2z M167,52.6c-0.2-3.1-2-4.5-5.2-4.5h-2.1v9.2h2.1
			C165.6,57.4,167.1,55,167,52.6z M168,64.2c0-2.4-1.6-5.6-5.2-5.6h-3.1v10.2h4.2C166.4,68.8,168,66.7,168,64.2z"/>
		<path class="st1" d="M200.6,63.6v3.5c0,0-3.3,3.5-8.4,3.5c-6.1,0-12-4.2-12-12c0-7.6,6.1-12.1,12.6-12.1c2.6,0,5,0.8,7.3,2.2
			c0,0,0,3.6,0,3.6h-2.1l-2-3.8c-1.4-0.4-2.1-0.4-3.2-0.4c-6.5,0.2-8.6,6.3-8.6,10.4c0,5.6,3.4,9.8,8.5,10c1.3,0.1,2.6-0.1,3.7-0.4
			l2-4.5L200.6,63.6L200.6,63.6z"/>
		<path class="st1" d="M217,46.9c8.7,0,12.2,5.4,12.2,11.4c0,5.4-3.8,11.9-11.4,11.9h-9.6v-1.1l2.4-0.9V48.9l-2.4-0.8v-1.1L217,46.9
			L217,46.9z M225.2,58.1c0-6.1-3.5-10-9.9-10h-1v20.7h1.8C221.6,68.8,225.2,63.6,225.2,58.1z"/>
		<path class="st1" d="M249.9,68.7l2.9-4h1.4l-1.1,5.6h-16.7v-1.1l2.4-0.8V48.9l-2.4-0.8v-1.1h17.4l-0.2,5.4h-1.5l-1.9-3.8h-7.7v9.2
			h4.6l1-3h1.1v7.5h-1.1l-1-2.9h-4.6v9.4H249.9z"/>
		<path class="st1" d="M279.7,46.9l-0.2,5.4H278l-2-3.8h-7.7v9.6h4.4l1-2.9h1.1v7.3h-1.1l-1-2.8h-4.4v8.6l3.3,0.9v1.1h-9.8v-1.1
			l2.7-0.9V48.8l-2.3-0.8v-1.1L279.7,46.9L279.7,46.9z"/>
		<path class="st1" d="M308.5,59.5v0.9l-1.1,0.8v6.1c0,0-3,3.5-8.2,3.5c-6.1,0-12.1-4.3-12.1-12.1c0-7.7,6.2-12.2,12.7-12.2
			c2.7,0,5.1,0.8,7.4,2.2c0,0,0,3.7,0,3.7h-2.1l-2-3.8c-1.4-0.4-2.1-0.5-3.3-0.4c-6.5,0.2-8.6,6.3-8.6,10.5c0,5.7,3.5,9.8,8.6,10.1
			c1.4,0.1,2.7-0.2,3.9-0.5v-6.8l-4.2-0.8v-1.1H308.5z"/>
		<path class="st1" d="M336.1,48.9v19.4l2.9,0.9v1.1h-9.4v-1.1l2.9-0.9v-8.7h-10.1v8.7l2.9,0.9v1.1h-9.4v-1.1l2.9-0.9V48.9l-2.9-0.9
			v-1.1h9.4V48l-2.9,0.9v8.7h10.1v-8.7l-2.9-0.9v-1.1h9.4V48L336.1,48.9z"/>
		<path class="st1" d="M353.2,48.9v19.4l2.9,0.9v1.1h-9.4v-1.1l2.9-0.9V48.9l-2.9-0.9v-1.1h9.4V48L353.2,48.9z"/>
		<path class="st1" d="M371,70.3c0,3.6-5.3,5.2-7.2,5.2l-0.2-0.7c1.7-0.3,3.7-1.8,3.7-4.5V49.1l-3.6-1.1v-1.1h7.2V70.3z"/>
		<path class="st1" d="M403.4,69.1v1.1h-9.8v-1.1l2.6-0.8l-6.9-9.2l-2,2.1v7.1l2.9,0.9v1.1h-9.6v-1.1l2.9-0.9V48.9l-2.9-0.9v-1.1
			h9.6V48l-2.9,0.9v9.8l8.8-9.8l-2.3-0.9v-1.1h7.9V48l-2.8,1.1l-7,7.2l8.7,11.7L403.4,69.1z"/>
		<path class="st1" d="M428.1,63.7l-1.1,6.6h-16v-1.1l2.3-0.8V48.9l-2.6-0.9v-1.1h8.9V48l-2.6,0.9v19.7h6.5l3.3-5H428.1z"/>
		<path class="st1" d="M458.6,46.9V48l-3.6,0.9v21.3h-1.7l-12.9-18.9v17l3.6,0.9v1.1h-9.2v-1.1l3.5-0.9V48.9l-2.4-0.9v-1.1h6.3
			L453,63l-0.1-14.1l-3.5-0.9v-1.1L458.6,46.9L458.6,46.9z"/>
		<path class="st1" d="M487.6,59.4c-0.4,6.7-5.9,11.8-12.2,11.3c-6.3-0.4-11-6.2-10.6-12.8c0.4-6.6,5.9-11.5,12.2-11.3
			C483.3,46.8,488.1,52.7,487.6,59.4z M483.5,58.2c-0.1-6.2-3-10-7.4-9.8c-4.5,0.2-7.2,4.4-7.2,10.6c0.1,5.8,3.3,9.8,7.5,9.7
			C480.7,68.7,483.6,64,483.5,58.2z"/>
		<path class="st1" d="M501.5,61.9v6.4l3.3,0.9v1.1h-10v-1.1l2.9-0.9V48.9l-2.3-0.9V47h8.7c5.9,0,8.8,3.8,8.8,7.4
			c0,5.4-4.3,7.5-10.4,7.5L501.5,61.9L501.5,61.9z M501.5,60.4h0.8c4.7,0,6.9-2.8,6.8-6.4c-0.3-4.1-3.4-6-6.4-6h-1.1V60.4z"/>
		<path class="st1" d="M536.9,69.9l3.6,4.6c1.5,1.5,3.2,1.3,3.2,1.3v0.9c0,0-5.1,1.3-7.2-1.3l-3.4-4.7c-0.3,0-0.7,0-1,0
			c-6.3-0.4-11-6.2-10.6-12.8c0.4-6.6,5.9-11.7,12.2-11.3c6.3,0.4,11,6.2,10.6,12.8C543.9,64.3,540.9,68.3,536.9,69.9z M540.1,58.2
			c-0.1-6.2-3-10-7.4-9.8c-4.5,0.2-7.2,4.4-7.2,10.6c0.1,5.8,3.4,9.8,7.7,9.7C537.5,68.7,540.2,64,540.1,58.2z"/>
		<path class="st1" d="M573,69.4v0.9c0,0-5.2,1.5-7.2-1.3l-5.7-7.8h-0.2h-2v7.2l3.3,0.8v1.1h-10v-1.1l2.9-0.8V48.9l-2.2-0.9V47h8.9
			c5.8,0,8.7,3.8,8.7,7.4c0,3-2.1,5.3-5.6,6.3l5.8,7.5C571.3,69.6,573,69.4,573,69.4z M559.2,59.7c4.7,0,6.5-2.7,6.5-5.6
			c0-4.2-3.4-6-6.4-6h-1.4v11.6H559.2z"/>
		<path class="st1" d="M588.4,70.7c-4.1,0-6.7-1.5-7.6-2.3c0-0.1,0-3.9,0-3.9h2.2l1.6,3.7c5.7,2.5,8-1.4,8-3.3
			c0-5.3-5.6-4.2-9.3-7.2c-3.2-2.5-2.9-4.9-2.7-6.2c0.5-2.7,3.2-5.1,8-5.1c3.5,0,5.8,1.4,6.7,2.1c0,0,0,3.4,0,3.4h-2.2l-1.9-3.8
			c-4-1.3-7.6,0.9-7,4.5c0.4,2.1,2.9,3.3,5.2,4c2.7,0.9,6.3,1.6,6.8,6.3C596.7,66.6,594.4,70.7,588.4,70.7z"/>
		<path class="st1" d="M624.1,52.3h-1.5l-2.1-3.8H616v19.9l3.3,0.7v1.1h-10.4v-1.1l3.3-0.7V48.5h-4.6l-2.1,3.8h-1.5l0.2-5.4h19.6
			L624.1,52.3z"/>
		<path class="st1" d="M655,46.9v1.3l-3.2,0.7v13.4c0,5.1-2.5,8.6-8.6,8.5c-5.3-0.1-8.9-2.6-8.9-9.7V48.9l-2.9-0.7v-1.3h9.7v1.3
			l-2.9,0.7v12c0,3.1,0.5,7.8,5.1,8c4.4,0.2,6.2-3,6.2-7.2c0-1.4,0-8.7,0-12.8l-3.2-0.7v-1.3H655z"/>
		<path class="st1" d="M137.2,89.7l-2.9,1l-7.8,21.3h-1.2l-7.9-21.3l-2.9-1v-1.1h9.8v1.1l-2.8,0.9l5.4,14.8l5.5-14.8l-2.9-0.9v-1.1
			h7.8V89.7z"/>
		<path class="st1" d="M176.6,88.6v1.1l-2.8,0.9l-6.5,21.2h-1.2l-5.4-17l-5.3,17h-1.2l-6.9-21.2l-2.9-1v-1.1h9.6v1.1l-2.7,0.9
			l4.5,14.2l4-12.5l-0.6-1.6l-2.7-0.9v-1.1h9.2v1.1l-2.5,0.9l4.5,13.8l4.1-13.8l-2.6-0.9v-1.1H176.6z"/>
		<path class="st1" d="M205.9,110.8v1.1H196v-1.1l2.7-0.8l-4.6-7.5l-5.2,7.5l2.5,0.8v1.1H184v-1.1l2.8-0.9l6.3-9l-6.3-10.2l-2.7-0.9
			v-1.1h9.7v1.1l-2.7,0.8l4.3,6.9l4.7-6.9l-2.5-0.8v-1.1h7.5v1.1l-2.8,1l-5.8,8.4l6.7,10.8L205.9,110.8z"/>
		<path class="st1" d="M226.1,101.2v8.8l3,0.9v1.1h-9.8v-1.1l3-0.9v-8.6l-6.6-10.7l-2.7-1v-1.1l9.3,0.1v1.1l-2.5,0.8l5.4,8.7
			l4.9-8.7l-2.5-0.9v-1.1h7.7v1.1l-2.8,1L226.1,101.2z"/>
		<path class="st1" d="M260,106l-1.1,5.9h-15.8v-1.1l12.2-20.6h-8.4l-2.2,3.8h-1.5l0.2-5.4h16.6v1.1L247.9,110h7.9l2.9-4H260z"/>
		<path class="st1" d="M281.8,109.9v0.8l-3.3,1.5c-1,0-1.8-1.2-1.8-1.9c0,0-1.7,2-4.3,2c-2.3,0-4.2-1.2-4.3-3.6
			c-0.1-2.4,1.3-3.6,3.1-4.1c1.7-0.5,5-1.5,5.5-1.7v-0.9c0-3.1-1.6-4.1-3.1-3.9c-0.6,0.1-1,0.3-1,0.3l-1.1,2.6h-2.3c0,0,0-2.7,0-2.7
			c0.6-0.5,2.5-1.5,4.9-1.5c5.7,0,5.9,3.7,6,5.7v6.9C280,110.4,281.8,109.9,281.8,109.9z M276.7,109.3V104c-1,0.3-2.2,0.8-3.3,1.2
			c-1.3,0.5-2,1.3-2,3c0,1.5,1.1,2.4,2.6,2.3C276,110.3,276.7,109.3,276.7,109.3z"/>
		<path class="st1" d="M303.6,105.8c-0.6,5-4.7,6.7-7.6,6.3c-1.5-0.2-2.7-0.7-3.3-1l-1.1,0.8h-1V90.6l-2.4-0.7v-1.1l5.7-0.6V98
			c0.6-0.3,2-0.7,2.7-0.8C301.1,97,304.2,101,303.6,105.8z M296.5,98.5c-0.6,0-2,0.2-2.7,0.3V110c0.4,0.4,1.2,0.8,2.3,0.7
			c1.3-0.1,3.5-0.7,3.9-4.8C300.5,101.5,298.7,98.5,296.5,98.5z"/>
		<path class="st1" d="M323.5,100.9l-1.8,0l-1.6-2.4c-3.3-0.5-5.7,3.5-5.1,7.3c0.5,2.9,2.8,4.5,5.1,4.6c2.6,0.1,3.9-1.1,3.9-1.1
			l0,0.7c0,0-1.3,2-4.3,2.2c-3,0.2-7.6-1.5-8-6.9c-0.4-5.4,4-8.4,7.5-8.5c2.4,0,3.9,0.8,4.5,1.2L323.5,100.9z"/>
		<path class="st1" d="M346.9,109.9v1.1l-5.6,0.9h0v-1.5c0,0-1,1.4-2.9,1.6c-3.3,0.4-6.8-1.6-7.1-6.3c-0.4-5.4,2.7-8.7,7.2-8.5
			c0.9,0,2.9,0.9,2.9,0.9l0-7.6L339,90v-1.1l5.6-0.6v21.2l0,0L346.9,109.9z M341.3,99.1c0,0-2-0.4-2.8-0.4c-2.5,0-4.1,3.4-3.7,7.2
			c0.3,3.2,2,4.7,4.1,4.6c1.7-0.1,2.5-1.6,2.5-1.6L341.3,99.1L341.3,99.1z"/>
		<path class="st1" d="M366.3,109.2v0.7c0,0-1,2.4-5,2.4c-4.4,0-7.5-3.2-7.5-7.6c0-3.9,2.7-7.6,6.9-7.6c4.3,0,6.1,3.9,5.8,7h-9.5
			c0,3.7,2.5,6.3,5.2,6.4C365.2,110.5,366.3,109.2,366.3,109.2z M357.2,102.9l6-0.7c0-0.6-0.7-3.5-2.8-3.5
			C357.9,98.7,357.2,101.6,357.2,102.9z"/>
		<path class="st1" d="M386.1,89.2v2.6H384l-1.1-2c0,0-3.1-0.1-3.1,4.3v3.3h4v1.4h-4v11.6l2.8,0.8v0.8h-8.5v-0.8l2.3-0.8V98.7h-1.8
			v-1.4h1.8v-2.6c0-3.6,2.1-6.5,5.4-6.5C384.3,88.2,386.1,89.2,386.1,89.2z"/>
		<path class="st1" d="M397.7,118.8c-5.8-0.4-7-4.9-6.7-5.6l3.2-1.5l-1.6-1.8v-0.2l2.5-2.1c-1.8-1.2-2.7-2.9-2.7-4.9
			c0-3.2,2.6-5.8,5.8-5.8c1.6,0,3.1,0.7,4.2,1.8l0.3-1.4h3.4V98l-3.2,1.3c0.7,0.9,1.1,2.1,1.1,3.4c0,3.2-2.7,5.7-5.9,5.7
			c-0.4,0-1-0.1-1.2-0.1c-0.3,0-0.5-0.1-0.5-0.1l-0.3-0.1l-0.2,1l6.9,1C408.8,111.1,406.7,119.4,397.7,118.8z M401.5,113.1l-5.8-0.9
			c-0.2,0.2-1.5,1.1-1.5,2.4c0,1.3,0.9,2.6,3.6,2.9c3.3,0.3,5.1-1,5.4-1.9C403.5,114.6,403.4,113.5,401.5,113.1z M395.8,103.1
			c0.1,2.5,1.3,4.2,2.7,4c1.6-0.3,2.1-2.3,2-4.8c-0.2-2.4-1.1-4.2-2.5-4C396.3,98.5,395.7,100.6,395.8,103.1z"/>
		<path class="st1" d="M430.4,111.1v0.8h-8v-0.8l2.4-0.8v-8.2c0-2.7-1-3.5-3-3.1l-3.2,0.8v10.4l2.3,0.8v0.8h-8v-0.8l2.3-0.8l-0.1-20
			l-2.1-0.7v-0.8l5.4-0.6v10.6l3.2-1.5c2.1-1,6.3,0.9,6.3,4.5v8.4L430.4,111.1z"/>
		<path class="st1" d="M445.7,111.1v0.8h-8v-0.8l2.4-0.8V99.5l-2.3-0.6v-0.8l5.5-0.8v13L445.7,111.1z M439.5,92.7c0-1.1,0.9-2,2-2
			c1.1,0,2,0.9,2,2c0,1.1-0.9,2-2,2C440.4,94.8,439.5,93.8,439.5,92.7z"/>
		<path class="st1" d="M452.4,117.3c0.9-0.1,2.6-0.3,2.6-3.3V99.5l-2.3-0.5v-0.8l5.5-0.8v16.4c0,3.3-2.9,5.1-5.7,4L452.4,117.3z
			 M456.3,94.8c1.1,0,2-0.9,2-2c0-1.1-0.9-2-2-2c-1.1,0-2,0.9-2,2C454.2,93.8,455.2,94.8,456.3,94.8z"/>
		<path class="st1" d="M474.8,111.1v0.8h-8v-0.8l2.3-0.8v-20l-2.3-0.7v-0.8l5.7-0.6v15l0.5-0.2l4.6-4.3l-2-0.6v-0.8h6.3v0.8
			l-2.1,0.7l-4,3.4l5.5,7.9l2.2,1v0.8h-7.6v-0.8l1.6-0.8l-4.2-6.1h-0.8v6.1L474.8,111.1z"/>
		<path class="st1" d="M496.4,88.2v22.1l2.3,0.8v0.8h-8v-0.8l2.4-0.8v-20l-2.4-0.7v-0.8L496.4,88.2z"/>
		<path class="st1" d="M531.7,111.1v0.8h-8v-0.8l2.4-0.8v-2.5v-5.5c0-2.7-1.5-3.7-3.3-3.1c-1.3,0.5-2.2,1.1-2.3,1.2
			c0.1,0.2,0.1,0.5,0.1,0.8v9.2l2.3,0.8v0.8h-8v-0.8l2.4-0.8v-2.5v-5.5c0-2.7-1.3-3.7-3.1-3.1c-1.5,0.5-2.4,1.2-2.4,1.2v9.9h0
			l2.3,0.8v0.8h-8v-0.8l2.4-0.8h0V99.5l-2.1-0.7V98l4.8-0.7l0.5,1.9c0,0,0.5-0.3,2.3-1.5c1.9-1.2,5-0.4,6.1,1.6
			c0.2-0.1,1-0.6,2.6-1.6c2.4-1.5,6.7,0.1,6.7,3.3v9.2L531.7,111.1z"/>
		<path class="st1" d="M556.4,111.1v0.8h-8v-0.8l2.4-0.8v-2.6v-5.5c0-3.2-1.6-3.7-3.1-3.2l-3,0.9v10.3l2.3,0.8v0.8h-8v-0.8l2.4-0.8
			V99.5l-2.1-0.7V98l4.8-0.7l0.6,1.8l2.7-1.5c2.8-1.5,6.7-0.1,6.7,4.4c0,2,0,6.4,0,8.3L556.4,111.1z"/>
		<path class="st1" d="M577.2,105.9c-0.7,4.3-4.4,7-8.6,6.2c-3.9-0.8-6.3-5-5.5-9.2c0.8-4.1,4.7-6.7,8.6-5.8
			C575.6,97.9,577.9,101.8,577.2,105.9z M573.9,104c-0.1-3.3-1.5-5.7-4.2-5.5c-2.6,0.3-3.4,2.9-3.4,6.3c0.1,3.4,1.3,6,4.1,5.7
			C573,110.2,574,107.5,573.9,104z"/>
		<path class="st1" d="M592.6,112.1c-2-0.2-2.7-1.1-2.7-1.1v5.7l2.8,0.8v0.8h-8.5v-0.8l2.4-0.8V99.5l-2.4-0.7V98l5.1-0.7l0.6,1.8
			l2.1-1.8c3.5-0.6,7.6,2,8,6.9S596.7,112.4,592.6,112.1z M596.4,104.5c0-5.2-3.4-6.2-5.3-5.1l-1.3,0.9v9.2c0.5,0.7,1.1,0.9,2,1
			C594.6,111,596.5,108.6,596.4,104.5z"/>
		<path class="st1" d="M621.2,99.5v17.2l2.4,0.8v0.8h-8.5v-0.8l2.8-0.8v-5.7c0,0-0.7,1-2.7,1.1c-4.2,0.3-7.6-3-7.3-7.9
			c0.3-4.9,4.4-7.4,8-6.9l2.1,1.8l0.6-1.8l5.1,0.7v0.8L621.2,99.5z M617.9,109.5v-9.2l-1.3-0.9c-1.9-1-5.3-0.1-5.3,5.1
			c0,4.1,1.8,6.5,4.6,6C616.7,110.4,617.4,110.2,617.9,109.5z"/>
		<path class="st1" d="M643.1,97.9v2.8h-2.3l-1.2-1.7c-1.1,0.1-2.6,1.7-2.6,1.7v9.6l2.9,0.8v0.8h-8.5v-0.8l2.3-0.8l0-10.8l-2.3-0.7
			V98l5.2-0.7l0.5,2.3c0,0,1.7-1.9,2.1-2.1C640.6,96.5,643.1,97.5,643.1,97.9z"/>
		<path class="st1" d="M656.4,112.5c-2.4,0-5-1.2-5.6-1.6c0.1-0.1,0-3,0-3h2.2l0.9,2.5c0,0,1,0.7,2.3,0.7c1.5-0.1,2.7-1.1,2.7-2.5
			c-0.1-2.4-3.8-2.3-6.3-4.1c-2.1-1.6-2-3.3-1.7-4.4c0.6-2.4,3.2-3.3,5.8-3.3c2.4,0,4.2,1,4.8,1.5c0,0,0,3,0,3h-2.2l-1.1-3
			c0,0-0.7-0.2-1.4-0.2c-1.4,0-3.3,0.8-3.1,2.7c0.3,2.8,8.3,1.5,8.3,7.1C662.1,109.4,661.2,112.5,656.4,112.5z"/>
		<path class="st1" d="M103.6,140.4h-2.1V139c0,0,1.7-0.2,2.6-1c1.1-1.1,1.7-2.6,1.7-2.6h1.2v3.6h2.7v1.4H107v10
			c0,2.4,2.6,1.9,2.6,1.9v0.9c0,0-1.5,0.6-2.7,0.6c-2.9,0-3.3-1.7-3.3-3.6L103.6,140.4L103.6,140.4z"/>
		<path class="st1" d="M134.2,151.9v0.8l-5.6,0.9v-1.9c-0.9,0.7-2.7,2.1-3.3,2.1c-1.5,0-5.7,0.1-5.7-5.7v-7.4l-2.3-0.4v-0.8l5.7-0.7
			v9.3c0,2.8,1.3,3.7,2.8,3.6c0.9-0.1,2.9-0.8,2.9-0.8v-10.2l-2.3-0.4v-0.8l5.6-0.7v12.5L134.2,151.9z"/>
		<path class="st1" d="M156,139.8l-2.1,0.8l-5.8,13.2h-0.8l-5.6-13l-2.1-0.9V139h8v0.8l-2.2,0.8l3.4,8.2l3.5-8.2l-2.2-0.8V139h5.9
			V139.8z"/>
		<path class="st1" d="M187,139v0.8l-2.3,0.9l-5.1,13h-0.9l-3.7-9.6l-3.9,9.6h-0.9l-5.6-13l-2-0.9V139h7.5v0.8l-1.8,0.8l3.3,7.8
			l2.6-6.4l-0.6-1.4l-1.9-0.8V139h7.3v0.8l-1.8,0.8l3,7.5l2.9-7.5l-2.1-0.8V139H187z"/>
		<path class="st1" d="M209.5,152.8v0.8h-7.3v-0.8l1.6-0.8h0.1l-2.7-3.9L198,152l1.8,0.8v0.8H194v-0.8l2.2-0.9l4.1-5.1l-4.1-5.9
			l-1.8-1.1V139h7.1v0.8l-1.4,0.8h0l2.4,3.5l2.7-3.5l-1.6-0.8V139h5.4v0.8l-1.9,0.9l-3.7,4.7l4.5,6.5L209.5,152.8z"/>
		<path class="st1" d="M222.7,158c-1.9,3.6-5.7,2.4-5.7,2.4v-3.6h1.6l0.9,1.3c0.2,0,1.3-0.1,2-1.2l1.7-3.5l-5.5-12.7l-2-0.9V139h7.7
			v0.8l-2.1,0.8l3.7,8.8c0,0,2.9-6.8,3.8-8.8l-2.3-0.8V139h6.3v0.8l-2.3,0.9l-6.4,14.6C224,155.2,223.9,155.5,222.7,158z"/>
		<path class="st1" d="M243,140.2l-1.9,2.5H240l0.3-3.8h11.5v0.9l-7.4,12.1h4.6l2-2.4h1.1l-0.6,4h-11.4v-0.8l7.6-12.6H243z"/>
		<path class="st1" d="M277,152.8v0.8h-7.9v-0.8l2.2-0.8v-11.6h-6V152l2.5,0.8v0.8h-8.2v-0.8l2.3-0.8v-11.6h-1.8V139h1.8v-2.9
			c0-3.5,2.8-6.2,6.5-6.2c3.3,0,6.2,1.4,6.3,4.4v0.1c0,1.1-0.9,2-2,2c-1.1,0-2-0.9-2-2c0-2.3-0.5-3.5-2.3-3.5c-1.4,0-3.2,1-3.2,4.8
			v3.3h9.3v13L277,152.8z"/>
		<path class="st1" d="M299.2,155.6c0,3.3-2.6,5.1-5.7,4l0-0.4c0.9-0.1,2.4-0.3,2.4-3.3v-15.5h-6V152l2.5,0.8v0.8h-8.2v-0.8l2.3-0.8
			v-11.6h-1.8V139h1.8v-2.9c0-3.5,2.8-6.2,6.5-6.2c3.3,0,6.2,1.4,6.3,4.4v0.1c0,1.1-0.9,2-2,2c-1.1,0-2-0.9-2-2
			c0-2.3-0.5-3.5-2.3-3.5c-1.4,0-3.2,1-3.2,4.8v3.3h9.3L299.2,155.6L299.2,155.6z"/>
		<path class="st1" d="M325.9,152.8v0.8h-8v-0.8l2.4-0.8v-17.6c0-2.3-0.9-3.5-2.8-3.5c-1.5,0-3.4,1-3.4,4.8v3.3h3.5v1.4H314V152
			l2.7,0.8v0.8h-8.3v-0.8l2.3-0.8v-11.6h-1.8V139h1.8v-2.9c0-3.5,2.6-6.2,6.8-6.2c1.6,0,3.2,0.4,4.3,1.2l1-1.2h0.8V152L325.9,152.8z
			"/>
		<path class="st1" d="M348.1,140.4v10c0,2.4,2.6,1.9,2.6,1.9v0.9c0,0-1.5,0.6-2.7,0.6c-2.9,0-3.3-1.7-3.3-3.6v-9.7h-5.6V152
			l2.8,0.8v0.8h-8.5v-0.8l2.3-0.8v-11.6h-1.8V139h1.8v-2.6c0-3.6,2.1-6.5,5.4-6.5c2.4,0,4.2,1,4.2,1v2.6h-2.1l-1.1-2
			c0,0-3.1-0.1-3.1,4.3v3.3h3.5c0.9,0,1.9-0.3,2.6-1c1.1-1.1,1.7-2.6,1.7-2.6h1.2v3.6h2.7v1.4H348.1z"/>
		<path class="st1" d="M385.7,152.8v0.8h-7.9v-0.8l2.2-0.8v-11.6h-6V152l2.5,0.8v0.8h-8.2v-0.8l2.3-0.8v-11.6h-6.4V152l2.8,0.8v0.8
			h-8.5v-0.8l2.3-0.8v-11.6h-1.8V139h1.8v-2.6c0-3.6,2.1-6.5,5.4-6.5c2.4,0,4.2,1,4.2,1v2.6h-2.1l-1.1-2c0,0-3.1-0.1-3.1,4.3v3.3
			h6.4v-2.9c0-3.5,2.8-6.2,6.5-6.2c3.3,0,6.2,1.4,6.3,4.4v0.1c0,1.1-0.9,2-2,2c-1.1,0-2-0.9-2-2c0-2.3-0.5-3.5-2.3-3.5
			c-1.4,0-3.2,1-3.2,4.8v3.3h9.3v13L385.7,152.8z"/>
		<path class="st1" d="M420.3,152.8v0.8h-8v-0.8l2.4-0.8v-17.6c0-2.3-0.9-3.5-2.8-3.5c-1.5,0-3.4,1-3.4,4.8v3.3h3.5v1.4h-3.5V152
			l2.7,0.8v0.8h-8.3v-0.8l2.3-0.8v-11.6h-6.5V152l2.8,0.8v0.8H393v-0.8l2.3-0.8v-11.6h-1.8V139h1.8v-2.6c0-3.6,2.1-6.5,5.4-6.5
			c2.4,0,4.2,1,4.2,1v2.6h-2.1l-1.1-2c0,0-3.1-0.1-3.1,4.3v3.3h6.5v-2.9c0-3.5,2.6-6.2,6.8-6.2c1.6,0,3.2,0.4,4.3,1.2l1-1.2h0.8V152
			L420.3,152.8z"/>
		<path class="st1" d="M429.2,141.9c0.1-6.5,4.2-11.6,9.1-11.6c4.9,0,8.8,5.1,8.7,11.6c-0.1,6.6-4.2,11.7-9.1,11.7
			C433,153.6,429.1,148.5,429.2,141.9z M442.7,141.9c0.1-5.7-1.8-10.2-4.4-10.2c-2.7,0-4.7,4.5-4.8,10.2c-0.1,5.8,1.7,10.3,4.5,10.3
			C440.6,152.2,442.6,147.7,442.7,141.9z"/>
		<path class="st1" d="M466.8,152.5v1.1h-9.7v-1.1l2.9-0.9v-18.7l-2.9,0.3v-1.5l5.3-1.5h1.5v21.3L466.8,152.5z"/>
		<path class="st1" d="M492.7,147l-1.5,6.6h-14.1v-3.1c0,0,4.3-4.5,6.5-6.9c3.3-3.7,4.4-5.4,4.4-8c-0.1-2.7-2-4.2-3.9-4.3
			c-1,0-2.1,0.3-3,0.9l-1.8,3.8h-2.1c0,0-0.3-3.7-0.3-3.8c0.9-0.7,3.2-2.2,7.2-2.2c4.9,0,7.9,2.2,7.8,5.7c-0.1,3.3-4.4,7.1-6.6,9.4
			c-1.5,1.5-3.4,3.5-4.9,5.1h9.2l2.1-3.1H492.7L492.7,147z"/>
		<path class="st1" d="M502.9,149.1c-0.6-3.8,4.1-3.5,4.1-3.5c-1.7,3.3,0.3,6.6,3.4,6.6c2.8,0,4.3-2.6,4.4-5
			c0.1-3.7-3.6-5.2-5.2-5.3v-1.1c2.4-0.5,4.5-2.4,4.8-4.8c0.3-3.1-2.1-4.6-3.9-4.6c-1,0-1.8,0.2-2.7,0.9l-2,3.5h-2
			c0,0-0.2-3.5-0.3-3.6c0.9-0.7,3.2-2.2,6.6-2.2c3.7,0,7.7,1.5,8,5.6c0.2,1.9-1,4.9-4.2,5.5c3.1,0.6,4.8,3.5,4.6,6.3
			c-0.3,4-4.1,6.3-8.2,6.3C505.8,153.8,503.2,151.2,502.9,149.1z"/>
		<path class="st1" d="M545,152.5v1.1h-9.8v-1.1l2.9-0.9v-3.2h-9.5v-1.3l11.4-16.9l2,0v15.9h2.7v2.2h-2.7v3.2L545,152.5z
			 M538.1,146.2v-10.5l-7.1,10.5H538.1z"/>
		<path class="st1" d="M571.8,145.8c-0.3,5.3-4.9,7.8-8.4,8c-5.1,0.3-8-2.6-8.3-4.6c-0.6-3.8,4-3.5,4-3.5c-1.7,3.3,0.3,6.6,4.1,6.5
			c2.7-0.1,4.6-2.7,4.7-6.2c0.1-3.7-2.2-6-4.8-6.3c-4-0.5-5.1,2.2-5.1,2.2h-1.8l2.4-11.4h11.3l-1.6,5h-0.6l-0.8-1.2h-7.3l-1.2,4.8
			c0.7-0.9,2.7-1.6,4.7-1.5C570.2,137.5,572.1,142.5,571.8,145.8z"/>
		<path class="st1" d="M582.2,141.3c1.2-8.6,6.3-11,10.2-11.4c2.9-0.3,5.6,0.8,5.8,2.3c0.3,2-2.7,2.6-3.1,2.6
			c0.4-1.3-0.9-3.9-3.3-3.4c-5.1,0.9-6.1,9-6.1,9c0.3-0.8,2.3-2.8,5.5-2.8c5.4,0,7.4,5.1,6.9,9c-0.5,3.6-3.1,7.4-8.8,7
			C582.8,153.3,581.5,146.2,582.2,141.3z M594.3,145.4c-0.3-4-2.8-6.2-5.5-5.4c-2.2,0.7-3.5,2.9-3.1,6.3c0.3,2.1,1.5,5.6,4.3,5.7
			C592.8,152.2,594.6,149.3,594.3,145.4z"/>
		<path class="st1" d="M622.2,133.2l-8.3,20.4H611l8.8-19.5h-9.7l-1.1,1.1h-0.6l0.7-4.9h14.3L622.2,133.2z"/>
		<path class="st1" d="M641.3,153.9c-5.5,0-7.8-3-7.7-6.6c0.1-3,2.7-5.1,5.1-6c-2.9-1.3-4.3-3.7-4.3-6.1c0-3.2,3-5.3,6.8-5.3
			c4.6,0,6.9,2.5,6.9,5.4c-0.1,2.4-2.3,4.5-4.6,5.4c4.1,1.3,5.5,4,5.5,6.4C648.9,150.5,645.8,153.9,641.3,153.9z M640.6,142.3
			c-2.6,1.4-3.3,3.7-3.2,5.8c0.2,2.6,1.7,4.2,3.9,4.2c2.1,0,4-2.4,3.8-5C644.9,144.2,643,143.5,640.6,142.3z M644.4,135.1
			c0-2.5-1.4-3.9-3.3-3.9c-1.9,0-3.4,2-3.3,4.2c0.1,1.7,1,3.2,3.8,4.4C643.2,138.6,644.4,137.3,644.4,135.1z"/>
		<path class="st1" d="M670.4,144.1c-0.3,0.5-2.3,2.1-5.1,1.6c-5.2-0.9-6.6-5.6-6.2-9.1c0.3-2.7,2.7-7.1,8.5-6.6
			c6.1,0.5,7.3,7.8,6.6,12.8c-1.2,8.4-7.7,10.9-13.4,10.7l0.1-0.8C669.8,152,670.4,144.1,670.4,144.1z M662.6,138.2
			c0,3.8,2.6,5.9,4.5,5.8c3.5-0.2,3.5-3.6,3.3-6.3c-0.2-2.7-1.5-6.3-3.8-6.4C664.1,131.2,662.6,133.9,662.6,138.2z"/>
		<path class="st1" d="M133.5,171.9l-17.1,23.3h-2.6l17.1-23.3H133.5z M115.8,173.8l-1.6,0.2v-1.1l3.2-0.9h0.8v10.7l1.5,0.5v0.8
			h-5.3v-0.8l1.5-0.5V173.8z M131.9,193.9l1.5,0.5v0.8H128v-0.8l1.5-0.5v-1.1h-4.9v-1.3l5.9-8.3h1.3v8.2h1.4v1.4h-1.4V193.9z
			 M129.6,191.4v-4.8l-3.4,4.8H129.6z"/>
		<path class="st1" d="M169,171.9l-17.1,23.3h-2.6l17.1-23.3H169z M151.2,173.8l-1.6,0.2v-1.1l3.2-0.9h0.8v10.7l1.5,0.5v0.8h-5.3
			v-0.8l1.5-0.5V173.8z M170.4,192.1l-0.7,3.2h-7.5v-1.9c0,0,1.6-1.7,2.8-3c1.9-2,2.7-3.3,2.7-4.5c0-1.3-0.8-1.9-1.6-2
			c-0.9,0-1.3,0.3-1.3,0.3l-1.3,2.1h-1.2l-0.1-2.1c0.4-0.5,1.7-1.3,3.9-1.3c2.7,0,4.2,1.1,4.1,3c-0.1,1.8-3,4.5-4.3,5.7
			c-0.5,0.5-1.1,1.1-1.6,1.6h4.7l0.7-1.1H170.4z"/>
		<path class="st1" d="M190.1,184.4c-2.4-0.1-3.8-1.2-3.9-2.5c-0.2-2,2.4-1.9,2.4-1.9c-0.9,1.7,0.2,3.3,1.5,3.3
			c1.3,0,1.9-1.2,1.9-2.5c0-1.8-1.8-2.6-2.5-2.6v-0.8c1.1-0.3,2.4-1.2,2.4-2.4c0-1.5-0.9-2.1-1.7-2.1c-0.7,0-1,0.2-1.1,0.4l-1.3,1.9
			h-1.2c0,0-0.1-2.1-0.2-2.1c0.5-0.4,1.8-1.2,3.6-1.2c1.9,0,4,0.8,4.2,2.9c0.1,1-0.5,2.6-2.2,2.9c1.6,0.3,2.6,1.9,2.5,3.3
			C194.4,183.1,192.3,184.4,190.1,184.4z M207.1,171.9L190,195.2h-2.6l17.1-23.3H207.1z M205.5,193.9l1.5,0.5v0.8h-5.4v-0.8l1.5-0.5
			v-1.1h-4.9v-1.3l5.9-8.3h1.3v8.2h1.4v1.4h-1.4V193.9z M203.2,191.4v-4.8l-3.4,4.8H203.2z"/>
		<path class="st1" d="M223.3,193.5c0,1.1-0.9,2.1-2.1,2.1c-1.1,0-2.1-0.9-2.1-2.1c0-1.2,0.9-2.1,2.1-2.1
			C222.3,191.4,223.3,192.4,223.3,193.5z"/>
		<path class="st1" d="M244.3,201.1l-0.2-0.8c2.1-0.6,3.5-2.6,3.4-4.9c-1.1,0.3-2.2-0.1-2.5-1.1c-0.3-1.1,0.2-2.2,1.3-2.5
			c1-0.3,2.1,0.3,2.5,1.4C250.1,196,247.7,200.5,244.3,201.1z"/>
		<path class="st1" d="M256.9,182.5c0-1.2,0.9-2.1,2.1-2.1c1.2,0,2.1,0.9,2.1,2.1c0,1.1-0.9,2.1-2.1,2.1
			C257.9,184.5,256.9,183.6,256.9,182.5z M256.9,193.5c0-1.2,0.9-2.1,2.1-2.1c1.2,0,2.1,0.9,2.1,2.1c0,1.1-0.9,2.1-2.1,2.1
			C257.9,195.6,256.9,194.7,256.9,193.5z"/>
		<path class="st1" d="M269.9,201.1l-0.2-0.8c2.1-0.6,3.5-2.6,3.4-4.9c-1.1,0.3-2.2-0.1-2.5-1.1c-0.3-1.1,0.2-2.2,1.3-2.5
			c1-0.3,2.1,0.3,2.5,1.4C275.6,196,273.2,200.5,269.9,201.1z M272,184.5c1.2,0,2.1-0.9,2.1-2.1c0-1.2-0.9-2.1-2.1-2.1
			c-1.1,0-2.1,0.9-2.1,2.1C269.9,183.6,270.9,184.5,272,184.5z"/>
		<path class="st1" d="M294.4,177.5c0.8-3.4-2.3-4.5-4.3-4.5c-2,0-2.6,0.7-2.6,0.7l-0.6,4.2h-2.3c0,0-1.2-4-1.3-4.1
			c0.9-0.7,3.2-2.4,6.8-2.3c4.9,0.1,7.8,2.2,8.1,4.9c0.5,3.7-2.8,5.9-5.9,7.5c-2,1-2.3,2.1-2.3,3.9v1.1h-1.7v-3.7
			C288.3,182.4,293.5,181.7,294.4,177.5z M289.2,195.6c1.2,0,2.1-0.9,2.1-2.1c0-1.2-0.9-2.1-2.1-2.1c-1.1,0-2.1,0.9-2.1,2.1
			C287.2,194.7,288.1,195.6,289.2,195.6z"/>
		<path class="st1" d="M310.5,196.2c-0.8,3.4,2.3,4.5,4.3,4.5c2,0,2.6-0.7,2.6-0.7l0.6-4.2h2.3c0,0,1.2,4,1.3,4.1
			c-0.9,0.7-3.2,2.4-6.8,2.3c-4.9,0-7.8-2.2-8.1-4.9c-0.4-3.7,2.8-5.9,5.9-7.5c2-1,2.3-2.1,2.3-3.9v-1.1h1.7v3.7
			C316.7,191.3,311.5,192.1,310.5,196.2z M315.8,178.2c-1.2,0-2.1,0.9-2.1,2.1c0,1.2,0.9,2.1,2.1,2.1c1.1,0,2.1-0.9,2.1-2.1
			C317.8,179.1,316.9,178.2,315.8,178.2z"/>
		<path class="st1" d="M333.1,188.8h-1.2c0,0-1.5-13.6-1.5-14.4c-0.1-0.7,0-2.6,2.1-2.6c2.2,0,2.2,1.8,2.1,2.6L333.1,188.8z
			 M332.5,195.6c1.2,0,2.1-0.9,2.1-2.1c0-1.2-0.9-2.1-2.1-2.1c-1.1,0-2.1,0.9-2.1,2.1C330.4,194.7,331.3,195.6,332.5,195.6z"/>
		<path class="st1" d="M346.6,185.2l1.5,14.4c0.1,0.8,0,2.6-2.1,2.6c-2.1,0-2.2-1.9-2.1-2.6c0.1-0.8,1.5-14.4,1.5-14.4H346.6z
			 M346,178.4c-1.1,0-2.1,0.9-2.1,2.1c0,1.2,0.9,2.1,2.1,2.1c1.2,0,2.1-0.9,2.1-2.1C348.1,179.4,347.1,178.4,346,178.4z"/>
		<path class="st1" d="M362.2,172l0.2,0.8c-2.1,0.6-3.5,2.6-3.4,4.9c1.1-0.3,2.2,0.1,2.5,1.1c0.3,1.1-0.2,2.2-1.3,2.5
			c-1,0.3-2.1-0.3-2.5-1.4C356.4,177.2,358.8,172.6,362.2,172z"/>
		<path class="st1" d="M371.5,181.3l-0.2-0.8c2.1-0.6,3.5-2.6,3.4-4.9c-1.1,0.3-2.2-0.1-2.5-1.1c-0.3-1.1,0.2-2.2,1.3-2.5
			c1-0.3,2.1,0.3,2.5,1.4C377.2,176.1,374.8,180.6,371.5,181.3z"/>
		<path class="st1" d="M390.3,172l0.2,0.8c-2.1,0.6-3.5,2.6-3.4,4.9c1.1-0.3,2.2,0.1,2.5,1.1c0.3,1.1-0.2,2.2-1.3,2.5
			c-1,0.3-2.1-0.3-2.5-1.4C384.5,177.2,386.9,172.6,390.3,172z M396.9,171.9l0.2,0.8c-2.1,0.6-3.5,2.6-3.4,4.9
			c1.1-0.3,2.2,0.1,2.5,1.1c0.3,1.1-0.2,2.2-1.3,2.5c-1,0.3-2.1-0.3-2.5-1.4C391.1,177.1,393.5,172.5,396.9,171.9z"/>
		<path class="st1" d="M406.2,181.4l-0.2-0.8c2.1-0.6,3.5-2.6,3.4-4.9c-1.1,0.3-2.2-0.1-2.5-1.1c-0.3-1.1,0.2-2.2,1.3-2.5
			c1-0.3,2.1,0.3,2.5,1.4C411.9,176.2,409.5,180.7,406.2,181.4z M412.7,181.3l-0.2-0.8c2.1-0.6,3.5-2.6,3.4-4.9
			c-1.1,0.3-2.2-0.1-2.5-1.1c-0.3-1.1,0.2-2.2,1.3-2.5c1-0.3,2.1,0.3,2.5,1.4C418.5,176.1,416.1,180.6,412.7,181.3z"/>
		<path class="st1" d="M428.4,181h-1.1c0,0-1.2-5.9-1.3-6.7c-0.1-0.8-0.2-2.4,1.9-2.4c2.1,0,1.9,1.6,1.8,2.4
			C429.6,175.1,428.4,181,428.4,181z"/>
		<path class="st1" d="M440.1,181H439c0,0-1.2-5.9-1.3-6.7c-0.1-0.8-0.2-2.4,1.9-2.4c2.1,0,1.9,1.6,1.8,2.4
			C441.3,175.1,440.1,181,440.1,181z M445.3,181h-1.1c0,0-1.2-5.9-1.3-6.7c-0.1-0.8-0.2-2.4,1.9-2.4c2.1,0,1.9,1.6,1.8,2.4
			C446.5,175.1,445.3,181,445.3,181z"/>
		<path class="st1" d="M464.2,180l-5.1,5.2l5.1,5.5v3.3l-9.5-8.3v-0.9l9.5-8V180z"/>
		<path class="st1" d="M482,184.8v0.9l-9.5,8.3v-3.3l5.1-5.5l-5.1-5.2v-3.3L482,184.8z"/>
		<path class="st1" d="M499.7,180l-5.1,5.2l5.1,5.5v3.3l-9.5-8.3v-0.9l9.5-8V180z M508,180l-5.1,5.2l5.1,5.5v3.3l-9.5-8.3v-0.9
			l9.5-8V180z"/>
		<path class="st1" d="M525.8,184.8v0.9l-9.5,8.3v-3.3l5.1-5.5l-5.1-5.2v-3.3L525.8,184.8z M534.1,184.8v0.9l-9.5,8.3v-3.3l5.1-5.5
			l-5.1-5.2v-3.3L534.1,184.8z"/>
		<path class="st1" d="M553.7,185.8v3.3h-12.1v-3.3H553.7z"/>
		<path class="st1" d="M579.9,186.4v2.8h-18.9v-2.8H579.9z"/>
		<path class="st1" d="M605.2,197.2v2.8h-18.9v-2.8H605.2z"/>
		<path class="st1" d="M626.9,179.5c0,2.1-1.6,1.9-2.4,1.8c-0.6-0.1-3-0.8-4.3-1.3l1,3.5l-1.1,15.6h-1.1l-1.1-15.6l1-3.5
			c-1.3,0.4-3.7,1.2-4.3,1.3c-0.8,0.1-2.4,0.2-2.4-1.8c0-2.1,1.6-1.9,2.4-1.9c0.5,0.1,2.8,0.8,4.2,1.2c-0.4-1.4-1.1-3.8-1.2-4.3
			c-0.1-0.8-0.2-2.4,1.9-2.4c2.1,0,1.9,1.6,1.8,2.4c-0.1,0.5-0.8,2.9-1.2,4.3c1.3-0.4,3.7-1.2,4.2-1.3
			C625.2,177.6,626.9,177.4,626.9,179.5z"/>
		<path class="st1" d="M649.6,191.8c0,2.1-1.6,1.9-2.4,1.9c-0.5-0.1-2.9-0.9-4.2-1.3c0.4,1.4,1.1,3.8,1.2,4.3
			c0.1,0.8,0.2,2.4-1.8,2.4c-2.1,0-1.9-1.6-1.9-2.4c0.1-0.5,0.8-2.8,1.2-4.3c-1.3,0.4-3.6,1.2-4.2,1.2c-0.8,0.1-2.4,0.2-2.4-1.9
			c0-2.1,1.6-1.9,2.4-1.8c0.6,0.1,3.1,0.9,4.4,1.3l-1.2-8l1.1-3.8c-1.3,0.4-3.7,1.2-4.3,1.3c-0.8,0.1-2.4,0.2-2.4-1.8
			c0-2.1,1.6-1.9,2.4-1.9c0.5,0.1,2.8,0.8,4.2,1.2c-0.4-1.4-1.1-3.8-1.2-4.3c-0.1-0.8-0.2-2.4,1.9-2.4c2.1,0,1.9,1.6,1.8,2.4
			c-0.1,0.5-0.8,2.9-1.2,4.3c1.3-0.4,3.7-1.2,4.2-1.3c0.8-0.1,2.4-0.2,2.4,1.9c0,2.1-1.6,1.9-2.4,1.8c-0.6-0.1-3-0.9-4.3-1.3
			l1.1,3.8l-1.2,8c1.3-0.4,3.8-1.2,4.4-1.3C648,189.9,649.6,189.8,649.6,191.8z"/>
		<path class="st1" d="M658.6,185.5c0-2.2,1.8-3.9,3.9-3.9c2.2,0,3.9,1.8,3.9,3.9c0,2.2-1.7,3.9-3.9,3.9
			C660.4,189.4,658.6,187.7,658.6,185.5z"/>
		<path class="st1" d="M139.5,229.1l2.5,2.4l-1.8,1.8l-2.5-2.5c-0.9,0.5-2,0.8-3.1,0.8c-1.2,0-2.4-0.3-3.3-0.9l-2.6,2.6l-1.8-1.8
			l2.6-2.6c-0.6-0.9-0.9-2.1-0.9-3.3c0-1.1,0.3-2.2,0.9-3.1l-2.5-2.5l1.8-1.8l2.4,2.4c1-0.7,2.2-1.1,3.5-1.1c1.2,0,2.3,0.3,3.3,1
			l2.3-2.3l1.8,1.8l-2.3,2.3c0.6,1,0.9,2.1,0.9,3.3C140.6,226.9,140.2,228.1,139.5,229.1z M138.1,225.6c0-2-1.5-3.5-3.5-3.5
			s-3.5,1.6-3.5,3.5c0,1.9,1.5,3.5,3.5,3.5S138.1,227.5,138.1,225.6z"/>
		<path class="st1" d="M159,236.4v3.2h-2.1v-3.2c-2.8-0.3-5.1-1.7-5.8-2.3c0-0.1,0.9-3.7,0.9-3.7h2.3l0,3.4c0.9,0.4,1.8,0.6,2.6,0.7
			v-8.3c-1.2-0.4-2.4-0.9-3.4-1.8c-2.9-2.3-2.7-4.8-2.5-6c0.3-2.2,2.4-4.2,5.9-4.6v-2.6h2.1v2.5c2.9,0.2,4.7,1.5,5.4,2.2l-0.6,3.3
			h-2.1L161,216c-0.7-0.2-1.3-0.4-1.9-0.5v7.7c0,0,0.1,0,0.1,0c2.5,0.9,5.6,2.2,6.1,6.3C165.5,232.1,163.9,236,159,236.4z
			 M156.9,222.5v-6.9c-2.1,0.4-3.4,2-3,4.1C154.2,221,155.5,221.9,156.9,222.5z M159,227v7.5c2.3-0.4,3.1-2.3,3.1-3.3
			C162.3,228.8,160.9,227.8,159,227z"/>
		<path class="st1" d="M191.8,231.8l1,0.3l-1.5,4.4c-1.2,2.1-6.6-1.5-10-1.1c-2.2,0.3-4.3,1.6-5.2,1.9v-2.3c1.9-3,2.3-5.1,2.4-8.7
			h-3v-2h3.1c0-1.4,0-3.1,0-5c0-3.2,3.1-5.9,7.9-5.9c3.5,0,5.7,1.7,6.6,2.4c0,0-1.1,4.1-1.1,4.1h-2.5l-0.6-3.9
			c-3.6-1.7-6.9,0.2-7.2,4.4c-0.1,1.4-0.2,2.7-0.2,4h6.7v2h-6.8c-0.1,2.7-0.3,5-0.9,7.1c0.8-0.4,1.6-0.6,2.5-0.6
			c2.2,0,3.6,0.9,5.7,0.9S191.8,231.8,191.8,231.8z"/>
		<path class="st1" d="M214.3,226.2L214.3,226.2l4.3,0.1v2h-4.3v2.1h4.2v2h-4.2v2.7l3,0.9v1.1h-9.8v-1.1l3-0.9v-2.7h-4.4v-2h4.4
			v-2.1h-4.3v-2h4.2l-6.6-10.6l-2.7-1v-1.1l9.3,0.1v1.1l-2.5,0.8l5.4,8.7l4.9-8.7l-2.5-0.9v-1.1h7.7v1.1l-2.8,1L214.3,226.2z"/>
		<path class="st1" d="M236.7,222.3h5.2v2h-5.6c0,0.3-0.1,0.6-0.1,0.9c0,0.5,0,1,0,1.5h5.5v2h-5.2c0.8,3.9,3.3,6.5,6.3,6.7
			c0.8,0.1,1.6,0,2.2-0.3l0.7-3.9h2.4l0.8,2.9c0,0-2.5,3.2-6.4,3.2c-4.2,0-8.3-3-9.4-8.6h-2.1v-2h1.8c0-0.4-0.1-0.9-0.1-1.4
			c0-0.3,0-0.7,0-1h-1.7v-2h1.9c1.2-5.7,5.7-8.9,10.5-9.2c2.3-0.1,4,0.8,5.6,2.2c0,0-0.6,3-0.6,3H246l-0.6-3.4
			C240.2,214.4,237.7,218.5,236.7,222.3z"/>
		<path class="st1" d="M265.7,232.8v2.8h-1.9v-2.9c-2.8-0.4-5.9-2.4-6.3-6.8c-0.4-4.8,3.1-7.7,6.3-8.3v-2.8h1.9v2.7
			c2,0.1,3.3,0.8,3.8,1.1l-0.1,2.9l-1.8,0l-1.6-2.4c-0.1,0-0.2,0-0.3,0V231c0.1,0,0.2,0,0.3,0c2.6,0.1,3.9-1.1,3.9-1.1l0,0.7
			C269.9,230.6,268.7,232.5,265.7,232.8z M263.8,230.4v-10.9c-2.1,1-3.3,4.1-2.8,6.9C261.3,228.3,262.4,229.7,263.8,230.4z"/>
		<path class="st1" d="M286.3,232.8v2.8h-1.9v-2.9c-2.8-0.4-5.9-2.4-6.3-6.8c-0.4-4.8,3.1-7.7,6.3-8.3v-2.8h1.9v2.7
			c2,0.1,3.3,0.8,3.8,1.1l-0.1,2.9l-1.8,0l-1.6-2.4c-0.1,0-0.2,0-0.3,0V231c0.1,0,0.2,0,0.3,0c2.6,0.1,3.9-1.1,3.9-1.1l0,0.7
			C290.5,230.6,289.3,232.5,286.3,232.8z M284.4,230.4v-10.9c-2.1,1-3.3,4.1-2.8,6.9C281.9,228.3,283,229.7,284.4,230.4z"/>
		<path class="st1" d="M313.3,222.6l-1.1,4.5h4.5v3.1h-5.2l-1.6,6.7h-2.3l1.6-6.7h-4.5l-1.6,6.7h-2.3l1.6-6.7h-3.6v-3.1h4.4l1.1-4.5
			h-4.5v-3.1h5.2l1.4-5.9h2.3l-1.4,5.9h4.5l1.4-5.9h2.3l-1.4,5.9h3.6v3.1H313.3z M311,222.6h-4.5l-1.1,4.5h4.5L311,222.6z"/>
		<path class="st1" d="M325.3,219.2c0-3.1,1.9-5.6,4.3-5.6c2.3,0,4.2,2.4,4.2,5.6c0,3.2-1.9,5.6-4.2,5.6
			C327.1,224.8,325.3,222.3,325.3,219.2z M344.8,213.6l-16.5,23.3h-2.9l16.5-23.3H344.8z M331.3,219.2c0-2.2-0.7-4-1.7-4
			c-1.1,0-1.8,1.8-1.8,4c0,2.2,0.7,4,1.8,4C330.5,223.1,331.3,221.4,331.3,219.2z M336.7,231.3c0-3.1,1.9-5.6,4.3-5.6
			c2.3,0,4.2,2.4,4.2,5.6c0,3.2-1.9,5.6-4.2,5.6C338.6,236.9,336.7,234.5,336.7,231.3z M342.7,231.3c0-2.2-0.7-4-1.7-4
			c-1.1,0-1.8,1.8-1.8,4c0,2.2,0.7,4,1.8,4C342,235.3,342.7,233.6,342.7,231.3z"/>
		<path class="st1" d="M352.5,217.1c0-2.7,1.9-4.9,4.6-4.9c2.7,0,4.5,2.2,4.5,4.9c0,2.7-1.9,4.9-4.5,4.9
			C354.4,222,352.5,219.8,352.5,217.1z M359.9,217.1c0-1.7-1.1-3.1-2.8-3.1c-1.7,0-2.7,1.4-2.7,3.1s1,3.1,2.7,3.1
			C358.8,220.2,359.9,218.8,359.9,217.1z"/>
		<path class="st1" d="M382,235.1c0,2.2-1.6,4.7-5.9,4.7c-3,0-4.9-1.5-5.5-2c0-0.1,0-3.2,0-3.2h2.5l0.9,3c3.4,1.6,5.4-0.5,5.2-2.4
			c-0.2-2.7-4-2.6-6.6-4.7c-1.7-1.4-2.1-2.8-2.1-3.9c0-1.7,1-3.1,2.5-3.9c-0.2-0.1-0.4-0.3-0.5-0.4c-1.7-1.3-2.1-3.1-2.1-4.1
			c0-3.2,3.1-4.7,6.3-4.7c2.6,0,4.2,1.1,4.8,1.7c0,0,0,2.9,0,2.9h-2.5l-1.1-3.1c-2.3-0.3-4.7,0.3-4.7,2.6c-0.1,3.7,8.4,2.8,8.6,9
			c0,1.1-0.5,2.9-2.1,3.9C381,231.6,382,233,382,235.1z M377.8,229.4c0.9-0.6,1.4-1.5,1.2-2.5c-0.4-1.9-2.1-2.3-4-3.1
			c-1,0.3-1.8,1.1-1.7,2.3C373.3,227.6,375.6,228.3,377.8,229.4z"/>
		<path class="st1" d="M411.2,226.6c-0.8,1-2.1,2.6-3.2,4c0.7,0.9,1.4,1.6,1.8,2.1c2.2,2.6,2.8,1.9,3.6,1.3l0.6,0.7l-2.8,2.7
			c-1.4,0-3-1.7-4.5-3.4l-0.8-0.9c-0.2,0.2-0.3,0.4-0.3,0.4c-4.3,6.2-9.6,4.2-11.4,2.1c-2.8-3.1-1.8-7.3,1.7-9.8
			c0.8-0.6,1.7-1.2,2.6-1.9c-0.7-0.8-1.2-1.5-1.3-1.6c-2.7-3.4-1.4-8.9,3.9-9.1c3.2-0.1,5.7,1.5,5.6,4.3c0,1.5-0.8,3.5-4,5.8
			l-0.5,0.4c1.2,1.5,2.9,3.6,4.5,5.5c0.8-1,1.5-1.9,2.1-2.7l-3.2-0.6v-1.3h8.7v1.3L411.2,226.6z M404.9,231.6
			c-1.5-1.8-3.4-4.2-4.9-6.1l-2.1,1.6c-4.7,3.5,0.9,11.3,6,5.8L404.9,231.6z M401.3,222.2c0.4-0.3,0.6-0.4,0.7-0.5
			c2.8-2.4,2.4-7.6-0.6-7.1c-1.9,0.3-2.7,4-0.6,6.9L401.3,222.2z"/>
		<path class="st1" d="M452.5,227.6c-0.4,6.3-4.2,10.1-8,9.9c-1.9-0.1-3.2-1.7-3.2-2.7c0,0-2.3,2.6-4.9,2.1
			c-1.8-0.3-3.3-1.9-3.3-4.7c-0.1-6.5,4.5-9.2,6-9.6c0.9-0.3,2.8-0.6,3.9,0.7l0.9-0.9l1.9,0.4l-1.7,9.5c-0.5,2.4-0.1,3,1.4,3
			c2.2,0,4.4-3.3,4.6-7.8c0.4-6.7-5.2-9.3-8.3-9.6c-4.8-0.4-12.4,2.4-13,11.6c-0.6,8.7,6.3,13.3,14.1,11.2l0.8,1.3
			c-11,3.3-18-4.1-17.5-12.8c0.4-7.3,6.3-14.1,15.6-13.4C450.2,216.4,452.8,222.6,452.5,227.6z M442.8,224.5
			c-0.4-0.3-0.9-0.7-1.5-0.9c-1.6-0.6-4.4,1.9-5,7.7c-0.2,2.3,0.5,3.6,1.5,3.9c1,0.4,2.3-0.3,3.4-1.5L442.8,224.5z"/>
		<path class="st1" d="M471.3,213.6l0.1,2.8h-0.7l-1.3-2h-1.6v8.3l1.6,0.5v0.6h-5.3v-0.6l1.6-0.5v-8.3h-1.6l-1.3,2H462l0.1-2.8
			H471.3z M484.5,223.3v0.6h-4.6v-0.6l1.3-0.5V217l-3,6.3h-0.7l-3.1-5.9v5.4l1.6,0.5v0.6h-4.3v-0.6l1.6-0.5v-8l-1.1-0.6v-0.5h2.6
			l3.5,6.8l3-6.8h2.8v0.5l-1,0.6v8L484.5,223.3z"/>
		<path class="st1" d="M516.4,225.4c0,6.7-5.4,12-12,12s-12-5.4-12-12s5.4-12,12-12S516.4,218.7,516.4,225.4z M514.2,225.4
			c0-5.5-4.3-9.9-9.7-9.9c-5.4,0-9.7,4.4-9.7,9.9c0,5.4,4.3,9.8,9.7,9.8C509.9,235.2,514.2,230.8,514.2,225.4z M508.2,227.7h1.7v2.9
			c0,0-2,2.1-5.1,2.1c-3.8,0-7.4-2.5-7.4-7.2c0-4.6,3.8-7.3,7.8-7.3c1.6,0,3,0.5,4.4,1.3c0,0,0,2.7,0,2.7h-1.5l-1.6-2.7
			c-4.9-0.5-6,3.6-6,5.9c0,3.2,1.9,5.5,4.6,5.7c0.7,0,1.4-0.1,2-0.3L508.2,227.7z"/>
		<path class="st1" d="M535.9,218.1c0,3.2-2.6,5.8-5.8,5.8c-3.2,0-5.8-2.6-5.8-5.8c0-3.2,2.6-5.8,5.8-5.8
			C533.3,212.4,535.9,214.9,535.9,218.1z M534.9,218.1c0-2.6-2.1-4.8-4.7-4.8c-2.6,0-4.7,2.2-4.7,4.8c0,2.6,2.1,4.8,4.7,4.8
			C532.7,222.9,534.9,220.8,534.9,218.1z M533.1,220.7v0.3c0,0-1.5,0.4-2-0.4l-1.1-2.1h-0.6v2l0.8,0.1v0.3h-2.7v-0.3l0.7-0.1v-5.1
			l-0.5-0.1V215h2.6c1.5,0,2.2,0.9,2.2,1.8c0,0.8-0.6,1.5-1.6,1.7l1.1,1.6C532.4,220.6,533.1,220.7,533.1,220.7z M529.7,218
			c1,0,1.5-0.7,1.5-1.3c0-1-0.7-1.3-1.4-1.3h-0.5v2.6L529.7,218L529.7,218z"/>
		<path class="st1" d="M551,226l-4.5,7.7h-2.6l6.2-11.3h1.8l6.2,11.3h-2.7L551,226z"/>
		<path class="st1" d="M575,218.3l3.6,1.4l-1.1,1.8l-3-2.4l0.5,3.8h-2.1l0.6-3.8l-3,2.4l-1-1.8l3.6-1.4l-3.6-1.4l1-1.8l3,2.4
			l-0.6-3.8h2.1l-0.5,3.8l3-2.4l1.1,1.8L575,218.3z"/>
		<path class="st1" d="M603.8,215.1l-1.8,0.2v23.6h-4.3v-23.7l-1.4-0.1v13.9h-1.3c-4.2-0.1-7.6-3.5-7.6-7.7c0-4.2,3.4-7.6,7.6-7.7
			h8.7V215.1z"/>
		<path class="st1" d="M616.9,227.1c0,5.6,1.3,10.1,2.9,12.8l-0.9,1.1c-2.7-2.3-5.6-7.7-5.6-13.9c0-6.2,3-11.6,5.6-13.9l0.9,1.2
			C618.1,217,616.9,221.6,616.9,227.1z"/>
		<path class="st1" d="M633.1,212.4v29.9h-2.6v-29.9H633.1z"/>
		<path class="st1" d="M646.7,227.1c0-5.5-1.3-10.1-2.9-12.7l0.9-1.2c2.7,2.3,5.6,7.7,5.6,13.9c0,6.3-3,11.6-5.6,13.9l-0.9-1.1
			C645.4,237.3,646.7,232.7,646.7,227.1z"/>
		<path class="st1" d="M147.9,256.7v24.1l4.5,0.4v1.5h-7.8v-27.8h7.8v1.5L147.9,256.7z"/>
		<path class="st1" d="M170.9,278.6h-2.8l-6.5-23.3h2.8L170.9,278.6z"/>
		<path class="st1" d="M188.3,282.7h-7.8v-1.5l4.5-0.4v-24.1l-4.5-0.4v-1.5h7.8V282.7z"/>
		<path class="st1" d="M201,268.9c2.7,0.4,5.1,1.4,5.1,3.9v2.2c0,7.2,2.3,7.1,4.1,7.1v0.9c-1.9,0-7.4,0.5-7.4-7.5v-2.6
			c0-2.6-2.6-3.2-4.7-3.2v-1.3c2.1,0,4.7-0.6,4.7-3.2v-2.6c0-8,5.5-7.5,7.4-7.5v0.9c-1.8,0-4.1-0.2-4.1,7.1v2.2
			C206.1,267.5,203.7,268.5,201,268.9z"/>
		<path class="st1" d="M227.5,255.3l-6.5,23.3h-2.8l6.5-23.3H227.5z"/>
		<path class="st1" d="M247.1,268.3v1.3c-2.1,0-4.7,0.6-4.7,3.2v2.6c0,8-5.5,7.5-7.4,7.5v-0.9c1.8,0,4.1,0.2,4.1-7.1v-2.2
			c0-2.5,2.4-3.5,5.1-3.9c-2.7-0.3-5.1-1.4-5.1-3.9v-2.2c0-7.2-2.3-7.1-4.1-7.1v-0.9c1.9,0,7.4-0.5,7.4,7.5v2.6
			C242.4,267.7,244.9,268.3,247.1,268.3z"/>
		<path class="st1" d="M264.4,254.1V284h-2.6v-29.9H264.4z"/>
		<path class="st1" d="M278.3,254.1v10.8h-2.6v-10.8H278.3z M278.3,271.4V284h-2.6v-12.5H278.3z"/>
		<path class="st1" d="M305.5,263l-12.3,4.4l12.3,4.4v2.9l-17.2-6.4v-1.8l17.2-6.4V263z M305.5,278.6h-17.2v-2.4h17.2V278.6z"/>
		<path class="st1" d="M330.1,261.1l-13.5,6.3l13.5,6.3v2.6l-17.2-8v-1.8l17.2-8V261.1z"/>
		<path class="st1" d="M355.8,271.3h-7.3v7.3h-2.7v-7.3h-7.3v-2.7h7.3v-7.3h2.7v7.3h7.3V271.3z"/>
		<path class="st1" d="M381.1,268.5v2.7h-17.2v-2.7H381.1z"/>
		<path class="st1" d="M406.7,263l-12.3,4.4l12.3,4.4v2.9l-17.2-6.4v-1.8l17.2-6.4V263z M406.7,278.6h-17.2v-2.4h17.2V278.6z"/>
		<path class="st1" d="M431.3,261.1l-13.5,6.3l13.5,6.3v2.6l-17.2-8v-1.8l17.2-8V261.1z"/>
		<path class="st1" d="M457,271.3h-7.3v7.3H447v-7.3h-7.3v-2.7h7.3v-7.3h2.7v7.3h7.3V271.3z"/>
		<path class="st1" d="M482.2,268.5v2.7H465v-2.7H482.2z"/>
		<path class="st1" d="M507.6,265.1v2.7h-17.2v-2.7H507.6z M507.6,272.2v2.7h-17.2v-2.7H507.6z"/>
		<path class="st1" d="M527.5,267.8l-3.1,4.4h8.5v2.7h-10.3l-2.7,3.9l-2.2-1.6l1.6-2.2h-3.6v-2.7h5.4l3.1-4.4h-8.5v-2.7H526l2.7-3.9
			l2.2,1.6l-1.6,2.3h3.5v2.7H527.5z"/>
		<path class="st1" d="M558.1,268.6v2.7h-17.2v-2.7H558.1z M547.4,264.8c0-1.1,0.9-2,2-2c1.1,0,2,0.9,2,2s-0.9,2-2,2
			C548.3,266.8,547.4,265.9,547.4,264.8z M547.4,275c0-1.1,0.9-2,2-2c1.1,0,2,0.9,2,2s-0.9,2-2,2C548.3,277,547.4,276.1,547.4,275z"
			/>
		<path class="st1" d="M576.7,269.9l5.1,5.1l-1.9,1.9l-5.1-5.1l-5.1,5.1l-1.9-1.9l5.1-5.1l-5.1-5.1l1.9-1.9l5.1,5.1l5.1-5.1l1.9,1.9
			L576.7,269.9z"/>
		<path class="st1" d="M608.4,266.5v1.8l-17.2,8v-2.6l13.5-6.3l-13.5-6.3v-2.6L608.4,266.5z"/>
		<path class="st1" d="M633.9,266.4v1.8l-17.2,6.4v-2.9l12.3-4.4l-12.3-4.4V260L633.9,266.4z M633.9,276.2v2.4h-17.2v-2.4H633.9z"/>
		<path class="st1" d="M135.5,310.4h-7.3v-2.7h7.3v-5.4h2.7v5.4h7.3v2.7h-7.3v5.4h-2.7V310.4z M145.8,317.9v2.4h-17.2v-2.4H145.8z"
			/>
		<path class="st1" d="M160.9,309.3l-4.5,7.7h-2.6l6.2-11.3h1.8L168,317h-2.7L160.9,309.3z"/>
		<path class="st1" d="M197.8,297l-16.5,23.3h-2.6l16.5-23.3H197.8z"/>
		<path class="st1" d="M207.1,311.9l-1.6-1.7c0.7-0.9,2.6-2.4,4.6-2.4c2.3,0.1,3.9,1.7,5.7,1.6c1.4-0.1,2.1-1.1,2.5-1.9l1.8,1.2
			c-0.6,1.5-1.6,3-3.9,3.1c-2.3,0.1-4-1.6-6.3-1.6C208.6,310.2,207.6,311.3,207.1,311.9z"/>
		<path class="st1" d="M235,320.5c-2.7,0.1-6.3-1.6-6.4-6.4c-0.2-5.4,4.4-7.7,6.7-8c2.1-0.3,4,0.3,5.4,1.6c-0.1-2.6-0.8-5-1.9-6.3
			c-1.5-1.8-3.8-1.5-6.5,0.2l-0.4-1.1c5.8-3.8,11.2-2.1,11.8,7C244.2,314.7,240.9,320.3,235,320.5z M240.7,309.1
			c-1.3-1.3-2.8-1.6-4.5-1.4c-2.3,0.3-4.1,2.6-4.4,5.2c-0.3,3.8,1.2,6.1,3.2,6C238.7,318.9,240.6,313.9,240.7,309.1z"/>
		<path class="st1" d="M271.3,308.6c-0.1,6.6-4.2,11.7-9.1,11.7c-1.4,0-2.7-0.4-3.9-1.1l-1,2.1l-1.8-0.9l1.2-2.6
			c-2.1-2.1-3.3-5.4-3.3-9.2c0.1-6.5,4.2-11.6,9.1-11.6c1.3,0,2.4,0.3,3.5,0.9l0.9-1.8l1.8,0.9l-1,2.1
			C270,301.2,271.4,304.6,271.3,308.6z M258.5,314.3l6.7-14.3c-0.7-1-1.5-1.6-2.5-1.6c-2.7,0-4.7,4.5-4.8,10.2
			C257.8,310.7,258,312.7,258.5,314.3z M266.3,302.4l-6.8,14.5c0.8,1.3,1.7,2,2.8,2c2.7,0,4.7-4.5,4.8-10.3
			C267.1,306.2,266.8,304.1,266.3,302.4z"/>
		<path class="st1" d="M303,323.9v1.1h-9.5v-1.1l2.8-0.8v-24.1h-9.4V323l2.9,0.9v1.1h-9.5v-1.1l2.9-0.9v-24.1l-2.7-0.8V297h22.5v1.1
			l-2.8,0.8V323L303,323.9z"/>
		<path class="st1" d="M327.9,317.2l-0.6,7h-16.2v-2.8l7.9-10.6l-7.9-12.3V297h16.2l0.3,6.5h-1.8l-1.9-5.1h-8.6l7.2,11.1l-7.2,11.8
			h9.4l1.5-4.1L327.9,317.2L327.9,317.2z"/>
		<path class="st1" d="M353.2,310.1v2.7H336v-2.7H353.2z"/>
		<path class="st1" d="M386.1,299.4h-6l-9,23.9h-4.2l-3.8-10.4h-2.2v-2.8h4.5l3.6,9.8l9.1-23.4h8L386.1,299.4L386.1,299.4z"/>
		<path class="st1" d="M412.2,318.2c-1.6,0-3.1-0.6-4.3-1.7l-2.4-2.5l-2.1,2.3c-1.1,1.2-2.7,1.8-4.3,1.8c-3.3,0-6.1-2.6-6.1-5.9
			c-0.1-3.4,2.6-6.2,5.9-6.2c1.6,0,3.1,0.6,4.3,1.7l2.4,2.5l2.1-2.2c1.1-1.2,2.7-1.8,4.3-1.8c3.3-0.1,6.1,2.6,6.2,5.9
			C418.2,315.4,415.5,318.2,412.2,318.2z M399,308.6c-1.9,0.1-3.4,1.6-3.4,3.6c0,1.8,1.6,3.4,3.5,3.4c0.9,0,1.8-0.4,2.4-1.1l2.3-2.4
			l-2.4-2.6C400.8,308.9,399.9,308.6,399,308.6z M409.8,314.8c0.7,0.6,1.5,0.9,2.4,0.9c2-0.1,3.5-1.5,3.4-3.5c0-1.9-1.6-3.4-3.6-3.4
			c-0.9,0-1.8,0.3-2.4,1.1l-2.3,2.4L409.8,314.8z"/>
		<path class="st1" d="M438.6,297.6c0,0.9-0.7,1.6-1.6,1.6c-0.9,0-1.2-0.7-1.2-1.6c0-0.4,0.1-0.7,0.2-1c-0.9-0.2-2,0.8-2.1,4
			l-0.6,16.9c-0.1,3.3-1.6,5.1-4.8,5.1c-3,0-3.3-1.6-3.3-2.1c0-0.9,0.7-1.6,1.6-1.6c0.9,0,1.2,0.7,1.2,1.6c0,0.4-0.1,0.8-0.2,1.1
			c0.9,0.3,2.1-0.7,2.1-4l0.6-16.9c0.1-3.3,1.6-5.1,4.8-5.1C438.4,295.7,438.6,297.2,438.6,297.6z"/>
		<path class="st1" d="M460.3,309.2l-6.1,11.1h-2.6l-6-11.1l6-11.3h2.6L460.3,309.2z M457.3,309l-4.4-8.3l-4.4,8.3l4.4,8.4
			L457.3,309z"/>
		<path class="st1" d="M491.9,319.1v1.1h-8.8v-1.1l2.3-0.9l-2.1-5.1h-8.3l-2,5.1l3,0.9v1.1h-8.2v-1.1l3.2-1l8.6-21.5h0.9l9.2,21.5
			L491.9,319.1z M479,303l-3.3,8.3h6.9L479,303z M479.1,294.6l-0.4-0.7c0,0,3.1-3.5,3.7-4c0.6-0.6,1.5-1,2.2-0.1
			c0.7,1,0.1,1.7-0.6,2.1C483.3,292.4,479.1,294.6,479.1,294.6z"/>
		<path class="st1" d="M523.3,319.1v1.1h-8.8v-1.1l2.3-0.9l-2.1-5.1h-8.3l-2,5.1l3,0.9v1.1h-8.2v-1.1l3.2-1l8.6-21.5h0.9l9.2,21.5
			L523.3,319.1z M506.9,289.9c0.6-0.9,1.5-0.7,2.2,0.1c0.6,0.5,3.7,4,3.7,4l-0.4,0.7c0,0-4.2-2.2-4.9-2.6
			C506.8,291.6,506.2,290.9,506.9,289.9z M510.4,303l-3.3,8.3h6.9L510.4,303z"/>
		<path class="st1" d="M554.8,319.1v1.1H546v-1.1l2.3-0.9l-2.1-5.1h-8.3l-2,5.1l3,0.9v1.1h-8.2v-1.1l3.2-1l8.6-21.5h0.9l9.2,21.5
			L554.8,319.1z M538.7,294.4l-0.8-0.6l4.2-4.1h1.3l4.2,4.1l-0.8,0.6l-4.1-2L538.7,294.4z M541.9,303l-3.3,8.3h6.9L541.9,303z"/>
		<path class="st1" d="M586.2,319.1v1.1h-8.8v-1.1l2.3-0.9l-2.1-5.1h-8.3l-2,5.1l3,0.9v1.1h-8.2v-1.1l3.2-1l8.6-21.5h0.9l9.2,21.5
			L586.2,319.1z M569.4,294.3c-0.1-1.3,0.8-4.1,3.2-4.1c2.1,0,2.4,2.1,3.9,2.1c1.3,0,1.6-1.5,1.6-1.5h0.9c0,1.2-0.2,3.5-2.5,3.8
			c-2.4,0.2-2.7-1.8-4.2-1.9c-1.8-0.1-2,1.7-2,1.7L569.4,294.3L569.4,294.3z M573.3,303l-3.3,8.3h6.9L573.3,303z"/>
		<path class="st1" d="M617.7,319.1v1.1h-8.8v-1.1l2.3-0.9l-2.1-5.1h-8.3l-2,5.1l3,0.9v1.1h-8.2v-1.1l3.2-1l8.6-21.5h0.9l9.2,21.5
			L617.7,319.1z M600.4,291.7c0-1,0.9-1.9,1.9-1.9c1.1,0,2,0.9,2,1.9c0,1.1-0.9,2-2,2C601.3,293.6,600.4,292.8,600.4,291.7z
			 M604.8,303l-3.3,8.3h6.9L604.8,303z M607,291.7c0-1,0.9-1.9,1.9-1.9c1.1,0,2,0.9,2,1.9c0,1.1-0.9,2-2,2
			C607.9,293.6,607,292.8,607,291.7z"/>
		<path class="st1" d="M649.1,319.1v1.1h-8.8v-1.1l2.3-0.9l-2.1-5.1h-8.3l-2,5.1l3,0.9v1.1H625v-1.1l3.2-1l8.6-21.5h0.9l9.2,21.5
			L649.1,319.1z M636.2,303l-3.3,8.3h6.9L636.2,303z M634.3,292.3c0-1.6,1.2-2.9,2.8-2.9c1.6,0,2.8,1.3,2.8,2.9c0,1.6-1.2,3-2.8,3
			C635.4,295.3,634.3,294,634.3,292.3z M635.7,292.3c0,0.9,0.6,1.5,1.4,1.5c0.9,0,1.4-0.6,1.4-1.5c0-0.8-0.5-1.5-1.4-1.5
			C636.3,290.8,635.7,291.5,635.7,292.3z"/>
		<path class="st1" d="M143.1,356.3l-1.1,5.6h-16.7v-1.1l2.4-0.8v-5.2h-8.1l-3.1,5.1l3.1,0.9v1.1H111v-1.1l3.1-1l11.7-19.5l-2.1-0.6
			v-1.1h19l-0.2,5.4h-1.5l-1.9-3.8h-7.7v9.2h4.6l1-3h1.1v7.5h-1.1l-1-2.9h-4.6v9.4h7.4l2.9-4L143.1,356.3L143.1,356.3z M127.7,353
			v-11.7l-7,11.7H127.7z"/>
		<path class="st1" d="M182.7,356.3l-1.1,5.6h-16.7v-1.1l2.4-0.8v-5.2h-8.1L156,360l3.1,0.9v1.1h-8.5v-1.1l3.1-1l11.7-19.5l-2.1-0.6
			v-1.1h19l-0.2,5.4h-1.5l-1.9-3.8H171v9.2h4.6l1-3h1.1v7.5h-1.1l-1-2.9H171v9.4h7.4l2.9-4L182.7,356.3L182.7,356.3z M167.2,353
			v-11.7l-7,11.7H167.2z M170.4,336.3l-0.4-0.7c0,0,3.1-3.5,3.7-4c0.6-0.6,1.5-1,2.2-0.1c0.7,1,0.1,1.7-0.6,2.1
			C174.6,334.1,170.4,336.3,170.4,336.3z"/>
		<path class="st1" d="M211.2,355.3v3.5c0,0-3.3,3.5-8.4,3.5l0.2-0.5h-0.9l-0.2,0.5c-5.7-0.4-11.1-4.6-11.1-11.9
			c0-7.6,6.1-12.1,12.6-12.1c2.6,0,5,0.8,7.3,2.2c0,0,0,3.6,0,3.6h-2.1l-2-3.8c-1.4-0.4-2.1-0.4-3.2-0.4c-6.5,0.2-8.6,6.3-8.6,10.4
			c0,5.6,3.4,9.8,8.5,10c1.3,0.1,2.6-0.1,3.7-0.4l2-4.5L211.2,355.3L211.2,355.3z M202.8,362.3L202.8,362.3l-0.5,1.7
			c1.8,0.1,3.4,0.7,3.3,2.6c-0.1,1.7-1.5,2.4-4.5,2.3v-1.4c1.6,0,2.5-0.3,2.5-1c0-0.7-0.7-0.8-2.6-0.8v-1.4l0.9-2
			C202.2,362.3,202.5,362.3,202.8,362.3z"/>
		<path class="st1" d="M232.4,360.3l2.9-4h1.4l-1.1,5.6h-16.7v-1.1l2.4-0.8v-19.5l-2.4-0.8v-1.1h17.4l-0.2,5.4h-1.5l-1.9-3.8H225
			v9.2h4.6l1-3h1.1v7.5h-1.1l-1-2.9H225v9.4L232.4,360.3L232.4,360.3z M229.3,335.6l-0.4,0.7c0,0-4.2-2.2-4.9-2.6
			c-0.7-0.4-1.3-1.1-0.6-2.1c0.6-0.9,1.5-0.7,2.2,0.1C226.2,332.2,229.3,335.6,229.3,335.6z"/>
		<path class="st1" d="M257.9,360.3l2.9-4h1.4l-1.1,5.6h-16.7v-1.1l2.4-0.8v-19.5l-2.4-0.8v-1.1h17.4l-0.2,5.4h-1.5l-1.9-3.8h-7.7
			v9.2h4.6l1-3h1.1v7.5h-1.1l-1-2.9h-4.6v9.4L257.9,360.3L257.9,360.3z M252,335.6c0,0,3.1-3.5,3.7-4c0.6-0.6,1.5-1,2.2-0.1
			c0.7,1,0.1,1.7-0.6,2.1c-0.7,0.4-4.9,2.6-4.9,2.6L252,335.6z"/>
		<path class="st1" d="M287.6,356.3l-1.1,5.6h-16.7v-1.1l2.4-0.8v-19.5l-2.4-0.8v-1.1h17.4L287,344h-1.5l-1.9-3.8h-7.7v9.2h4.6l1-3
			h1.1v7.5h-1.1l-1-2.9h-4.6v9.4h7.4l2.9-4L287.6,356.3L287.6,356.3z M274.6,336.1l-0.8-0.6l4.2-4.1h1.3l4.2,4.1l-0.8,0.6l-4.1-2
			L274.6,336.1z"/>
		<path class="st1" d="M308.7,360.3l2.9-4h1.4l-1.1,5.6h-16.7v-1.1l2.4-0.8v-19.5l-2.4-0.8v-1.1h17.4l-0.2,5.4H311l-1.9-3.8h-7.7
			v9.2h4.6l1-3h1.1v7.5h-1.1l-1-2.9h-4.6v9.4L308.7,360.3L308.7,360.3z M300.8,335.3c1.1,0,2-0.9,2-2c0-1-0.9-1.9-2-1.9
			c-1,0-1.9,0.9-1.9,1.9C298.9,334.4,299.7,335.3,300.8,335.3z M307.4,335.3c1.1,0,2-0.9,2-2c0-1-0.9-1.9-2-1.9
			c-1,0-1.9,0.9-1.9,1.9C305.5,334.4,306.3,335.3,307.4,335.3z"/>
		<path class="st1" d="M327.1,340.6V360l2.9,0.9v1.1h-9.4v-1.1l2.9-0.9v-19.4l-2.9-0.9v-1.1h9.4v1.1L327.1,340.6z M321,331.6
			c0.6-0.9,1.5-0.7,2.2,0.1c0.6,0.5,3.7,4,3.7,4l-0.4,0.7c0,0-4.2-2.2-4.9-2.6C320.9,333.3,320.3,332.6,321,331.6z"/>
		<path class="st1" d="M337.7,338.6h9.4v1.1l-2.9,0.9V360l2.9,0.9v1.1h-9.4v-1.1l2.9-0.9v-19.4l-2.9-0.9V338.6z M341.6,336.3
			l-0.4-0.7c0,0,3.1-3.5,3.7-4c0.6-0.6,1.5-1,2.2-0.1c0.7,1,0.1,1.7-0.6,2.1C345.8,334.1,341.6,336.3,341.6,336.3z"/>
		<path class="st1" d="M355.3,336.1l-0.8-0.6l4.2-4.1h1.3l4.2,4.1l-0.8,0.6l-4.1-2L355.3,336.1z M354.7,338.6h9.4v1.1l-2.9,0.9V360
			l2.9,0.9v1.1h-9.4v-1.1l2.9-0.9v-19.4l-2.9-0.9V338.6z"/>
		<path class="st1" d="M371.2,333.4c0-1,0.9-1.9,1.9-1.9c1.1,0,2,0.9,2,1.9c0,1.1-0.9,2-2,2C372.1,335.3,371.2,334.4,371.2,333.4z
			 M371.7,338.6h9.4v1.1l-2.9,0.9V360l2.9,0.9v1.1h-9.4v-1.1l2.9-0.9v-19.4l-2.9-0.9V338.6z M377.8,333.4c0-1,0.9-1.9,1.9-1.9
			c1.1,0,2,0.9,2,1.9c0,1.1-0.9,2-2,2C378.7,335.3,377.8,334.4,377.8,333.4z"/>
		<path class="st1" d="M397.6,362c0,3.6-5.3,5.2-7.2,5.2l-0.2-0.7c1.7-0.3,3.7-1.8,3.7-4.5v-21.2l-3.6-1.1v-1.1h7.2V362z"/>
		<path class="st1" d="M415,362c0,3.6-5.3,5.2-7.2,5.2l-0.2-0.7c1.7-0.3,3.7-1.8,3.7-4.5v-21.2l-3.6-1.1v-1.1h7.2V362z"/>
		<path class="st1" d="M445.5,351c0,5.4-3.8,11-11.4,11h-9.6v-1.1l2.4-0.9V351h-2.7v-2.2h2.7v-8.3l-2.4-0.8v-1.1h8.8
			C442,338.6,445.5,344.9,445.5,351z M441.5,350.8c0-6.1-3.5-10.9-9.9-10.9h-1v9h4.8v2.2h-4.8v9.5h1.8
			C437.9,360.5,441.5,356.2,441.5,350.8z"/>
		<path class="st1" d="M471.1,355.4l-1.1,6.6h-16v-1.1l2.3-0.8v-19.4l-2.6-0.9v-1.1h8.9v1.1l-2.6,0.9v19.7h6.5l3.3-5H471.1z
			 M465.3,349.5c0-1.2,0.9-2.1,2.1-2.1c1.2,0,2.1,0.9,2.1,2.1c0,1.1-0.9,2.1-2.1,2.1C466.2,351.5,465.3,350.6,465.3,349.5z"/>
		<path class="st1" d="M502.4,338.6v1.1l-3.6,0.9v21.3h-1.7L484.2,343v17l3.6,0.9v1.1h-9.2v-1.1l3.5-0.9v-19.4l-2.4-0.9v-1.1h6.3
			l10.8,16.1l-0.1-14.1l-3.5-0.9v-1.1L502.4,338.6L502.4,338.6z M485.7,336c-0.1-1.3,0.8-4.1,3.2-4.1c2.1,0,2.4,2.1,3.9,2.1
			c1.3,0,1.6-1.5,1.6-1.5h0.9c0,1.2-0.2,3.5-2.5,3.8c-2.4,0.2-2.7-1.8-4.2-1.9c-1.8-0.1-2,1.7-2,1.7H485.7z"/>
		<path class="st1" d="M539.1,361.9h-14.4c-1.3,0.4-2.6,0.6-4,0.5c-6.3-0.4-11-6.2-10.6-12.8c0.4-6.6,5.9-11.5,12.2-11.3
			c0.8,0,1.5,0.2,2.2,0.3h15.2l-0.2,5.4h-1.5l-1.9-3.8h-7.7v9.2h4.6l1-3h1.1v7.5h-1.1l-1-2.9h-4.6v9.4h7.4l2.9-4h1.4L539.1,361.9z
			 M521.8,360.5c1.1,0,2.1-0.4,3-0.9v-18.6c-1-0.6-2.1-0.8-3.3-0.8c-4.5,0.2-7.2,4.4-7.2,10.6C514.3,356.6,517.5,360.6,521.8,360.5z
			"/>
		<path class="st1" d="M571.2,351.1c-0.4,6.7-5.9,11.8-12.2,11.3c-6.3-0.4-11-6.2-10.6-12.8c0.4-6.6,5.9-11.5,12.2-11.3
			C566.8,338.5,571.6,344.4,571.2,351.1z M567,349.9c-0.1-6.2-3-10-7.4-9.8c-4.5,0.2-7.2,4.4-7.2,10.6c0.1,5.8,3.3,9.8,7.5,9.7
			C564.3,360.4,567.1,355.7,567,349.9z M557.6,331.6c-0.8-0.8-1.6-0.9-2.2-0.1c-0.7,1-0.1,1.7,0.6,2.1s4.9,2.6,4.9,2.6l0.4-0.7
			C561.3,335.6,558.2,332.2,557.6,331.6z"/>
		<path class="st1" d="M602.6,351.1c-0.4,6.7-5.9,11.8-12.2,11.3c-6.3-0.4-11-6.2-10.6-12.8c0.4-6.6,5.9-11.5,12.2-11.3
			C598.2,338.5,603,344.4,602.6,351.1z M598.4,349.9c-0.1-6.2-3-10-7.4-9.8c-4.5,0.2-7.2,4.4-7.2,10.6c0.1,5.8,3.3,9.8,7.5,9.7
			C595.7,360.4,598.5,355.7,598.4,349.9z M590.4,336.3c0,0,4.2-2.2,4.9-2.6c0.7-0.4,1.3-1.1,0.6-2.1c-0.7-0.9-1.6-0.6-2.2,0.1
			c-0.6,0.5-3.7,4-3.7,4L590.4,336.3z"/>
		<path class="st1" d="M634,351.1c-0.4,6.7-5.9,11.8-12.2,11.3c-6.3-0.4-11-6.2-10.6-12.8c0.4-6.6,5.9-11.5,12.2-11.3
			C629.6,338.5,634.4,344.4,634,351.1z M629.9,349.9c-0.1-6.2-3-10-7.4-9.8c-4.5,0.2-7.2,4.4-7.2,10.6c0.1,5.8,3.3,9.8,7.5,9.7
			C627.1,360.4,630,355.7,629.9,349.9z M618.5,336.1l-0.8-0.6l4.2-4.1h1.3l4.2,4.1l-0.8,0.6l-4.1-2L618.5,336.1z"/>
		<path class="st1" d="M665.4,351.1c-0.4,6.7-5.9,11.8-12.2,11.3c-6.3-0.4-11-6.2-10.6-12.8c0.4-6.6,5.9-11.5,12.2-11.3
			C661,338.5,665.8,344.4,665.4,351.1z M661.3,349.9c-0.1-6.2-3-10-7.4-9.8c-4.5,0.2-7.2,4.4-7.2,10.6c0.1,5.8,3.3,9.8,7.5,9.7
			C658.5,360.4,661.4,355.7,661.3,349.9z M652.4,331.8c2.1,0,2.4,2.1,3.9,2.1c1.3,0,1.6-1.5,1.6-1.5h0.9c0,1.2-0.2,3.5-2.5,3.8
			c-2.4,0.2-2.7-1.8-4.2-1.9c-1.8-0.1-2,1.7-2,1.7h-0.9C649.1,334.7,650,331.8,652.4,331.8z"/>
		<path class="st1" d="M130.7,392.7c-0.4,6.7-5.9,11.8-12.2,11.3c-6.3-0.4-11-6.2-10.6-12.8c0.4-6.6,5.9-11.5,12.2-11.3
			C126.3,380.2,131.1,386.1,130.7,392.7z M126.6,391.6c-0.1-6.2-3-10-7.4-9.8c-4.5,0.2-7.2,4.4-7.2,10.6c0.1,5.8,3.3,9.8,7.5,9.7
			C123.8,402,126.7,397.3,126.6,391.6z M114.1,375c0-1,0.9-1.9,1.9-1.9c1.1,0,2,0.9,2,1.9c0,1.1-0.9,2-2,2
			C114.9,377,114.1,376.1,114.1,375z M120.7,375c0-1,0.9-1.9,1.9-1.9c1.1,0,2,0.9,2,1.9c0,1.1-0.9,2-2,2
			C121.5,377,120.7,376.1,120.7,375z"/>
		<path class="st1" d="M162.1,392.7c-0.4,6.7-5.9,11.8-12.2,11.3c-1.5-0.1-2.9-0.5-4.2-1.2l-1.9,3.3L142,405l1.9-3.3
			c-3-2.3-4.9-6.3-4.6-10.5c0.4-6.6,5.9-11.5,12.2-11.3c1.6,0.1,3.1,0.5,4.4,1.2l1.5-2.7l1.8,1l-1.6,2.8
			C160.6,384.6,162.4,388.5,162.1,392.7z M145.4,399.2l9.3-16.1c-1.1-0.9-2.5-1.4-4.1-1.3c-4.5,0.2-7.2,4.4-7.2,10.6
			C143.5,395.2,144.2,397.5,145.4,399.2z M158,391.6c0-2.8-0.7-5.2-1.8-6.9l-9.3,16.1c1.2,0.9,2.6,1.4,4.1,1.4
			C155.2,402,158.1,397.3,158,391.6z"/>
		<path class="st1" d="M193.5,392.7c-0.4,6.7-5.9,11.8-12.2,11.3c-1.5-0.1-2.9-0.5-4.2-1.2l-1.9,3.3l-1.8-1.1l1.9-3.3
			c-3-2.3-4.9-6.3-4.6-10.5c0.4-6.6,5.9-11.5,12.2-11.3c1.6,0.1,3.1,0.5,4.4,1.2l1.5-2.7l1.8,1l-1.6,2.8
			C192,384.6,193.8,388.5,193.5,392.7z M176.8,399.2l9.3-16.1c-1.1-0.9-2.5-1.4-4.1-1.3c-4.5,0.2-7.2,4.4-7.2,10.6
			C174.9,395.2,175.6,397.5,176.8,399.2z M189.4,391.6c0-2.8-0.7-5.2-1.8-6.9l-9.3,16.1c1.2,0.9,2.6,1.4,4.1,1.4
			C186.6,402,189.5,397.3,189.4,391.6z M181.4,378l-0.4-0.7c0,0,3.1-3.5,3.7-4c0.6-0.6,1.5-1,2.2-0.1c0.7,1,0.1,1.7-0.6,2.1
			C185.6,375.8,181.4,378,181.4,378z"/>
		<path class="st1" d="M217.1,403.9c-2.3,0-4.5-1-5-1.4c0-0.1,0-2.7,0-2.7h2.5l0.5,2.1c0,0,0.9,0.5,1.8,0.5c1.6-0.1,2.1-1.2,2.1-2.2
			c0-4-7.8-5.4-7.8-9.4c0-1.2,0.5-1.9,0.5-1.9l3.9-4.5c0-1.3-0.7-2.9-3.2-2.9c-1.8,0-4.7,0.9-4.7,5v15.3l2.8,0.9v1.1h-9v-1.1
			l2.3-0.9v-14.9c0-5.1,4.5-6.8,8.9-6.8c3.6,0,7.3,1.9,7.4,4.7l-4.3,4.5c-0.4,0.4-0.7,0.9-0.6,1.3c0.3,2.2,7.6,3.7,7.4,9.1
			C222.7,400.8,221.6,403.9,217.1,403.9z"/>
		<path class="st1" d="M254.2,380.3v1.3l-3.2,0.7v13.4c0,5.1-2.5,8.6-8.6,8.5c-5.3-0.1-8.9-2.6-8.9-9.7v-12.2l-2.9-0.7v-1.3h9.7v1.3
			l-2.9,0.7v12c0,3.1,0.5,7.8,5.1,8c4.4,0.2,6.2-3,6.2-7.2c0-1.4,0-8.7,0-12.8l-3.2-0.7v-1.3L254.2,380.3L254.2,380.3z M238,373.2
			c0.6-0.9,1.5-0.7,2.2,0.1c0.6,0.5,3.7,4,3.7,4l-0.4,0.7c0,0-4.2-2.2-4.9-2.6C237.9,375,237.3,374.2,238,373.2z"/>
		<path class="st1" d="M285.4,380.3v1.3l-3.2,0.7v13.4c0,5.1-2.5,8.6-8.6,8.5c-5.3-0.1-8.9-2.6-8.9-9.7v-12.2l-2.9-0.7v-1.3h9.7v1.3
			l-2.9,0.7v12c0,3.1,0.5,7.8,5.1,8c4.4,0.2,6.2-3,6.2-7.2c0-1.4,0-8.7,0-12.8l-3.2-0.7v-1.3L285.4,380.3L285.4,380.3z M272.8,378
			l-0.4-0.7c0,0,3.1-3.5,3.7-4c0.6-0.6,1.5-1,2.2-0.1c0.7,1,0.1,1.7-0.6,2.1S272.8,378,272.8,378z"/>
		<path class="st1" d="M316.6,380.3v1.3l-3.2,0.7v13.4c0,5.1-2.5,8.6-8.6,8.5c-5.3-0.1-8.9-2.6-8.9-9.7v-12.2l-2.9-0.7v-1.3h9.7v1.3
			l-2.9,0.7v12c0,3.1,0.5,7.8,5.1,8c4.4,0.2,6.2-3,6.2-7.2c0-1.4,0-8.7,0-12.8l-3.2-0.7v-1.3L316.6,380.3L316.6,380.3z M300.7,377.7
			l-0.8-0.6l4.2-4.1h1.3l4.2,4.1l-0.8,0.6l-4.1-2L300.7,377.7z"/>
		<path class="st1" d="M347.9,380.3v1.3l-3.2,0.7v13.4c0,5.1-2.5,8.6-8.6,8.5c-5.3-0.1-8.9-2.6-8.9-9.7v-12.2l-2.9-0.7v-1.3h9.7v1.3
			l-2.9,0.7v12c0,3.1,0.5,7.8,5.1,8c4.4,0.2,6.2-3,6.2-7.2c0-1.4,0-8.7,0-12.8l-3.2-0.7v-1.3L347.9,380.3L347.9,380.3z M330.8,375
			c0-1,0.9-1.9,1.9-1.9c1.1,0,2,0.9,2,1.9c0,1.1-0.9,2-2,2C331.7,377,330.8,376.1,330.8,375z M337.4,375c0-1,0.9-1.9,1.9-1.9
			c1.1,0,2,0.9,2,1.9c0,1.1-0.9,2-2,2C338.3,377,337.4,376.1,337.4,375z"/>
		<path class="st1" d="M387.6,380.3v1.1l-2.8,0.9l-6.5,21.2h-1.2l-5.4-17l-5.3,17h-1.2l-6.9-21.2l-2.9-1v-1.1h9.6v1.1l-2.7,0.9
			l4.5,14.2l4-12.5l-0.6-1.6l-2.7-0.9v-1.1h9.2v1.1l-2.5,0.9l4.5,13.8l4.1-13.8l-2.6-0.9v-1.1L387.6,380.3L387.6,380.3z
			 M367.4,377.7l-0.8-0.6l4.2-4.1h1.3l4.2,4.1l-0.8,0.6l-4.1-2L367.4,377.7z"/>
		<path class="st1" d="M427.1,380.3v1.1l-2.8,0.9l-6.5,21.2h-1.2l-5.4-17l-5.3,17h-1.2l-6.9-21.2l-2.9-1v-1.1h9.6v1.1l-2.7,0.9
			l4.5,14.2l4-12.5l-0.6-1.6l-2.7-0.9v-1.1h9.2v1.1l-2.5,0.9l4.5,13.8l4.1-13.8l-2.6-0.9v-1.1L427.1,380.3L427.1,380.3z M407.7,377
			c1.1,0,2-0.9,2-2c0-1-0.9-1.9-2-1.9c-1,0-1.9,0.9-1.9,1.9C405.8,376.1,406.6,377,407.7,377z M414.3,377c1.1,0,2-0.9,2-2
			c0-1-0.9-1.9-2-1.9c-1,0-1.9,0.9-1.9,1.9C412.4,376.1,413.2,377,414.3,377z"/>
		<path class="st1" d="M466.7,380.3v1.1l-2.8,0.9l-6.5,21.2h-1.2l-5.4-17l-5.3,17h-1.2l-6.9-21.2l-2.9-1v-1.1h9.6v1.1l-2.7,0.9
			l4.5,14.2l4-12.5l-0.6-1.6l-2.7-0.9v-1.1h9.2v1.1l-2.5,0.9l4.5,13.8l4.1-13.8l-2.6-0.9v-1.1L466.7,380.3L466.7,380.3z
			 M449.3,377.3c0,0,3.1-3.5,3.7-4c0.6-0.6,1.5-1,2.2-0.1c0.7,1,0.1,1.7-0.6,2.1c-0.7,0.4-4.9,2.6-4.9,2.6L449.3,377.3z"/>
		<path class="st1" d="M506.3,380.3v1.1l-2.8,0.9l-6.5,21.2h-1.2l-5.4-17l-5.3,17h-1.2l-6.9-21.2l-2.9-1v-1.1h9.6v1.1l-2.7,0.9
			l4.5,14.2l4-12.5l-0.6-1.6l-2.7-0.9v-1.1h9.2v1.1l-2.5,0.9l4.5,13.8l4.1-13.8l-2.6-0.9v-1.1L506.3,380.3L506.3,380.3z
			 M491.7,377.3l-0.4,0.7c0,0-4.2-2.2-4.9-2.6c-0.7-0.4-1.3-1.1-0.6-2.1c0.6-0.9,1.5-0.7,2.2,0.1
			C488.5,373.8,491.7,377.3,491.7,377.3z"/>
		<path class="st1" d="M526.5,392.9v8.8l3,0.9v1.1h-9.8v-1.1l3-0.9v-8.6l-6.6-10.7l-2.7-1v-1.1l9.3,0.1v1.1l-2.5,0.8l5.4,8.7
			l4.9-8.7l-2.5-0.9v-1.1h7.7v1.1l-2.8,1L526.5,392.9z M520.5,377.7l-0.8-0.6l4.2-4.1h1.3l4.2,4.1l-0.8,0.6l-4.1-2L520.5,377.7z"/>
		<path class="st1" d="M555.8,392.9v8.8l3,0.9v1.1H549v-1.1l3-0.9v-8.6l-6.6-10.7l-2.7-1v-1.1l9.3,0.1v1.1l-2.5,0.8l5.4,8.7l4.9-8.7
			l-2.5-0.9v-1.1h7.7v1.1l-2.8,1L555.8,392.9z M548.6,375c0-1,0.9-1.9,1.9-1.9c1.1,0,2,0.9,2,1.9c0,1.1-0.9,2-2,2
			C549.5,377,548.6,376.1,548.6,375z M555.2,375c0-1,0.9-1.9,1.9-1.9c1.1,0,2,0.9,2,1.9c0,1.1-0.9,2-2,2
			C556.1,377,555.2,376.1,555.2,375z"/>
		<path class="st1" d="M585.1,392.9v8.8l3,0.9v1.1h-9.8v-1.1l3-0.9v-8.6l-6.6-10.7l-2.7-1v-1.1l9.3,0.1v1.1l-2.5,0.8l5.4,8.7
			l4.9-8.7l-2.5-0.9v-1.1h7.7v1.1l-2.8,1L585.1,392.9z M578.7,373.2c0.6-0.9,1.5-0.7,2.2,0.1c0.6,0.5,3.7,4,3.7,4l-0.4,0.7
			c0,0-4.2-2.2-4.9-2.6C578.6,375,578,374.2,578.7,373.2z"/>
		<path class="st1" d="M614.4,392.9v8.8l3,0.9v1.1h-9.8v-1.1l3-0.9v-8.6l-6.6-10.7l-2.7-1v-1.1l9.3,0.1v1.1l-2.5,0.8l5.4,8.7
			l4.9-8.7l-2.5-0.9v-1.1h7.7v1.1l-2.8,1L614.4,392.9z M611.6,378l-0.4-0.7c0,0,3.1-3.5,3.7-4c0.6-0.6,1.5-1,2.2-0.1
			c0.7,1,0.1,1.7-0.6,2.1S611.6,378,611.6,378z"/>
		<path class="st1" d="M637.3,398.4v3.2l2.9,0.9v1.1h-9.4v-1.1l2.9-0.9v-19.4l-2.9-0.9v-1.1h9.4v1.1l-2.9,0.9v1.7h2.3
			c5.9,0,8.8,3.4,8.8,7c0,5.4-4.3,7.4-10.4,7.4L637.3,398.4L637.3,398.4z M637.3,385.2V397h0.3c4.7,0,6.8-2.5,6.8-6.1
			c-0.1-4.1-3.4-5.7-6.4-5.7L637.3,385.2L637.3,385.2z"/>
		<path class="st1" d="M669.9,401.5v0.8l-3.3,1.5c-1,0-1.8-1.2-1.8-1.9c0,0-1.7,2-4.3,2c-2.3,0-4.2-1.2-4.3-3.6
			c-0.1-2.4,1.3-3.6,3.1-4.1c1.7-0.5,5-1.5,5.5-1.7v-0.9c0-3.1-1.6-4.1-3.1-3.9c-0.6,0.1-1,0.3-1,0.3l-1.1,2.6h-2.3c0,0,0-2.7,0-2.7
			c0.6-0.5,2.5-1.5,4.9-1.5c5.7,0,5.9,3.7,6,5.7v6.9C668.1,402.1,669.9,401.5,669.9,401.5z M662,381.2c-0.3-0.9-0.9-1.6-2-1.1
			c-1.1,0.6-0.9,1.5-0.5,2.2s3.2,4.5,3.2,4.5l0.7-0.4C663.4,386.5,662.2,382,662,381.2z M664.7,401v-5.3c-1,0.3-2.2,0.8-3.3,1.2
			c-1.3,0.5-2,1.3-2,3c0,1.5,1.1,2.4,2.6,2.3C664,402,664.7,401,664.7,401z"/>
		<path class="st1" d="M121.1,443.2v0.8l-3.3,1.5c-1,0-1.8-1.2-1.8-1.9c0,0-1.7,2-4.3,2c-2.3,0-4.2-1.2-4.3-3.6
			c-0.1-2.4,1.3-3.6,3.1-4.1c1.7-0.5,5-1.5,5.5-1.7v-0.9c0-3.1-1.6-4.1-3.1-3.9c-0.6,0.1-1,0.3-1,0.3l-1.1,2.6h-2.3c0,0,0-2.7,0-2.7
			c0.6-0.5,2.5-1.5,4.9-1.5c5.7,0,5.9,3.7,6,5.7v6.9C119.4,443.8,121.1,443.2,121.1,443.2z M116,442.6v-5.3c-1,0.3-2.2,0.8-3.3,1.2
			c-1.3,0.5-2,1.3-2,3c0,1.5,1.1,2.4,2.6,2.3C115.3,443.7,116,442.6,116,442.6z M113.1,428.5c0,0,2.8-3.9,3.2-4.5
			c0.4-0.7,0.6-1.6-0.5-2.2c-1-0.5-1.7,0.2-2,1.1c-0.3,0.7-1.5,5.2-1.5,5.2L113.1,428.5z"/>
		<path class="st1" d="M142.4,443.2v0.8l-3.3,1.5c-1,0-1.8-1.2-1.8-1.9c0,0-1.7,2-4.3,2c-2.3,0-4.2-1.2-4.3-3.6
			c-0.1-2.4,1.3-3.6,3.1-4.1c1.7-0.5,5-1.5,5.5-1.7v-0.9c0-3.1-1.6-4.1-3.1-3.9c-0.6,0.1-1,0.3-1,0.3l-1.1,2.6h-2.3c0,0,0-2.7,0-2.7
			c0.6-0.5,2.5-1.5,4.9-1.5c5.7,0,5.9,3.7,6,5.7v6.9C140.7,443.8,142.4,443.2,142.4,443.2z M130.8,427.6l-0.8-0.6l4.2-5.1h1.3
			l4.2,5.1l-0.8,0.6l-4.1-2.7L130.8,427.6z M137.3,437.3c-1,0.3-2.2,0.8-3.3,1.2c-1.3,0.5-2,1.3-2,3c0,1.5,1.1,2.4,2.6,2.3
			c1.9-0.1,2.6-1.1,2.6-1.1V437.3z"/>
		<path class="st1" d="M163.7,443.2v0.8l-3.3,1.5c-1,0-1.8-1.2-1.8-1.9c0,0-1.7,2-4.3,2c-2.3,0-4.2-1.2-4.3-3.6
			c-0.1-2.4,1.3-3.6,3.1-4.1c1.7-0.5,5-1.5,5.5-1.7v-0.9c0-3.1-1.6-4.1-3.1-3.9c-0.6,0.1-1,0.3-1,0.3l-1.1,2.6h-2.3c0,0,0-2.7,0-2.7
			c0.6-0.5,2.5-1.5,4.9-1.5c5.7,0,5.9,3.7,6,5.7v6.9C162,443.8,163.7,443.2,163.7,443.2z M154.5,423.4c2.1,0,2.4,2.1,3.9,2.1
			c1.3,0,1.6-1.5,1.6-1.5h0.9c0,1.2-0.2,3.5-2.5,3.8c-2.4,0.2-2.7-1.8-4.2-1.9c-1.8-0.1-2,1.7-2,1.7h-0.9
			C151.2,426.2,152.1,423.4,154.5,423.4z M158.6,442.6v-5.3c-1,0.3-2.2,0.8-3.3,1.2c-1.3,0.5-2,1.3-2,3c0,1.5,1.1,2.4,2.6,2.3
			C157.9,443.7,158.6,442.6,158.6,442.6z"/>
		<path class="st1" d="M185,443.2v0.8l-3.3,1.5c-1,0-1.8-1.2-1.8-1.9c0,0-1.7,2-4.3,2c-2.3,0-4.2-1.2-4.3-3.6
			c-0.1-2.4,1.3-3.6,3.1-4.1c1.7-0.5,5-1.5,5.5-1.7v-0.9c0-3.1-1.6-4.1-3.1-3.9c-0.6,0.1-1,0.3-1,0.3l-1.1,2.6h-2.3c0,0,0-2.7,0-2.7
			c0.6-0.5,2.5-1.5,4.9-1.5c5.7,0,5.9,3.7,6,5.7v6.9C183.2,443.8,185,443.2,185,443.2z M172.1,425.9c0-1,0.9-1.9,1.9-1.9
			c1.1,0,2,0.9,2,1.9c0,1.1-0.9,2-2,2C173,427.8,172.1,427,172.1,425.9z M179.9,442.6v-5.3c-1,0.3-2.2,0.8-3.3,1.2
			c-1.3,0.5-2,1.3-2,3c0,1.5,1.1,2.4,2.6,2.3C179.2,443.7,179.9,442.6,179.9,442.6z M178.7,425.9c0-1,0.9-1.9,1.9-1.9
			c1.1,0,2,0.9,2,1.9c0,1.1-0.9,2-2,2C179.6,427.8,178.7,427,178.7,425.9z"/>
		<path class="st1" d="M206.3,443.2v0.8l-3.3,1.5c-1,0-1.8-1.2-1.8-1.9c0,0-1.7,2-4.3,2c-2.3,0-4.2-1.2-4.3-3.6
			c-0.1-2.4,1.3-3.6,3.1-4.1c1.7-0.5,5-1.5,5.5-1.7v-0.9c0-3.1-1.6-4.1-3.1-3.9c-0.6,0.1-1,0.3-1,0.3l-1.1,2.6h-2.3c0,0,0-2.7,0-2.7
			c0.6-0.5,2.5-1.5,4.9-1.5c5.7,0,5.9,3.7,6,5.7v6.9C204.5,443.8,206.3,443.2,206.3,443.2z M195.9,424.9c0-1.6,1.2-2.9,2.8-2.9
			c1.6,0,2.8,1.3,2.8,2.9c0,1.6-1.2,3-2.8,3C197,427.9,195.9,426.5,195.9,424.9z M201.2,442.6v-5.3c-1,0.3-2.2,0.8-3.3,1.2
			c-1.3,0.5-2,1.3-2,3c0,1.5,1.1,2.4,2.6,2.3C200.4,443.7,201.2,442.6,201.2,442.6z M200,424.9c0-0.8-0.5-1.5-1.4-1.5
			c-0.8,0-1.4,0.7-1.4,1.5c0,0.9,0.6,1.5,1.4,1.5C199.5,426.4,200,425.8,200,424.9z"/>
		<path class="st1" d="M235.3,437.3h-9.5c0,3.7,2.5,6.3,5.2,6.4c2.7,0.2,3.9-1.2,3.9-1.2v0.7c0,0-1,2.4-5,2.4c-2.4,0-4.5-1-5.8-2.7
			c-0.6,0.6-2.7,2.5-5.7,2.6c-2.3,0.1-4.5-1.2-4.6-3.6c-0.1-2.4,1.3-3.6,3.1-4.1c1.7-0.5,5.2-1.5,5.7-1.7c0,0,0-0.1,0-0.1v-0.8
			c0-3.1-1.9-4-3.4-3.8c-0.6,0.1-1,0.3-1,0.3l-1.1,2.6h-2.3c0,0,0-2.7,0-2.7c0.6-0.5,2.5-1.5,4.9-1.5c2.7,0,4.2,0.9,5,2
			c1.2-1.2,2.7-1.9,4.6-1.9C233.8,430.3,235.6,434.2,235.3,437.3z M223.6,442.1c-0.7-1.2-1-2.6-1-4.1c0-0.2,0-0.4,0-0.7
			c-1,0.3-2.3,0.8-3.3,1.2c-1.3,0.5-2,1.3-2,3c0.1,1.5,1.1,2.4,2.9,2.3C221.5,443.7,222.8,442.7,223.6,442.1z M232.2,435.5
			c0-1.2-1-3.8-3.1-3.8c-2.6,0-3.2,3.3-3.2,4.5L232.2,435.5z"/>
		<path class="st1" d="M264.4,437.3h-9.5c0,3.7,2.5,6.3,5.2,6.4c2.7,0.2,3.9-1.2,3.9-1.2v0.7c0,0-1,2.4-5,2.4c-2.4,0-4.5-1-5.8-2.7
			c-0.6,0.6-2.7,2.5-5.7,2.6c-2.3,0.1-4.5-1.2-4.6-3.6c-0.1-2.4,1.3-3.6,3.1-4.1c1.7-0.5,5.2-1.5,5.7-1.7c0,0,0-0.1,0-0.1v-0.8
			c0-3.1-1.9-4-3.4-3.8c-0.6,0.1-1,0.3-1,0.3l-1.1,2.6H244c0,0,0-2.7,0-2.7c0.6-0.5,2.5-1.5,4.9-1.5c2.7,0,4.2,0.9,5,2
			c1.2-1.2,2.7-1.9,4.6-1.9C262.8,430.3,264.6,434.2,264.4,437.3z M252.6,442.1c-0.7-1.2-1-2.6-1-4.1c0-0.2,0-0.4,0-0.7
			c-1,0.3-2.3,0.8-3.3,1.2c-1.3,0.5-2,1.3-2,3c0.1,1.5,1.1,2.4,2.9,2.3C250.5,443.7,251.8,442.7,252.6,442.1z M253.1,428.5l-0.7-0.4
			c0,0,1.2-4.5,1.5-5.2c0.3-0.9,0.9-1.6,2-1.1c1.1,0.6,0.9,1.5,0.5,2.2C255.8,424.7,253.1,428.5,253.1,428.5z M261.3,435.5
			c0-1.2-1-3.8-3.1-3.8c-2.6,0-3.2,3.3-3.2,4.5L261.3,435.5z"/>
		<path class="st1" d="M279.2,445.6l-0.6,1.8c1.8,0.1,3.4,0.7,3.3,2.6c-0.1,1.7-1.5,2.4-4.5,2.3v-1.4c1.6,0,2.5-0.3,2.5-1
			c0-0.7-0.7-0.8-2.6-0.8v-1.4l0.9-2.1c-2.8-0.5-5.9-2.4-6.2-6.8c-0.4-5.4,4-8.4,7.5-8.5c2.4,0,3.9,0.8,4.5,1.2l-0.1,2.9l-1.8,0
			l-1.6-2.4c-3.3-0.5-5.7,3.5-5.1,7.3c0.5,2.9,2.8,4.5,5.1,4.6c2.6,0.1,3.9-1.1,3.9-1.1l0,0.7c0,0-1.3,2-4.3,2.2
			C279.8,445.6,279.5,445.6,279.2,445.6z"/>
		<path class="st1" d="M304.5,442.6v0.7c0,0-1,2.4-5,2.4c-4.4,0-7.5-3.2-7.5-7.6c0-3.9,2.7-7.6,6.9-7.6c4.3,0,6.1,3.9,5.8,7h-9.5
			c0,3.7,2.5,6.3,5.2,6.4C303.3,443.9,304.5,442.6,304.5,442.6z M298,422.9c-0.3-0.9-0.9-1.6-2-1.1c-1.1,0.6-0.9,1.5-0.5,2.2
			c0.4,0.7,3.2,4.5,3.2,4.5l0.7-0.4C299.5,428.2,298.3,423.6,298,422.9z M295.4,436.2l6-0.7c0-0.6-0.7-3.5-2.8-3.5
			C296,432.1,295.4,435,295.4,436.2z"/>
		<path class="st1" d="M324.9,442.6v0.7c0,0-1,2.4-5,2.4c-4.4,0-7.5-3.2-7.5-7.6c0-3.9,2.7-7.6,6.9-7.6c4.3,0,6.1,3.9,5.8,7h-9.5
			c0,3.7,2.5,6.3,5.2,6.4C323.7,443.9,324.9,442.6,324.9,442.6z M315.8,436.2l6-0.7c0-0.6-0.7-3.5-2.8-3.5
			C316.4,432.1,315.8,435,315.8,436.2z M318.2,428.5c0,0,2.8-3.9,3.2-4.5c0.4-0.7,0.6-1.6-0.5-2.2c-1-0.5-1.7,0.2-2,1.1
			c-0.3,0.7-1.5,5.2-1.5,5.2L318.2,428.5z"/>
		<path class="st1" d="M345.7,437.3h-9.5c0,3.7,2.5,6.3,5.2,6.4c2.7,0.2,3.9-1.2,3.9-1.2v0.7c0,0-1,2.4-5,2.4
			c-4.4,0-7.5-3.2-7.5-7.6c0-3.9,2.7-7.6,6.9-7.6C344.2,430.4,345.9,434.2,345.7,437.3z M335.1,427.6l-0.8-0.6l4.2-5.1h1.3l4.2,5.1
			l-0.8,0.6l-4.1-2.7L335.1,427.6z M342.3,435.5c0-0.6-0.7-3.5-2.8-3.5c-2.6,0-3.2,2.9-3.2,4.2L342.3,435.5z"/>
		<path class="st1" d="M365.8,442.6v0.7c0,0-1,2.4-5,2.4c-4.4,0-7.5-3.2-7.5-7.6c0-3.9,2.7-7.6,6.9-7.6c4.3,0,6.1,3.9,5.8,7h-9.5
			c0,3.7,2.5,6.3,5.2,6.4C364.6,443.9,365.8,442.6,365.8,442.6z M354.3,425.9c0-1,0.9-1.9,1.9-1.9c1.1,0,2,0.9,2,1.9
			c0,1.1-0.9,2-2,2C355.2,427.8,354.3,427,354.3,425.9z M356.7,436.2l6-0.7c0-0.6-0.7-3.5-2.8-3.5
			C357.3,432.1,356.7,435,356.7,436.2z M360.9,425.9c0-1,0.9-1.9,1.9-1.9c1.1,0,2,0.9,2,1.9c0,1.1-0.9,2-2,2
			C361.8,427.8,360.9,427,360.9,425.9z"/>
		<path class="st1" d="M381.6,444.5v0.8h-8v-0.8l2.4-0.8v-10.8l-2.3-0.6v-0.8l5.5-0.8v13L381.6,444.5z"/>
		<path class="st1" d="M396.8,444.5v0.8h-8v-0.8l2.4-0.8v-10.8l-2.3-0.6v-0.8l5.5-0.8v13L396.8,444.5z M390,424
			c-0.4-0.7-0.6-1.6,0.5-2.2c1-0.5,1.7,0.2,2,1.1c0.3,0.7,1.5,5.2,1.5,5.2l-0.7,0.4C393.2,428.5,390.4,424.7,390,424z"/>
		<path class="st1" d="M412.1,444.5v0.8h-8v-0.8l2.4-0.8v-10.8l-2.3-0.6v-0.8l5.5-0.8v13L412.1,444.5z M407.5,428.5l-0.7-0.4
			c0,0,1.2-4.5,1.5-5.2c0.3-0.9,0.9-1.6,2-1.1c1.1,0.6,0.9,1.5,0.5,2.2S407.5,428.5,407.5,428.5z"/>
		<path class="st1" d="M423.2,424.9l-4,2.7l-0.8-0.6l4.2-5.1h1.3l4.2,5.1l-0.8,0.6L423.2,424.9z M425,443.7l2.3,0.8v0.8h-8v-0.8
			l2.4-0.8v-10.8l-2.3-0.6v-0.8l5.5-0.8V443.7z"/>
		<path class="st1" d="M435.1,427.8c-1,0-1.9-0.9-1.9-2c0-1,0.9-1.9,1.9-1.9c1.1,0,2,0.9,2,1.9C437.1,427,436.2,427.8,435.1,427.8z
			 M440.3,443.7l2.3,0.8v0.8h-8v-0.8l2.4-0.8v-10.8l-2.3-0.6v-0.8l5.5-0.8V443.7z M443.7,425.9c0,1.1-0.9,2-2,2c-1,0-1.9-0.9-1.9-2
			c0-1,0.9-1.9,1.9-1.9C442.8,424,443.7,424.8,443.7,425.9z"/>
		<path class="st1" d="M449.9,450.7c0.9-0.1,2.6-0.3,2.6-3.3v-14.6l-2.3-0.5v-0.8l5.5-0.8v16.4c0,3.3-2.9,5.1-5.7,4L449.9,450.7z"/>
		<path class="st1" d="M479.2,438.1c0,0.4-0.1,0.8-0.1,1.2c-0.7,4.3-4.4,7-8.6,6.2c-3.9-0.8-6.3-5-5.5-9.2c0.8-4.1,4.7-6.7,8.6-5.8
			c0.3,0.1,0.7,0.2,1,0.3c-0.4-1.4-1.2-2.7-2.3-4l-3.1,1.8l-0.9-1.5l2.6-1.5c-1.1-0.9-2.6-1.9-4.4-2.7l0.4-1.1
			c2.2,0.6,4.1,1.5,5.7,2.8l3.4-2l0.9,1.5l-2.8,1.7C477.7,429,479.4,433.8,479.2,438.1z M475.8,437.4c-0.1-3.3-1.5-5.7-4.2-5.5
			c-2.6,0.3-3.4,2.9-3.4,6.3c0.1,3.4,1.3,6,4.1,5.7C474.9,443.6,475.9,440.9,475.8,437.4z"/>
		<path class="st1" d="M504.4,444.5v0.8h-8v-0.8l2.4-0.8v-2.6v-5.5c0-3.2-1.6-3.7-3.1-3.2l-3,0.9v10.3l2.3,0.8v0.8h-8v-0.8l2.4-0.8
			v-10.9l-2.1-0.7v-0.8l4.8-0.7l0.6,1.8l2.7-1.5c2.8-1.5,6.7-0.1,6.7,4.4c0,2,0,6.4,0,8.3L504.4,444.5z M490.9,425
			c-1.1,0.3-2.2-0.1-2.5-1.1c-0.3-1.1,0.2-2.2,1.3-2.5c1-0.3,2.1,0.3,2.5,1.4c1.2,2.8-1.2,7.3-4.5,7.9l-0.2-0.8
			C489.6,429.3,491.1,427.3,490.9,425z"/>
		<path class="st1" d="M529.4,444.5v0.8h-8v-0.8l2.4-0.8v-2.6v-5.5c0-3.2-1.6-3.7-3.1-3.2l-3,0.9v10.3l2.3,0.8v0.8h-8v-0.8l2.4-0.8
			v-10.9l-2.1-0.7v-0.8l4.8-0.7l0.6,1.8l2.7-1.5c2.8-1.5,6.7-0.1,6.7,4.4c0,2,0,6.4,0,8.3L529.4,444.5z M516,427.5
			c-0.1-1.3,0.8-4.1,3.2-4.1c2.1,0,2.4,2.1,3.9,2.1c1.3,0,1.6-1.5,1.6-1.5h0.9c0,1.2-0.2,3.5-2.5,3.8c-2.4,0.2-2.7-1.8-4.2-1.9
			c-1.8-0.1-2,1.7-2,1.7H516z"/>
		<path class="st1" d="M542.8,421.6v22.1l2.3,0.8v0.8h-8v-0.8l2.4-0.8v-20L537,423v-0.8L542.8,421.6z M544.9,432.8
			c0-1.2,0.9-2.1,2.1-2.1c1.2,0,2.1,0.9,2.1,2.1c0,1.1-0.9,2.1-2.1,2.1C545.9,434.8,544.9,433.9,544.9,432.8z"/>
		<path class="st1" d="M580.6,437.3h-9.5c0,3.7,2.5,6.3,5.2,6.4c2.7,0.2,3.9-1.2,3.9-1.2v0.7c0,0-1,2.4-5,2.4c-2.5,0-4.5-1-5.8-2.7
			c-1.6,2-4.1,3.1-6.9,2.5c-3.9-0.8-6.3-5-5.5-9.2c0.8-4.1,4.7-6.7,8.6-5.8c1.6,0.3,3,1.2,3.9,2.5c1.2-1.5,3-2.6,5.2-2.6
			C579.1,430.4,580.9,434.2,580.6,437.3z M567.9,437.4c0-3.3-1.5-5.7-4.1-5.5c-2.6,0.3-3.5,2.8-3.4,6.2c0.1,3.4,1.3,6,4.1,5.7
			C566.9,443.6,567.9,440.9,567.9,437.4z M577.2,435.5c0-0.6-0.7-3.5-2.8-3.5c-2.6,0-3.2,2.9-3.2,4.2L577.2,435.5z"/>
		<path class="st1" d="M602.5,439.2c-0.7,4.3-4.4,7-8.6,6.2c-3.9-0.8-6.3-5-5.5-9.2c0.8-4.1,4.7-6.7,8.6-5.8
			C600.9,431.2,603.2,435.1,602.5,439.2z M599.2,437.4c-0.1-3.3-1.5-5.7-4.2-5.5c-2.6,0.3-3.4,2.9-3.4,6.3c0.1,3.4,1.3,6,4.1,5.7
			C598.3,443.6,599.3,440.9,599.2,437.4z M595.2,422.9c-0.3-0.9-0.9-1.6-2-1.1c-1.1,0.6-0.9,1.5-0.5,2.2s3.2,4.5,3.2,4.5l0.7-0.4
			C596.6,428.2,595.4,423.6,595.2,422.9z"/>
		<path class="st1" d="M624.8,439.2c-0.7,4.3-4.4,7-8.6,6.2c-3.9-0.8-6.3-5-5.5-9.2c0.8-4.1,4.7-6.7,8.6-5.8
			C623.2,431.2,625.5,435.1,624.8,439.2z M621.6,437.4c-0.1-3.3-1.5-5.7-4.2-5.5c-2.6,0.3-3.4,2.9-3.4,6.3c0.1,3.4,1.3,6,4.1,5.7
			C620.6,443.6,621.6,440.9,621.6,437.4z M617.3,428.5c0,0,2.8-3.9,3.2-4.5c0.4-0.7,0.6-1.6-0.5-2.2c-1-0.5-1.7,0.2-2,1.1
			c-0.3,0.7-1.5,5.2-1.5,5.2L617.3,428.5z"/>
		<path class="st1" d="M647.2,439.2c-0.7,4.3-4.4,7-8.6,6.2c-3.9-0.8-6.3-5-5.5-9.2c0.8-4.1,4.7-6.7,8.6-5.8
			C645.5,431.2,647.8,435.1,647.2,439.2z M636,427.6l-0.8-0.6l4.2-5.1h1.3l4.2,5.1l-0.8,0.6l-4.1-2.7L636,427.6z M643.9,437.4
			c-0.1-3.3-1.5-5.7-4.2-5.5c-2.6,0.3-3.4,2.9-3.4,6.3c0.1,3.4,1.3,6,4.1,5.7C643,443.6,643.9,440.9,643.9,437.4z"/>
		<path class="st1" d="M669.5,439.2c-0.7,4.3-4.4,7-8.6,6.2c-3.9-0.8-6.3-5-5.5-9.2c0.8-4.1,4.7-6.7,8.6-5.8
			C667.9,431.2,670.2,435.1,669.5,439.2z M660.8,423.4c2.1,0,2.4,2.1,3.9,2.1c1.3,0,1.6-1.5,1.6-1.5h0.9c0,1.2-0.2,3.5-2.5,3.8
			c-2.4,0.2-2.7-1.8-4.2-1.9c-1.8-0.1-2,1.7-2,1.7h-0.9C657.5,426.2,658.4,423.4,660.8,423.4z M666.2,437.4
			c-0.1-3.3-1.5-5.7-4.2-5.5c-2.6,0.3-3.4,2.9-3.4,6.3c0.1,3.4,1.3,6,4.1,5.7C665.3,443.6,666.3,440.9,666.2,437.4z"/>
		<path class="st1" d="M169.9,480.9c-0.7,4.3-4.4,7-8.6,6.2c-3.9-0.8-6.3-5-5.5-9.2c0.8-4.1,4.7-6.7,8.6-5.8
			C168.3,472.9,170.6,476.8,169.9,480.9z M157.6,467.6c0-1,0.9-1.9,1.9-1.9c1.1,0,2,0.9,2,1.9c0,1.1-0.9,2-2,2
			C158.5,469.5,157.6,468.6,157.6,467.6z M166.7,479.1c-0.1-3.3-1.5-5.7-4.2-5.5c-2.6,0.3-3.4,2.9-3.4,6.3c0.1,3.4,1.3,6,4.1,5.7
			C165.7,485.2,166.7,482.5,166.7,479.1z M164.2,467.6c0-1,0.9-1.9,1.9-1.9c1.1,0,2,0.9,2,1.9c0,1.1-0.9,2-2,2
			C165.1,469.5,164.2,468.6,164.2,467.6z"/>
		<path class="st1" d="M192.3,480.9c-0.7,4.3-4.4,7-8.6,6.2c-0.6-0.1-1.1-0.3-1.6-0.5l-1.6,2.9l-1.5-0.9l1.7-2.9
			c-2-1.8-3-4.7-2.4-7.6c0.8-4.1,4.7-6.7,8.6-5.8c0.5,0.1,0.9,0.3,1.4,0.4l1.5-2.6l1.5,0.8l-1.5,2.6
			C191.7,475.1,192.7,477.9,192.3,480.9z M182,483.1l5.1-8.9c-0.6-0.5-1.4-0.7-2.3-0.6c-2.6,0.3-3.4,2.9-3.4,6.3
			C181.5,481.1,181.6,482.2,182,483.1z M189,479.1c0-1.3-0.3-2.4-0.7-3.3l-5.2,9.1c0.6,0.6,1.5,0.9,2.5,0.7
			C188.1,485.2,189,482.5,189,479.1z"/>
		<path class="st1" d="M214.6,480.9c-0.7,4.3-4.4,7-8.6,6.2c-0.6-0.1-1.1-0.3-1.6-0.5l-1.6,2.9l-1.5-0.9l1.7-2.9
			c-2-1.8-3-4.7-2.4-7.6c0.8-4.1,4.7-6.7,8.6-5.8c0.5,0.1,0.9,0.3,1.4,0.4l1.5-2.6l1.5,0.8l-1.5,2.6
			C214,475.1,215,477.9,214.6,480.9z M204.3,483.1l5.1-8.9c-0.6-0.5-1.4-0.7-2.3-0.6c-2.6,0.3-3.4,2.9-3.4,6.3
			C203.8,481.1,204,482.2,204.3,483.1z M211.3,479.1c0-1.3-0.3-2.4-0.7-3.3l-5.2,9.1c0.6,0.6,1.5,0.9,2.5,0.7
			C210.4,485.2,211.4,482.5,211.3,479.1z M207,470.2l-0.7-0.4c0,0,1.2-4.5,1.5-5.2c0.3-0.9,0.9-1.6,2-1.1c1.1,0.6,0.9,1.5,0.5,2.2
			S207,470.2,207,470.2z"/>
		<path class="st1" d="M230.9,487.1c-2-0.2-2.7-1.1-2.7-1.1v5.7l2.8,0.8v0.8h-8.5v-0.8l2.4-0.8v-26.3l-2.4-0.7V464l5.1-0.7h0.6v10.9
			l2.1-1.8c3.5-0.6,7.6,2,8,6.9C238.6,484.1,235.1,487.4,230.9,487.1z M234.8,479.5c0-5.2-3.4-6.2-5.3-5.1l-1.3,0.9v9.2
			c0.5,0.7,1.1,0.9,2,1C233,486,234.8,483.6,234.8,479.5z"/>
		<path class="st1" d="M260.3,487.2c-2.3,0-4.5-1-5-1.4c0-0.1,0-2.7,0-2.7h1.9l0.6,2.3c3.2,1.5,4.5-0.7,4.5-2
			c-0.1-2-3.4-2.6-5.2-4.3c-1.1-1-3-3.8,0.3-7.4c2.4-2.6,2.4-6.1-0.1-6.9c-0.4-0.1-0.8-0.2-1.2-0.2c-1.5,0-4.4,0.7-4.4,4.5v16.3
			l2.8,0.8v0.8H246v-0.8l2.3-0.8v-11.6h-1.8v-1.5h1.8v-2.9c0-3.5,3.8-6.2,7.7-6.2c3.3,0,6,1.6,6.5,4.4c0.4,2.6-2.2,4.3-3.5,7
			c-1.7,3.5,6.3,3.2,6.3,8.6C265.4,484.4,264.7,487.2,260.3,487.2z"/>
		<path class="st1" d="M289.8,485.2v0.8l-5.6,0.9V485c-0.9,0.7-2.7,2.1-3.3,2.1c-1.5,0-5.7,0.1-5.7-5.7v-7.4l-2.3-0.4v-0.8l5.7-0.7
			v9.3c0,2.8,1.3,3.7,2.8,3.6c0.9-0.1,2.9-0.8,2.9-0.8v-10.2l-2.3-0.4v-0.8l5.6-0.7v12.5L289.8,485.2z M282.5,469.8l-0.7,0.4
			c0,0-2.8-3.9-3.2-4.5c-0.4-0.7-0.6-1.6,0.5-2.2c1-0.5,1.7,0.2,2,1.1C281.3,465.3,282.5,469.8,282.5,469.8z"/>
		<path class="st1" d="M313.9,485.2v0.8l-5.6,0.9V485c-0.9,0.7-2.7,2.1-3.3,2.1c-1.5,0-5.7,0.1-5.7-5.7v-7.4l-2.3-0.4v-0.8l5.7-0.7
			v9.3c0,2.8,1.3,3.7,2.8,3.6c0.9-0.1,2.9-0.8,2.9-0.8v-10.2l-2.3-0.4v-0.8l5.6-0.7v12.5L313.9,485.2z M304.3,469.8
			c0,0,1.2-4.5,1.5-5.2c0.3-0.9,0.9-1.6,2-1.1c1.1,0.6,0.9,1.5,0.5,2.2c-0.4,0.7-3.2,4.5-3.2,4.5L304.3,469.8z"/>
		<path class="st1" d="M338,485.2v0.8l-5.6,0.9V485c-0.9,0.7-2.7,2.1-3.3,2.1c-1.5,0-5.7,0.1-5.7-5.7v-7.4l-2.3-0.4v-0.8l5.7-0.7
			v9.3c0,2.8,1.3,3.7,2.8,3.6c0.9-0.1,2.9-0.8,2.9-0.8v-10.2l-2.3-0.4v-0.8l5.6-0.7v12.5L338,485.2z M325.5,469.3l-0.8-0.6l4.2-5.1
			h1.3l4.2,5.1l-0.8,0.6l-4.1-2.7L325.5,469.3z"/>
		<path class="st1" d="M362.1,485.2v0.8l-5.6,0.9V485c-0.9,0.7-2.7,2.1-3.3,2.1c-1.5,0-5.7,0.1-5.7-5.7v-7.4l-2.3-0.4v-0.8l5.7-0.7
			v9.3c0,2.8,1.3,3.7,2.8,3.6c0.9-0.1,2.9-0.8,2.9-0.8v-10.2l-2.3-0.4v-0.8l5.6-0.7v12.5L362.1,485.2z M350.4,469.5c1.1,0,2-0.9,2-2
			c0-1-0.9-1.9-2-1.9c-1,0-1.9,0.9-1.9,1.9C348.4,468.6,349.3,469.5,350.4,469.5z M356.9,469.5c1.1,0,2-0.9,2-2c0-1-0.9-1.9-2-1.9
			c-1,0-1.9,0.9-1.9,1.9C355,468.6,355.9,469.5,356.9,469.5z"/>
		<path class="st1" d="M393.3,472.4v0.8L391,474l-5.1,13h-0.9l-3.7-9.6l-3.9,9.6h-0.9l-5.6-13l-2-0.9v-0.8h7.5v0.8l-1.8,0.8l3.3,7.8
			l2.6-6.4l-0.6-1.4l-1.9-0.8v-0.8h7.3v0.8l-1.8,0.8l3,7.5l2.9-7.5l-2.1-0.8v-0.8H393.3z M377.1,469.3l-0.8-0.6l4.2-5.1h1.3l4.2,5.1
			l-0.8,0.6l-4.1-2.7L377.1,469.3z"/>
		<path class="st1" d="M417.2,472.4v0.8l-2.3,0.9l-6.4,14.6c0,0-0.1,0.2-1.3,2.7c-1.9,3.6-5.7,2.4-5.7,2.4v-3.6h1.6l0.9,1.3
			c0.2,0,1.3-0.1,2-1.2l1.7-3.5l-5.5-12.7l-2-0.9v-0.8h7.7v0.8l-2.1,0.8l3.7,8.8c0,0,2.9-6.8,3.8-8.8l-2.3-0.8v-0.8H417.2z
			 M404.6,469.3l-0.8-0.6l4.2-5.1h1.3l4.2,5.1l-0.8,0.6l-4.1-2.7L404.6,469.3z"/>
		<path class="st1" d="M431.2,491.4c-1.9,3.6-5.7,2.4-5.7,2.4v-3.6h1.6l0.9,1.3c0.2,0,1.3-0.1,2-1.2l1.7-3.5l-5.5-12.7l-2-0.9v-0.8
			h7.7v0.8l-2.1,0.8l3.7,8.8c0,0,2.9-6.8,3.8-8.8l-2.3-0.8v-0.8h6.3v0.8l-2.3,0.9l-6.4,14.6C432.5,488.6,432.4,488.8,431.2,491.4z
			 M432.2,470.2c0,0,2.8-3.9,3.2-4.5c0.4-0.7,0.6-1.6-0.5-2.2c-1-0.5-1.7,0.2-2,1.1c-0.3,0.7-1.5,5.2-1.5,5.2L432.2,470.2z"/>
		<path class="st1" d="M455.2,491.4c-1.9,3.6-5.7,2.4-5.7,2.4v-3.6h1.6l0.9,1.3c0.2,0,1.3-0.1,2-1.2l1.7-3.5l-5.5-12.7l-2-0.9v-0.8
			h7.7v0.8l-2.1,0.8l3.7,8.8c0,0,2.9-6.8,3.8-8.8l-2.3-0.8v-0.8h6.3v0.8l-2.3,0.9l-6.4,14.6C456.5,488.6,456.4,488.8,455.2,491.4z
			 M456.4,464.6c-0.3-0.9-0.9-1.6-2-1.1c-1.1,0.6-0.9,1.5-0.5,2.2s3.2,4.5,3.2,4.5l0.7-0.4C457.8,469.8,456.6,465.3,456.4,464.6z"/>
		<path class="st1" d="M479.2,491.4c-1.9,3.6-5.7,2.4-5.7,2.4v-3.6h1.6l0.9,1.3c0.2,0,1.3-0.1,2-1.2l1.7-3.5l-5.5-12.7l-2-0.9v-0.8
			h7.7v0.8l-2.1,0.8l3.7,8.8c0,0,2.9-6.8,3.8-8.8l-2.3-0.8v-0.8h6.3v0.8l-2.3,0.9l-6.4,14.6C480.5,488.6,480.4,488.8,479.2,491.4z
			 M475.5,467.6c0-1,0.9-1.9,1.9-1.9c1.1,0,2,0.9,2,1.9c0,1.1-0.9,2-2,2C476.3,469.5,475.5,468.6,475.5,467.6z M482.1,467.6
			c0-1,0.9-1.9,1.9-1.9c1.1,0,2,0.9,2,1.9c0,1.1-0.9,2-2,2C482.9,469.5,482.1,468.6,482.1,467.6z"/>
		<path class="st1" d="M507.5,469.3l-4.1-2.7l-4,2.7l-0.8-0.6l4.2-5.1h1.3l4.2,5.1L507.5,469.3z"/>
		<path class="st1" d="M527.1,464.2l-4.2,4.1h-1.3l-4.2-4.1l0.8-0.6l4,2l4.1-2L527.1,464.2z"/>
		<path class="st1" d="M543,463.6l1.1,0.4c0,0-1.3,3.8-5.1,3.8c-3.9,0-5.1-3.8-5.1-3.8l1.1-0.4c0,0,0.8,1.8,4,1.7
			C542.2,465.3,543,463.6,543,463.6z"/>
		<path class="st1" d="M551.3,467.6c0-1,0.9-1.9,1.9-1.9c1.1,0,2,0.9,2,1.9c0,1.1-0.9,2-2,2C552.2,469.5,551.3,468.6,551.3,467.6z"
			/>
		<path class="st1" d="M562.6,466.6c0-1.6,1.2-2.9,2.8-2.9c1.6,0,2.8,1.3,2.8,2.9c0,1.6-1.2,3-2.8,3
			C563.8,469.5,562.6,468.2,562.6,466.6z M566.8,466.6c0-0.8-0.5-1.5-1.4-1.5c-0.8,0-1.4,0.7-1.4,1.5c0,0.9,0.6,1.5,1.4,1.5
			C566.2,468.1,566.8,467.4,566.8,466.6z"/>
		<path class="st1" d="M579.6,486.9h1c-1.8,2-0.5,4,1.4,3.6l0.3,0.8C578.4,493.2,576.1,490.2,579.6,486.9z"/>
		<path class="st1" d="M593.2,465.1c2.1,0,2.4,2.1,3.9,2.1c1.3,0,1.6-1.5,1.6-1.5h0.9c0,1.2-0.2,3.5-2.5,3.8
			c-2.4,0.2-2.7-1.8-4.2-1.9c-1.8-0.1-2,1.7-2,1.7h-0.9C590,467.9,590.8,465.1,593.2,465.1z"/>
		<path class="st1" d="M607.2,469.8c0,0,1.2-4.5,1.5-5.2c0.3-0.9,0.9-1.6,2-1.1c1.1,0.6,0.9,1.5,0.5,2.2s-3.2,4.5-3.2,4.5
			L607.2,469.8z M611.7,469.8c0,0,1.2-4.5,1.5-5.2c0.3-0.9,0.9-1.6,2-1.1c1.1,0.6,0.9,1.5,0.5,2.2s-3.2,4.5-3.2,4.5L611.7,469.8z"/>
		<path class="st1" d="M622.2,469.8l-0.7,0.4c0,0-2.8-3.9-3.2-4.5c-0.4-0.7-0.6-1.6,0.5-2.2c1-0.5,1.7,0.2,2,1.1
			C621,465.3,622.2,469.8,622.2,469.8z"/>
	</g>
</g>
<g id="Layer_3">
</g>
</svg>
