<?xml version="1.0" encoding="utf-8"?>
<!-- Generator: Adobe Illustrator 23.0.1, SVG Export Plug-In . SVG Version: 6.00 Build 0)  -->
<svg version="1.1" id="Layer_1" xmlns="http://www.w3.org/2000/svg" xmlns:xlink="http://www.w3.org/1999/xlink" x="0px" y="0px"
	 viewBox="0 0 2081 2069" style="enable-background:new 0 0 2081 2069;" xml:space="preserve">
<style type="text/css">
	.st0{fill:#0026E0;}
	.st1{fill:#FFFFFF;}
</style>
<g>
	<g>
		<g>
			<path class="st1" d="M704,173l-4.2,19.7h-4.7l-2.8-15.1h-20.9L652.8,264l12.3,2l-0.8,3.9h-34.1l0.8-3.9l13.3-2l18.6-86.4H642
				l-9.3,15.1H628l4.5-19.7L704,173L704,173z"/>
			<path class="st1" d="M731.6,253.9l-15.2,16.9c-6.2,0-5.3-5-3.9-11.3c-3.9,3.9-12.3,11.4-21.1,11.3c-7.9-0.1-13.3-9.1-12.3-21
				c2.4-27.7,22.8-39.9,30.6-41.4c9.5-1.7,12.5,2.2,13,3l4.7-2.2h3.3l-10.6,48.3c-1.6,7,3.9,0.9,10.1-5.5L731.6,253.9z M721.2,216.8
				c-1-2.5-3.4-4.9-5.9-5.1c-8-0.8-24.3,8.9-28,34.3c-1.6,11.3,1.8,20.5,8.9,19.3c5.3-0.9,12.2-6.2,17.3-10.9L721.2,216.8z"/>
			<path class="st1" d="M788.6,214.5c-4.1,17.2-41.9,85-59.1,84.2c-7.2-0.4-9.1-11.2-9.1-11.2h2.9c5.9,10.5,19.3-0.1,31.4-18.4
				l-10-48.7c-0.8-3.7-4.7,2.6-9.3,8.7l-1.7-1.6l11.7-18.6c5.1-0.7,5.1,2.6,6,7.4l8.7,44.4c9.2-14.7,17.5-31.8,20.1-39.4l-1.3-6.7
				c0-4.2,2.6-5.9,5.5-5.9C786.5,208.6,789.5,210.7,788.6,214.5z"/>
			<path class="st1" d="M807.8,252.1l1.6,1.8l-15.2,16.9c-6.6,0-5.1-5.4-3.7-12.2l16.8-79.3l-10.9-1.6l0.7-3l19.6-3.3l-18.9,86.1
				C796.1,264.6,801.6,258.5,807.8,252.1z"/>
			<path class="st1" d="M836,271c-12.5-0.5-18.5-10.2-18.6-22.2c-0.4-20.1,15.2-41,33.7-40.4c12.2,0.3,18.4,10.1,18.6,22.2
				C870.4,250.6,855.3,271.9,836,271z M848.2,212.4c-13.9,0.7-23.5,22.1-22.8,39.1c0.7,8.7,4.2,15.4,13.3,15.2
				c11.3,0,20.5-14.8,22.7-29.4C863.3,225,860.2,211.8,848.2,212.4z"/>
			<path class="st1" d="M918.1,215.7c0,2.8-2.2,5-5,5s-5-2.2-5-5V215c-4.7,1.4-13.9,12.9-13.9,12.9l-9.2,42h-7.1l10.1-47.5
				c1.6-7-3.9-0.7-10.1,5.8l-1.6-1.8l15.2-16.9c6.6,0,5.3,5.4,3.8,12.2l-0.3,1.2c0,0,8.7-10.4,10.2-11.7
				C911.5,205.9,918.3,210.5,918.1,215.7z"/>
			<path class="st1" d="M1016.3,249.3l-9.2,20.6h-59.7l0.8-3.9l9.3-2.8l18.4-84.4l-11.6-2l0.9-3.8h31.5l-0.9,3.8l-11.4,2l-18.8,86.5
				l34-1.2l11.8-14.8H1016.3z"/>
			<path class="st1" d="M1043.8,252.1l1.6,1.8l-15.2,16.9c-6.6,0-5.4-5.4-3.9-12.2l8-37.9c0.9-5.5-4.3,0.3-10.2,6.4l-1.6-1.8
				l15.5-16.9c6.6,0,5.3,5.4,3.8,12.2l-8,37C1032.2,264.6,1037.7,258.5,1043.8,252.1z M1049.2,192.2c-0.8,3-3.4,5.4-6.3,5.4
				c-2.8,0-4.5-2.4-3.8-5.4s3.4-5.5,6.3-5.5C1048.2,186.7,1049.9,189.2,1049.2,192.2z"/>
			<path class="st1" d="M1114.8,210.9l-15,6.8c1.7,3.8,2.2,8.5,1.1,13.7c-2.9,12.6-13,23.5-26.4,22.8c-3.8-0.3-6.8-1.2-9.2-2.6
				l-5.5,7.5l26.4,5.9c6.4,1.4,10.4,4.6,10.8,9.1c1.3,11.2-10.6,26.4-32.8,25.2c-20.7-1.3-24.8-17.3-22.5-24.2l17.1-8.8l-8.7-5.1
				l0.3-0.8l13.3-10.1c-5.6-4.7-6.7-12.7-5.4-18.9c2.8-12.7,13.4-23,26.5-23c5.9,0,10.8,2.8,13.7,7c0,0,4.9-2.2,4.6-6h12.2
				L1114.8,210.9z M1048.4,281.6c-1.2,7.2,7.7,13,16.5,13.1c10.6,0.1,16.5-3,20.4-7.9c3.8-4.9,6.3-13.4-2.9-15.4l-21-4.6
				C1060.3,267.7,1049.8,274,1048.4,281.6z M1083.1,212c-8.1,0.1-15.1,8-17.2,19.3c-2,11.3,2.6,18.9,9.6,18.9
				c8.9,0,15.9-8.3,17.2-19.6C1093.9,220.2,1090.5,211.9,1083.1,212z"/>
			<path class="st1" d="M1165.7,253.9l-15.2,16.9c-6.6,0-5.1-5.4-3.7-12.2l6.2-29.3c3.5-12.7-3.3-21.1-12.5-14
				c-2.9,2.2-10.6,8.3-13.9,10.9l-9.3,43.7h-7.2l19.4-90.6l-10.9-1.6l0.7-3l19.2-3.3l-10.9,50.9c2.2-2.4,9.8-9.3,13.7-12.3
				c10.2-7.9,23.1,1,19.3,18.3l-6.4,29.3c-1.6,7,3.9,0.9,10.1-5.5L1165.7,253.9z"/>
			<path class="st1" d="M1182.1,257.9c-1.6,7,3.8,0.7,10-5.8l1.6,1.8l-15.2,16.9c-6.6,0-5.1-5.4-3.7-12.2l9.8-45.3h-8.3l0.9-4.1h0.1
				v-0.1c0,0,4.9-0.1,9.1-3.9c3.3-2.9,6.2-10.9,6.2-10.9h3.4l-3.3,15h10.2l-0.9,4.1h-10.2L1182.1,257.9z"/>
			<path class="st1" d="M1268.9,178.9l-18.4,85.1l10.9,2l-0.8,3.9h-30.7l0.9-3.9l11.6-2l18.4-85.1l-11.4-2l0.9-3.9h30.7l-0.9,3.9
				L1268.9,178.9z"/>
			<path class="st1" d="M1281.1,257.9c-1.6,7,3.8,0.7,10-5.8l1.6,1.8l-15.2,16.9c-6.6,0-5.1-5.4-3.7-12.2l9.8-45.3h-8.3l0.9-4.1h0.1
				v-0.1c0,0,4.9-0.1,9.1-3.9c3.3-2.9,6.2-10.9,6.2-10.9h3.4l-3.3,15h10.2l-0.9,4.1h-10.2L1281.1,257.9z"/>
			<path class="st1" d="M1353.2,253.9l-15.2,16.9c-6.2,0-5.3-5-3.9-11.3c-3.9,3.9-12.3,11.4-21.1,11.3c-7.9-0.1-13.3-9.1-12.3-21
				c2.4-27.7,22.8-39.9,30.6-41.4c9.5-1.7,12.5,2.2,13,3l4.7-2.2h3.3l-10.6,48.3c-1.6,7,3.9,0.9,10.1-5.5L1353.2,253.9z
				 M1342.8,216.8c-1.1-2.5-3.4-4.9-5.9-5.1c-8-0.8-24.3,8.9-28,34.3c-1.6,11.3,1.8,20.5,8.9,19.3c5.3-0.9,12.2-6.2,17.3-10.9
				L1342.8,216.8z"/>
			<path class="st1" d="M1377.5,252.1l1.6,1.8l-15.2,16.9c-6.6,0-5.1-5.4-3.7-12.2l16.8-79.3l-10.9-1.6l0.7-3l19.6-3.3l-18.9,86.1
				C1365.8,264.6,1371.3,258.5,1377.5,252.1z"/>
			<path class="st1" d="M1409.1,252.1l1.6,1.8l-15.2,16.9c-6.6,0-5.4-5.4-3.9-12.2l8-37.9c0.9-5.5-4.3,0.3-10.2,6.4l-1.6-1.8
				l15.5-16.9c6.6,0,5.3,5.4,3.8,12.2l-8,37C1397.4,264.6,1403,258.5,1409.1,252.1z M1414.5,192.2c-0.8,3-3.4,5.4-6.3,5.4
				c-2.8,0-4.5-2.4-3.8-5.4s3.4-5.5,6.3-5.5C1413.5,186.7,1415.2,189.2,1414.5,192.2z"/>
			<path class="st1" d="M1465.1,217.7c-0.3,3.2-2.9,5.6-6,5.5c-3.2-0.1-4.6-2.9-3.9-6c0.3-1.4,0.7-2.6,1.1-3.4
				c-1.4-0.8-3.5-1.6-6.4-1.2c-9.3,1.1-23,14-24,31.8c-0.9,13.9,6.2,24.6,17.2,20.4c5.3-2,14.3-10.1,14.3-10.1l1.6,1.8
				c0,0-9.1,10.5-16,13.1c-11.8,4.5-28.1-5.1-24.8-27.4c3.4-22.2,21.7-33.9,33.1-33.6C1459.2,208.6,1465.1,213,1465.1,217.7z"/>
		</g>
		<g>
			<path class="st1" d="M810.7,424.1h-4.5l-4.9-14.8h-25.5v85.1L791,497v3.9h-39.4V497l15.1-2.6v-85.1h-25.5l-4.9,14.8h-4.5
				l0.7-20.1H810L810.7,424.1z"/>
			<path class="st1" d="M851.7,494.9v2.1l-9.2,4.6c-3.5,0-6-3.3-6-7c-3.5,2-11.9,7.9-19.2,7.9c-10,0-16.4-6.4-16.4-15.6
				s4.9-14.7,12.6-16.8c7.2-2,21.1-5.4,23-6c0-13.7-3.4-24.4-21-19.8l-4.1,9.7h-6.2c0,0,0.1-8.4,0-8.4c2.5-2.1,8.1-6,17.9-6
				c21.3,0,21.3,15.9,21.3,26.5V493C844.3,496.9,851.7,494.9,851.7,494.9z M836.5,490.7v-23L819,473c-5,1.4-9.5,5.9-9.5,13.7
				c0,8.5,7.4,11.8,13.8,10.1C830.9,494.8,836.5,490.7,836.5,490.7z"/>
			<path class="st1" d="M914.2,440.3v3.3l-8,1.8l-31.6,73.9c-7.6,14.8-21.9,10.1-21.9,10.1v-10.9h5.3l4.6,5c0,0,3.2-0.4,5.5-4.5
				l9.2-19.6l-20.6-54.1l-8.8-1.8v-3.3h26.7v3.3l-9.1,1.8l16.4,44.1l17.9-44.1l-8.9-1.8v-3.3h23.3V440.3z"/>
			<path class="st1" d="M929.9,402.5v93.2l9.7,2v3.3h-27.2v-3.3l9.8-2v-85.5l-10.1-1.8v-3.3L929.9,402.5z"/>
			<path class="st1" d="M999.9,471.9c-0.7,17.3-14.6,30.7-30.9,30.1c-16.3-0.8-28.9-15.4-28.1-32.7c0.7-17.7,14.6-30.9,30.9-30.1
				C988.1,439.9,1000.7,454.2,999.9,471.9z M991.4,469.9c0-15.5-8.5-26.1-22.2-25.9c-13.1,0.4-19.7,11.4-19.7,26.9
				c-0.1,15.1,7.5,26.1,22.1,25.9C984.6,496.5,991.3,485,991.4,469.9z"/>
			<path class="st1" d="M1042.3,442.5v8.4h-6l-3.7-5.4c-4.9-0.1-13.9,8.8-13.9,8.8v41.2l11.9,2.1v3.3h-29.1v-3.3l9.6-2.1l-0.1-47.7
				l-9.7-1.4v-3.3l15.2-2.8l2.2,9.6c0,0,6-6.6,7.4-7.9C1032.4,436.2,1042.3,440.9,1042.3,442.5z"/>
			<path class="st1" d="M1158.8,478.5l-4.9,22.5h-65.7v-4l9.5-2.6v-83.8L1087,408v-4h30.7v3.9l-10.8,2.6v85.1h37.4l9.8-17.2h4.7
				V478.5z"/>
			<path class="st1" d="M1191.2,497.7v3.3H1164v-3.3l10-2.1V448l-9.6-0.9v-3.4l17.1-3.4v55.3L1191.2,497.7z M1171,420.8
				c0-3.2,2.8-5.9,5.8-5.9c3.3,0,6,2.8,6,5.9s-2.8,5.9-6,5.9C1173.8,426.8,1171,424,1171,420.8z"/>
			<path class="st1" d="M1251.4,441.7l-13.1,6.3l0.4,0.5c2.9,3.8,4.3,8.7,4.3,14c0,13-10.4,23.5-22.7,23.5c-4.2,0-6.6-0.9-8.4-1.7
				l-4.6,6.4l28.9,5.4c8,1.3,12.2,5,13.7,9.6c2.9,9.6-6.3,25.3-31,24c-23.6-1.3-27.3-20.1-26.1-23l15.2-7.7l-10.2-5.6v-0.8l11.4-9.6
				c-8.1-4.5-12.3-11.8-12.3-20.5c0-13.1,10.4-23.8,23.5-23.8c6.3,0,11.7,2.6,16,6.8c2.4-1.7,3.2-3.8,3.3-5.4h11.8v1.6H1251.4z
				 M1211.1,499.9c0,0-9.6,4.1-9.6,12.1c0,5.1,6.4,12.5,17.6,13.3c11.3,0.8,20.5-3.2,23-9.1c1.8-4.3,1-10.5-11.2-12.9L1211.1,499.9z
				 M1234.4,461.7c-0.4-10.6-6.8-18.4-14.4-18.8c-9.2-0.5-15,9.3-14.7,20.2c0.1,10.9,7,18.5,15.6,18.3
				C1230.6,481.1,1235,472.7,1234.4,461.7z"/>
			<path class="st1" d="M1319.9,497.7v3.3h-27v-3.3l9.6-2v-35.3c0-12.6-9.5-16-17.7-14l-13.1,3.3v46.1l9.7,2v3.3H1254v-3.3l9.7-2
				l-0.3-85.3l-8.5-3.2v-2.1l16.5-2.6v44.1l13.4-6c8.9-4.1,25.5,1.7,25.5,18.9v36.2L1319.9,497.7z"/>
			<path class="st1" d="M1328.8,444.3h-8.9v-4.1c0,0,7.2-0.8,9.5-4.6c2.4-3.9,3.2-10.5,3.2-10.5h4.2v15.1h11v4.1h-11v45
				c0,10.1,10.9,9.8,10.9,9.8v1.7c0,0-2.8,0.7-7.7,0.7c-7,0-11-3.8-11-11.9v-45.3H1328.8z"/>
		</g>
		<g>
			<path class="st1" d="M836.8,635l-4.5,20.7h-5.4l-2-15.4h-22.2l-18.4,85l13.7,2l-1.2,4.6h-39.1l1.2-4.6l14.3-2l18.4-85h-22.2
				l-8.7,15.5h-5.4L760,635H836.8z"/>
			<path class="st1" d="M867,718.5l-14.3,14.3c-8,0-8.8-4.5-7.7-10.8c-4.3,4.3-12.9,11.8-21.4,10.8c-7.9-1-12.6-9.1-11.8-21
				c2.2-27.7,23.4-39.7,29.9-41c10.5-2.1,13.7,3,13.7,3l4.9-2.6h6l-10.5,46.2c-2.2,10.1,2.8,4.5,9.5-1.2L867,718.5z M846.1,716.6
				l8.1-37.6c-1.4-2.1-2.2-3.7-4.9-4.1c-7.5-1.3-23,7.5-26.9,33c-1.6,10.5,1.8,17.1,6.7,18C834.3,726.7,841.1,720.9,846.1,716.6z"/>
			<path class="st1" d="M927.8,675.2c0,0.4-0.1,1.1-0.1,1.1c0,0.1-0.1,0.3-0.1,0.5c-6.6,19-43.2,83.4-59.7,82.9
				c-7.2-0.3-9.1-13.1-9.1-13.1h3.2c0.5,2.2,2.8,3.5,5,4.2c4.5,1.4,9.3-0.5,15.4-7.7c3.7-4.3,5.3-6.7,8.3-11.2l-8.7-51.1
				c-0.1-0.7-0.4-0.9-0.9-0.9c-1.6,0-4.9,3.2-8.7,6.3l-1.8-2.2l13.9-13.7c6,0.1,7.2,2.8,8.1,8.5l6.4,42l0.3-0.5
				c7.4-10.8,14.3-23,19-36.5l-1.6-8.5c0.3-3.2,3.2-5.6,6.2-5.6C925.3,669.6,927.8,671,927.8,675.2z"/>
			<path class="st1" d="M947.7,716.3l1.8,2.2L935,732.9c-9.7,0-8.1-6.6-6.3-15.1l16.5-76.5l-0.1,0.1l-11-1.6l0.7-3l22.1-3.3
				l-18.5,84C936.1,727.6,941,722,947.7,716.3z"/>
			<path class="st1" d="M1008.8,707.1c-6.6,17.1-22.7,28.6-37.3,25.7c-14.4-2.9-18.8-19.3-11.9-36.5c6.8-17.2,22.5-28.8,37.4-25.7
				C1011,673.6,1015.4,689.9,1008.8,707.1z M1000,700.3c3.3-15.1-1.1-25.7-11.6-24.4c-10.9,1.3-16.8,11.9-20,27.3
				c-3.2,15.2-0.4,25.5,11.7,24C990.3,726,996.7,715.4,1000,700.3z"/>
			<path class="st1" d="M1063.7,677.6c-0.1,3.7-3.2,6.4-6.7,6.4s-6-2.9-5.9-6.4c-4.5,0.5-13.3,12.3-13.3,12.3l-9.2,42h-9.8l9.8-45.3
				c2.2-10.1-2.8-4.5-9.5,1.2l-1.8-2.2l14.6-14.3c8.8,0.1,8.3,7.4,7,13.4c1-1.4,7.7-10.5,10.9-12.5
				C1057.1,667.7,1064.3,671.3,1063.7,677.6z"/>
			<path class="st1" d="M1131.4,641.6l-18.1,83.8l11,2l-1,4.6h-33.6l1-4.6l11.8-2l18.1-83.8l-11-2l1-4.6h33.4l-1,4.6L1131.4,641.6z"
				/>
			<path class="st1" d="M1147.3,717.5c-2.2,10.1,2.6,4.5,9.3-1.2l1.8,2.2l-14.6,14.3c-9.7,0-8.4-6.6-6.6-15.1l9.2-42.4h-8.3l0.9-4.1
				h0.1v-0.1c0,0,5.1-0.9,10-3.9c5-3,8-10.9,8-10.9h3.4l-3.3,15h10.2l-0.9,4.1h-10.2L1147.3,717.5z"/>
			<path class="st1" d="M1220.8,718.5l-14.3,14.3c-8,0-8.8-4.5-7.7-10.8c-4.3,4.3-12.9,11.8-21.4,10.8c-7.9-1-12.6-9.1-11.8-21
				c2.2-27.7,23.4-39.7,29.9-41c10.5-2.1,13.7,3,13.7,3l4.9-2.6h6l-10.5,46.2c-2.2,10.1,2.8,4.5,9.5-1.2L1220.8,718.5z M1200,716.6
				l8.1-37.6c-1.4-2.1-2.2-3.7-4.9-4.1c-7.5-1.3-23,7.5-26.9,33c-1.6,10.5,1.8,17.1,6.7,18C1188.1,726.7,1195,720.9,1200,716.6z"/>
			<path class="st1" d="M1246.6,716.3l1.8,2.2l-14.6,14.3c-9.7,0-8.1-6.6-6.3-15.1l16.5-76.5l-0.1,0.1l-11-1.6l0.7-3l22.1-3.3
				l-18.5,84C1234.9,727.6,1239.9,722,1246.6,716.3z"/>
			<path class="st1" d="M1278.6,716.3l1.8,2.2l-14.6,14.3c-9.7,0-8.3-6.6-6.4-15.1l7.2-31.4c2.2-10.1-2.8-4.3-9.5,1.2l-1.8-2.2
				l14.6-14.3c9.7,0,8.4,6.6,6.6,15.1l-7.4,31.4C1266.9,727.6,1271.9,722,1278.6,716.3z M1284.1,652c-0.8,3.7-4.2,6.7-7.6,6.7
				s-5.5-3-4.7-6.7s4.2-6.7,7.6-6.7S1284.9,648.3,1284.1,652z"/>
			<path class="st1" d="M1335.9,679.4c-0.1,3.7-3,6.4-6.6,6.4c-5.9,0-4.3-7.2-3.9-11c-1.2-0.3-3.2-0.5-5.6,0
				c-7.6,1.4-20.9,14-21.3,31.6c0,12.7,6,21.8,14.6,19.8c5.1-1.2,17.2-13.4,17.2-13.4l3.2,1.6c0,0-12.6,14.7-20.6,17.6
				c-11.8,4.2-27.8-5.6-24.6-28c3.4-22.2,21.5-33.6,32.8-34.1C1329.2,669.6,1336.5,673.9,1335.9,679.4z"/>
		</g>
		<g>
			<path class="st1" d="M733.1,888.1h-4.3l-8.4-16.2h-20.9v84.4l13.8,2v4.6h-39.7v-4.6l13.8-2v-84.4h-20.9l-8.4,16.2h-4.3l0.8-22.1
				h77.7L733.1,888.1z"/>
			<path class="st1" d="M777.6,956v3.3l-11.4,4.6c-1.7,0-6.7-2.6-6.7-7.9c-3.5,2.1-10.6,8.4-17.9,8.4c-9.6,0-17.1-7.4-17.1-16.7
				c0-8.4,4.6-13.1,12.2-15.4c7.2-2.1,20.9-6.4,22.7-7.1v-2.5c0-14.3-8.4-20.1-17.9-17.3l-5.4,10.8h-7.4c0,0,0.1-9.7,0-9.7
				c2.5-2.1,7.1-6.3,17.2-6.3c23.5,0,23.9,15.2,24.2,23.9v29.7C770.2,958.7,777.6,956,777.6,956z M759.4,952.7v-23.8
				c-4.3,1.4-11.9,4.5-16.2,6c-3,1-7.5,5.1-7.5,12.3c0,6.3,4.6,10.8,10.9,10.4C754.5,957.2,759.4,952.7,759.4,952.7z"/>
			<path class="st1" d="M802.8,981.3c-7.4,14.8-21.3,10.1-21.3,10.1v-13.5h5.3c0.9,5.4,7.5,8.8,10.1,3.2l8.3-17.6l-21.7-56.1
				l-8.5-1.8v-3.3h28.8v3.3l-8.1,1.8l15.9,42.8c0,0,13.4-34.4,17.1-42.8l-7-1.8v-3.3h19.6v3.3l-6.7,1.8l-26.1,62.5
				C808.3,969.9,807.9,970.8,802.8,981.3z"/>
			<path class="st1" d="M861.7,864.5v93.2l9.7,1.8v3.4h-30.1v-3.4l9.8-1.8v-85.5l-10.1-1.8v-3.3L861.7,864.5z"/>
			<path class="st1" d="M931.5,939.3c-3.9,16.5-19.7,26.8-35.2,22.8c-15.2-3.8-24.4-20.4-20.6-36.8c3.9-16.5,19.7-26.8,35.1-23
				C926.1,906.3,935.3,922.8,931.5,939.3z M920.6,931.4c-0.1-14.4-6.6-25.1-18.5-24.3c-11.4,0.8-15.5,11.6-15.4,26
				c0.1,14.3,5.5,24.8,18.1,24C916.2,956.5,920.7,945.9,920.6,931.4z"/>
			<path class="st1" d="M979.1,904.5v9.8h-7l-3.9-5.8c-4.9-0.1-11.9,7.7-11.9,7.7v41.2l11.9,2.1v3.3h-32.3v-3.3l9.6-2.1l-0.1-47.7
				l-9.7-1.4V905l18.6-2.8l2,9.6c0,0,7.2-8,8.8-8.8C971.8,899.6,979.1,902.9,979.1,904.5z"/>
			<path class="st1" d="M1102.9,960.8v2.4c0,0-18.1,5.5-26.1-5.5l-24.8-33.9h-0.9h-11.2v32.3l13.8,2.2v4.6h-36.5v-4.6l10.9-2.2
				v-82.7l-9.1-2.8v-4.5h36c24.2,0,35.2,14.3,35.2,29.4c0,12.6-8.9,23-25.2,26.8l24.7,31.6C1095.8,961.9,1102.9,960.8,1102.9,960.8z
				 M1077.5,894.5c0-17.3-14-23.8-26.8-23.8h-10.8v47.7h9.5C1068.8,918.4,1077.5,906.5,1077.5,894.5z"/>
			<path class="st1" d="M1149.9,952.2l0.1,2.5c0,0-6.3,9.2-19.8,9.2c-12.5,0-29.3-8.9-29.3-31.1c0-21.8,16.4-31.5,28.4-31.5
				c16.8,0,22.6,15.2,22.6,26h-39.4c-0.3,1.4-0.4,3-0.4,4.6c0,1.8,0.1,3.7,0.5,5.6c2.1,13.1,11.6,19.8,20.2,20.2
				C1143.2,958.2,1149.9,952.2,1149.9,952.2z M1141.1,920.9c-0.8-10.2-5.8-15-11.6-15c-6.7,0-14.2,6.4-16.5,18.1L1141.1,920.9z"/>
			<path class="st1" d="M1184.1,991.8c-23.6,0-28.6-20.1-27.4-23l16.5-6.3l-10.2-7.1v-0.8l12.5-10.4c-8.9-4.3-13.4-11.7-13.4-20.4
				c0-12.5,10.1-22.6,22.7-22.6c6.4,0,12.1,2.6,16.4,6.8l3.3-5.9h13v1.4l-14.3,6.8c2.8,3.7,4.3,8.3,4.3,13.4
				c0,12.3-10.2,22.3-22.7,22.3c-1.7,0-3.8-0.3-4.7-0.5c-0.9-0.1-2-0.5-2-0.5l-4.6,6.8l26.7,4.9c8,1.3,12.2,5,13.7,9.6
				C1216.6,976.1,1208.8,991.7,1184.1,991.8z M1176.3,963.3c-0.9,0.8-8.7,4.9-8.7,11.4c0,5.1,5.5,12.3,16.7,12.5
				c11.3,0,17.3-4.2,20.4-9.1c2.5-4.2,0.4-9.5-9.8-11.4L1176.3,963.3z M1185.1,941.8c8.4,0.1,11.7-8.1,11.4-18.4
				c-0.3-9.8-4.9-17.6-11.8-17.9c-8.4-0.3-11.7,8.3-11.9,18.3C1172.7,933.9,1178.2,941.8,1185.1,941.8z"/>
			<path class="st1" d="M1287.9,955.8v3.3l-20.1,3.8v-8.5c-3.9,2.8-13.5,9.5-15.9,9.5c-7.4,0-22.2,0.5-22.2-23.8v-30.7l-9.7-1.7
				v-3.3l20.4-2.8v39.7c0,11.7,5.4,15.1,13.3,14.6c5.6-0.3,14.2-4.1,14.2-4.1v-42.3l-9.5-1.8v-3.3l20.2-2.8V955L1287.9,955.8z"/>
			<path class="st1" d="M1311.8,864.5v93.2l9.7,1.8v3.4h-30.1v-3.4l9.8-1.8v-85.5l-10.1-1.8v-3.3L1311.8,864.5z"/>
			<path class="st1" d="M1380.5,956v3.3l-11.4,4.6c-1.7,0-6.7-2.6-6.7-7.9c-3.5,2.1-10.6,8.4-17.9,8.4c-9.6,0-17.1-7.4-17.1-16.7
				c0-8.4,4.6-13.1,12.2-15.4c7.2-2.1,20.9-6.4,22.7-7.1v-2.5c0-14.3-8.4-20.1-17.9-17.3l-5.4,10.8h-7.4c0,0,0.1-9.7,0-9.7
				c2.5-2.1,7.1-6.3,17.2-6.3c23.5,0,23.9,15.2,24.2,23.9v29.7C1373.2,958.7,1380.5,956,1380.5,956z M1362.4,952.7v-23.8
				c-4.3,1.4-11.9,4.5-16.2,6c-3,1-7.5,5.1-7.5,12.3c0,6.3,4.6,10.8,10.9,10.4C1357.4,957.2,1362.4,952.7,1362.4,952.7z"/>
			<path class="st1" d="M1427.3,904.5v9.8h-7l-3.9-5.8c-4.9-0.1-11.9,7.7-11.9,7.7v41.2l11.9,2.1v3.3h-32.3v-3.3l9.6-2.1l-0.1-47.7
				l-9.7-1.4V905l18.6-2.8l2,9.6c0,0,7.2-8,8.8-8.8C1419.9,899.6,1427.3,902.9,1427.3,904.5z"/>
		</g>
		<g>
			<path class="st1" d="M683.2,1097l-4.7,22.1h-5.4l-5.8-16.2h-17.6l-18.1,83.8l13.5,2.6l-1.2,4.6h-42.3l1.2-4.6l14.3-2.6l18.1-83.8
				h-17.6l-12.6,16.2h-5.4l4.7-22.1H683.2z"/>
			<path class="st1" d="M714.5,1177.5l2.1,2.2l-16.5,15c-7.5-1.1-8.1-5-7.4-10.6c-4.1,4.5-11.4,11.7-20.4,10.8
				c-9.6-0.9-15.1-10.5-13.5-22.3c3.7-27.6,23-39.1,32.2-40c7.4-0.7,11.3,2.1,13.1,3.9l6-3.2h6.4l-11,46.7
				C704.1,1186.3,707.1,1183.3,714.5,1177.5z M693.9,1178.2l8.9-37.3c-1.1-1.4-2.2-2.8-4.2-3.2c-6.7-1.4-21.7,6.3-26.1,31.5
				c-1.7,9.6,0.4,17.1,5.9,17.7C683,1187.5,689.1,1182.3,693.9,1178.2z"/>
			<path class="st1" d="M777.9,1137.6c0,0.4-0.3,1-0.3,1c-0.4,1.8-2,6.2-5.6,13.1c-11.4,26.4-38.3,71-52.8,70.9
				c-9.8-0.1-10.1-15.2-10.1-15.2h3.5c6.6,11.2,16.9,4.7,29-12.5l-10.1-49.9c-0.5-2.6-3.7,0.4-9.5,5.3l-2.1-2.2l15.9-15.6
				c4.1,0,7,3.7,7.9,8.7l7.2,39.4c8-12.5,11.9-23.1,14.8-29.8l-0.8-13.1c0.3-3.4,3.3-6.2,6.8-6.2
				C774.5,1131.4,777.9,1132.9,777.9,1137.6z"/>
			<path class="st1" d="M800.3,1177.5l2.1,2.2l-17.2,15.6c-9.7-1.3-6.8-8.1-5.4-16.5l16-73.9l-10.6-1.6l0.7-3l24.2-4.9l-18.6,84.6
				C790,1186.3,793,1183.8,800.3,1177.5z"/>
			<path class="st1" d="M863.5,1168.6c-5.9,17.1-20.9,28.9-37.9,25.7c-13.7-2.5-20.2-19.6-14.2-36.4c6.2-17.2,21.8-28.8,37.7-25.7
				C862.8,1134.9,869.4,1151.5,863.5,1168.6z M852.1,1161.9c2.6-13.8-0.8-24.6-10.9-23.8c-10.1,0.8-16,12.5-18.5,26.5
				c-2.5,13.9,0.3,23.9,11,23.5C843.7,1187.8,849.5,1175.9,852.1,1161.9z"/>
			<path class="st1" d="M921,1141.8c-0.3,4.1-3.5,7.4-7.6,7.4c-3.9,0-6.8-3.3-6.7-7.4l-0.5-0.3c-4.3-0.3-13.8,11.8-13.8,11.8
				l-8.7,40.6h-12.3l9.8-46.1c1.4-6.3-1.7-3.8-8.9,2.5l-2.1-2.2l17.2-15.6c8.8,1.2,7.7,7.1,6.4,14.3c0.4-0.5,8.8-10.5,10.4-11.8
				C910.8,1129.1,921.7,1132.6,921,1141.8z"/>
			<path class="st1" d="M954.1,1193.9l1.1-4.6l9.3-2l17.7-82.5l-9.3-3.3l1-4.6h36.4c19.8,0,29.3,8.1,26.9,23.2
				c-2.1,12.5-11.8,21.3-20.4,21.9c11.4,1,18.8,12.7,16.7,25.5c-2.2,13.4-16.5,26.3-30.5,26.3L954.1,1193.9L954.1,1193.9z
				 M1018,1168.9c2.2-10.4-2.6-23.2-16.5-23.2h-14.3l-9.2,41.8h18.9C1006.5,1187.4,1015.8,1179.1,1018,1168.9z M1022.2,1120.5
				c1.7-12.7-5.8-18.8-18.1-18.8h-7.5l-8.4,38.6h9.8C1013.1,1140.4,1020.7,1132.4,1022.2,1120.5z"/>
			<path class="st1" d="M1095.9,1168.6c-5.9,17.1-20.9,28.9-37.9,25.7c-13.7-2.5-20.2-19.6-14.2-36.4c6.2-17.2,21.8-28.8,37.7-25.7
				C1095.3,1134.9,1101.8,1151.5,1095.9,1168.6z M1084.5,1161.9c2.6-13.8-0.8-24.6-10.9-23.8c-10.1,0.8-16,12.5-18.5,26.5
				c-2.5,13.9,0.3,23.9,11,23.5C1076.1,1187.8,1081.9,1175.9,1084.5,1161.9z"/>
			<path class="st1" d="M1125.3,1177.5l2.1,2.2l-17.2,15.6c-9.7-1.3-6.8-8.1-5.4-16.5l16-73.9l-10.6-1.6l0.7-3l24.2-4.9l-18.6,84.6
				C1115,1186.3,1118,1183.8,1125.3,1177.5z"/>
			<path class="st1" d="M1192,1177.5l2.1,2.2l-17.2,15.6c-7.2-0.9-7.9-5.1-7.2-10.6c-3.4,3.7-8.9,8.9-14.2,10
				c-16,2.8-24.6-12.6-21.1-29.5c4.1-20.4,19.2-34,36.1-33.6c3.9,0.1,7.7,1.3,10,3.3l6.4-30.1l-10.5-1.4l0.7-3l24.8-4.9l-18.8,84.6
				C1181.7,1186.3,1184.7,1183.8,1192,1177.5z M1171.1,1177.8l7.2-33.2c-1.2-3.8-4.6-8.3-10.2-8.1c-8.8,0.1-18.1,10.4-20.7,31.1
				c-2.2,17.7,7,21.4,11.8,19C1163.4,1185,1167.5,1181.1,1171.1,1177.8z"/>
			<path class="st1" d="M1278.9,1104.3l-17.7,82.5l11,2.6l-1.1,4.6h-36.4l1.1-4.6l11.6-2.6l17.7-82.5l-11.8-2.6l1.1-4.6h36.6l-1,4.6
				L1278.9,1104.3z"/>
			<path class="st1" d="M1297.9,1180c-1.4,6.3,1.4,3.8,8.9-2.5l2.1,2.2l-17.2,15.6c-9.7-1.3-7.9-8.3-6-16.5l8.9-40.7h-8.3l1-4.9
				c0,0,5.3-1.1,10.1-4.1c5-3,8-10.9,8-10.9h5.9l-3.3,15h10.2l-1,4.9H1307L1297.9,1180z"/>
			<path class="st1" d="M1371.5,1177.5l2.1,2.2l-16.5,15c-7.5-1.1-8.1-5-7.4-10.6c-4.1,4.5-11.4,11.7-20.4,10.8
				c-9.6-0.9-15.1-10.5-13.5-22.3c3.7-27.6,23-39.1,32.2-40c7.4-0.7,11.3,2.1,13.1,3.9l6-3.2h6.4l-11,46.7
				C1361.1,1186.3,1364.2,1183.3,1371.5,1177.5z M1350.9,1178.2l8.9-37.3c-1.1-1.4-2.2-2.8-4.2-3.2c-6.7-1.4-21.7,6.3-26.1,31.5
				c-1.7,9.6,0.4,17.1,5.9,17.7C1340,1187.5,1346.2,1182.3,1350.9,1178.2z"/>
			<path class="st1" d="M1399.7,1177.5l2.1,2.2l-17.2,15.6c-9.7-1.3-6.8-8.1-5.4-16.5l16-73.9l-10.6-1.6l0.7-3l24.2-4.9l-18.6,84.6
				C1389.4,1186.3,1392.4,1183.8,1399.7,1177.5z"/>
			<path class="st1" d="M1433.9,1177.5l2.1,2.2l-17.2,15.6c-9.7-1.3-7.2-8.5-5.5-16.5l6.7-30.9c1.4-6.3-1.3-3.7-8.7,2.5l-2.1-2.2
				l16.5-15.6c9.8,0,7.9,8.3,6.2,16.5l-7,30.9C1423.5,1186.3,1426.5,1183.8,1433.9,1177.5z M1440.4,1113.7c-0.9,4.5-5.1,8-9.2,8
				c-4.2,0-6.6-3.5-5.6-8c0.9-4.3,5.1-8,9.2-8S1441.4,1109.4,1440.4,1113.7z"/>
			<path class="st1" d="M1491.3,1142.9c0,4.3-3.7,8.3-7.9,7.6c-6.4-1-6.6-7.6-5.3-12.1c-14.8,0.8-23.2,13.4-24,30.1
				c-0.5,11.9,6.6,19.4,14.4,18.4c3.8-0.5,17.1-11.8,17.1-11.8l3.2,1.2c0,0-13.8,14.4-20.5,17.3c-11.9,5.1-30.2-5.1-26.8-27.4
				c3.5-22.2,21.4-33.9,35.1-33.6C1485,1132.8,1491.5,1137.2,1491.3,1142.9z"/>
		</g>
		<g>
			<path class="st1" d="M810,1350.4h-6l-8.5-15.8h-19.2v82.9l13.8,2.9v4.6h-43.3v-4.6l13.8-2.9v-82.9h-19.2l-8.5,15.8h-6l0.9-22.3
				h81.4L810,1350.4z"/>
			<path class="st1" d="M858.3,1416.4v3.3l-13.8,6.2c-4.2,0-7.5-4.9-7.5-7.9c0,0-7.1,8.4-17.9,8.4c-9.6,0-17.5-5.1-17.7-14.8
				c-0.3-10,5.3-14.8,12.9-17.2c7.2-2.1,20.9-6.4,22.7-7.1v-3.8c0-13-6.7-16.9-12.9-16c-2.6,0.4-4.3,1.2-4.3,1.2l-4.7,10.8h-9.5
				c0,0,0.1-11.2,0-11.2c2.5-2.1,10.4-6,20.5-6c23.5,0,24.6,15.2,24.8,23.9v28.9C851,1418.8,858.3,1416.4,858.3,1416.4z M837,1414
				v-22c-4.3,1.4-9.3,3.3-13.5,4.9c-5.3,2-8.1,5.3-8.1,12.5c0,6.2,4.6,9.8,10.9,9.5C834,1418.2,837,1414,837,1414z"/>
			<path class="st1" d="M883.5,1443.3c-7.7,14.8-23.9,10.1-23.9,10.1v-14.8h6.6l3.8,5.5c0.9,0,5.5-0.3,8.3-5.1l7-14.7l-22.7-52.8
				l-8.1-3.9v-3.3h32v3.3l-8.9,3.2l15.5,36.5c0,0,11.9-28.1,15.6-36.5l-9.6-3.2v-3.3h26.1v3.3l-9.5,3.7L889,1432
				C889,1431.9,888.6,1432.8,883.5,1443.3z"/>
			<path class="st1" d="M946.4,1326.5v91.9l9.7,3.3v3.3h-33.4v-3.3l9.8-3.3v-83.2l-10.1-2.8v-3.3L946.4,1326.5z"/>
			<path class="st1" d="M1018.8,1399.9c-2.9,17.7-18.3,29.1-35.8,25.7c-16.3-3.2-26.4-20.6-22.8-38.1c3.4-16.9,19.7-28,35.8-24.3
				C1012.1,1366.5,1021.5,1382.8,1018.8,1399.9z M1005.1,1392.2c-0.3-13.9-6.3-23.8-17.3-22.7c-10.6,1.3-14.3,11.9-14,26
				c0.4,14.3,5.5,24.9,17.2,23.5C1001.3,1417.8,1005.4,1406.7,1005.1,1392.2z"/>
			<path class="st1" d="M1070.5,1366.5v11.6h-9.7l-5-7c-4.6,0.4-10.9,7.2-10.9,7.2v39.9l11.9,3.4v3.3h-35.3v-3.3l9.6-3.4l-0.1-45
				l-9.7-2.8v-3.3l21.7-2.8l2,9.6c0,0,7.2-8,8.8-8.8C1060.3,1360.7,1070.5,1364.9,1070.5,1366.5z"/>
			<path class="st1" d="M1108.6,1424.9v-4.6l10.4-3.7v-80l-10.4-4.1v-4.6h37.4c21.7,0,33.6,8.1,34.5,23.2
				c0.8,12.5-8.9,21.3-18.3,21.9c12.7,1,22.8,12.7,22.8,25.5c0,13.4-10.5,26.3-25.6,26.3L1108.6,1424.9L1108.6,1424.9z
				 M1164.4,1351.5c-0.8-12.7-8.3-18.6-21.5-18.6h-8.8v38.5h8.5C1158.7,1371.4,1165,1361.8,1164.4,1351.5z M1168.7,1399.9
				c0-10.1-6.6-23.1-21.8-23.1H1134v42.3h17.6C1162,1419,1168.7,1410.1,1168.7,1399.9z"/>
			<path class="st1" d="M1250.8,1399.9c-2.9,17.7-18.3,29.1-35.8,25.7c-16.3-3.2-26.4-20.6-22.8-38.1c3.4-16.9,19.7-28,35.8-24.3
				C1244.1,1366.5,1253.5,1382.8,1250.8,1399.9z M1237.1,1392.2c-0.3-13.9-6.3-23.8-17.3-22.7c-10.6,1.3-14.3,11.9-14,26
				c0.4,14.3,5.5,24.9,17.2,23.5C1233.3,1417.8,1237.4,1406.7,1237.1,1392.2z"/>
			<path class="st1" d="M1276.5,1326.5v91.9l9.7,3.3v3.3h-33.4v-3.3l9.8-3.3v-83.2l-10.1-2.8v-3.3L1276.5,1326.5z"/>
			<path class="st1" d="M1354.9,1416.5v4.6l-23.2,3.8h-0.1v-6c0,0-4.1,5.8-12.2,6.8c-13.5,1.7-28.2-6.8-29.7-26.1
				c-1.7-22.6,11.4-36.2,29.9-35.3c3.8,0.1,11.9,3.7,11.9,3.7l0.1-31.5l-9.5-2.8v-4.6l23.2-2.6v88.1l0.1-0.1L1354.9,1416.5z
				 M1331.5,1371.6c0,0-8.4-1.7-11.8-1.7c-10.4,0-17.1,14-15.4,30.1c1.4,13.4,8.1,19.7,16.9,19.2c7.1-0.4,10.2-6.6,10.2-6.6v-41
				H1331.5z"/>
		</g>
		<g>
			<path class="st1" d="M630.1,1559l-4.3,22.2h-8l-6.4-15.5H597l-17.2,79.7l13.5,5.3l-1.1,5.3H547l1.1-5.3l13.9-5.3l17.2-79.7H565
				l-12.5,15.5h-8l4.9-22.2H630.1z"/>
			<path class="st1" d="M667.8,1644.1l-18.1,13.1c-9.7,0-11.7-5.1-11.2-11.2c-4.7,4.9-12.9,11.6-20.5,10.6
				c-10.4-1.2-16-10.4-14.6-22.2c3.3-27.6,27.4-39,34.5-39.8c6.7-0.7,9.8,2,11.3,3.8l8.5-3.3h7.6l-10,46.6c-1.2,5,3.4,4.5,10.1-0.4
				L667.8,1644.1z M639.6,1640l7.9-38.1c-0.9-1.1-2.2-1.7-4.1-1.8c-6.6-0.3-21.3,6.7-23.1,31.1c-0.7,8.8,2.1,14.4,7.1,14.6
				C631,1646,635.6,1643.2,639.6,1640z"/>
			<path class="st1" d="M731.1,1602.4c-0.4,1.6-2.2,5.5-5,11.2c-11.8,25.3-43.2,72.7-55.8,72.6c-11.2-0.1-12.6-15.9-12.6-15.9h5.5
				c5,8.8,14.3,3.9,18.3,0c3.7-3.7,6.8-7.5,9.5-11l-12.6-49.9c-1.6-6-2.9-4.5-9.6,0.4l-2.2-2.6l16.8-13.1c9.6,0,9.6,5,11,11
				l9.1,36.4c7.1-10.9,12.5-23.2,15.5-29.8l-0.9-10.5c0.3-3.7,3.5-6.6,7.1-6.6c2.9,0,6.2,1.6,6.2,6.6
				C731.2,1601.6,731.1,1602.4,731.1,1602.4z"/>
			<path class="st1" d="M757.1,1641.6l2.2,2.6l-18.1,13.1c-12.5,0-12.1-8.3-10.2-16.5l15.8-71.8l-10.4-3.7l0.7-3l28.8-4.9
				l-18.6,84.6C745.9,1647,750.4,1646.5,757.1,1641.6z"/>
			<path class="st1" d="M821.3,1631c-6.8,17.2-24.9,28.9-40.2,25.9c-15.1-3-21.8-19.4-14.7-36.6s25.1-28.9,40.3-25.9
				C821.8,1597.4,828.1,1613.7,821.3,1631z M806.1,1624.3c2.6-13.4-0.1-25.2-8.9-24c-8.1,1.1-12.9,13.4-15.5,26.9
				c-2.6,13.4-0.5,24,9.1,23C798.7,1649.2,803.4,1637.7,806.1,1624.3z"/>
			<path class="st1" d="M883.7,1600.3l-3.2,13.3h-12.3l-2-8.8c-2.6-0.3-9.2,5.8-12.2,8.9l-9.5,42.3h-16.4l10.5-46.6
				c1.2-5-3.4-4.5-10.1,0.4l-2.2-2.6l16.8-13.1c10.9,0,13,6.3,12.1,13.3c2.6-3.3,7.2-8.7,8.9-10
				C876.7,1588.2,883.7,1600.3,883.7,1600.3z"/>
			<path class="st1" d="M916,1655.9l1.2-5.3l10.1-5.3l16.4-75.9l-9.1-5.3l1.2-5.3h39.5c19.8,0,30.1,9.3,29.1,23.2
				c-0.8,12.6-13.5,21.3-21.9,21.9c11.4,1,17.9,12.7,16,25.5c-2,13.4-12.5,26.3-29.9,26.3H916V1655.9z M979.8,1630.9
				c2.6-14.3-5.5-21.9-19.4-21.9h-7.5l-8.9,40.4h12C965.6,1649.4,977.1,1645,979.8,1630.9z M986.1,1582.5
				c1.3-15.2-8.3-19.2-23.5-18.6l-8.4,38.7h7.1C976.2,1602.6,985,1594.4,986.1,1582.5z"/>
			<path class="st1" d="M1033.1,1641.6l2.2,2.6l-18.1,13.1c-12.5,0-12.1-8.3-10.2-16.5l15.8-71.8l-10.4-3.7l0.7-3l28.8-4.9
				l-18.6,84.6C1021.9,1647,1026.4,1646.5,1033.1,1641.6z"/>
			<path class="st1" d="M1103.2,1644.1l-18.1,13.1c-9.7,0-11.7-5.1-11.2-11.2c-4.7,4.9-12.9,11.6-20.5,10.6
				c-10.4-1.2-16-10.4-14.6-22.2c3.3-27.6,27.4-39,34.5-39.8c6.7-0.7,9.8,2,11.3,3.8l8.5-3.3h7.6l-10,46.6c-1.2,5,3.4,4.5,10.1-0.4
				L1103.2,1644.1z M1075,1640l7.9-38.1c-0.9-1.1-2.2-1.7-4.1-1.8c-6.6-0.3-21.3,6.7-23.1,31.1c-0.7,8.8,2.1,14.4,7.1,14.6
				C1066.4,1646,1071,1643.2,1075,1640z"/>
			<path class="st1" d="M1145.5,1600.7c-7.7,0.9-21.9,12.3-21.5,29.8c0.4,11.4,7.2,17.5,13.5,17.5c3.5,0,19-12.5,19-12.5l3,1.2
				c0,0-16.4,18.3-22.5,19.7c-13,3-32.6-7.1-30.2-28.2c2.8-25.3,24.6-34.1,39.3-34.1c8.1,0,15.5,4.5,15.1,11.6
				c0,5.1-4.3,9.8-9.3,9.1C1144.4,1613.4,1144.2,1605.9,1145.5,1600.7z"/>
			<path class="st1" d="M1218.9,1602.5l-21.7,17.6l15.6,21.9c2.5,3,3.3,4.5,10-0.4l2.2,2.6l-18.1,13.1c-6.8,0-8.5-3.2-10.4-7.7
				l-10.5-25.7h-3l-7,32h-16.4l18.9-86.9l-10.4-3.7l0.7-3l28.8-4.9l-13.9,63.3l3.4-0.3l18.9-19.8l-7.5-2.4l0.7-3h32.3l-0.5,3
				L1218.9,1602.5z"/>
			<path class="st1" d="M1311.3,1569.4l-16.3,76l10.9,5.3l-1.2,5.3h-40.4l1.2-5.3l12.5-5.1l16.3-76l-10.8-5.3l1.1-5.3h39.5l-1,5.3
				L1311.3,1569.4z"/>
			<path class="st1" d="M1335.1,1641.9c-1.2,5,3.2,4.5,10-0.4l2.2,2.6l-18.1,13.1c-12.5,0-12.1-8.3-10.2-16.5l8.5-39.8h-8.3l1.4-5.6
				h0.1v-0.1c0,0,5.1-0.9,10-3.9c5-3,11.6-10.9,11.6-10.9h6.3l-3.3,15h10.2l-1.4,5.6h-10.2L1335.1,1641.9z"/>
			<path class="st1" d="M1416.5,1644.1l-18.1,13.1c-9.7,0-11.7-5.1-11.2-11.2c-4.7,4.9-12.9,11.6-20.5,10.6
				c-10.4-1.2-16-10.4-14.6-22.2c3.3-27.6,27.4-39,34.5-39.8c6.7-0.7,9.8,2,11.3,3.8l8.5-3.3h7.6l-10,46.6c-1.2,5,3.4,4.5,10.1-0.4
				L1416.5,1644.1z M1388.3,1640l7.9-38.1c-0.9-1.1-2.2-1.7-4.1-1.8c-6.6-0.3-21.3,6.7-23.1,31.1c-0.7,8.8,2.1,14.4,7.1,14.6
				C1379.7,1646,1384.3,1643.2,1388.3,1640z"/>
			<path class="st1" d="M1447.5,1641.6l2.2,2.6l-18.1,13.1c-12.5,0-12.1-8.3-10.2-16.5l15.8-71.8l-10.4-3.7l0.7-3l28.8-4.9
				l-18.6,84.6C1436.3,1647,1440.8,1646.5,1447.5,1641.6z"/>
			<path class="st1" d="M1487,1641.6l2.2,2.6l-18.1,13.1c-12.5,0-12.1-8.3-10.2-16.5l7-31.4c1.2-5-3.3-4.5-10,0.4l-2.2-2.6
				l16.8-13.1c12.5,0,13.4,8.3,11.6,16.5l-7,31.4C1475.8,1647,1480.3,1646.5,1487,1641.6z M1490.5,1575.2
				c-1.3,5.6-6.7,10.2-11.9,10.2c-5.4,0-8.3-4.6-7.1-10.2c1-5.6,6.3-10.4,11.7-10.4C1488.3,1564.8,1491.7,1569.5,1490.5,1575.2z"/>
			<path class="st1" d="M1531.5,1600.7c-7.7,0.9-21.9,12.3-21.5,29.8c0.4,11.4,7.2,17.5,13.5,17.5c3.5,0,19-12.5,19-12.5l3,1.2
				c0,0-16.4,18.3-22.5,19.7c-13,3-32.6-7.1-30.2-28.2c2.8-25.3,24.6-34.1,39.3-34.1c8.1,0,15.5,4.5,15.1,11.6
				c0,5.1-4.3,9.8-9.3,9.1C1530.5,1613.4,1530.2,1605.9,1531.5,1600.7z"/>
		</g>
		<g>
			<path class="st1" d="M722.3,1797.9v78.5l15.1,5.3v5.3h-49.9v-5.3l15.1-5.3v-78.5h-15l-11.9,18.5h-7.2l0.7-26.4h86.7l0.7,26.4
				h-7.2l-11.9-18.5H722.3z"/>
			<path class="st1" d="M807.6,1875.9v4.3l-15.9,8c-4.2,0-8.5-4.7-8.5-7.6c0,0-5.9,7.2-15,7.7c-9.6,0.5-19.4-2.2-20.2-14.7
				c-0.8-12.6,12.5-16.4,14.8-17.2l20.2-6.4v-3.8c0-13-7.1-15-13.3-15c-1.3,0-2.5,0.5-2.5,0.5l-4.3,11h-11.7v-11.4
				c2.5-2.1,10.1-6.7,20.2-6.7c23.5,0,30.1,13.5,30.1,23.4v26.5C801.6,1877.6,807.6,1875.9,807.6,1875.9z M783.2,1875.1v-19.7
				l-10.6,3.9c-5.3,2-7,6.6-6.4,11.9c0.7,6.2,2.9,8.7,9.2,8.3C781,1879.1,783.2,1875.1,783.2,1875.1z"/>
			<path class="st1" d="M809.2,1917v-19h10.4l3.3,7.9c2.9,0,5.1-0.7,7.6-5.8l7-14.2l-24.3-50.4l-8.1-5.3v-3.9h35.3v3.9l-7.6,4.5
				l14.6,29.9c0,0,10-21.3,13.7-29.7l-9.6-4.7v-3.9h29.8v3.9l-10.1,5.3l-30.6,66.6C831.4,1919.9,815.6,1916.6,809.2,1917z"/>
			<path class="st1" d="M907,1788.5v89.3l9.7,5.3v3.9h-37.3v-3.9l9.8-5.3v-77.5l-10.1-5.3v-3.9L907,1788.5z"/>
			<path class="st1" d="M981.6,1857.9c-0.7,17.7-15.2,31.5-32.3,30.9c-16.8-0.8-30.1-15.9-29.3-33.5c0.7-17.7,15.2-31.6,32.3-30.7
				C969.4,1825.2,982.4,1840.1,981.6,1857.9z M963.5,1854c-0.4-14-5.8-23-14.6-21c-8.7,2-11.6,12.7-10.8,26.8
				c0.8,13.4,5.1,21.7,14.7,20.6C961.5,1879.5,964.3,1867.8,963.5,1854z"/>
			<path class="st1" d="M1040.8,1828.5v15.1H1029l-6.3-6.7c-4.6,0.4-9.6,6.7-9.6,6.7v34.1l11.9,5.3v3.9h-39.9v-3.9l9.6-5.3
				l-0.1-38.9l-9.7-5.8v-3.9l26.3-2.8l2,10.9c0,0,7.2-9.2,8.8-10.1C1029,1822.7,1040.8,1826.9,1040.8,1828.5z"/>
			<path class="st1" d="M1085.5,1886.9v-5.3l10.4-5.3v-75.9l-10.4-5.3v-5.3h43.1c21.4,0,33.2,8.1,34.1,23.2
				c0.8,12.5-8.8,21.3-17.9,21.9c12.6,1,22.6,12.7,22.6,25.5c0,13.4-10.4,26.3-25.3,26.3h-56.6V1886.9z M1142.8,1813.5
				c-0.8-12.7-8.4-17.3-21.7-17.3h-5.6v37.8h5.4C1137.1,1834,1143.5,1824.2,1142.8,1813.5z M1146.7,1860.5c0-9.8-7.2-21.1-22.8-21.1
				h-8.3v39.9h13C1139.3,1879.3,1146.7,1870.8,1146.7,1860.5z"/>
			<path class="st1" d="M1199.2,1788.5v89.3l9.7,5.3v3.9h-37.3v-3.9l9.8-5.3v-77.5l-10.1-5.3v-3.9L1199.2,1788.5z"/>
			<path class="st1" d="M1273.9,1875.9v4.3l-15.9,8c-4.2,0-8.5-4.7-8.5-7.6c0,0-5.9,7.2-15,7.7c-9.6,0.5-19.4-2.2-20.2-14.7
				c-0.8-12.6,12.5-16.4,14.8-17.2l20.2-6.4v-3.8c0-13-7.1-15-13.3-15c-1.3,0-2.5,0.5-2.5,0.5l-4.3,11h-11.7v-11.4
				c2.5-2.1,10.1-6.7,20.2-6.7c23.5,0,30.1,13.5,30.1,23.4v26.5C1267.9,1877.6,1273.9,1875.9,1273.9,1875.9z M1249.5,1875.1v-19.7
				l-10.6,3.9c-5.3,2-7,6.6-6.4,11.9c0.7,6.2,2.9,8.7,9.2,8.3C1247.2,1879.1,1249.5,1875.1,1249.5,1875.1z"/>
			<path class="st1" d="M1331,1844.4l-11.2-0.1l-4.9-10.9c-15,0.9-19,16.7-17.3,26.9c1.6,9.7,9.5,17.7,17.3,18.6
				c11,1.3,15.4-6.2,15.4-6.2l1.4,4.6c0,0-5.4,9.3-18.5,10.6c-15.2,1.6-33-7-34.7-27.8c-2-24.6,19.4-35.3,32-35.6
				c10.4-0.3,18.3,5.3,20.6,7L1331,1844.4z"/>
			<path class="st1" d="M1372.8,1883v3.9h-37.7v-3.9l9.7-5.3v-77.5l-9.7-5.4v-3.9l28.1-2.5v61.1l2.5-0.7l17.2-15.6l-7.6-3v-3.9h32.8
				v3.9l-8.3,2.9l-18.3,13.5l23.2,29.7l8.4,6.7v3.9h-36v-3.9l6.8-5.3l-17.6-22.7h-3.3v22.7L1372.8,1883z"/>
		</g>
	</g>
</g>
</svg>
