<?xml version="1.0" encoding="utf-8"?>
<!-- Generator: Adobe Illustrator 23.0.1, SVG Export Plug-In . SVG Version: 6.00 Build 0)  -->
<svg version="1.1" id="Layer_1" xmlns="http://www.w3.org/2000/svg" xmlns:xlink="http://www.w3.org/1999/xlink" x="0px" y="0px"
	 viewBox="0 0 2081 2069" style="enable-background:new 0 0 2081 2069;" xml:space="preserve">
<style type="text/css">
	.st0{fill:#0026E0;}
	.st1{fill:#FFFFFF;}
</style>
<g>
	<g>
		<g>
			<path class="st0" d="M698.6,163.3l-4.2,19.7h-4.7l-2.8-15.1H666l-18.6,86.4l12.3,2l-0.8,3.9h-34.1l0.8-3.9l13.3-2l18.6-86.4
				h-20.9l-9.3,15.1h-4.7l4.5-19.7L698.6,163.3L698.6,163.3z"/>
			<path class="st0" d="M726.2,244.2L711,261.1c-6.2,0-5.3-5-3.9-11.3c-3.9,3.9-12.3,11.4-21.1,11.3c-7.9-0.1-13.3-9.1-12.3-21
				c2.4-27.7,22.8-39.9,30.6-41.4c9.5-1.7,12.5,2.2,13,3l4.7-2.2h3.3l-10.6,48.3c-1.6,7,3.9,0.9,10.1-5.5L726.2,244.2z M715.8,207.1
				c-1-2.5-3.4-4.9-5.9-5.1c-8-0.8-24.3,8.9-28,34.3c-1.6,11.3,1.8,20.5,8.9,19.3c5.3-0.9,12.2-6.2,17.3-10.9L715.8,207.1z"/>
			<path class="st0" d="M783.2,204.8c-4.1,17.2-41.9,85-59.1,84.2c-7.2-0.4-9.1-11.2-9.1-11.2h2.9c5.9,10.5,19.3-0.1,31.4-18.4
				l-10-48.7c-0.8-3.7-4.7,2.6-9.3,8.7l-1.7-1.6l11.7-18.6c5.1-0.7,5.1,2.6,6,7.4l8.7,44.4c9.2-14.7,17.5-31.8,20.1-39.4l-1.3-6.7
				c0-4.2,2.6-5.9,5.5-5.9C781.1,198.9,784.1,201,783.2,204.8z"/>
			<path class="st0" d="M802.4,242.4l1.6,1.8l-15.2,16.9c-6.6,0-5.1-5.4-3.7-12.2l16.8-79.3L791,168l0.7-3l19.6-3.3l-18.9,86.1
				C790.7,254.9,796.2,248.8,802.4,242.4z"/>
			<path class="st0" d="M830.6,261.3c-12.5-0.5-18.5-10.2-18.6-22.2c-0.4-20.1,15.2-41,33.7-40.4c12.2,0.3,18.4,10.1,18.6,22.2
				C865,240.9,849.9,262.2,830.6,261.3z M842.8,202.7c-13.9,0.7-23.5,22.1-22.8,39.1c0.7,8.7,4.2,15.4,13.3,15.2
				c11.3,0,20.5-14.8,22.7-29.4C857.9,215.3,854.8,202.1,842.8,202.7z"/>
			<path class="st0" d="M912.7,206c0,2.8-2.2,5-5,5s-5-2.2-5-5v-0.7c-4.7,1.4-13.9,12.9-13.9,12.9l-9.2,42h-7.1l10.1-47.5
				c1.6-7-3.9-0.7-10.1,5.8l-1.6-1.8l15.2-16.9c6.6,0,5.3,5.4,3.8,12.2l-0.3,1.2c0,0,8.7-10.4,10.2-11.7
				C906.1,196.2,912.9,200.8,912.7,206z"/>
			<path class="st0" d="M1010.9,239.6l-9.2,20.6H942l0.8-3.9l9.3-2.8l18.4-84.4l-11.6-2l0.9-3.8h31.5l-0.9,3.8l-11.4,2l-18.8,86.5
				l34-1.2l11.8-14.8H1010.9z"/>
			<path class="st0" d="M1038.4,242.4l1.6,1.8l-15.2,16.9c-6.6,0-5.4-5.4-3.9-12.2l8-37.9c0.9-5.5-4.3,0.3-10.2,6.4l-1.6-1.8
				l15.5-16.9c6.6,0,5.3,5.4,3.8,12.2l-8,37C1026.8,254.9,1032.3,248.8,1038.4,242.4z M1043.8,182.5c-0.8,3-3.4,5.4-6.3,5.4
				c-2.8,0-4.5-2.4-3.8-5.4s3.4-5.5,6.3-5.5C1042.8,177,1044.5,179.5,1043.8,182.5z"/>
			<path class="st0" d="M1109.4,201.2l-15,6.8c1.7,3.8,2.2,8.5,1.1,13.7c-2.9,12.6-13,23.5-26.4,22.8c-3.8-0.3-6.8-1.2-9.2-2.6
				l-5.5,7.5l26.4,5.9c6.4,1.4,10.4,4.6,10.8,9.1c1.3,11.2-10.6,26.4-32.8,25.2c-20.7-1.3-24.8-17.3-22.5-24.2l17.1-8.8l-8.7-5.1
				l0.3-0.8l13.3-10.1c-5.6-4.7-6.7-12.7-5.4-18.9c2.8-12.7,13.4-23,26.5-23c5.9,0,10.8,2.8,13.7,7c0,0,4.9-2.2,4.6-6h12.2
				L1109.4,201.2z M1043,271.9c-1.2,7.2,7.7,13,16.5,13.1c10.6,0.1,16.5-3,20.4-7.9c3.8-4.9,6.3-13.4-2.9-15.4l-21-4.6
				C1054.9,258,1044.4,264.3,1043,271.9z M1077.7,202.3c-8.1,0.1-15.1,8-17.2,19.3c-2,11.3,2.6,18.9,9.6,18.9
				c8.9,0,15.9-8.3,17.2-19.6C1088.5,210.5,1085.1,202.2,1077.7,202.3z"/>
			<path class="st0" d="M1160.3,244.2l-15.2,16.9c-6.6,0-5.1-5.4-3.7-12.2l6.2-29.3c3.5-12.7-3.3-21.1-12.5-14
				c-2.9,2.2-10.6,8.3-13.9,10.9l-9.3,43.7h-7.2l19.4-90.6l-10.9-1.6l0.7-3l19.2-3.3l-10.9,50.9c2.2-2.4,9.8-9.3,13.7-12.3
				c10.2-7.9,23.1,1,19.3,18.3l-6.4,29.3c-1.6,7,3.9,0.9,10.1-5.5L1160.3,244.2z"/>
			<path class="st0" d="M1176.7,248.2c-1.6,7,3.8,0.7,10-5.8l1.6,1.8l-15.2,16.9c-6.6,0-5.1-5.4-3.7-12.2l9.8-45.3h-8.3l0.9-4.1h0.1
				v-0.1c0,0,4.9-0.1,9.1-3.9c3.3-2.9,6.2-10.9,6.2-10.9h3.4l-3.3,15h10.2l-0.9,4.1h-10.2L1176.7,248.2z"/>
			<path class="st0" d="M1263.5,169.2l-18.4,85.1l10.9,2l-0.8,3.9h-30.7l0.9-3.9l11.6-2l18.4-85.1l-11.4-2l0.9-3.9h30.7l-0.9,3.9
				L1263.5,169.2z"/>
			<path class="st0" d="M1275.7,248.2c-1.6,7,3.8,0.7,10-5.8l1.6,1.8l-15.2,16.9c-6.6,0-5.1-5.4-3.7-12.2l9.8-45.3h-8.3l0.9-4.1h0.1
				v-0.1c0,0,4.9-0.1,9.1-3.9c3.3-2.9,6.2-10.9,6.2-10.9h3.4l-3.3,15h10.2l-0.9,4.1h-10.2L1275.7,248.2z"/>
			<path class="st0" d="M1347.8,244.2l-15.2,16.9c-6.2,0-5.3-5-3.9-11.3c-3.9,3.9-12.3,11.4-21.1,11.3c-7.9-0.1-13.3-9.1-12.3-21
				c2.4-27.7,22.8-39.9,30.6-41.4c9.5-1.7,12.5,2.2,13,3l4.7-2.2h3.3l-10.6,48.3c-1.6,7,3.9,0.9,10.1-5.5L1347.8,244.2z
				 M1337.4,207.1c-1.1-2.5-3.4-4.9-5.9-5.1c-8-0.8-24.3,8.9-28,34.3c-1.6,11.3,1.8,20.5,8.9,19.3c5.3-0.9,12.2-6.2,17.3-10.9
				L1337.4,207.1z"/>
			<path class="st0" d="M1372.1,242.4l1.6,1.8l-15.2,16.9c-6.6,0-5.1-5.4-3.7-12.2l16.8-79.3l-10.9-1.6l0.7-3l19.6-3.3l-18.9,86.1
				C1360.4,254.9,1365.9,248.8,1372.1,242.4z"/>
			<path class="st0" d="M1403.7,242.4l1.6,1.8l-15.2,16.9c-6.6,0-5.4-5.4-3.9-12.2l8-37.9c0.9-5.5-4.3,0.3-10.2,6.4l-1.6-1.8
				l15.5-16.9c6.6,0,5.3,5.4,3.8,12.2l-8,37C1392,254.9,1397.6,248.8,1403.7,242.4z M1409.1,182.5c-0.8,3-3.4,5.4-6.3,5.4
				c-2.8,0-4.5-2.4-3.8-5.4s3.4-5.5,6.3-5.5C1408.1,177,1409.8,179.5,1409.1,182.5z"/>
			<path class="st0" d="M1459.7,208c-0.3,3.2-2.9,5.6-6,5.5c-3.2-0.1-4.6-2.9-3.9-6c0.3-1.4,0.7-2.6,1.1-3.4
				c-1.4-0.8-3.5-1.6-6.4-1.2c-9.3,1.1-23,14-24,31.8c-0.9,13.9,6.2,24.6,17.2,20.4c5.3-2,14.3-10.1,14.3-10.1l1.6,1.8
				c0,0-9.1,10.5-16,13.1c-11.8,4.5-28.1-5.1-24.8-27.4c3.4-22.2,21.7-33.9,33.1-33.6C1453.8,198.9,1459.7,203.3,1459.7,208z"/>
		</g>
		<g>
			<path class="st0" d="M805.3,414.4h-4.5l-4.9-14.8h-25.5v85.1l15.2,2.6v3.9h-39.4v-3.9l15.1-2.6v-85.1h-25.5l-4.9,14.8h-4.5
				l0.7-20.1h77.5L805.3,414.4z"/>
			<path class="st0" d="M846.3,485.2v2.1l-9.2,4.6c-3.5,0-6-3.3-6-7c-3.5,2-11.9,7.9-19.2,7.9c-10,0-16.4-6.4-16.4-15.6
				s4.9-14.7,12.6-16.8c7.2-2,21.1-5.4,23-6c0-13.7-3.4-24.4-21-19.8l-4.1,9.7h-6.2c0,0,0.1-8.4,0-8.4c2.5-2.1,8.1-6,17.9-6
				c21.3,0,21.3,15.9,21.3,26.5v26.9C838.9,487.2,846.3,485.2,846.3,485.2z M831.1,481v-23l-17.5,5.3c-5,1.4-9.5,5.9-9.5,13.7
				c0,8.5,7.4,11.8,13.8,10.1C825.5,485.1,831.1,481,831.1,481z"/>
			<path class="st0" d="M908.8,430.6v3.3l-8,1.8l-31.6,73.9c-7.6,14.8-21.9,10.1-21.9,10.1v-10.9h5.3l4.6,5c0,0,3.2-0.4,5.5-4.5
				l9.2-19.6l-20.6-54.1l-8.8-1.8v-3.3h26.7v3.3l-9.1,1.8l16.4,44.1l17.9-44.1l-8.9-1.8v-3.3h23.3V430.6z"/>
			<path class="st0" d="M924.5,392.8V486l9.7,2v3.3H907V488l9.8-2v-85.5l-10.1-1.8v-3.3L924.5,392.8z"/>
			<path class="st0" d="M994.5,462.2c-0.7,17.3-14.6,30.7-30.9,30.1c-16.3-0.8-28.9-15.4-28.1-32.7c0.7-17.7,14.6-30.9,30.9-30.1
				C982.7,430.2,995.3,444.5,994.5,462.2z M986,460.2c0-15.5-8.5-26.1-22.2-25.9c-13.1,0.4-19.7,11.4-19.7,26.9
				c-0.1,15.1,7.5,26.1,22.1,25.9C979.2,486.8,985.9,475.3,986,460.2z"/>
			<path class="st0" d="M1036.9,432.8v8.4h-6l-3.7-5.4c-4.9-0.1-13.9,8.8-13.9,8.8v41.2l11.9,2.1v3.3h-29.1v-3.3l9.6-2.1l-0.1-47.7
				l-9.7-1.4v-3.3l15.2-2.8l2.2,9.6c0,0,6-6.6,7.4-7.9C1027,426.5,1036.9,431.2,1036.9,432.8z"/>
			<path class="st0" d="M1153.4,468.8l-4.9,22.5h-65.7v-4l9.5-2.6v-83.8l-10.7-2.6v-4h30.7v3.9l-10.8,2.6v85.1h37.4l9.8-17.2h4.7
				V468.8z"/>
			<path class="st0" d="M1185.8,488v3.3h-27.2V488l10-2.1v-47.6l-9.6-0.9V434l17.1-3.4v55.3L1185.8,488z M1165.6,411.1
				c0-3.2,2.8-5.9,5.8-5.9c3.3,0,6,2.8,6,5.9s-2.8,5.9-6,5.9C1168.4,417.1,1165.6,414.3,1165.6,411.1z"/>
			<path class="st0" d="M1246,432l-13.1,6.3l0.4,0.5c2.9,3.8,4.3,8.7,4.3,14c0,13-10.4,23.5-22.7,23.5c-4.2,0-6.6-0.9-8.4-1.7
				l-4.6,6.4l28.9,5.4c8,1.3,12.2,5,13.7,9.6c2.9,9.6-6.3,25.3-31,24c-23.6-1.3-27.3-20.1-26.1-23l15.2-7.7l-10.2-5.6v-0.8l11.4-9.6
				c-8.1-4.5-12.3-11.8-12.3-20.5c0-13.1,10.4-23.8,23.5-23.8c6.3,0,11.7,2.6,16,6.8c2.4-1.7,3.2-3.8,3.3-5.4h11.8v1.6H1246z
				 M1205.7,490.2c0,0-9.6,4.1-9.6,12.1c0,5.1,6.4,12.5,17.6,13.3c11.3,0.8,20.5-3.2,23-9.1c1.8-4.3,1-10.5-11.2-12.9L1205.7,490.2z
				 M1229,452c-0.4-10.6-6.8-18.4-14.4-18.8c-9.2-0.5-15,9.3-14.7,20.2c0.1,10.9,7,18.5,15.6,18.3C1225.2,471.4,1229.6,463,1229,452
				z"/>
			<path class="st0" d="M1314.5,488v3.3h-27V488l9.6-2v-35.3c0-12.6-9.5-16-17.7-14l-13.1,3.3v46.1l9.7,2v3.3h-27.4v-3.3l9.7-2
				l-0.3-85.3l-8.5-3.2v-2.1l16.5-2.6V437l13.4-6c8.9-4.1,25.5,1.7,25.5,18.9v36.2L1314.5,488z"/>
			<path class="st0" d="M1323.4,434.6h-8.9v-4.1c0,0,7.2-0.8,9.5-4.6c2.4-3.9,3.2-10.5,3.2-10.5h4.2v15.1h11v4.1h-11v45
				c0,10.1,10.9,9.8,10.9,9.8v1.7c0,0-2.8,0.7-7.7,0.7c-7,0-11-3.8-11-11.9v-45.3H1323.4z"/>
		</g>
		<g>
			<path class="st0" d="M831.4,625.3l-4.5,20.7h-5.4l-2-15.4h-22.2l-18.4,85l13.7,2l-1.2,4.6h-39.1l1.2-4.6l14.3-2l18.4-85H764
				l-8.7,15.5h-5.4l4.7-20.8H831.4z"/>
			<path class="st0" d="M861.6,708.8l-14.3,14.3c-8,0-8.8-4.5-7.7-10.8c-4.3,4.3-12.9,11.8-21.4,10.8c-7.9-1-12.6-9.1-11.8-21
				c2.2-27.7,23.4-39.7,29.9-41c10.5-2.1,13.7,3,13.7,3l4.9-2.6h6l-10.5,46.2c-2.2,10.1,2.8,4.5,9.5-1.2L861.6,708.8z M840.7,706.9
				l8.1-37.6c-1.4-2.1-2.2-3.7-4.9-4.1c-7.5-1.3-23,7.5-26.9,33c-1.6,10.5,1.8,17.1,6.7,18C828.9,717,835.7,711.2,840.7,706.9z"/>
			<path class="st0" d="M922.4,665.5c0,0.4-0.1,1.1-0.1,1.1c0,0.1-0.1,0.3-0.1,0.5c-6.6,19-43.2,83.4-59.7,82.9
				c-7.2-0.3-9.1-13.1-9.1-13.1h3.2c0.5,2.2,2.8,3.5,5,4.2c4.5,1.4,9.3-0.5,15.4-7.7c3.7-4.3,5.3-6.7,8.3-11.2l-8.7-51.1
				c-0.1-0.7-0.4-0.9-0.9-0.9c-1.6,0-4.9,3.2-8.7,6.3l-1.8-2.2l13.9-13.7c6,0.1,7.2,2.8,8.1,8.5l6.4,42l0.3-0.5
				c7.4-10.8,14.3-23,19-36.5l-1.6-8.5c0.3-3.2,3.2-5.6,6.2-5.6C919.9,659.9,922.4,661.3,922.4,665.5z"/>
			<path class="st0" d="M942.3,706.6l1.8,2.2l-14.5,14.4c-9.7,0-8.1-6.6-6.3-15.1l16.5-76.5l-0.1,0.1l-11-1.6l0.7-3l22.1-3.3
				l-18.5,84C930.7,717.9,935.6,712.3,942.3,706.6z"/>
			<path class="st0" d="M1003.4,697.4c-6.6,17.1-22.7,28.6-37.3,25.7c-14.4-2.9-18.8-19.3-11.9-36.5c6.8-17.2,22.5-28.8,37.4-25.7
				C1005.6,663.9,1010,680.2,1003.4,697.4z M994.6,690.6c3.3-15.1-1.1-25.7-11.6-24.4c-10.9,1.3-16.8,11.9-20,27.3
				c-3.2,15.2-0.4,25.5,11.7,24C984.9,716.3,991.3,705.7,994.6,690.6z"/>
			<path class="st0" d="M1058.3,667.9c-0.1,3.7-3.2,6.4-6.7,6.4s-6-2.9-5.9-6.4c-4.5,0.5-13.3,12.3-13.3,12.3l-9.2,42h-9.8l9.8-45.3
				c2.2-10.1-2.8-4.5-9.5,1.2l-1.8-2.2l14.6-14.3c8.8,0.1,8.3,7.4,7,13.4c1-1.4,7.7-10.5,10.9-12.5
				C1051.7,658,1058.9,661.6,1058.3,667.9z"/>
			<path class="st0" d="M1126,631.9l-18.1,83.8l11,2l-1,4.6h-33.6l1-4.6l11.8-2l18.1-83.8l-11-2l1-4.6h33.4l-1,4.6L1126,631.9z"/>
			<path class="st0" d="M1141.9,707.8c-2.2,10.1,2.6,4.5,9.3-1.2l1.8,2.2l-14.6,14.3c-9.7,0-8.4-6.6-6.6-15.1l9.2-42.4h-8.3l0.9-4.1
				h0.1v-0.1c0,0,5.1-0.9,10-3.9c5-3,8-10.9,8-10.9h3.4l-3.3,15h10.2l-0.9,4.1h-10.2L1141.9,707.8z"/>
			<path class="st0" d="M1215.4,708.8l-14.3,14.3c-8,0-8.8-4.5-7.7-10.8c-4.3,4.3-12.9,11.8-21.4,10.8c-7.9-1-12.6-9.1-11.8-21
				c2.2-27.7,23.4-39.7,29.9-41c10.5-2.1,13.7,3,13.7,3l4.9-2.6h6l-10.5,46.2c-2.2,10.1,2.8,4.5,9.5-1.2L1215.4,708.8z
				 M1194.6,706.9l8.1-37.6c-1.4-2.1-2.2-3.7-4.9-4.1c-7.5-1.3-23,7.5-26.9,33c-1.6,10.5,1.8,17.1,6.7,18
				C1182.7,717,1189.6,711.2,1194.6,706.9z"/>
			<path class="st0" d="M1241.2,706.6l1.8,2.2l-14.6,14.3c-9.7,0-8.1-6.6-6.3-15.1l16.5-76.5l-0.1,0.1l-11-1.6l0.7-3l22.1-3.3
				l-18.5,84C1229.5,717.9,1234.5,712.3,1241.2,706.6z"/>
			<path class="st0" d="M1273.2,706.6l1.8,2.2l-14.6,14.3c-9.7,0-8.3-6.6-6.4-15.1l7.2-31.4c2.2-10.1-2.8-4.3-9.5,1.2l-1.8-2.2
				l14.6-14.3c9.7,0,8.4,6.6,6.6,15.1l-7.4,31.4C1261.5,717.9,1266.5,712.3,1273.2,706.6z M1278.7,642.3c-0.8,3.7-4.2,6.7-7.6,6.7
				s-5.5-3-4.7-6.7s4.2-6.7,7.6-6.7S1279.5,638.6,1278.7,642.3z"/>
			<path class="st0" d="M1330.5,669.7c-0.1,3.7-3,6.4-6.6,6.4c-5.9,0-4.3-7.2-3.9-11c-1.2-0.3-3.2-0.5-5.6,0
				c-7.6,1.4-20.9,14-21.3,31.6c0,12.7,6,21.8,14.6,19.8c5.1-1.2,17.2-13.4,17.2-13.4l3.2,1.6c0,0-12.6,14.7-20.6,17.6
				c-11.8,4.2-27.8-5.6-24.6-28c3.4-22.2,21.5-33.6,32.8-34.1C1323.8,659.9,1331.1,664.2,1330.5,669.7z"/>
		</g>
		<g>
			<path class="st0" d="M727.7,878.4h-4.3l-8.4-16.2h-20.9v84.4l13.8,2v4.6h-39.7v-4.6l13.8-2v-84.4h-20.9l-8.4,16.2h-4.3l0.8-22.1
				h77.7L727.7,878.4z"/>
			<path class="st0" d="M772.2,946.3v3.3l-11.4,4.6c-1.7,0-6.7-2.6-6.7-7.9c-3.5,2.1-10.6,8.4-17.9,8.4c-9.6,0-17.1-7.4-17.1-16.7
				c0-8.4,4.6-13.1,12.2-15.4c7.2-2.1,20.9-6.4,22.7-7.1V913c0-14.3-8.4-20.1-17.9-17.3l-5.4,10.8h-7.4c0,0,0.1-9.7,0-9.7
				c2.5-2.1,7.1-6.3,17.2-6.3c23.5,0,23.9,15.2,24.2,23.9v29.7C764.8,949,772.2,946.3,772.2,946.3z M754,943v-23.8
				c-4.3,1.4-11.9,4.5-16.2,6c-3,1-7.5,5.1-7.5,12.3c0,6.3,4.6,10.8,10.9,10.4C749.1,947.5,754,943,754,943z"/>
			<path class="st0" d="M797.4,971.6c-7.4,14.8-21.3,10.1-21.3,10.1v-13.5h5.3c0.9,5.4,7.5,8.8,10.1,3.2l8.3-17.6l-21.7-56.1
				l-8.5-1.8v-3.3h28.8v3.3l-8.1,1.8l15.9,42.8c0,0,13.4-34.4,17.1-42.8l-7-1.8v-3.3h19.6v3.3l-6.7,1.8l-26.1,62.5
				C802.9,960.2,802.5,961.1,797.4,971.6z"/>
			<path class="st0" d="M856.3,854.8V948l9.7,1.8v3.4h-30.1v-3.4l9.8-1.8v-85.5l-10.1-1.8v-3.3L856.3,854.8z"/>
			<path class="st0" d="M926.1,929.6c-3.9,16.5-19.7,26.8-35.2,22.8c-15.2-3.8-24.4-20.4-20.6-36.8c3.9-16.5,19.7-26.8,35.1-23
				C920.7,896.6,929.9,913.1,926.1,929.6z M915.2,921.7c-0.1-14.4-6.6-25.1-18.5-24.3c-11.4,0.8-15.5,11.6-15.4,26
				c0.1,14.3,5.5,24.8,18.1,24C910.8,946.8,915.3,936.2,915.2,921.7z"/>
			<path class="st0" d="M973.7,894.8v9.8h-7l-3.9-5.8c-4.9-0.1-11.9,7.7-11.9,7.7v41.2l11.9,2.1v3.3h-32.3v-3.3l9.6-2.1L940,900
				l-9.7-1.4v-3.3l18.6-2.8l2,9.6c0,0,7.2-8,8.8-8.8C966.4,889.9,973.7,893.2,973.7,894.8z"/>
			<path class="st0" d="M1097.5,951.1v2.4c0,0-18.1,5.5-26.1-5.5l-24.8-33.9h-0.9h-11.2v32.3l13.8,2.2v4.6h-36.5v-4.6l10.9-2.2
				v-82.7l-9.1-2.8v-4.5h36c24.2,0,35.2,14.3,35.2,29.4c0,12.6-8.9,23-25.2,26.8l24.7,31.6C1090.4,952.2,1097.5,951.1,1097.5,951.1z
				 M1072.1,884.8c0-17.3-14-23.8-26.8-23.8h-10.8v47.7h9.5C1063.4,908.7,1072.1,896.8,1072.1,884.8z"/>
			<path class="st0" d="M1144.5,942.5l0.1,2.5c0,0-6.3,9.2-19.8,9.2c-12.5,0-29.3-8.9-29.3-31.1c0-21.8,16.4-31.5,28.4-31.5
				c16.8,0,22.6,15.2,22.6,26h-39.4c-0.3,1.4-0.4,3-0.4,4.6c0,1.8,0.1,3.7,0.5,5.6c2.1,13.1,11.6,19.8,20.2,20.2
				C1137.8,948.5,1144.5,942.5,1144.5,942.5z M1135.7,911.2c-0.8-10.2-5.8-15-11.6-15c-6.7,0-14.2,6.4-16.5,18.1L1135.7,911.2z"/>
			<path class="st0" d="M1178.7,982.1c-23.6,0-28.6-20.1-27.4-23l16.5-6.3l-10.2-7.1v-0.8l12.5-10.4c-8.9-4.3-13.4-11.7-13.4-20.4
				c0-12.5,10.1-22.6,22.7-22.6c6.4,0,12.1,2.6,16.4,6.8l3.3-5.9h13v1.4l-14.3,6.8c2.8,3.7,4.3,8.3,4.3,13.4
				c0,12.3-10.2,22.3-22.7,22.3c-1.7,0-3.8-0.3-4.7-0.5c-0.9-0.1-2-0.5-2-0.5l-4.6,6.8l26.7,4.9c8,1.3,12.2,5,13.7,9.6
				C1211.2,966.4,1203.4,982,1178.7,982.1z M1170.9,953.6c-0.9,0.8-8.7,4.9-8.7,11.4c0,5.1,5.5,12.3,16.7,12.5
				c11.3,0,17.3-4.2,20.4-9.1c2.5-4.2,0.4-9.5-9.8-11.4L1170.9,953.6z M1179.7,932.1c8.4,0.1,11.7-8.1,11.4-18.4
				c-0.3-9.8-4.9-17.6-11.8-17.9c-8.4-0.3-11.7,8.3-11.9,18.3C1167.3,924.2,1172.8,932.1,1179.7,932.1z"/>
			<path class="st0" d="M1282.5,946.1v3.3l-20.1,3.8v-8.5c-3.9,2.8-13.5,9.5-15.9,9.5c-7.4,0-22.2,0.5-22.2-23.8v-30.7l-9.7-1.7
				v-3.3l20.4-2.8v39.7c0,11.7,5.4,15.1,13.3,14.6c5.6-0.3,14.2-4.1,14.2-4.1v-42.3l-9.5-1.8v-3.3l20.2-2.8v53.4L1282.5,946.1z"/>
			<path class="st0" d="M1306.4,854.8V948l9.7,1.8v3.4H1286v-3.4l9.8-1.8v-85.5l-10.1-1.8v-3.3L1306.4,854.8z"/>
			<path class="st0" d="M1375.1,946.3v3.3l-11.4,4.6c-1.7,0-6.7-2.6-6.7-7.9c-3.5,2.1-10.6,8.4-17.9,8.4c-9.6,0-17.1-7.4-17.1-16.7
				c0-8.4,4.6-13.1,12.2-15.4c7.2-2.1,20.9-6.4,22.7-7.1V913c0-14.3-8.4-20.1-17.9-17.3l-5.4,10.8h-7.4c0,0,0.1-9.7,0-9.7
				c2.5-2.1,7.1-6.3,17.2-6.3c23.5,0,23.9,15.2,24.2,23.9v29.7C1367.8,949,1375.1,946.3,1375.1,946.3z M1357,943v-23.8
				c-4.3,1.4-11.9,4.5-16.2,6c-3,1-7.5,5.1-7.5,12.3c0,6.3,4.6,10.8,10.9,10.4C1352,947.5,1357,943,1357,943z"/>
			<path class="st0" d="M1421.9,894.8v9.8h-7l-3.9-5.8c-4.9-0.1-11.9,7.7-11.9,7.7v41.2l11.9,2.1v3.3h-32.3v-3.3l9.6-2.1l-0.1-47.7
				l-9.7-1.4v-3.3l18.6-2.8l2,9.6c0,0,7.2-8,8.8-8.8C1414.5,889.9,1421.9,893.2,1421.9,894.8z"/>
		</g>
		<g>
			<path class="st0" d="M677.8,1087.3l-4.7,22.1h-5.4l-5.8-16.2h-17.6l-18.1,83.8l13.5,2.6l-1.2,4.6h-42.3l1.2-4.6l14.3-2.6
				l18.1-83.8h-17.6l-12.6,16.2h-5.4l4.7-22.1H677.8z"/>
			<path class="st0" d="M709.1,1167.8l2.1,2.2l-16.5,15c-7.5-1.1-8.1-5-7.4-10.6c-4.1,4.5-11.4,11.7-20.4,10.8
				c-9.6-0.9-15.1-10.5-13.5-22.3c3.7-27.6,23-39.1,32.2-40c7.4-0.7,11.3,2.1,13.1,3.9l6-3.2h6.4l-11,46.7
				C698.7,1176.6,701.7,1173.6,709.1,1167.8z M688.5,1168.5l8.9-37.3c-1.1-1.4-2.2-2.8-4.2-3.2c-6.7-1.4-21.7,6.3-26.1,31.5
				c-1.7,9.6,0.4,17.1,5.9,17.7C677.6,1177.8,683.7,1172.6,688.5,1168.5z"/>
			<path class="st0" d="M772.5,1127.9c0,0.4-0.3,1-0.3,1c-0.4,1.8-2,6.2-5.6,13.1c-11.4,26.4-38.3,71-52.8,70.9
				c-9.8-0.1-10.1-15.2-10.1-15.2h3.5c6.6,11.2,16.9,4.7,29-12.5l-10.1-49.9c-0.5-2.6-3.7,0.4-9.5,5.3l-2.1-2.2l15.9-15.6
				c4.1,0,7,3.7,7.9,8.7l7.2,39.4c8-12.5,11.9-23.1,14.8-29.8l-0.8-13.1c0.3-3.4,3.3-6.2,6.8-6.2
				C769.1,1121.7,772.5,1123.2,772.5,1127.9z"/>
			<path class="st0" d="M794.9,1167.8l2.1,2.2l-17.2,15.6c-9.7-1.3-6.8-8.1-5.4-16.5l16-73.9l-10.6-1.6l0.7-3l24.2-4.9l-18.6,84.6
				C784.6,1176.6,787.6,1174.1,794.9,1167.8z"/>
			<path class="st0" d="M858.1,1158.9c-5.9,17.1-20.9,28.9-37.9,25.7c-13.7-2.5-20.2-19.6-14.2-36.4c6.2-17.2,21.8-28.8,37.7-25.7
				C857.4,1125.2,864,1141.8,858.1,1158.9z M846.7,1152.2c2.6-13.8-0.8-24.6-10.9-23.8c-10.1,0.8-16,12.5-18.5,26.5
				c-2.5,13.9,0.3,23.9,11,23.5C838.3,1178.1,844.1,1166.2,846.7,1152.2z"/>
			<path class="st0" d="M915.6,1132.1c-0.3,4.1-3.5,7.4-7.6,7.4c-3.9,0-6.8-3.3-6.7-7.4l-0.5-0.3c-4.3-0.3-13.8,11.8-13.8,11.8
				l-8.7,40.6H866l9.8-46.1c1.4-6.3-1.7-3.8-8.9,2.5l-2.1-2.2l17.2-15.6c8.8,1.2,7.7,7.1,6.4,14.3c0.4-0.5,8.8-10.5,10.4-11.8
				C905.4,1119.4,916.3,1122.9,915.6,1132.1z"/>
			<path class="st0" d="M948.7,1184.2l1.1-4.6l9.3-2l17.7-82.5l-9.3-3.3l1-4.6h36.4c19.8,0,29.3,8.1,26.9,23.2
				c-2.1,12.5-11.8,21.3-20.4,21.9c11.4,1,18.8,12.7,16.7,25.5c-2.2,13.4-16.5,26.3-30.5,26.3L948.7,1184.2L948.7,1184.2z
				 M1012.6,1159.2c2.2-10.4-2.6-23.2-16.5-23.2h-14.3l-9.2,41.8h18.9C1001.1,1177.7,1010.4,1169.4,1012.6,1159.2z M1016.8,1110.8
				c1.7-12.7-5.8-18.8-18.1-18.8h-7.5l-8.4,38.6h9.8C1007.7,1130.7,1015.3,1122.7,1016.8,1110.8z"/>
			<path class="st0" d="M1090.5,1158.9c-5.9,17.1-20.9,28.9-37.9,25.7c-13.7-2.5-20.2-19.6-14.2-36.4c6.2-17.2,21.8-28.8,37.7-25.7
				C1089.9,1125.2,1096.4,1141.8,1090.5,1158.9z M1079.1,1152.2c2.6-13.8-0.8-24.6-10.9-23.8c-10.1,0.8-16,12.5-18.5,26.5
				c-2.5,13.9,0.3,23.9,11,23.5C1070.7,1178.1,1076.5,1166.2,1079.1,1152.2z"/>
			<path class="st0" d="M1119.9,1167.8l2.1,2.2l-17.2,15.6c-9.7-1.3-6.8-8.1-5.4-16.5l16-73.9l-10.6-1.6l0.7-3l24.2-4.9l-18.6,84.6
				C1109.6,1176.6,1112.6,1174.1,1119.9,1167.8z"/>
			<path class="st0" d="M1186.6,1167.8l2.1,2.2l-17.2,15.6c-7.2-0.9-7.9-5.1-7.2-10.6c-3.4,3.7-8.9,8.9-14.2,10
				c-16,2.8-24.6-12.6-21.1-29.5c4.1-20.4,19.2-34,36.1-33.6c3.9,0.1,7.7,1.3,10,3.3l6.4-30.1l-10.5-1.4l0.7-3l24.8-4.9l-18.8,84.6
				C1176.3,1176.6,1179.3,1174.1,1186.6,1167.8z M1165.7,1168.1l7.2-33.2c-1.2-3.8-4.6-8.3-10.2-8.1c-8.8,0.1-18.1,10.4-20.7,31.1
				c-2.2,17.7,7,21.4,11.8,19C1158,1175.3,1162.1,1171.4,1165.7,1168.1z"/>
			<path class="st0" d="M1273.5,1094.6l-17.7,82.5l11,2.6l-1.1,4.6h-36.4l1.1-4.6l11.6-2.6l17.7-82.5l-11.8-2.6l1.1-4.6h36.6l-1,4.6
				L1273.5,1094.6z"/>
			<path class="st0" d="M1292.5,1170.3c-1.4,6.3,1.4,3.8,8.9-2.5l2.1,2.2l-17.2,15.6c-9.7-1.3-7.9-8.3-6-16.5l8.9-40.7h-8.3l1-4.9
				c0,0,5.3-1.1,10.1-4.1c5-3,8-10.9,8-10.9h5.9l-3.3,15h10.2l-1,4.9h-10.2L1292.5,1170.3z"/>
			<path class="st0" d="M1366.1,1167.8l2.1,2.2l-16.5,15c-7.5-1.1-8.1-5-7.4-10.6c-4.1,4.5-11.4,11.7-20.4,10.8
				c-9.6-0.9-15.1-10.5-13.5-22.3c3.7-27.6,23-39.1,32.2-40c7.4-0.7,11.3,2.1,13.1,3.9l6-3.2h6.4l-11,46.7
				C1355.7,1176.6,1358.8,1173.6,1366.1,1167.8z M1345.5,1168.5l8.9-37.3c-1.1-1.4-2.2-2.8-4.2-3.2c-6.7-1.4-21.7,6.3-26.1,31.5
				c-1.7,9.6,0.4,17.1,5.9,17.7C1334.6,1177.8,1340.8,1172.6,1345.5,1168.5z"/>
			<path class="st0" d="M1394.3,1167.8l2.1,2.2l-17.2,15.6c-9.7-1.3-6.8-8.1-5.4-16.5l16-73.9l-10.6-1.6l0.7-3l24.2-4.9l-18.6,84.6
				C1384,1176.6,1387,1174.1,1394.3,1167.8z"/>
			<path class="st0" d="M1428.5,1167.8l2.1,2.2l-17.2,15.6c-9.7-1.3-7.2-8.5-5.5-16.5l6.7-30.9c1.4-6.3-1.3-3.7-8.7,2.5l-2.1-2.2
				l16.5-15.6c9.8,0,7.9,8.3,6.2,16.5l-7,30.9C1418.1,1176.6,1421.1,1174.1,1428.5,1167.8z M1435,1104c-0.9,4.5-5.1,8-9.2,8
				c-4.2,0-6.6-3.5-5.6-8c0.9-4.3,5.1-8,9.2-8S1436,1099.7,1435,1104z"/>
			<path class="st0" d="M1485.9,1133.2c0,4.3-3.7,8.3-7.9,7.6c-6.4-1-6.6-7.6-5.3-12.1c-14.8,0.8-23.2,13.4-24,30.1
				c-0.5,11.9,6.6,19.4,14.4,18.4c3.8-0.5,17.1-11.8,17.1-11.8l3.2,1.2c0,0-13.8,14.4-20.5,17.3c-11.9,5.1-30.2-5.1-26.8-27.4
				c3.5-22.2,21.4-33.9,35.1-33.6C1479.6,1123.1,1486.1,1127.5,1485.9,1133.2z"/>
		</g>
		<g>
			<path class="st0" d="M804.6,1340.7h-6l-8.5-15.8h-19.2v82.9l13.8,2.9v4.6h-43.3v-4.6l13.8-2.9v-82.9H736l-8.5,15.8h-6l0.9-22.3
				h81.4L804.6,1340.7z"/>
			<path class="st0" d="M852.9,1406.7v3.3l-13.8,6.2c-4.2,0-7.5-4.9-7.5-7.9c0,0-7.1,8.4-17.9,8.4c-9.6,0-17.5-5.1-17.7-14.8
				c-0.3-10,5.3-14.8,12.9-17.2c7.2-2.1,20.9-6.4,22.7-7.1v-3.8c0-13-6.7-16.9-12.9-16c-2.6,0.4-4.3,1.2-4.3,1.2l-4.7,10.8h-9.5
				c0,0,0.1-11.2,0-11.2c2.5-2.1,10.4-6,20.5-6c23.5,0,24.6,15.2,24.8,23.9v28.9C845.6,1409.1,852.9,1406.7,852.9,1406.7z
				 M831.6,1404.3v-22c-4.3,1.4-9.3,3.3-13.5,4.9c-5.3,2-8.1,5.3-8.1,12.5c0,6.2,4.6,9.8,10.9,9.5
				C828.6,1408.5,831.6,1404.3,831.6,1404.3z"/>
			<path class="st0" d="M878.1,1433.6c-7.7,14.8-23.9,10.1-23.9,10.1v-14.8h6.6l3.8,5.5c0.9,0,5.5-0.3,8.3-5.1l7-14.7l-22.7-52.8
				l-8.1-3.9v-3.3h32v3.3l-8.9,3.2l15.5,36.5c0,0,11.9-28.1,15.6-36.5l-9.6-3.2v-3.3h26.1v3.3l-9.5,3.7l-26.7,60.7
				C883.6,1422.2,883.2,1423.1,878.1,1433.6z"/>
			<path class="st0" d="M941,1316.8v91.9l9.7,3.3v3.3h-33.4v-3.3l9.8-3.3v-83.2l-10.1-2.8v-3.3L941,1316.8z"/>
			<path class="st0" d="M1013.4,1390.2c-2.9,17.7-18.3,29.1-35.8,25.7c-16.3-3.2-26.4-20.6-22.8-38.1c3.4-16.9,19.7-28,35.8-24.3
				C1006.7,1356.8,1016.1,1373.1,1013.4,1390.2z M999.7,1382.5c-0.3-13.9-6.3-23.8-17.3-22.7c-10.6,1.3-14.3,11.9-14,26
				c0.4,14.3,5.5,24.9,17.2,23.5C995.9,1408.1,1000,1397,999.7,1382.5z"/>
			<path class="st0" d="M1065.1,1356.8v11.6h-9.7l-5-7c-4.6,0.4-10.9,7.2-10.9,7.2v39.9l11.9,3.4v3.3h-35.3v-3.3l9.6-3.4l-0.1-45
				l-9.7-2.8v-3.3l21.7-2.8l2,9.6c0,0,7.2-8,8.8-8.8C1054.9,1351,1065.1,1355.2,1065.1,1356.8z"/>
			<path class="st0" d="M1103.2,1415.2v-4.6l10.4-3.7v-80l-10.4-4.1v-4.6h37.4c21.7,0,33.6,8.1,34.5,23.2
				c0.8,12.5-8.9,21.3-18.3,21.9c12.7,1,22.8,12.7,22.8,25.5c0,13.4-10.5,26.3-25.6,26.3L1103.2,1415.2L1103.2,1415.2z M1159,1341.8
				c-0.8-12.7-8.3-18.6-21.5-18.6h-8.8v38.5h8.5C1153.3,1361.7,1159.6,1352.1,1159,1341.8z M1163.3,1390.2
				c0-10.1-6.6-23.1-21.8-23.1h-12.9v42.3h17.6C1156.6,1409.3,1163.3,1400.4,1163.3,1390.2z"/>
			<path class="st0" d="M1245.4,1390.2c-2.9,17.7-18.3,29.1-35.8,25.7c-16.3-3.2-26.4-20.6-22.8-38.1c3.4-16.9,19.7-28,35.8-24.3
				C1238.7,1356.8,1248.1,1373.1,1245.4,1390.2z M1231.7,1382.5c-0.3-13.9-6.3-23.8-17.3-22.7c-10.6,1.3-14.3,11.9-14,26
				c0.4,14.3,5.5,24.9,17.2,23.5C1227.9,1408.1,1232,1397,1231.7,1382.5z"/>
			<path class="st0" d="M1271.1,1316.8v91.9l9.7,3.3v3.3h-33.4v-3.3l9.8-3.3v-83.2l-10.1-2.8v-3.3L1271.1,1316.8z"/>
			<path class="st0" d="M1349.5,1406.8v4.6l-23.2,3.8h-0.1v-6c0,0-4.1,5.8-12.2,6.8c-13.5,1.7-28.2-6.8-29.7-26.1
				c-1.7-22.6,11.4-36.2,29.9-35.3c3.8,0.1,11.9,3.7,11.9,3.7l0.1-31.5l-9.5-2.8v-4.6l23.2-2.6v88.1l0.1-0.1L1349.5,1406.8z
				 M1326.1,1361.9c0,0-8.4-1.7-11.8-1.7c-10.4,0-17.1,14-15.4,30.1c1.4,13.4,8.1,19.7,16.9,19.2c7.1-0.4,10.2-6.6,10.2-6.6v-41
				H1326.1z"/>
		</g>
		<g>
			<path class="st0" d="M624.7,1549.3l-4.3,22.2h-8L606,1556h-14.4l-17.2,79.7l13.5,5.3l-1.1,5.3h-45.2l1.1-5.3l13.9-5.3l17.2-79.7
				h-14.2l-12.5,15.5h-8l4.9-22.2H624.7z"/>
			<path class="st0" d="M662.4,1634.4l-18.1,13.1c-9.7,0-11.7-5.1-11.2-11.2c-4.7,4.9-12.9,11.6-20.5,10.6
				c-10.4-1.2-16-10.4-14.6-22.2c3.3-27.6,27.4-39,34.5-39.8c6.7-0.7,9.8,2,11.3,3.8l8.5-3.3h7.6l-10,46.6c-1.2,5,3.4,4.5,10.1-0.4
				L662.4,1634.4z M634.2,1630.3l7.9-38.1c-0.9-1.1-2.2-1.7-4.1-1.8c-6.6-0.3-21.3,6.7-23.1,31.1c-0.7,8.8,2.1,14.4,7.1,14.6
				C625.6,1636.3,630.2,1633.5,634.2,1630.3z"/>
			<path class="st0" d="M725.7,1592.7c-0.4,1.6-2.2,5.5-5,11.2c-11.8,25.3-43.2,72.7-55.8,72.6c-11.2-0.1-12.6-15.9-12.6-15.9h5.5
				c5,8.8,14.3,3.9,18.3,0c3.7-3.7,6.8-7.5,9.5-11l-12.6-49.9c-1.6-6-2.9-4.5-9.6,0.4l-2.2-2.6l16.8-13.1c9.6,0,9.6,5,11,11
				l9.1,36.4c7.1-10.9,12.5-23.2,15.5-29.8l-0.9-10.5c0.3-3.7,3.5-6.6,7.1-6.6c2.9,0,6.2,1.6,6.2,6.6
				C725.8,1591.9,725.7,1592.7,725.7,1592.7z"/>
			<path class="st0" d="M751.7,1631.9l2.2,2.6l-18.1,13.1c-12.5,0-12.1-8.3-10.2-16.5l15.8-71.8l-10.4-3.7l0.7-3l28.8-4.9
				l-18.6,84.6C740.5,1637.3,745,1636.8,751.7,1631.9z"/>
			<path class="st0" d="M815.9,1621.3c-6.8,17.2-24.9,28.9-40.2,25.9c-15.1-3-21.8-19.4-14.7-36.6s25.1-28.9,40.3-25.9
				C816.4,1587.7,822.7,1604,815.9,1621.3z M800.7,1614.6c2.6-13.4-0.1-25.2-8.9-24c-8.1,1.1-12.9,13.4-15.5,26.9
				c-2.6,13.4-0.5,24,9.1,23C793.3,1639.5,798,1628,800.7,1614.6z"/>
			<path class="st0" d="M878.3,1590.6l-3.2,13.3h-12.3l-2-8.8c-2.6-0.3-9.2,5.8-12.2,8.9l-9.5,42.3h-16.4l10.5-46.6
				c1.2-5-3.4-4.5-10.1,0.4l-2.2-2.6l16.8-13.1c10.9,0,13,6.3,12.1,13.3c2.6-3.3,7.2-8.7,8.9-10
				C871.3,1578.5,878.3,1590.6,878.3,1590.6z"/>
			<path class="st0" d="M910.6,1646.2l1.2-5.3l10.1-5.3l16.4-75.9l-9.1-5.3l1.2-5.3h39.5c19.8,0,30.1,9.3,29.1,23.2
				c-0.8,12.6-13.5,21.3-21.9,21.9c11.4,1,17.9,12.7,16,25.5c-2,13.4-12.5,26.3-29.9,26.3h-52.6V1646.2z M974.4,1621.2
				c2.6-14.3-5.5-21.9-19.4-21.9h-7.5l-8.9,40.4h12C960.2,1639.7,971.7,1635.3,974.4,1621.2z M980.7,1572.8
				c1.3-15.2-8.3-19.2-23.5-18.6l-8.4,38.7h7.1C970.8,1592.9,979.6,1584.7,980.7,1572.8z"/>
			<path class="st0" d="M1027.7,1631.9l2.2,2.6l-18.1,13.1c-12.5,0-12.1-8.3-10.2-16.5l15.8-71.8l-10.4-3.7l0.7-3l28.8-4.9
				l-18.6,84.6C1016.5,1637.3,1021,1636.8,1027.7,1631.9z"/>
			<path class="st0" d="M1097.8,1634.4l-18.1,13.1c-9.7,0-11.7-5.1-11.2-11.2c-4.7,4.9-12.9,11.6-20.5,10.6
				c-10.4-1.2-16-10.4-14.6-22.2c3.3-27.6,27.4-39,34.5-39.8c6.7-0.7,9.8,2,11.3,3.8l8.5-3.3h7.6l-10,46.6c-1.2,5,3.4,4.5,10.1-0.4
				L1097.8,1634.4z M1069.6,1630.3l7.9-38.1c-0.9-1.1-2.2-1.7-4.1-1.8c-6.6-0.3-21.3,6.7-23.1,31.1c-0.7,8.8,2.1,14.4,7.1,14.6
				C1061,1636.3,1065.6,1633.5,1069.6,1630.3z"/>
			<path class="st0" d="M1140.1,1591c-7.7,0.9-21.9,12.3-21.5,29.8c0.4,11.4,7.2,17.5,13.5,17.5c3.5,0,19-12.5,19-12.5l3,1.2
				c0,0-16.4,18.3-22.5,19.7c-13,3-32.6-7.1-30.2-28.2c2.8-25.3,24.6-34.1,39.3-34.1c8.1,0,15.5,4.5,15.1,11.6
				c0,5.1-4.3,9.8-9.3,9.1C1139,1603.7,1138.8,1596.2,1140.1,1591z"/>
			<path class="st0" d="M1213.5,1592.8l-21.7,17.6l15.6,21.9c2.5,3,3.3,4.5,10-0.4l2.2,2.6l-18.1,13.1c-6.8,0-8.5-3.2-10.4-7.7
				l-10.5-25.7h-3l-7,32h-16.4l18.9-86.9l-10.4-3.7l0.7-3l28.8-4.9l-13.9,63.3l3.4-0.3l18.9-19.8l-7.5-2.4l0.7-3h32.3l-0.5,3
				L1213.5,1592.8z"/>
			<path class="st0" d="M1305.9,1559.7l-16.3,76l10.9,5.3l-1.2,5.3h-40.4l1.2-5.3l12.5-5.1l16.3-76l-10.8-5.3l1.1-5.3h39.5l-1,5.3
				L1305.9,1559.7z"/>
			<path class="st0" d="M1329.7,1632.2c-1.2,5,3.2,4.5,10-0.4l2.2,2.6l-18.1,13.1c-12.5,0-12.1-8.3-10.2-16.5l8.5-39.8h-8.3l1.4-5.6
				h0.1v-0.1c0,0,5.1-0.9,10-3.9c5-3,11.6-10.9,11.6-10.9h6.3l-3.3,15h10.2l-1.4,5.6h-10.2L1329.7,1632.2z"/>
			<path class="st0" d="M1411.1,1634.4l-18.1,13.1c-9.7,0-11.7-5.1-11.2-11.2c-4.7,4.9-12.9,11.6-20.5,10.6
				c-10.4-1.2-16-10.4-14.6-22.2c3.3-27.6,27.4-39,34.5-39.8c6.7-0.7,9.8,2,11.3,3.8l8.5-3.3h7.6l-10,46.6c-1.2,5,3.4,4.5,10.1-0.4
				L1411.1,1634.4z M1382.9,1630.3l7.9-38.1c-0.9-1.1-2.2-1.7-4.1-1.8c-6.6-0.3-21.3,6.7-23.1,31.1c-0.7,8.8,2.1,14.4,7.1,14.6
				C1374.3,1636.3,1378.9,1633.5,1382.9,1630.3z"/>
			<path class="st0" d="M1442.1,1631.9l2.2,2.6l-18.1,13.1c-12.5,0-12.1-8.3-10.2-16.5l15.8-71.8l-10.4-3.7l0.7-3l28.8-4.9
				l-18.6,84.6C1430.9,1637.3,1435.4,1636.8,1442.1,1631.9z"/>
			<path class="st0" d="M1481.6,1631.9l2.2,2.6l-18.1,13.1c-12.5,0-12.1-8.3-10.2-16.5l7-31.4c1.2-5-3.3-4.5-10,0.4l-2.2-2.6
				l16.8-13.1c12.5,0,13.4,8.3,11.6,16.5l-7,31.4C1470.4,1637.3,1474.9,1636.8,1481.6,1631.9z M1485.1,1565.5
				c-1.3,5.6-6.7,10.2-11.9,10.2c-5.4,0-8.3-4.6-7.1-10.2c1-5.6,6.3-10.4,11.7-10.4C1482.9,1555.1,1486.3,1559.8,1485.1,1565.5z"/>
			<path class="st0" d="M1526.1,1591c-7.7,0.9-21.9,12.3-21.5,29.8c0.4,11.4,7.2,17.5,13.5,17.5c3.5,0,19-12.5,19-12.5l3,1.2
				c0,0-16.4,18.3-22.5,19.7c-13,3-32.6-7.1-30.2-28.2c2.8-25.3,24.6-34.1,39.3-34.1c8.1,0,15.5,4.5,15.1,11.6
				c0,5.1-4.3,9.8-9.3,9.1C1525.1,1603.7,1524.8,1596.2,1526.1,1591z"/>
		</g>
		<g>
			<path class="st0" d="M716.9,1788.2v78.5l15.1,5.3v5.3h-49.9v-5.3l15.1-5.3v-78.5h-15l-11.9,18.5h-7.2l0.7-26.4h86.7l0.7,26.4H744
				l-11.9-18.5H716.9z"/>
			<path class="st0" d="M802.2,1866.2v4.3l-15.9,8c-4.2,0-8.5-4.7-8.5-7.6c0,0-5.9,7.2-15,7.7c-9.6,0.5-19.4-2.2-20.2-14.7
				c-0.8-12.6,12.5-16.4,14.8-17.2l20.2-6.4v-3.8c0-13-7.1-15-13.3-15c-1.3,0-2.5,0.5-2.5,0.5l-4.3,11h-11.7v-11.4
				c2.5-2.1,10.1-6.7,20.2-6.7c23.5,0,30.1,13.5,30.1,23.4v26.5C796.2,1867.9,802.2,1866.2,802.2,1866.2z M777.8,1865.4v-19.7
				l-10.6,3.9c-5.3,2-7,6.6-6.4,11.9c0.7,6.2,2.9,8.7,9.2,8.3C775.6,1869.4,777.8,1865.4,777.8,1865.4z"/>
			<path class="st0" d="M803.8,1907.3v-19h10.4l3.3,7.9c2.9,0,5.1-0.7,7.6-5.8l7-14.2l-24.3-50.4l-8.1-5.3v-3.9H835v3.9l-7.6,4.5
				l14.6,29.9c0,0,10-21.3,13.7-29.7l-9.6-4.7v-3.9h29.8v3.9l-10.1,5.3l-30.6,66.6C826,1910.2,810.2,1906.9,803.8,1907.3z"/>
			<path class="st0" d="M901.6,1778.8v89.3l9.7,5.3v3.9H874v-3.9l9.8-5.3v-77.5l-10.1-5.3v-3.9L901.6,1778.8z"/>
			<path class="st0" d="M976.2,1848.2c-0.7,17.7-15.2,31.5-32.3,30.9c-16.8-0.8-30.1-15.9-29.3-33.5c0.7-17.7,15.2-31.6,32.3-30.7
				C964,1815.5,977,1830.4,976.2,1848.2z M958.1,1844.3c-0.4-14-5.8-23-14.6-21c-8.7,2-11.6,12.7-10.8,26.8
				c0.8,13.4,5.1,21.7,14.7,20.6C956.1,1869.8,958.9,1858.1,958.1,1844.3z"/>
			<path class="st0" d="M1035.4,1818.8v15.1h-11.8l-6.3-6.7c-4.6,0.4-9.6,6.7-9.6,6.7v34.1l11.9,5.3v3.9h-39.9v-3.9l9.6-5.3
				l-0.1-38.9l-9.7-5.8v-3.9l26.3-2.8l2,10.9c0,0,7.2-9.2,8.8-10.1C1023.6,1813,1035.4,1817.2,1035.4,1818.8z"/>
			<path class="st0" d="M1080.1,1877.2v-5.3l10.4-5.3v-75.9l-10.4-5.3v-5.3h43.1c21.4,0,33.2,8.1,34.1,23.2
				c0.8,12.5-8.8,21.3-17.9,21.9c12.6,1,22.6,12.7,22.6,25.5c0,13.4-10.4,26.3-25.3,26.3h-56.6V1877.2z M1137.4,1803.8
				c-0.8-12.7-8.4-17.3-21.7-17.3h-5.6v37.8h5.4C1131.7,1824.3,1138.1,1814.5,1137.4,1803.8z M1141.3,1850.8
				c0-9.8-7.2-21.1-22.8-21.1h-8.3v39.9h13C1133.9,1869.6,1141.3,1861.1,1141.3,1850.8z"/>
			<path class="st0" d="M1193.8,1778.8v89.3l9.7,5.3v3.9h-37.3v-3.9l9.8-5.3v-77.5l-10.1-5.3v-3.9L1193.8,1778.8z"/>
			<path class="st0" d="M1268.5,1866.2v4.3l-15.9,8c-4.2,0-8.5-4.7-8.5-7.6c0,0-5.9,7.2-15,7.7c-9.6,0.5-19.4-2.2-20.2-14.7
				c-0.8-12.6,12.5-16.4,14.8-17.2l20.2-6.4v-3.8c0-13-7.1-15-13.3-15c-1.3,0-2.5,0.5-2.5,0.5l-4.3,11h-11.7v-11.4
				c2.5-2.1,10.1-6.7,20.2-6.7c23.5,0,30.1,13.5,30.1,23.4v26.5C1262.5,1867.9,1268.5,1866.2,1268.5,1866.2z M1244.1,1865.4v-19.7
				l-10.6,3.9c-5.3,2-7,6.6-6.4,11.9c0.7,6.2,2.9,8.7,9.2,8.3C1241.8,1869.4,1244.1,1865.4,1244.1,1865.4z"/>
			<path class="st0" d="M1325.6,1834.7l-11.2-0.1l-4.9-10.9c-15,0.9-19,16.7-17.3,26.9c1.6,9.7,9.5,17.7,17.3,18.6
				c11,1.3,15.4-6.2,15.4-6.2l1.4,4.6c0,0-5.4,9.3-18.5,10.6c-15.2,1.6-33-7-34.7-27.8c-2-24.6,19.4-35.3,32-35.6
				c10.4-0.3,18.3,5.3,20.6,7L1325.6,1834.7z"/>
			<path class="st0" d="M1367.4,1873.3v3.9h-37.7v-3.9l9.7-5.3v-77.5l-9.7-5.4v-3.9l28.1-2.5v61.1l2.5-0.7l17.2-15.6l-7.6-3v-3.9
				h32.8v3.9l-8.3,2.9l-18.3,13.5l23.2,29.7l8.4,6.7v3.9h-36v-3.9l6.8-5.3l-17.6-22.7h-3.3v22.7L1367.4,1873.3z"/>
		</g>
	</g>
</g>
</svg>
