<?xml version="1.0" encoding="utf-8"?>
<!-- Generator: Adobe Illustrator 23.0.0, SVG Export Plug-In . SVG Version: 6.00 Build 0)  -->
<svg version="1.1" xmlns="http://www.w3.org/2000/svg" xmlns:xlink="http://www.w3.org/1999/xlink" x="0px" y="0px"
	 viewBox="0 0 2276 1623" style="enable-background:new 0 0 2276 1623;" xml:space="preserve">
<style type="text/css">
	.st0{fill:#111111;}
	.st1{fill:#DFDBCF;}
	.st2{fill:#EDA447;}
	.st3{fill:#002E2D;}
	.st4{fill:#1A1A1A;}
	.st5{fill:#EB6931;}
	.st6{fill:none;stroke:#EDA447;stroke-width:19;stroke-miterlimit:10;}
	.st7{clip-path:url(#SVGID_2_);fill:#002E2D;}
	.st8{clip-path:url(#SVGID_2_);fill:none;stroke:#002E2D;stroke-width:1.3905;}
	.st9{clip-path:url(#SVGID_4_);fill:#DFDBCF;}
	.st10{clip-path:url(#SVGID_6_);fill:#DFDBCF;}
	.st11{clip-path:url(#SVGID_8_);fill:#DFDBCF;}
	.st12{clip-path:url(#SVGID_10_);fill:#EDA447;}
	.st13{clip-path:url(#SVGID_10_);fill:#EB6931;}
	.st14{fill:#FFFFFF;}
	.st15{fill:#EB6931;stroke:#F2F2F2;stroke-width:14;stroke-miterlimit:10;}
	.st16{fill:#6D6D6D;}
	.st17{opacity:0.37;fill:#C94E23;}
</style>
<g id="Layer_1">
	<g>
		<g>
			<path class="st14" d="M245.5,141.7c75.5,0,105.8,46.4,105.8,98.5c0,46.4-32.5,102.8-98.7,102.8h-82.9v-9.5l20.5-7.4V158.3
				l-20.5-7.1v-9.5H245.5z M316.9,238.5c0-52.6-30-86.2-85.6-86.2h-8.5v178.6h15.8C285.3,330.9,316.9,285.4,316.9,238.5z"/>
			<path class="st14" d="M362.3,389.6c7.4-0.8,22.1-2.7,22.1-28.4V235.5l-20.2-4.6V224l47.5-7.1v141.8c0,28.9-25.1,43.9-49.6,34.6
				L362.3,389.6z M395.9,194.8c9.3,0,17.5-7.9,17.5-17.5c0-9.3-8.2-17.5-17.5-17.5c-9.5,0-17.5,8.2-17.5,17.5
				C378.4,186.9,386.3,194.8,395.9,194.8z"/>
			<path class="st14" d="M549.2,325.2v6.8l-28.6,12.8c-8.7,0-15.5-10.1-15.5-16.4c0,0-14.7,17.5-37.1,17.5
				c-19.9,0-36.3-10.6-36.8-30.8c-0.5-20.7,10.9-30.8,26.7-35.7c15-4.4,43.4-13.4,47.2-14.7v-7.9c0-27-13.9-35.2-26.7-33.3
				c-5.5,0.8-9,2.5-9,2.5l-9.8,22.4h-19.6c0,0,0.3-23.2,0-23.2c5.2-4.4,21.5-12.5,42.5-12.5c48.8,0,51,31.6,51.5,49.6v60
				C533.9,330.1,549.2,325.2,549.2,325.2z M505,320.3v-45.8c-9,3-19.4,6.8-28.1,10.1c-10.9,4.1-16.9,10.9-16.9,25.9
				c0,12.8,9.5,20.5,22.6,19.6C498.8,329,505,320.3,505,320.3z"/>
			<path class="st14" d="M622.1,336.1v6.8h-68.7v-6.8l20.2-6.8V156.4l-20.2-6v-6.8l48.8-5.2v129.5l4.6-1.4l39.8-37.4l-17.2-5.5v-6.8
				h54.3v6.8l-18,6.3l-34.9,29.2l47.2,67.9l19.4,9v6.8h-66v-6.8l14.2-6.8L609,276.7h-6.8v52.6L622.1,336.1z"/>
			<path class="st14" d="M818.2,325.2v6.8l-28.6,12.8c-8.7,0-15.5-10.1-15.5-16.4c0,0-14.7,17.5-37.1,17.5
				c-19.9,0-36.3-10.6-36.8-30.8c-0.5-20.7,10.9-30.8,26.7-35.7c15-4.4,43.4-13.4,47.2-14.7v-7.9c0-27-13.9-35.2-26.7-33.3
				c-5.5,0.8-9,2.5-9,2.5l-9.8,22.4h-19.6c0,0,0.3-23.2,0-23.2c5.2-4.4,21.5-12.5,42.5-12.5c48.8,0,51,31.6,51.5,49.6v60
				C803,330.1,818.2,325.2,818.2,325.2z M774,320.3v-45.8c-9,3-19.4,6.8-28.1,10.1c-10.9,4.1-16.9,10.9-16.9,25.9
				c0,12.8,9.5,20.5,22.6,19.6C767.8,329,774,320.3,774,320.3z"/>
			<path class="st14" d="M924.6,221.6v24h-20.2l-10.4-14.5c-9.5,0.8-22.6,15-22.6,15V329l24.8,7.1v6.8h-73.4v-6.8l19.9-7.1
				l-0.3-93.5l-20.2-5.7v-6.8l45-5.7l4.1,19.9c0,0,15-16.6,18.3-18.3C903.4,209.6,924.6,218.3,924.6,221.6z"/>
			<path class="st14" d="M948.7,229.2h-18.5v-12.3c0,0,14.5-1.4,22.6-9c9.8-9.3,14.5-22.4,14.5-22.4h10.4v31.4h22.9v12.3h-22.9v86.2
				c0,21,22.6,16.4,22.6,16.4v7.4c0,0-12.5,5.2-22.9,5.2c-24.8,0-28.6-14.5-28.6-31.4V229.2z"/>
			<path class="st14" d="M1128.2,325.2v6.8l-28.6,12.8c-8.7,0-15.5-10.1-15.5-16.4c0,0-14.7,17.5-37.1,17.5
				c-19.9,0-36.3-10.6-36.8-30.8c-0.5-20.7,10.9-30.8,26.7-35.7c15-4.4,43.4-13.4,47.2-14.7v-7.9c0-27-13.9-35.2-26.7-33.3
				c-5.5,0.8-9,2.5-9,2.5l-9.8,22.4h-19.6c0,0,0.3-23.2,0-23.2c5.2-4.4,21.5-12.5,42.5-12.5c48.8,0,51,31.6,51.5,49.6v60
				C1112.9,330.1,1128.2,325.2,1128.2,325.2z M1084,320.3v-45.8c-9,3-19.4,6.8-28.1,10.1c-10.9,4.1-16.9,10.9-16.9,25.9
				c0,12.8,9.5,20.5,22.6,19.6C1077.7,329,1084,320.3,1084,320.3z"/>
		</g>
		<g>
			<path class="st14" d="M422.4,504.7l-2.4,10.9l-17.7,10.9l-34,157.1l22.6,10.9l-2.2,10.9h-85.6l2.2-10.9l26.4-10.9l28.5-132.9
				L277,694.2h-17.1l-28.5-130.8l-25.8,120.2l27.7,10.9l-2.7,10.9h-74.2l2.2-10.9l27.5-10.6l34-157.4l-16-10.9l2.4-10.9h50.3
				l29.1,139.2l80.5-139.2H422.4z"/>
			<path class="st14" d="M536.9,680.9l-37.5,27.2c-20.1,0-24.2-10.6-23.1-23.1c-9.8,10.1-26.6,23.9-42.4,22
				c-21.5-2.4-33.2-21.5-30.2-45.9c6.8-57.1,56.8-80.7,71.5-82.4c13.9-1.4,20.4,4.1,23.4,7.9l17.7-6.8H532l-20.7,96.5
				c-2.4,10.3,7.1,9.2,20.9-0.8L536.9,680.9z M478.5,672.5l16.3-78.8c-1.9-2.2-4.6-3.5-8.4-3.8c-13.6-0.5-44,13.9-47.8,64.4
				c-1.4,18.2,4.3,29.9,14.7,30.2C460.8,684.7,470.3,679,478.5,672.5z"/>
			<path class="st14" d="M674.1,594.5c-0.8,3.3-4.6,11.4-10.3,23.1c-24.5,52.5-89.4,150.6-115.5,150.3
				c-23.1-0.3-26.1-32.9-26.1-32.9h11.4c10.3,18.2,29.6,8.2,37.8,0c7.6-7.6,14.1-15.5,19.6-22.8l-26.1-103.3
				c-3.3-12.5-6-9.2-19.8,0.8l-4.6-5.4l34.8-27.2c19.8,0,19.8,10.3,22.8,22.8l18.8,75.3c14.7-22.6,25.8-48.1,32.1-61.7l-1.9-21.7
				c0.5-7.6,7.3-13.6,14.7-13.6c6,0,12.8,3.3,12.8,13.6C674.4,592.8,674.1,594.5,674.1,594.5z"/>
			<path class="st14" d="M798.7,680.9l-37.5,27.2c-20.1,0-24.2-10.6-23.1-23.1c-9.8,10.1-26.6,23.9-42.4,22
				c-21.5-2.4-33.2-21.5-30.2-45.9c6.8-57.1,56.8-80.7,71.5-82.4c13.9-1.4,20.4,4.1,23.4,7.9l17.7-6.8h15.8l-20.7,96.5
				c-2.4,10.3,7.1,9.2,20.9-0.8L798.7,680.9z M740.2,672.5l16.3-78.8c-1.9-2.2-4.6-3.5-8.4-3.8c-13.6-0.5-44,13.9-47.8,64.4
				c-1.4,18.2,4.3,29.9,14.7,30.2C722.5,684.7,732.1,679,740.2,672.5z"/>
			<path class="st14" d="M947.7,588.2l-34.3,10.6c4.3,8.7,5.4,20.1,2.4,32.1c-6.5,29.4-34.8,54.1-62.3,54.4c-6-0.3-9.5-0.8-12.8-2.2
				l-1.9,4.3l40,6.5c22.6,3.8,29.4,16.3,29.6,29.6c0.5,20.1-20.4,49.2-79.7,44.9c-45.7-3.3-47.6-36.2-43.8-47.8l32.6-8.2l-11.4-9.8
				l0.5-4.1l24.2-20.4c-15.5-10.3-20.9-27.2-16-47.3c6.3-29.9,34.8-54.4,62.8-54.4c13.6,0,24.5,6,31.5,15.2c5.4-4.3,9-9,9-13.3h31.5
				L947.7,588.2z M829.7,717.6c-3.5,1.1-20.9,3-20.1,17.9c0.5,10.9,13.3,16.3,24.7,17.7c38.1,4.1,61.2-22.6,31.3-28.5L829.7,717.6z
				 M872.4,592c-12.5,0.8-20.7,19.6-24.5,41.3c-3.8,21.5,3,35.1,12.5,34.5c12.2-0.8,19.8-19.3,22.6-41.3
				C885.7,605.1,881.1,591.5,872.4,592z"/>
			<path class="st14" d="M1078.7,680.9l-37.5,27.2c-15.8,0-21.7-6.5-22.8-15.5c-7.3,6.8-16.6,13-26.9,14.7
				c-14.4,2.2-54.4,0.5-43.8-48.9l10.6-49.5c2.4-10.3-6.8-9.2-20.7,0.8l-4.6-5.4l37.5-27.2c25.8,0,25,17.1,21.2,34.3l-10.1,47.3
				c-5.2,24.5,2.4,34,17.4,32.3c6.8-0.8,13.9-4.9,19.3-9.2l0.3-1.6l1.4-6.3l19-90l35.6-4.1l-21.2,96.5c-2.4,10.3,6.5,9.2,20.7-0.8
				L1078.7,680.9z M975.7,535.5c0-10.3,8.4-19,19-19c10.1,0,19,8.7,19,19c0,10.1-9,19-19,19C984.1,554.5,975.7,545.5,975.7,535.5z
				 M1034.6,535.5c0-10.3,8.4-19,18.8-19c10.6,0,19.3,8.7,19.3,19c0,10.1-8.7,19-19.3,19C1043.1,554.5,1034.6,545.5,1034.6,535.5z"
				/>
			<path class="st14" d="M1201.8,667c0,0-34,37.8-46.5,40.8c-54.4,8.4-68.8-39.4-62.8-66.6c8.7-40.8,44.6-68.2,78.3-64.2
				c23.9,3,27.2,17.9,25.8,26.1c-4.6,32.4-46.8,42.4-70.4,50c-0.5,20.1,14.4,39.1,29.9,37.2c7.3,0,39.4-25.8,39.4-25.8L1201.8,667z
				 M1127.1,642.3l13.9-5.7c11.1-5.2,23.9-14.1,26.9-26.4c3.5-14.1-0.5-23.1-8.7-22c-9.2,1.4-19,14.4-25.8,31.8
				C1129.3,628.7,1127.3,642,1127.1,642.3z"/>
			<path class="st14" d="M1303.8,665.7h10.3l-16.3,40.8c-1.1,3-17.9-2.7-35.3-8.4c-12.2-4.1-31.5,4.1-36.7,7.3h-17.1
				c34.5-44.9,55.2-72.9,68.5-90.5c-4.3,1.1-9.2,1.4-12,1.6c-23.1,1.1-32.6-4.9-34.5-2.4c-2.2,2.2-3.8,5.4-3.8,5.4h-10.3l16.3-40.8
				c1.1-3,20.1,4.9,35.3,8.4c14.4,3.3,31.5-4.1,36.7-7.3h16.9l-69.3,90.8c4.6-1.4,9.8-1.9,12.8-1.9c23.4,0,32.6,4.9,34.8,2.4
				C1302.2,668.9,1303.8,665.7,1303.8,665.7z"/>
		</g>
		<g>
			<path class="st14" d="M369.7,867.2v8.2l-30.7,5.4v187h-7.9L210.9,894.6v159.6l30.7,5.4v8.2h-74.8v-8.2l30.4-5.4V880.8l-17.9-5.4
				v-8.2h35.9l110.4,159.3l-0.5-145.7l-30.4-5.4v-8.2H369.7z"/>
			<path class="st14" d="M426.1,1061v6.8h-56.3v-6.8l20.7-4.3v-98.4l-19.8-1.9v-7.1l35.3-7.1v114.4L426.1,1061z M384.2,902
				c0-6.5,5.7-12.2,12-12.2c6.8,0,12.5,5.7,12.5,12.2s-5.7,12.2-12.5,12.2C389.9,914.2,384.2,908.5,384.2,902z"/>
			<path class="st14" d="M527.2,1051.2l2.2,6.8c0-0.3-18.2,13-41.6,12.5c-42.1-1.4-59.5-36.2-59-65.2c0.5-37.5,26.4-65.2,55.7-66.3
				c37.2-1.4,51.1,29.6,51.1,52.2h-88.9c-4.9,51.4,24.7,68.5,48.4,68.2C516.1,1059.1,527.2,1051.2,527.2,1051.2z M448.1,983.5
				l69.1-3c0,0-2.7-35.3-33.2-32.4C456.6,950.9,448.1,983.5,448.1,983.5z"/>
			<path class="st14" d="M677.8,1053.1v6.8l-35.6,9.2v-17.7c-8.2,5.7-27.5,18.2-32.4,18.2c-14.7,0-45.9,1.1-45.9-49.2v-63.3
				l-20.1-3.5v-6.8l36.4-5.7v79.9c0,32.6,16.9,37.2,33.2,35.3c10.6-1.4,28.8-11.7,28.8-11.7v-87.3l-19.6-3.8v-6.8l35.9-5.7v110.4
				L677.8,1053.1z"/>
			<path class="st14" d="M768.9,1067.8v-8.2l18.8-5.4V880.8l-18.8-5.4v-8.2h70.7c44.3,0,66.3,16.9,66.3,48.1c0,25.8-18.2,44-37,45.4
				c26.1,2.2,48.1,24.7,48.1,52.7c0,27.7-21.2,54.4-52.2,54.4H768.9z M885.5,915.8c0-31.8-23.4-39.7-50.8-39.7h-28v80.7h30.2
				C873,956.9,885.5,939.5,885.5,915.8z M896.7,1015.9c0-29.9-15.8-48.4-56.8-48.4h-33.2v89.4h47.8
				C883.6,1056.9,896.7,1040.3,896.7,1015.9z"/>
			<path class="st14" d="M1014.4,946.8v17.4h-12.5l-7.6-11.1c-10.1-0.3-28.8,18.2-28.8,18.2v85.4l24.7,4.3v6.8h-60.4v-6.8l19.8-4.3
				l-0.3-98.7l-20.1-3v-6.8l31.5-5.7l4.6,19.8c0,0,12.5-13.6,15.2-16.3C993.7,933.8,1014.4,943.6,1014.4,946.8z"/>
			<path class="st14" d="M1156.6,1053.1v6.8l-35.6,9.2v-17.7c-8.2,5.7-27.5,18.2-32.4,18.2c-14.7,0-45.9,1.1-45.9-49.2v-63.3
				l-20.1-3.5v-6.8l36.4-5.7v79.9c0,32.6,16.9,37.2,33.2,35.3c10.6-1.4,28.8-11.7,28.8-11.7v-87.3l-19.6-3.8v-6.8l35.9-5.7v110.4
				L1156.6,1053.1z"/>
			<path class="st14" d="M1299.9,1061v6.8h-57.1v-6.8l20.7-4.1v-24.7v-47.3c0-32.9-24.7-34.3-37.2-30.4l-26.1,8.2v94.3l20.1,4.1v6.8
				h-56.8v-6.8l20.4-4.1v-99l-17.9-3v-6.8l29.4-6l4.9,15.2l21.7-11.4c24.2-13,57.9-2.2,57.9,38.1c0,18.5,0.3,58.2,0,72.9
				L1299.9,1061z"/>
			<path class="st14" d="M1395,1033.8c0,10.9-5.7,37.2-43.5,37.5c-19.6,0.3-38.3-9.5-43-13.3c0.3-0.5,0-21.2,0-21.2h12.5l6.8,19
				c33.7,17.9,53-4.3,51.1-21.7c-3.3-24.2-35.9-20.9-56-36.2c-15.5-11.7-15.5-24.2-14.7-30.2c2.7-21.2,21.7-29.1,44.9-29.1
				c17.9,0,30.2,7.1,35.9,13.6c-0.3,0-0.3,16-0.3,16h-11.7l-10.6-19.6c-19.6-6.5-45.7,2.4-42.7,23.4c1.6,13,19,19,32.9,23.9
				C1367.3,999.6,1394.8,1005,1395,1033.8z"/>
			<path class="st14" d="M1587.8,942.2v6.8l-16,3.8l-37.5,115.8h-4.3l-34.5-86.4l-35.3,86.4h-4.6l-41.6-115.5l-17.7-4.1v-6.8h53.6
				v6.8l-17.7,4.1l28.8,84.8l28.8-70.1l-6-14.7l-18.2-4.1v-6.8h53v6.8l-17.4,4.1l33.2,82.6l25.8-82.9L1543,949v-6.8H1587.8z"/>
			<path class="st14" d="M1729.5,942.2v6.8l-16.6,3.8l-65.5,153.1c-15.8,30.7-45.4,20.9-45.4,20.9v-22.6h10.9l9.5,10.3
				c0,0,6.5-0.8,11.4-9.2l19-40.5l-42.7-112l-18.2-3.8v-6.8h55.2v6.8l-18.8,3.8l34,91.3l37-91.3l-18.5-3.8v-6.8H1729.5z"/>
			<path class="st14" d="M1849.7,1061v6.8h-54.9v-6.8l16-4.1l-44.9-55.2h-4.1v55.2l19.8,4.1v6.8h-56.3v-6.8l20.1-4.1V880.5
				l-20.1-4.3v-6.8l36.4-5.2v131.6h3.3l42.7-42.7l-15.2-4.1v-6.8h48.7v6.8l-15,4.1l-46.2,40.5l50,63.1L1849.7,1061z"/>
		</g>
		<g>
			<path class="st14" d="M350.9,1362v41.3c0,0-28,29.9-72.3,29.9c-53.8,0-106.3-36.4-106.3-103c0-65.5,53.8-104.4,111.2-104.4
				c22.6,0,43.2,7.1,62.8,19c-0.3,0,0,39.4,0,39.4h-21.2l-22.8-38.9c-69.6-6.8-86.2,50.8-86.2,84c0,45.4,26.9,78.8,66.6,81
				c9.5,0.5,19.3-1.1,28.3-3.8l15.5-44.6H350.9z"/>
			<path class="st14" d="M526.6,1422.1v8.2h-78.3v-8.2l20.4-10.9v-65c0-20.9-12.2-29.1-25.8-24.7l-21.7,6.8v82.9l20.1,10.9v8.2h-78
				v-8.2l20.1-10.9l-0.5-160.4l-17.7-12v-7.1l55.7-5.4v91.3l22.3-12.5c19.8-11.1,63.6,2.2,63.6,39.1v66.9L526.6,1422.1z"/>
			<path class="st14" d="M658.5,1407.4v9l-32.9,16.6c-8.7,0-17.7-9.8-17.7-15.8c0,0-12.2,15-31,16c-19.8,1.1-40.2-4.6-41.9-30.4
				c-1.6-26.1,25.8-34,30.7-35.6l41.9-13.3v-7.9c0-26.9-14.7-31-27.5-31c-2.7,0-5.2,1.1-5.2,1.1l-9,22.8h-24.2v-23.7
				c5.2-4.3,20.9-13.9,41.9-13.9c48.7,0,62.3,28,62.3,48.4v54.9C646,1410.9,658.5,1407.4,658.5,1407.4z M607.9,1405.8V1365l-22,8.2
				c-10.9,4.1-14.4,13.6-13.3,24.7c1.4,12.8,6,17.9,19,17.1C603.3,1413.9,607.9,1405.8,607.9,1405.8z"/>
			<path class="st14" d="M898,1422.1v8.2h-73.4v-8.2l17.9-10.9v-16.6v-47.3c0-23.4-9.2-30.4-23.4-24.7c-10.1,3.8-16.3,8.2-18.2,9.5
				c0.3,1.9,0.3,3.5,0.3,5.4v73.7l17.4,10.9v8.2h-73.1v-8.2l17.7-10.6v-16.9v-47.3c0-23.4-6.3-30.4-21.7-24.7
				c-12.5,4.6-19,10.1-19,10.1v78.8l17.1,10.6v8.2h-72.6v-8.2l17.4-10.6v-80.7l-17.7-12v-8.2l51.1-6l4.3,16.6c0,0,4.1-2.4,19.8-12.5
				c17.7-11.1,48.4-12.2,56.8,13.3c3-1.9,9.8-6,20.9-13.3c19-13,60.9-12.2,60.9,28.8v73.7L898,1422.1z"/>
			<path class="st14" d="M1029.6,1370.2c-1.4,36.7-31.5,65.2-66.9,63.9c-34.8-1.6-62.3-32.9-60.6-69.3c1.4-36.7,31.5-65.5,66.9-63.6
				C1004.4,1302.5,1031.3,1333.2,1029.6,1370.2z M992.1,1362c-0.8-29.1-12-47.6-30.2-43.5c-17.9,4.1-23.9,26.4-22.3,55.5
				c1.6,27.7,10.6,44.9,30.4,42.7C988.1,1414.7,993.8,1390.6,992.1,1362z"/>
			<path class="st14" d="M1193.1,1422.1v8.2h-73.4v-8.2l17.9-10.9v-16.6v-47.3c0-27.5-9.8-29.9-22.3-26.1
				c-12.8,4.1-22.6,8.2-22.6,8.2v81.8l17.4,10.9v8.2h-73.1v-8.2l17.7-10.6v-80.7l-17.9-12v-8.2l47.6-6l8.4,15.2l19.8-12.5
				c24.2-13,63.1-0.5,63.1,37.8c0,15.8,0.3,47.8,0,66.1L1193.1,1422.1z"/>
			<path class="st14" d="M1282.8,1422.1v8.2H1204v-8.2l20.7-10.6v-80.7l-19.8-10.9v-8.2l57.9-7.1v106.6L1282.8,1422.1z M1219,1262.2
				c0-11.4,9.8-21.7,22-21.7c11.4,0,21.7,10.3,21.7,21.7c0,12.2-10.3,22-21.7,22C1228.8,1284.3,1219,1274.5,1219,1262.2z"/>
			<path class="st14" d="M1425.8,1422.1v8.2h-65.5v-8.2l10.9-10.1l-18.8-25.8l-20.9,25.8l13.9,10.1v8.2h-53v-8.2l20.1-12.2l30.2-37
				l-35.9-49.5l-13.9-10.6v-8.2h63.9v8.2l-9.5,9.2l17.4,23.9l19.8-24.2l-13.6-9v-8.2h49.5v8.2l-16.3,10.1l-29.6,36.4l37.8,52.2
				L1425.8,1422.1z"/>
		</g>
		<line class="st15" x1="1166" y1="224" x2="2158" y2="224"/>
		<line class="st15" x1="1380" y1="582" x2="2158" y2="582"/>
		<line class="st15" x1="1480" y1="1311" x2="2158" y2="1311"/>
		<line class="st15" x1="1893" y1="947" x2="2158" y2="947"/>
		<g>
			<path class="st14" d="M2105.3,269.4v-1l2.2-0.8v-16.6l-2.2-0.8v-1h7.8c4.5,0,7,1.7,7.2,4.8c0.2,2.6-1.9,4.4-3.8,4.6
				c2.6,0.2,4.7,2.6,4.7,5.3c0,2.8-2.2,5.5-5.3,5.5H2105.3z M2116.9,254.1c-0.2-2.6-1.7-3.9-4.5-3.9h-1.8v8h1.8
				C2115.7,258.3,2117,256.3,2116.9,254.1z M2117.8,264.2c0-2.1-1.4-4.8-4.5-4.8h-2.7v8.8h3.7
				C2116.4,268.1,2117.8,266.3,2117.8,264.2z"/>
			<path class="st14" d="M2134.8,264.2c-0.6,3.7-3.8,6.1-7.4,5.3c-3.4-0.7-5.5-4.3-4.7-7.9c0.7-3.5,4.1-5.8,7.4-5
				C2133.4,257.2,2135.4,260.6,2134.8,264.2z M2132,262.6c-0.1-2.9-1.3-4.9-3.6-4.7c-2.2,0.3-3,2.5-2.9,5.4c0.1,3,1.1,5.2,3.6,4.9
				C2131.2,267.9,2132,265.6,2132,262.6z"/>
			<path class="st14" d="M2140.2,248.9V268l2,0.7v0.7h-6.9v-0.7l2-0.7v-17.3l-2.1-0.6v-0.7L2140.2,248.9z"/>
			<path class="st14" d="M2156.4,267.6v1l-4.8,0.8h0v-1.3c0,0-0.8,1.2-2.5,1.4c-2.8,0.4-5.9-1.4-6.2-5.4c-0.4-4.7,2.4-7.5,6.2-7.3
				c0.8,0,2.5,0.8,2.5,0.8l0-6.5l-2-0.6v-1l4.8-0.5v18.3l0,0L2156.4,267.6z M2151.6,258.3c0,0-1.7-0.4-2.5-0.4
				c-2.2,0-3.5,2.9-3.2,6.2c0.3,2.8,1.7,4.1,3.5,4c1.5-0.1,2.1-1.4,2.1-1.4V258.3z"/>
		</g>
		<g>
			<path class="st14" d="M2031.6,630.4v-1l2.2-0.8v-16.6l-2.2-0.8v-1h7.8c4.5,0,7,1.7,7.2,4.8c0.2,2.6-1.9,4.4-3.8,4.6
				c2.6,0.2,4.7,2.6,4.7,5.3c0,2.8-2.2,5.5-5.3,5.5H2031.6z M2043.2,615.1c-0.2-2.6-1.7-3.9-4.5-3.9h-1.8v8h1.8
				C2042,619.3,2043.3,617.3,2043.2,615.1z M2044.1,625.2c0-2.1-1.4-4.8-4.5-4.8h-2.7v8.8h3.7
				C2042.7,629.1,2044.1,627.3,2044.1,625.2z"/>
			<path class="st14" d="M2053.3,609.9V629l2,0.7v0.7h-6.9v-0.7l2-0.7v-17.3l-2.1-0.6v-0.7L2053.3,609.9z"/>
			<path class="st14" d="M2068.4,628.6v0.7l-2.9,1.3c-0.9,0-1.6-1-1.6-1.6c0,0-1.5,1.7-3.7,1.7c-2,0-3.6-1.1-3.7-3.1
				c-0.1-2.1,1.1-3.1,2.7-3.6c1.5-0.4,4.3-1.3,4.7-1.5v-0.8c0-2.7-1.4-3.5-2.7-3.3c-0.5,0.1-0.9,0.2-0.9,0.2l-1,2.2h-2
				c0,0,0-2.3,0-2.3c0.5-0.4,2.2-1.3,4.3-1.3c4.9,0,5.1,3.2,5.2,5v6C2066.9,629.1,2068.4,628.6,2068.4,628.6z M2064,628.1v-4.6
				c-0.9,0.3-1.9,0.7-2.8,1c-1.1,0.4-1.7,1.1-1.7,2.6c0,1.3,1,2,2.3,2C2063.3,629,2064,628.1,2064,628.1z"/>
			<path class="st14" d="M2079.2,620.9l-1.6,0l-1.4-2.1c-2.9-0.4-4.9,3-4.4,6.3c0.4,2.5,2.5,3.9,4.4,4c2.2,0.1,3.4-1,3.4-1l0,0.6
				c0,0-1.1,1.7-3.7,1.9c-2.6,0.2-6.6-1.3-7-5.9c-0.4-4.6,3.5-7.3,6.4-7.3c2.1,0,3.4,0.7,3.9,1L2079.2,620.9z"/>
			<path class="st14" d="M2086.8,629.7v0.7h-6.9v-0.7l2-0.7v-17.3l-2-0.6v-0.7l4.9-0.5v13l0.5-0.1l4-3.7l-1.7-0.5v-0.7h5.4v0.7
				l-1.8,0.6l-3.5,2.9l4.7,6.8l1.9,0.9v0.7h-6.6v-0.7l1.4-0.7l-3.7-5.3h-0.7v5.3L2086.8,629.7z"/>
			<path class="st14" d="M2107.4,611.9v16.7l2.5,0.7v1h-8.1v-1l2.5-0.7v-16.7l-2.5-0.7v-1h8.1v1L2107.4,611.9z"/>
			<path class="st14" d="M2112.1,619h-1.9v-1.2c0,0,1.4-0.1,2.3-0.9c1-0.9,1.4-2.2,1.4-2.2h1v3.1h2.3v1.2h-2.3v8.6
				c0,2.1,2.3,1.6,2.3,1.6v0.7c0,0-1.3,0.5-2.3,0.5c-2.5,0-2.9-1.4-2.9-3.1V619z"/>
			<path class="st14" d="M2130.6,628.6v0.7l-2.9,1.3c-0.9,0-1.6-1-1.6-1.6c0,0-1.5,1.7-3.7,1.7c-2,0-3.6-1.1-3.7-3.1
				c-0.1-2.1,1.1-3.1,2.7-3.6c1.5-0.4,4.3-1.3,4.7-1.5v-0.8c0-2.7-1.4-3.5-2.7-3.3c-0.5,0.1-0.9,0.2-0.9,0.2l-1,2.2h-2
				c0,0,0-2.3,0-2.3c0.5-0.4,2.2-1.3,4.3-1.3c4.9,0,5.1,3.2,5.2,5v6C2129,629.1,2130.6,628.6,2130.6,628.6z M2126.1,628.1v-4.6
				c-0.9,0.3-1.9,0.7-2.8,1c-1.1,0.4-1.7,1.1-1.7,2.6c0,1.3,1,2,2.3,2C2125.5,629,2126.1,628.1,2126.1,628.1z"/>
			<path class="st14" d="M2136.2,609.9V629l2,0.7v0.7h-6.9v-0.7l2-0.7v-17.3l-2.1-0.6v-0.7L2136.2,609.9z"/>
			<path class="st14" d="M2146.2,629.7v0.7h-6.9v-0.7l2.1-0.7v-9.4l-2-0.5v-0.7l4.8-0.7V629L2146.2,629.7z M2140.8,613.8
				c0-0.9,0.8-1.7,1.7-1.7c0.9,0,1.7,0.8,1.7,1.7c0,1-0.8,1.7-1.7,1.7C2141.6,615.6,2140.8,614.8,2140.8,613.8z"/>
			<path class="st14" d="M2156.9,620.9l-1.6,0l-1.4-2.1c-2.9-0.4-4.9,3-4.4,6.3c0.4,2.5,2.5,3.9,4.4,4c2.2,0.1,3.4-1,3.4-1l0,0.6
				c0,0-1.1,1.7-3.7,1.9c-2.6,0.2-6.6-1.3-7-5.9c-0.4-4.6,3.5-7.3,6.4-7.3c2.1,0,3.4,0.7,3.9,1L2156.9,620.9z"/>
		</g>
		<g>
			<path class="st14" d="M2110.4,990.7l-1,5.7h-13.8v-1l2-0.7v-16.8l-2.2-0.7v-1h7.7v1l-2.2,0.7v17h5.6l2.8-4.3H2110.4z"/>
			<path class="st14" d="M2118.3,995.7v0.7h-6.9v-0.7l2.1-0.7v-9.4l-2-0.5v-0.7l4.8-0.7V995L2118.3,995.7z M2112.9,979.8
				c0-0.9,0.8-1.7,1.7-1.7c0.9,0,1.7,0.8,1.7,1.7c0,1-0.8,1.7-1.7,1.7C2113.7,981.6,2112.9,980.8,2112.9,979.8z"/>
			<path class="st14" d="M2124,1002.4c-5-0.3-6.1-4.3-5.8-4.9l2.8-1.3l-1.4-1.6v-0.2l2.2-1.8c-1.6-1-2.4-2.5-2.4-4.2
				c0-2.8,2.2-5,5-5c1.4,0,2.7,0.6,3.7,1.5l0.2-1.2h2.9v0.6l-2.7,1.1c0.6,0.8,1,1.8,1,3c0,2.8-2.3,5-5.1,4.9c-0.4,0-0.8-0.1-1-0.1
				c-0.2,0-0.5-0.1-0.5-0.1l-0.3-0.1l-0.1,0.9l5.9,0.9C2133.6,995.6,2131.8,1002.9,2124,1002.4z M2127.3,997.4l-5-0.8
				c-0.2,0.2-1.3,1-1.3,2c0,1.1,0.7,2.3,3.1,2.5c2.8,0.3,4.4-0.9,4.7-1.6C2129.1,998.7,2129,997.7,2127.3,997.4z M2122.4,988.8
				c0.1,2.2,1.1,3.6,2.3,3.5c1.4-0.3,1.8-2,1.7-4.1c-0.1-2.1-1-3.6-2.2-3.5C2122.8,984.8,2122.3,986.6,2122.4,988.8z"/>
			<path class="st14" d="M2146.8,995.7v0.7h-6.9v-0.7l2-0.7V988c0-2.3-0.9-3.1-2.6-2.6l-2.7,0.7v9l2,0.7v0.7h-6.9v-0.7l2-0.7
				l-0.1-17.3l-1.8-0.6v-0.7l4.7-0.5v9.2l2.8-1.3c1.9-0.8,5.4,0.8,5.4,3.9v7.3L2146.8,995.7z"/>
			<path class="st14" d="M2148.7,985h-1.9v-1.2c0,0,1.4-0.1,2.3-0.9c1-0.9,1.4-2.2,1.4-2.2h1v3.1h2.3v1.2h-2.3v8.6
				c0,2.1,2.3,1.6,2.3,1.6v0.7c0,0-1.3,0.5-2.3,0.5c-2.5,0-2.9-1.4-2.9-3.1V985z"/>
		</g>
		<g>
			<path class="st14" d="M2095.3,1358.4v-1l2.2-0.8v-16.6l-2.2-0.8v-1h7.8c4.5,0,7,1.7,7.2,4.8c0.2,2.6-1.9,4.4-3.8,4.6
				c2.6,0.2,4.7,2.6,4.7,5.3c0,2.8-2.2,5.5-5.3,5.5H2095.3z M2106.9,1343.1c-0.2-2.6-1.7-3.9-4.5-3.9h-1.8v8h1.8
				C2105.7,1347.3,2107,1345.3,2106.9,1343.1z M2107.8,1353.2c0-2.1-1.4-4.8-4.5-4.8h-2.7v8.8h3.7
				C2106.4,1357.1,2107.8,1355.3,2107.8,1353.2z"/>
			<path class="st14" d="M2117,1337.9v19.1l2,0.7v0.7h-6.9v-0.7l2-0.7v-17.3l-2.1-0.6v-0.7L2117,1337.9z"/>
			<path class="st14" d="M2132.1,1356.6v0.7l-2.9,1.3c-0.9,0-1.6-1-1.6-1.6c0,0-1.5,1.7-3.7,1.7c-2,0-3.6-1.1-3.7-3.1
				c-0.1-2.1,1.1-3.1,2.7-3.6c1.5-0.4,4.3-1.3,4.7-1.5v-0.8c0-2.7-1.4-3.5-2.7-3.3c-0.5,0.1-0.9,0.2-0.9,0.2l-1,2.2h-2
				c0,0,0-2.3,0-2.3c0.5-0.4,2.2-1.3,4.3-1.3c4.9,0,5.1,3.2,5.2,5v6C2130.6,1357.1,2132.1,1356.6,2132.1,1356.6z M2127.7,1356.1
				v-4.6c-0.9,0.3-1.9,0.7-2.8,1c-1.1,0.4-1.7,1.1-1.7,2.6c0,1.3,1,2,2.3,2C2127,1357,2127.7,1356.1,2127.7,1356.1z"/>
			<path class="st14" d="M2142.9,1348.9l-1.6,0l-1.4-2.1c-2.9-0.4-4.9,3-4.4,6.3c0.4,2.5,2.5,3.9,4.4,4c2.2,0.1,3.4-1,3.4-1l0,0.6
				c0,0-1.1,1.7-3.7,1.9c-2.6,0.2-6.6-1.3-7-5.9c-0.4-4.6,3.5-7.3,6.4-7.3c2.1,0,3.4,0.7,3.9,1L2142.9,1348.9z"/>
			<path class="st14" d="M2150.5,1357.7v0.7h-6.9v-0.7l2-0.7v-17.3l-2-0.6v-0.7l4.9-0.5v13l0.5-0.1l4-3.7l-1.7-0.5v-0.7h5.4v0.7
				l-1.8,0.6l-3.5,2.9l4.7,6.8l1.9,0.9v0.7h-6.6v-0.7l1.4-0.7l-3.7-5.3h-0.7v5.3L2150.5,1357.7z"/>
		</g>
	</g>
</g>
<g id="Layer_2">
</g>
<g id="Layer_3">
</g>
</svg>
