<?xml version="1.0" encoding="utf-8"?>
<!-- Generator: Adobe Illustrator 23.0.0, SVG Export Plug-In . SVG Version: 6.00 Build 0)  -->
<svg version="1.1" xmlns="http://www.w3.org/2000/svg" xmlns:xlink="http://www.w3.org/1999/xlink" x="0px" y="0px"
	 viewBox="0 0 1500 2400" style="enable-background:new 0 0 1500 2400;" xml:space="preserve">
<style type="text/css">
	.st0{fill:#111111;}
	.st1{fill:#DFDBCF;}
	.st2{fill:#EDA447;}
	.st3{fill:#002E2D;}
	.st4{fill:#EB6931;}
	.st5{fill:none;stroke:#EDA447;stroke-width:19;stroke-miterlimit:10;}
	.st6{clip-path:url(#SVGID_2_);fill:#002E2D;}
	.st7{clip-path:url(#SVGID_2_);fill:none;stroke:#002E2D;stroke-width:1.3905;}
	.st8{clip-path:url(#SVGID_4_);fill:#DFDBCF;}
	.st9{clip-path:url(#SVGID_6_);fill:#DFDBCF;}
	.st10{clip-path:url(#SVGID_8_);fill:#DFDBCF;}
	.st11{clip-path:url(#SVGID_10_);fill:#EDA447;}
	.st12{clip-path:url(#SVGID_10_);fill:#EB6931;}
	.st13{fill:#1A1A1A;}
	.st14{fill:#FFFFFF;}
	.st15{fill:#EB6931;stroke:#F2F2F2;stroke-width:14;stroke-miterlimit:10;}
	.st16{fill:#6D6D6D;}
	.st17{opacity:0.37;fill:#C94E23;}
</style>
<g id="Layer_1">
</g>
<g id="Layer_2">
	<g>
		<g>
			<path class="st1" d="M880.8,487.5l14.7,4l-21.4,61.9c-17.4,29.9-93.6-20.9-141.2-15.6c-31.2,3.6-60.2,22.3-74,26.7v-32.5
				c26.3-42.8,32.5-72.2,34.3-123.4h-42.8v-28.1h43.7c0-20.1,0-43.2,0.4-70.8c0.4-45,43.7-83.3,110.9-83.8
				c49.5-0.4,80.6,23.6,93.1,33.4c-0.4,0.4-15.6,57.9-15.6,57.9h-34.8l-8.5-55.3c-50.8-23.6-97.1,2.7-101.1,61.9
				c-1.3,20.1-2.2,38.8-2.7,56.6h94.5v28.1h-95.4c-1.8,37.9-4.5,70.8-13.4,99.8c11.6-5.3,23.2-8.5,34.8-8.5
				c31.6,0,50.8,13.4,80.6,13.4S880.8,487.5,880.8,487.5z"/>
		</g>
		<g>
			<path class="st1" d="M860.7,1025.4c0,30.7-23.2,66.4-83.3,66.8c-41.9,0.4-69.1-20.5-78-28.1c0.4-0.9,0-44.6,0-44.6h34.8
				l12.9,42.3c47.7,22.3,75.7-7.6,73.5-33.4c-3.1-37.4-56.6-37-93.1-66.4c-24.5-19.6-30.3-40.1-30.3-54.4
				c0-23.6,14.7-43.2,35.2-55.3c-2.7-1.8-5.3-3.6-7.6-5.3c-23.6-18.7-29-43.7-29-57.9c0-45.4,43.2-66.4,88.2-66.4
				c36.5,0,58.8,15.6,68.2,23.6c-0.4,0,0,41,0,41h-34.8l-15.1-44.1c-32.1-4.9-66.4,4-66.8,36.5c-0.9,52.6,119,39.2,122.1,127
				c0.4,15.6-7.1,40.5-29,55.7C846.9,976.8,860.7,996,860.7,1025.4z M801,945.7c12-8.5,19.2-21.4,16.5-35.6
				c-6.2-26.3-30.3-32.5-57-43.2c-14.7,4.9-25,16-23.6,32.1C738.6,919.8,770.3,929.6,801,945.7z"/>
		</g>
		<g>
			<path class="st1" d="M879.9,1507.8c0,33.9-23.2,31.6-33.9,30.7c-7.6-1.3-39.7-13.8-58.4-20.9c7.1,20.1,18.3,51.7,19.6,59.3
				c0.9,11.6,3.6,33.9-30.3,33.9c-34.3,0-31.6-23.2-30.7-33.9c1.3-7.1,12.5-38.8,20.1-58.8c-18.7,7.1-49.9,19.2-57.5,20.5
				c-10.7,0.9-33.9,3.6-33.9-30.7c0-33.9,22.3-31.2,33.9-30.3c8,1.3,43.2,14.7,61,21.8l-20.1-112.7l17.4-50.3
				c-18.3,6.2-50.3,17.4-58.4,18.7c-11.6,0.9-33.9,3.6-33.9-30.3c0-34.3,23.2-31.6,33.9-30.7c7.1,1.3,36.1,11.1,54.8,17.8
				c-6.7-20.1-16-49.5-17.4-56.1c-0.9-10.7-3.6-33.9,30.7-33.9c33.9,0,31.2,22.3,30.3,33.9c-1.3,7.1-10.7,36.5-17.4,56.6
				c19.2-6.7,49-16.9,56.1-18.3c10.7-0.9,33.9-3.1,33.9,30.7s-22.3,31.2-33.9,30.3c-8-1.3-40.1-12.5-58.4-18.7l17.4,50.3L785,1499.3
				c17.8-7.1,53-20.5,61-21.8C857.6,1476.6,879.9,1473.9,879.9,1507.8z"/>
		</g>
		<g>
			<path class="st1" d="M962.5,2027.5l7.6,8.9l-61.5,44.6c-42.3,0-41-28.1-34.8-56.1l29.9-135.5h-77.5l-55.3,251.7
				c-4,18.3-10.2,33-40.5,33l-57-44.6l7.6-8.9c20.1,14.3,34.3,19.2,36.5,8l51.7-239.3h-91.8l-55.3,251.7c-4,18.3-10.2,33-40.5,33
				l-57-44.6l7.6-8.9c20.1,14.3,34.3,19.2,36.5,8l51.7-239.3h-22.7l4.5-19.2h23.2l7.6-35.6c13.4-63.3,64.6-87.3,115-87.3
				c25.4,0,57,12,71.7,28.5c21.8-17.4,49.9-28.5,77.1-28.5c27.2,0,78.9,14.7,78.9,58.8c0,18.3-14.7,33-32.5,33
				c-18.3,0-33-14.7-33-33c0-4,0.9-7.6,2.2-11.1c1.3-18.7-7.6-30.7-22.7-31.6c-21.4-0.9-37.9,12.5-49.9,65.9l-8.5,41h132.8
				l-35.2,158.6C924.7,2045.7,939.8,2043.9,962.5,2027.5z M781.6,1834.5c10.7-57.5-12.5-71.7-36.5-71.3
				c-19.2,0.4-43.2,12.5-54.4,65.9l-8.5,41h91.8L781.6,1834.5z"/>
		</g>
	</g>
</g>
<g id="Layer_3">
</g>
</svg>
