<?xml version="1.0" encoding="utf-8"?>
<!-- Generator: Adobe Illustrator 23.0.1, SVG Export Plug-In . SVG Version: 6.00 Build 0)  -->
<svg version="1.1" id="Layer_1" xmlns="http://www.w3.org/2000/svg" xmlns:xlink="http://www.w3.org/1999/xlink" x="0px" y="0px"
	 viewBox="0 0 2489 1735" style="enable-background:new 0 0 2489 1735;" xml:space="preserve">
<style type="text/css">
	.st0{fill:#FFE8B0;}
	.st1{fill:#0026E0;}
</style>
<g>
	<rect x="-677.5" y="-476.7" class="st0" width="3920.9" height="2733.1"/>
	<g>
		<path class="st1" d="M28.9-14.6L14.2-9.8L-24.5,96.4h-6.1L-70.1-9.8l-14.3-4.9v-5.5h48.7v5.5l-14.2,4.3l27.1,74l27.3-74l-14.7-4.3
			v-5.5h39.1C28.9-20.2,28.9-14.6,28.9-14.6z"/>
		<path class="st1" d="M225.4-20.1v5.5l-13.9,4.7L179,96.1h-6l-26.9-84.6l-26.6,84.6h-6.1L78.8-9.8l-14.3-4.9v-5.5h48v5.5l-13.4,4.3
			l22.4,71l20-62.5l-2.8-8l-13.4-4.7v-5.5h46.2v5.5l-12.3,4.3l22.4,69l20.5-69l-12.8-4.3v-5.5C189.3-20.1,225.4-20.1,225.4-20.1z"/>
		<path class="st1" d="M371.3,90.6v5.5h-49v-5.5l13.5-3.8l-23.2-37.5l-26.1,37.5l12.6,3.8v5.5H262v-5.5l14.2-4.6l31.3-45L276-9.9
			l-13.2-4.7v-5.5h48.5v5.5l-13.4,3.9l21.4,34.5L343-10.5l-12.4-4.1v-5.5h37.3v5.5l-14.2,4.9l-29.1,41.9L358,85.9L371.3,90.6z"/>
		<path class="st1" d="M472.5,42.5v43.8l14.8,4.3v5.5h-48.7v-5.5l15-4.3V43.7L420.5-9.8L407-14.7v-5.5l46.3,0.3v5.5L441-10.3
			l27,43.6l24.3-43.6l-12.6-4.3v-5.5h38.4v5.5L504-9.8L472.5,42.5z"/>
		<path class="st1" d="M641.6,66.5L636,96.1h-79.1v-5.5l61-102.9h-41.7l-11,18.9h-7.4l0.8-26.8h82.7v5.4L581,86.7h39.4l14.3-20.2
			H641.6z"/>
		<path class="st1" d="M750.3,85.9v3.9l-16.5,7.4c-5,0-9-5.8-9-9.5c0,0-8.5,10.1-21.4,10.1c-11.5,0-21-6.1-21.3-17.8
			c-0.3-12,6.3-17.8,15.4-20.6c8.7-2.5,25-7.7,27.3-8.5v-4.6c0-15.6-8-20.3-15.4-19.2c-3.2,0.5-5.2,1.4-5.2,1.4l-5.7,12.9h-11.3
			c0,0,0.2-13.4,0-13.4c3-2.5,12.4-7.2,24.6-7.2c28.2,0,29.5,18.3,29.8,28.7v34.7C741.5,88.7,750.3,85.9,750.3,85.9z M724.8,83V56.6
			c-5.2,1.7-11.2,3.9-16.2,5.8c-6.3,2.4-9.8,6.3-9.8,15c0,7.4,5.5,11.8,13.1,11.3C721.2,88.1,724.8,83,724.8,83z"/>
		<path class="st1" d="M859.2,65.7c-2.8,24.7-23.6,33.4-37.8,31.7c-7.4-0.9-13.4-3.5-16.5-5l-5.7,3.8H794V-10.1l-12-3.3v-5.5
			l28.5-3.2v48.7c3.2-1.3,9.9-3.6,13.4-3.8C846.6,21.8,862,41.8,859.2,65.7z M823.7,29.3c-3.2,0-9.9,1.1-13.2,1.7v55.6
			c2,2.2,6,3.8,11.7,3.5c6.5-0.3,17.5-3.5,19.5-23.9C843.7,44.1,834.8,29.2,823.7,29.3z"/>
		<path class="st1" d="M958.4,41.4l-9.1-0.2l-7.9-12c-16.7-2.5-28.5,17.5-25.2,36.2c2.5,14.3,14.2,22.7,25.2,23.2
			c12.8,0.5,19.4-5.5,19.4-5.5l0.2,3.5c0,0-6.3,9.9-21.6,11c-15.1,1.1-38-7.6-40.2-34.2c-2.2-26.8,20-42.1,37.2-42.2
			c12-0.2,19.7,3.9,22.4,5.8L958.4,41.4z"/>
		<path class="st1" d="M1075,86v5.5l-27.9,4.6h-0.2v-7.2c0,0-4.9,6.9-14.7,8.2c-16.2,2-33.9-8.2-35.6-31.3
			c-2-27.1,13.7-43.5,35.9-42.4c4.6,0.2,14.3,4.4,14.3,4.4L1047-10l-11.3-3.3v-5.5l27.9-3.2V83.7l0.2-0.2L1075,86z M1047,32.2
			c0,0-10.1-2-14.2-2c-12.4,0-20.5,16.9-18.4,36.1c1.7,16.1,9.8,23.6,20.3,23c8.5-0.5,12.3-7.9,12.3-7.9L1047,32.2L1047,32.2z"/>
		<path class="st1" d="M1172,82.6V86c0-0.2-5,12-24.9,12c-21.7,0-37.2-16.1-37.2-38.1c0-19.7,13.7-38.1,34.7-38.1
			c21.6,0,30.4,19.4,29.1,34.8h-47.3c0,18.4,12.4,31.2,26.1,32C1166.2,89.3,1172,82.6,1172,82.6z M1126.7,51.1l30.1-3.5
			c0-2.8-3.6-17.3-14-17.3C1129.8,30.3,1126.7,44.9,1126.7,51.1z"/>
		<path class="st1" d="M1271-17.2v12.8h-10.7l-5.5-10.1c0,0-15.4-0.6-15.4,21.4v16.4h19.8v7.1h-19.8v57.8l14.2,3.9V96h-42.4v-3.9
			l11.7-3.9V30.4h-8.8v-7.1h8.8v-13c0-18,10.7-32.3,27.1-32.3C1261.8-22,1271-17.2,1271-17.2z"/>
		<path class="st1" d="M1328.5,130.8c-28.8-1.9-35-24.6-33.6-28l15.9-7.2l-8.2-9.1v-1.1l12.6-10.4c-9-5.8-13.7-14.3-13.7-24.3
			c0-16.1,12.9-29,29.1-29c8.2,0,15.6,3.3,21.1,8.8l1.4-7.1h16.9v3.5l-15.8,6.6c3.5,4.7,5.7,10.6,5.7,17.2
			c0,16.1-13.2,28.7-29.3,28.5c-2.2,0-4.9-0.3-6-0.6c-1.3-0.2-2.7-0.6-2.7-0.6l-1.7-0.6l-0.8,5.2l34.3,5
			C1383.9,91.9,1373.5,133.8,1328.5,130.8z M1347.4,101.9l-29.1-4.7c-1.1,0.9-7.2,5.5-7.2,11.8s4.3,13.1,17.8,14.3
			c16.4,1.6,25.2-5.2,26.9-9.3C1357.6,109.7,1357.3,104,1347.4,101.9z M1319,52.2c0.5,12.4,6.3,20.8,13.5,20
			c8.2-1.6,10.6-11.5,9.8-23.9c-0.8-12-5.5-20.8-12.4-20C1321.4,29.2,1318.5,39.7,1319,52.2z"/>
		<path class="st1" d="M1492,92.2v3.9h-39.9v-3.9l11.8-3.9V47.4c0-13.4-5-17.6-15-15.3l-15.8,3.9v52.1l11.7,3.9v3.9H1405V92
			l11.7-3.9l-0.3-99.9l-10.2-3.3V-19l26.9-3.2v52.9l16.1-7.2c10.7-4.9,31.2,4.6,31.3,22.7v41.9L1492,92.2z"/>
		<path class="st1" d="M1568.1,92.2v3.9h-39.7v-3.9l12-3.9v-54l-11.5-2.8v-3.9l27.6-4.1v64.9L1568.1,92.2z M1537,0.5
			c0-5.4,4.6-10.1,10.1-10.1c5.4,0,10.1,4.7,10.1,10.1c0,5.5-4.7,10.1-10.1,10.1C1541.6,10.6,1537,6,1537,0.5z"/>
		<path class="st1" d="M1601.5,123c4.3-0.5,12.8-1.6,12.8-16.4V34l-11.7-2.7v-3.9l27.4-4.1v81.9c0,16.7-14.5,25.4-28.7,20
			L1601.5,123z M1620.8,10.6c5.4,0,10.1-4.6,10.1-10.1c0-5.4-4.7-10.1-10.1-10.1c-5.5,0-10.1,4.7-10.1,10.1
			C1610.7,6,1615.3,10.6,1620.8,10.6z"/>
		<path class="st1" d="M1713.5,92.2v3.9h-39.7v-3.9l11.7-3.9v-99.9l-11.7-3.5V-19l28.2-3v74.8l2.7-0.8l23-21.6l-9.9-3.2v-3.9h31.3
			v3.9l-10.4,3.6l-20.2,16.9l27.3,39.2l11.2,5.2V96h-38.1v-3.9l8.2-3.9L1706,57.8h-3.9v30.4L1713.5,92.2z"/>
		<path class="st1" d="M1821.2-22V88.2l11.7,3.9V96h-40v-3.9l11.8-3.9v-99.9l-12.1-3.3v-3.9L1821.2-22z"/>
		<path class="st1" d="M1997.3,92.2v3.9h-40.2v-3.9l12-4.1V75.5V48.1c0-13.5-7.4-18.6-16.5-15.3c-6.6,2.5-11,5.4-11.7,5.8
			c0.3,1.1,0.5,2.5,0.5,3.8v45.7l11.7,4.1v3.9h-40v-3.9l11.8-4.1V75.5V48.1c0-13.5-6.6-18.6-15.6-15.3c-7.2,2.7-11.8,5.8-11.8,5.8
			v49.6h-0.2l11.7,3.9V96h-39.7v-3.9l11.8-3.9h-0.2v-54l-10.2-3.5v-3.9l24.1-3.5l2.5,9.6c0,0,2.4-1.4,11.5-7.2
			c9.6-6.1,24.9-2,30.4,8.2c0.9-0.6,4.9-3,12.9-8.2c12-7.6,33.6,0.6,33.6,16.7v45.7L1997.3,92.2z"/>
		<path class="st1" d="M2120.5,92.2v3.9h-40.2v-3.9l12-3.9V75.5V48.1c0-15.9-8-18.3-15.3-16.1l-15.1,4.7v51.5l11.7,3.9V96h-39.9
			v-3.9l11.8-3.9V34l-10.4-3.3v-3.9l23.9-3.5l2.8,8.8l13.5-7.2c14-7.6,33.4-0.3,33.4,21.9c0,10.1,0.2,31.8,0,41.4L2120.5,92.2z"/>
		<path class="st1" d="M2224.3,66c-3.5,21.3-21.9,35-43,30.9c-19.5-3.8-31.7-24.7-27.4-45.7c4.1-20.3,23.6-33.6,43-29.1
			C2216.3,26,2227.6,45.5,2224.3,66z M2207.9,56.9c-0.3-16.7-7.6-28.5-20.8-27.3c-12.8,1.6-17.2,14.3-16.9,31.2
			c0.5,17.2,6.6,29.9,20.6,28.2C2203.4,87.6,2208.2,74.2,2207.9,56.9z"/>
		<path class="st1" d="M2301,96.9c-9.9-0.8-13.5-5.7-13.5-5.7v28.5l14,3.9v3.9h-42.4v-3.9l11.8-3.9V34l-12-3.3v-3.9l25.7-3.5
			l2.8,8.8l10.2-8.8c17.6-2.8,38,9.8,39.7,34.2S2321.8,98.5,2301,96.9z M2320.2,59.1c-0.2-26.1-17.2-30.7-26.5-25.5l-6.3,4.7v46
			c2.5,3.5,5.7,4.4,9.8,4.9C2311.3,91.4,2320.4,79.4,2320.2,59.1z"/>
		<path class="st1" d="M2443.7,34v85.7l11.8,3.9v3.9h-42.4v-3.9l14-3.9V91.2c0,0-3.6,4.9-13.5,5.7c-20.8,1.6-38.1-15-36.4-39.4
			c1.7-24.4,22.1-37,39.7-34.2l10.2,8.8l2.8-8.8l25.7,3.5v3.9L2443.7,34z M2427.2,84.3v-46l-6.3-4.7c-9.3-5.2-26.3-0.6-26.5,25.5
			c-0.2,20.3,9,32.3,23,30.1C2421.5,88.7,2424.7,87.8,2427.2,84.3z"/>
		<path class="st1" d="M13.7,295.5v3.9L-14,304v-9.5c-4.7,3.3-13.7,10.6-16.5,10.6c-7.2,0-28.7,0.6-28.7-28.5v-36.9l-11.7-2v-3.9
			l28.2-3.3V277c0,14,6.5,18.4,14.2,17.8c4.3-0.3,14.5-4.1,14.5-4.1V240l-11.3-2.2v-3.9l27.9-3.3V293L13.7,295.5z"/>
		<path class="st1" d="M122.6,235.2l-10.4,3.9L83,304.8h-3.8l-28-65.1l-10.6-4.6v-3.9h39.7v3.9l-11,3.8l17,41l17.5-40.8L93,235.2
			v-3.9h29.6V235.2z"/>
		<path class="st1" d="M277.1,231.3v3.9l-11.3,4.4l-25.4,64.9H236l-18.4-47.9l-19.4,47.9h-4.3L166,239.6l-10.1-4.4v-3.9h37.3v3.9
			l-9.1,3.9l16.5,38.9l12.8-32l-2.8-6.9l-9.5-3.9v-3.9h36.2v3.9l-9.1,3.9l14.8,37.5l14.7-37.3l-10.7-4.1v-3.9H277.1z"/>
		<path class="st1" d="M389.4,300.1v3.9H353v-3.9l8-3.9h0.3l-13.7-19.7L332,296.2l8.8,3.9v3.9h-29v-3.9l10.9-4.4L343,270l-20.6-29.6
			l-9-5.4v-3.8H349v3.8l-7.1,4.1h-0.2l12.1,17.3l13.7-17.3l-8-4.1v-3.8h26.9v3.8l-9.6,4.6l-18.4,23.3l22.7,32.5L389.4,300.1z"/>
		<path class="st1" d="M455.3,326.1c-9.3,17.8-28.7,12.1-28.7,12.1v-17.8h7.9l4.6,6.6c1.1,0,6.6-0.3,9.9-6.1l8.3-17.6L430,240
			l-9.8-4.7v-3.9h38.4v3.9L448,239l18.6,43.8c0,0,14.3-33.7,18.7-43.8l-11.5-3.8v-3.9h31.3v3.9l-11.3,4.4l-32,72.8
			C461.9,312.4,461.4,313.5,455.3,326.1z"/>
		<path class="st1" d="M556.7,237.4l-9.5,12.6h-5.5l1.4-18.7h57.2v4.6l-36.7,60.3h23.2l10.1-12.1h5.4l-3.2,20h-56.7v-3.9l38-62.7
			h-23.7V237.4z"/>
		<path class="st1" d="M726.4,300.1v3.9H687v-3.9l11.2-3.9v-57.8h-29.8v57.8l12.6,3.9v3.9h-40.8v-3.9l11.7-3.9v-57.8h-8.8v-7.1h8.8
			v-14.7c0-17.3,14-30.7,32.6-30.7c16.7,0,30.7,6.9,31.3,21.9v0.6c0,5.5-4.7,10.1-10.1,10.1c-5.5,0-10.1-4.6-10.1-10.1
			c0-11.5-2.7-17.6-11.3-17.6c-6.9,0-15.9,5.2-15.9,24.1v16.4h46.3v64.9L726.4,300.1z"/>
		<path class="st1" d="M837.3,314.1c0,16.7-12.8,25.4-28.7,20l0.2-2.2c4.3-0.5,12-1.6,12-16.4v-77.2H791v57.8l12.6,3.9v3.9h-40.8
			V300l11.7-3.9v-57.8h-8.8v-7.1h8.8v-14.7c0-17.3,14-30.7,32.6-30.7c16.7,0,30.7,6.9,31.3,21.9v0.6c0,5.5-4.7,10.1-10.1,10.1
			c-5.5,0-10.1-4.6-10.1-10.1c0-11.5-2.7-17.6-11.3-17.6c-6.9,0-15.9,5.2-15.9,24.1v16.4h46.3V314.1L837.3,314.1z"/>
		<path class="st1" d="M970.1,300.1v3.9h-40.2v-3.9l12-3.9v-87.9c0-11.5-4.3-17.5-13.9-17.5c-7.4,0-17.2,5.2-17.2,24.1v16.4h17.5
			v7.1h-17.5v57.8l13.4,3.9v3.9h-41.6v-3.9l11.7-3.9v-57.8h-8.8v-7.1h8.8v-14.7c0-17.3,12.8-30.7,33.7-30.7c8.2,0,15.9,2,21.4,6
			l4.9-6h4.1v110.3L970.1,300.1z"/>
		<path class="st1" d="M1081.1,238.4v49.9c0,12.1,13.1,9.5,13.1,9.5v4.3c0,0-7.2,3-13.2,3c-14.3,0-16.5-8.3-16.5-18.1v-48.5h-28v58
			l14.2,3.9v3.9h-42.4v-3.9l11.7-3.9v-58h-8.8v-7.1h8.8v-12.9c0-18,10.7-32.3,27.1-32.3c12,0,21.1,4.9,21.1,4.9v12.8h-10.7
			l-5.5-10.1c0,0-15.4-0.6-15.4,21.4v16.2h17.3c4.4,0,9.3-1.3,13.1-5c5.4-5.4,8.3-12.9,8.3-12.9h6v18h13.2v7.1h-13.4V238.4z"/>
		<path class="st1" d="M1268.6,300.1v3.9h-39.4v-3.9l11.2-3.9v-57.8h-29.8v57.8l12.6,3.9v3.9h-40.8v-3.9l11.7-3.9v-57.8h-32v57.8
			l14.2,3.9v3.9h-42.4v-3.9l11.7-3.9v-57.8h-8.8v-7.1h8.8v-13.1c0-18,10.7-32.3,27.1-32.3c12,0,21.1,4.9,21.1,4.9v12.8h-10.7
			l-5.5-10.1c0,0-15.4-0.6-15.4,21.4v16.4h32v-14.7c0-17.3,14-30.7,32.6-30.7c16.7,0,30.7,6.9,31.3,21.9v0.6
			c0,5.5-4.7,10.1-10.1,10.1c-5.5,0-10.1-4.6-10.1-10.1c0-11.5-2.7-17.6-11.3-17.6c-6.9,0-15.9,5.2-15.9,24.1v16.4h46.3v64.9
			L1268.6,300.1z"/>
		<path class="st1" d="M1441.2,300.1v3.9H1401v-3.9l12-3.9v-87.9c0-11.5-4.3-17.5-13.9-17.5c-7.4,0-17.2,5.2-17.2,24.1v16.4h17.5
			v7.1H1382v57.8l13.4,3.9v3.9h-41.6v-3.9l11.7-3.9v-57.8h-32.3v57.8l14.2,3.9v3.9H1305v-3.9l11.7-3.9v-57.8h-8.8v-7.1h8.8v-13.1
			c0-18,10.7-32.3,27.1-32.3c12,0,21.1,4.9,21.1,4.9v12.8h-10.7l-5.5-10.1c0,0-15.4-0.6-15.4,21.4v16.4h32.3v-14.7
			c0-17.3,12.8-30.7,33.7-30.7c8.2,0,15.9,2,21.4,6l4.9-6h4.1v110.3L1441.2,300.1z"/>
		<path class="st1" d="M1485.7,245.8c0.6-32.6,20.8-58,45.5-58c24.4,0,44,25.4,43.3,58c-0.6,32.8-20.8,58.3-45.2,58.3
			C1504.6,304,1485,278.5,1485.7,245.8z M1553.2,245.8c0.5-28.7-8.8-51-22.1-51c-13.7,0-23.6,22.4-24.1,51
			c-0.5,28.8,8.7,51.2,22.2,51.2S1552.8,274.6,1553.2,245.8z"/>
		<path class="st1" d="M1673.6,298.5v5.5h-48.5v-5.5l14.3-4.3V201l-14.3,1.6v-7.2l26.3-7.6h7.7v106.5L1673.6,298.5z"/>
		<path class="st1" d="M1802.6,271.3l-7.4,32.8h-70.4v-15.3c0,0,21.4-22.2,32.6-34.7c16.2-18.3,22.1-27.1,21.7-40.2
			c-0.3-13.4-9.9-21-19.2-21.3c-5.2-0.2-10.7,1.3-14.8,4.3l-8.8,18.7h-10.7c0,0-1.3-18.4-1.4-18.7c4.4-3.5,16.1-11,35.8-11
			c24.6,0.2,39.5,10.9,38.9,28.7c-0.6,16.5-22.1,35.6-32.9,46.8c-7.2,7.6-16.9,17.3-24.4,25.4h46.2l10.2-15.4L1802.6,271.3
			L1802.6,271.3z"/>
		<path class="st1" d="M1853.5,281.8c-3.2-18.7,20.3-17.6,20.3-17.6c-8.3,16.5,1.3,32.9,17,32.8c14.2-0.2,21.6-12.9,21.7-25
			c0.3-18.3-17.8-25.8-26.1-26.3v-5.4c12.1-2.4,22.7-12,23.9-23.8c1.6-15.3-10.6-22.8-19.5-22.8c-5.2,0-9.1,0.8-13.2,4.4l-9.9,17.6
			h-10.1c0,0-1.1-17.5-1.3-17.8c4.4-3.5,15.9-11,32.9-11c18.3,0,38.3,7.6,40,28c0.8,9.3-5,24.3-21.1,27.6
			c15.3,3.2,24.1,17.5,23.2,31.3c-1.3,20.2-20.3,31.5-40.8,31.5C1868.1,305.3,1854.9,292.2,1853.5,281.8z"/>
		<path class="st1" d="M2063.5,298.5v5.5h-48.7v-5.5l14.5-4.3v-16.1H1982v-6.3l57-84.3l9.9,0.2v79.4h13.4v11H2049v16.1L2063.5,298.5
			z M2029.3,267.2v-52.3l-35.3,52.3H2029.3z"/>
		<path class="st1" d="M2197.5,265.3c-1.7,26.3-24.4,38.8-41.9,39.7c-25.2,1.4-39.9-12.9-41.3-23.2c-3.2-18.7,20.2-17.6,20.2-17.6
			c-8.7,16.2,1.4,32.9,20.5,32.5c13.4-0.3,23.2-13.7,23.6-31c0.5-18.6-10.9-30.1-23.9-31.7c-19.8-2.4-25.4,10.9-25.4,10.9h-9.1
			l12.1-57h56.4l-7.9,24.9h-2.8l-4.1-6h-36.4l-5.8,24.1c3.5-4.4,13.4-8,23.5-7.7C2189.3,224,2198.6,248.8,2197.5,265.3z"/>
		<path class="st1" d="M2249,242.6c5.8-42.8,31.3-54.7,51-56.7c14.5-1.6,27.9,4.1,29,11.5c1.6,10.1-13.4,12.9-15.3,12.9
			c2.2-6.6-4.7-19.2-16.2-16.9c-25.4,4.7-30.4,45.1-30.4,45.1c1.7-4.1,11.7-14,27.4-13.9c26.9,0.2,36.9,25.7,34.3,45.1
			c-2.4,18.1-15.6,36.9-43.8,35C2252.4,302.5,2245.7,267.5,2249,242.6z M2309.9,263.2c-1.3-20-13.9-30.7-27.6-26.9
			c-11.2,3.5-17.5,14.5-15.3,31.7c1.4,10.4,7.4,27.9,21.3,28.7C2302,297.4,2311,282.9,2309.9,263.2z"/>
		<path class="st1" d="M2448.8,202.3L2407.4,304H2393l44-97.4h-48.2l-5.7,5.4h-3.2l3.6-24.3h71.4L2448.8,202.3z"/>
		<path class="st1" d="M10.1,395.7L-75.4,512h-12.9l85.5-116.3H10.1z M-78.3,405l-8.2,0.8v-5.4l15.8-4.7h4.1v53.6l7.6,2.7v3.9h-26.5
			V452l7.2-2.7V405z M2.2,505.5l7.6,2.5v3.9H-17V508l7.6-2.5V500h-24.4v-6.6l29.5-41.6h6.6v41.1h6.9v7.1h-7V505.5z M-9.4,492.9
			v-23.8l-16.9,23.8H-9.4z"/>
		<path class="st1" d="M187.2,395.7L101.6,512H88.7l85.5-116.3H187.2z M98.6,405l-8.2,0.8v-5.4l15.8-4.7h4.1v53.6l7.6,2.7v3.9H91.4
			V452l7.2-2.7V405z M194.3,496.1L191,512h-37.6v-9.6c0,0,7.9-8.5,14-15c9.3-9.9,13.2-16.4,13.2-22.4c0-6.3-3.9-9.6-8-9.8
			c-4.4-0.2-6.3,1.6-6.3,1.6l-6.6,10.2h-6l-0.6-10.2c2.2-2.7,8.7-6.5,19.5-6.5c13.4,0,21,5.7,20.3,15c-0.6,9-15.1,22.2-21.3,28.2
			c-2.7,2.7-5.5,5.5-8.2,8H187l3.6-5.5L194.3,496.1L194.3,496.1z"/>
		<path class="st1" d="M292.7,457.6c-12.1-0.3-18.7-6-19.5-12.6c-1.1-9.9,12.1-9.3,12.1-9.3c-4.3,8.5,0.9,16.2,7.6,16.2
			s9.3-6,9.5-12.3c0.2-9.1-9-12.8-12.6-13.1v-3.9c5.7-1.3,12-6.1,12.1-12c0.2-7.4-4.6-10.6-8.7-10.6c-3.6,0-4.9,1.1-5.5,1.9
			l-6.6,9.6h-6c0,0-0.6-10.7-0.8-10.7c2.4-1.9,8.8-5.8,18.1-5.8c9.6,0,19.8,3.9,21,14.7c0.5,4.9-2.5,12.9-11,14.5
			c8.2,1.6,12.9,9.3,12.4,16.5C314.1,451.3,303.4,457.9,292.7,457.6z M377.6,395.7L292.1,512h-12.9l85.5-116.3H377.6z M369.6,505.5
			l7.6,2.5v3.9h-26.8V508l7.6-2.5V500h-24.4v-6.6l29.5-41.6h6.6v41.1h6.9v7.1h-6.9v5.5H369.6z M357.9,492.9v-23.8L341,492.9H357.9z"
			/>
		<path class="st1" d="M458.1,503.5c0,5.7-4.7,10.2-10.6,10.2c-5.7,0-10.2-4.6-10.2-10.2c0-5.8,4.6-10.6,10.2-10.6
			C453.4,492.9,458.1,497.6,458.1,503.5z"/>
		<path class="st1" d="M563.2,541.4l-1.1-3.9c10.2-3,17.6-12.9,17-24.4c-5.4,1.3-10.9-0.3-12.4-5.4c-1.7-5.4,1.1-11.2,6.6-12.6
			c4.9-1.3,10.4,1.7,12.6,6.8C591.9,515.8,579.9,538.3,563.2,541.4z"/>
		<path class="st1" d="M626.2,448.2c0-5.8,4.6-10.6,10.2-10.6c5.8,0,10.6,4.7,10.6,10.6c0,5.7-4.7,10.2-10.6,10.2
			C630.8,458.4,626.2,453.9,626.2,448.2z M626.2,503.5c0-5.8,4.6-10.6,10.2-10.6c5.8,0,10.6,4.7,10.6,10.6c0,5.7-4.7,10.2-10.6,10.2
			C630.8,513.7,626.2,509.1,626.2,503.5z"/>
		<path class="st1" d="M690.8,541.4l-1.1-3.9c10.2-3,17.6-12.9,17-24.4c-5.4,1.3-10.9-0.3-12.4-5.4c-1.7-5.4,1.1-11.2,6.6-12.6
			c4.9-1.3,10.4,1.7,12.6,6.8C719.5,515.8,707.5,538.3,690.8,541.4z M701.3,458.4c5.8,0,10.6-4.6,10.6-10.2
			c0-5.8-4.7-10.6-10.6-10.6c-5.7,0-10.2,4.7-10.2,10.6C691.1,453.9,695.7,458.4,701.3,458.4z"/>
		<path class="st1" d="M813.3,423.6c3.8-16.9-11.3-22.2-21.6-22.2c-9.9,0.2-13.1,3.6-13.1,3.6l-3.2,21h-11.3c0,0-6.1-20.2-6.3-20.5
			c4.3-3.5,15.8-11.8,33.9-11.7c24.3,0.3,38.9,11.2,40.5,24.4c2.4,18.4-13.9,29.5-29.6,37.2c-9.9,5.2-11.5,10.6-11.5,19.2v5.7h-8.3
			V462C782.8,448,808.6,444.2,813.3,423.6z M787.2,513.7c5.8,0,10.6-4.6,10.6-10.2c0-5.8-4.7-10.6-10.6-10.6
			c-5.7,0-10.2,4.7-10.2,10.6C777,509.1,781.5,513.7,787.2,513.7z"/>
		<path class="st1" d="M893.7,516.9c-3.8,16.9,11.3,22.2,21.6,22.2c9.9,0,13.1-3.6,13.1-3.6l3.2-21h11.3c0,0,6.1,20.2,6.3,20.5
			c-4.3,3.5-15.8,11.8-33.9,11.7c-24.3-0.2-38.9-11.2-40.5-24.4c-2.2-18.4,13.9-29.5,29.6-37.2c10.1-4.9,11.5-10.6,11.5-19.2v-5.7
			h8.3v18.3C924.2,492.4,898.2,496.2,893.7,516.9z M919.8,426.8c-5.8,0-10.6,4.6-10.6,10.2c0,5.8,4.7,10.6,10.6,10.6
			c5.7,0,10.2-4.7,10.2-10.6C930.1,431.3,925.5,426.8,919.8,426.8z"/>
		<path class="st1" d="M1006.2,480h-6c0,0-7.2-67.9-7.6-71.7c-0.3-3.6-0.2-13.1,10.6-13.1c10.9,0,11.2,9.1,10.7,13.1L1006.2,480z
			 M1003.2,513.7c5.8,0,10.6-4.6,10.6-10.2c0-5.8-4.7-10.6-10.6-10.6c-5.7,0-10.2,4.7-10.2,10.6
			C992.9,509.1,997.5,513.7,1003.2,513.7z"/>
		<path class="st1" d="M1073.4,461.9l7.7,71.7c0.5,3.9,0.2,13.1-10.7,13.1c-10.7,0-10.9-9.5-10.6-13.1c0.3-3.8,7.6-71.7,7.6-71.7
			L1073.4,461.9L1073.4,461.9z M1070.4,428.2c-5.7,0-10.2,4.6-10.2,10.2c0,5.8,4.6,10.6,10.2,10.6c5.8,0,10.6-4.7,10.6-10.6
			C1081,432.7,1076.3,428.2,1070.4,428.2z"/>
		<path class="st1" d="M1151.4,396l1.1,3.9c-10.2,3-17.6,12.9-17,24.4c5.4-1.3,10.9,0.3,12.4,5.4c1.7,5.4-1.1,11.2-6.6,12.6
			c-4.9,1.3-10.4-1.7-12.6-6.8C1122.7,421.7,1134.7,399.2,1151.4,396z"/>
		<path class="st1" d="M1197.9,442.2l-1.1-3.9c10.2-3,17.6-12.9,17-24.4c-5.4,1.3-10.9-0.3-12.4-5.4c-1.7-5.4,1.1-11.2,6.6-12.6
			c4.9-1.3,10.4,1.7,12.6,6.8C1226.5,416.5,1214.6,439,1197.9,442.2z"/>
		<path class="st1" d="M1291.6,396l1.1,3.9c-10.2,3-17.6,12.9-17,24.4c5.4-1.3,10.9,0.3,12.4,5.4c1.7,5.4-1.1,11.2-6.6,12.6
			c-4.9,1.3-10.4-1.7-12.6-6.8C1262.9,421.7,1274.9,399.2,1291.6,396z M1324.4,395.6l1.1,3.9c-10.2,3-17.6,12.9-17,24.4
			c5.4-1.3,10.9,0.3,12.4,5.4c1.7,5.4-1.1,11.2-6.6,12.6c-4.9,1.3-10.4-1.7-12.6-6.8C1295.7,421.2,1307.7,398.7,1324.4,395.6z"/>
		<path class="st1" d="M1370.8,442.7l-1.1-3.9c10.2-3,17.6-12.9,17-24.4c-5.4,1.3-10.9-0.3-12.4-5.4c-1.7-5.4,1.1-11.2,6.6-12.6
			c4.9-1.3,10.4,1.7,12.6,6.8C1399.5,417,1387.5,439.5,1370.8,442.7z M1403.6,442.2l-1.1-3.9c10.2-3,17.6-12.9,17-24.4
			c-5.4,1.3-10.9-0.3-12.4-5.4c-1.7-5.4,1.1-11.2,6.6-12.6c4.9-1.3,10.4,1.7,12.6,6.8C1432.3,416.5,1420.3,439,1403.6,442.2z"/>
		<path class="st1" d="M1481.9,440.9h-5.4c0,0-6.1-29.5-6.6-33.2c-0.3-3.8-1.1-12,9.3-12c10.2,0,9.5,7.9,9.1,12
			C1487.9,411.6,1481.9,440.9,1481.9,440.9z"/>
		<path class="st1" d="M1540.2,440.9h-5.4c0,0-6.1-29.5-6.6-33.2c-0.3-3.8-1.1-12,9.3-12c10.2,0,9.5,7.9,9.1,12
			C1546.2,411.6,1540.2,440.9,1540.2,440.9z M1566,440.9h-5.4c0,0-6.1-29.5-6.6-33.2c-0.3-3.8-1.1-12,9.3-12c10.2,0,9.5,7.9,9.1,12
			C1572,411.6,1566,440.9,1566,440.9z"/>
		<path class="st1" d="M1660.5,435.9l-25.5,26l25.5,27.4v16.2l-47.4-41.3v-4.6l47.4-40V435.9z"/>
		<path class="st1" d="M1749.1,459.7v4.6l-47.4,41.3v-16.2l25.5-27.4l-25.5-26v-16.2L1749.1,459.7z"/>
		<path class="st1" d="M1837.6,435.9l-25.5,26l25.5,27.4v16.2l-47.4-41.3v-4.6l47.4-40V435.9z M1879,435.9l-25.5,26l25.5,27.4v16.2
			l-47.4-41.3v-4.6l47.4-40V435.9z"/>
		<path class="st1" d="M1967.7,459.7v4.6l-47.4,41.3v-16.2l25.5-27.4l-25.5-26v-16.2L1967.7,459.7z M2009.1,459.7v4.6l-47.4,41.3
			v-16.2l25.5-27.4l-25.5-26v-16.2L2009.1,459.7z"/>
		<path class="st1" d="M2106.8,464.7v16.5h-60.3v-16.5H2106.8z"/>
		<path class="st1" d="M2237.7,467.7v14h-94.5v-14H2237.7z"/>
		<path class="st1" d="M2363.9,521.6v14h-94.5v-14H2363.9z"/>
		<path class="st1" d="M2472.1,433.4c0,10.2-7.9,9.5-12,9.1c-2.8-0.3-14.8-4.1-21.3-6.3l5.2,17.5l-5.5,77.7h-5.4l-5.5-77.7l5.2-17.5
			c-6.5,2.2-18.4,6-21.3,6.3c-4.1,0.3-12,1.1-12-9.1c0-10.4,8.2-9.6,12-9.3c2.7,0.3,14.2,4.1,20.8,6.1c-2.2-7.1-5.7-18.7-6-21.3
			c-0.3-3.8-1.1-12,9.3-12c10.2,0,9.5,7.9,9.1,12c-0.3,2.7-3.8,14.3-5.8,21.4c6.5-2,18.4-6,21.1-6.3
			C2463.9,423.8,2472.1,423.1,2472.1,433.4z"/>
		<path class="st1" d="M40.4,680.8L52.6,693l-9.1,9.1l-12.6-12.4c-4.4,2.7-9.8,4.1-15.3,4.1c-6.1,0-11.8-1.7-16.5-4.7l-13.1,13
			l-9.1-9.1l13.1-13.1c-3-4.7-4.7-10.4-4.7-16.4c0-5.7,1.6-11,4.3-15.4L-23,635.5l9.1-9.1l12.1,12.1C3,635,9.2,633,15.6,633
			c6,0,11.7,1.7,16.4,4.9l11.5-11.5l9.1,9.1L41.1,647c3,4.9,4.7,10.4,4.7,16.5C45.9,670,43.8,676,40.4,680.8z M33.1,663.4
			c0-9.8-7.7-17.5-17.5-17.5s-17.5,7.9-17.5,17.5c0,9.5,7.7,17.5,17.5,17.5S33.1,672.8,33.1,663.4z"/>
		<path class="st1" d="M137.7,717.6v15.8H127v-16.1c-14-1.7-25.4-8.5-29-11.5c0-0.3,4.7-18.4,4.7-18.4H114l0.2,16.9
			c4.7,1.9,9,3.2,12.8,3.6v-41.3c-6-2.2-12.1-4.7-17.2-8.8c-14.7-11.7-13.4-23.9-12.4-29.9c1.7-11,11.8-20.8,29.6-22.8v-12.8h10.7
			v12.4c14.3,0.8,23.5,7.7,27.1,10.9l-3.2,16.2h-10.7l-3.6-16.1c-3.3-1.1-6.6-1.9-9.6-2.4v38.6c0.2,0,0.3,0.2,0.5,0.2
			c12.3,4.3,27.9,11.2,30.2,31.2C170,696.1,162.1,715.5,137.7,717.6z M127,647.9v-34.3c-10.7,2.2-17.2,9.9-15,20.3
			C113.3,640.5,119.9,644.9,127,647.9z M137.7,670.6v37.2c11.3-2,15.4-11.3,15.6-16.5C153.9,679.4,146.8,674.4,137.7,670.6z"/>
		<path class="st1" d="M301.4,694.2l5.2,1.4l-7.6,21.9c-6.1,10.6-33.1-7.4-49.9-5.5c-11,1.3-21.3,7.9-26.1,9.5V710
			c9.3-15.1,11.5-25.5,12.1-43.6H220v-9.9h15.4c0-7.1,0-15.3,0.2-25c0.2-15.9,15.4-29.5,39.2-29.6c17.5-0.2,28.5,8.3,32.9,11.8
			c-0.2,0.2-5.5,20.5-5.5,20.5h-12.3l-3-19.5c-18-8.3-34.3,0.9-35.8,21.9c-0.5,7.1-0.8,13.7-0.9,20h33.4v9.9h-33.7
			c-0.6,13.4-1.6,25-4.7,35.3c4.1-1.9,8.2-3,12.3-3c11.2,0,18,4.7,28.5,4.7S301.4,694.2,301.4,694.2z"/>
		<path class="st1" d="M413.2,666.4v0.5h21.4v9.8h-21.4v10.2H434v9.8h-20.8v13.5l14.8,4.3v5.5h-48.7v-5.5l15-4.3v-13.5h-22.1v-9.8
			h22.1v-10.2h-21.4v-9.8H394l-32.8-52.8l-13.5-4.9v-5.5L394,604v5.5l-12.3,4.1l27.1,43.5l24.3-43.6l-12.6-4.3v-5.5h38.4v5.5
			l-14.2,4.9L413.2,666.4z"/>
		<path class="st1" d="M525.4,647.1h26.1v9.8h-27.7c-0.2,1.6-0.3,3.2-0.3,4.6c0,2.5,0,4.9,0.2,7.2H551v9.8h-25.8
			c4.1,19.7,16.4,32.5,31.2,33.6c4.1,0.3,7.9-0.2,11.2-1.3l3.5-19.4h11.8l3.9,14.5c0,0-12.6,15.8-32.1,15.8
			c-20.8,0-41.3-15.1-47.1-43.2H497v-9.8h9.1c-0.2-2.2-0.3-4.4-0.3-6.8c0-1.7,0-3.5,0.2-5h-8.3v-9.8h9.6
			c5.8-28.7,28.5-44.4,52.5-45.7c11.7-0.6,19.8,4.1,28,11c-0.2,0-3.2,15-3.2,15h-12.9l-3-16.9C542.9,607.4,529.9,628.1,525.4,647.1z
			"/>
		<path class="st1" d="M669.8,699.4v13.9h-9.6V699c-13.9-2.2-29.5-12-31.2-33.7c-1.9-23.8,15.3-38.4,31.2-41.6v-14.2h9.6v13.7
			c9.9,0.5,16.4,3.9,18.7,5.7l-0.3,14.3l-9.1-0.2l-7.9-12c-0.5,0-0.9-0.2-1.4-0.2v59.4c0.5,0.2,0.9,0.2,1.4,0.2
			c12.8,0.5,19.4-5.5,19.4-5.5l0.2,3.5C690.8,688.4,684.6,698,669.8,699.4z M660.2,687.3v-54.5c-10.4,5.2-16.7,20.3-14.2,34.5
			C647.8,676.8,653.5,683.7,660.2,687.3z"/>
		<path class="st1" d="M772.9,699.4v13.9h-9.6V699c-13.9-2.2-29.5-12-31.2-33.7c-1.9-23.8,15.3-38.4,31.2-41.6v-14.2h9.6v13.7
			c9.9,0.5,16.4,3.9,18.7,5.7l-0.3,14.3l-9.1-0.2l-7.9-12c-0.5,0-0.9-0.2-1.4-0.2v59.4c0.5,0.2,0.9,0.2,1.4,0.2
			c12.8,0.5,19.4-5.5,19.4-5.5l0.2,3.5C793.8,688.4,787.7,698,772.9,699.4z M763.2,687.3v-54.5c-10.4,5.2-16.7,20.3-14.2,34.5
			C750.8,676.8,756.5,683.7,763.2,687.3z"/>
		<path class="st1" d="M907.5,648.7l-5.4,22.4h22.4v15.4h-26l-8,33.4h-11.3l8-33.4h-22.7l-8,33.4h-11.3l8-33.4h-18.1v-15.4h21.7
			l5.4-22.4h-22.5v-15.4h26.1l7.1-29.6h11.3l-7.1,29.6h22.7l7.1-29.6h11.3l-7.1,29.6h18v15.4H907.5z M896.2,648.7h-22.7l-5.4,22.4
			h22.7L896.2,648.7z"/>
		<path class="st1" d="M967.1,631.4c0-15.6,9.3-27.7,21.3-27.7c11.7,0,21,12.1,21,27.7c0,15.8-9.3,27.9-21,27.9
			C976.4,659.3,967.1,647.1,967.1,631.4z M1064.8,603.7L982.4,720h-14.5l82.4-116.3H1064.8z M997,631.4c0-10.9-3.6-19.8-8.7-19.8
			c-5.4,0-9,9-9,19.8c0,11.2,3.6,19.8,9,19.8C993.4,651.2,997,642.6,997,631.4z M1024.4,692c0-15.6,9.3-27.7,21.3-27.7
			c11.7,0,21,12.1,21,27.7c0,15.8-9.3,27.9-21,27.9C1033.7,719.9,1024.4,707.8,1024.4,692z M1054.4,692c0-10.9-3.6-19.8-8.7-19.8
			c-5.4,0-9,9-9,19.8c0,11.2,3.6,19.8,9,19.8C1050.7,711.9,1054.4,703.2,1054.4,692z"/>
		<path class="st1" d="M1103,621c0-13.4,9.3-24.3,22.8-24.3c13.4,0,22.7,10.9,22.7,24.3c0,13.5-9.3,24.4-22.7,24.4
			C1112.3,645.4,1103,634.5,1103,621z M1139.7,621c0-8.7-5.7-15.6-14.2-15.6s-13.7,6.9-13.7,15.6s5.2,15.6,13.7,15.6
			C1134.4,636.6,1139.7,629.7,1139.7,621z"/>
		<path class="st1" d="M1250.2,710.6c0,10.9-8.2,23.5-29.5,23.6c-14.8,0.2-24.4-7.2-27.6-9.9c0.2-0.3,0-15.8,0-15.8h12.3l4.6,15
			c16.9,7.9,26.8-2.7,26-11.8c-1.1-13.2-20-13.1-32.9-23.5c-8.7-6.9-10.7-14.2-10.7-19.2c0-8.3,5.2-15.3,12.4-19.5
			c-0.9-0.6-1.9-1.3-2.7-1.9c-8.3-6.6-10.2-15.4-10.2-20.5c0-16.1,15.3-23.5,31.2-23.5c12.9,0,20.8,5.5,24.1,8.3
			c-0.2,0,0,14.5,0,14.5h-12.3l-5.4-15.6c-11.3-1.7-23.5,1.4-23.6,12.9c-0.3,18.6,42.1,13.9,43.2,44.9c0.2,5.5-2.5,14.3-10.2,19.7
			C1245.3,693.5,1250.2,700.2,1250.2,710.6z M1229.1,682.4c4.3-3,6.8-7.6,5.8-12.6c-2.2-9.3-10.7-11.5-20.2-15.3
			c-5.2,1.7-8.8,5.7-8.3,11.3C1207,673.3,1218.2,676.8,1229.1,682.4z"/>
		<path class="st1" d="M1396.2,668.4c-3.9,5-10.2,12.9-15.8,19.8c3.6,4.4,6.8,8.2,9,10.7c11.2,12.9,14,9.6,18.1,6.3l3.2,3.5
			l-13.9,13.7c-6.9-0.2-15-8.5-22.4-17.2l-3.8-4.6c-0.8,1.1-1.3,1.9-1.6,2.2c-21.4,30.7-47.7,20.8-56.7,10.7
			c-14-15.6-9.1-36.5,8.7-49c4.1-2.8,8.7-6.1,13.1-9.3c-3.5-4.1-5.8-7.2-6.6-8.2c-13.2-16.9-6.8-44.6,19.7-45.4
			c15.9-0.5,28.4,7.4,28,21.3c-0.2,7.4-3.8,17.6-20.2,28.8l-2.5,1.9c6.1,7.7,14.7,18.1,22.2,27.4c3.8-4.9,7.7-9.6,10.6-13.2l-15.8-3
			v-6.3h43.5v6.3L1396.2,668.4z M1364.7,693.5c-7.2-9.1-16.9-21-24.6-30.6l-10.6,7.9c-23.5,17.5,4.3,56.4,29.9,28.8L1364.7,693.5z
			 M1346.6,646.3c1.9-1.4,3-2.2,3.3-2.5c14.2-12.1,12-38.1-3.2-35.6c-9.6,1.6-13.7,20-3.2,34.3L1346.6,646.3z"/>
		<path class="st1" d="M1602.1,673.6c-1.9,31.2-20.8,50.3-40,49.3c-9.3-0.5-16.1-8.3-16.1-13.5c0,0-11.5,12.9-24.3,10.6
			c-9.1-1.7-16.4-9.5-16.5-23.5c-0.3-32.5,22.7-45.8,29.9-48c4.6-1.4,13.9-3,19.5,3.5l4.4-4.3l9.5,2.2l-8.5,47.4
			c-2.7,11.8-0.5,14.8,6.9,14.8c11.2,0,21.9-16.5,23.2-39.1c2.2-33.4-26.1-46.5-41.4-47.7c-23.8-1.9-61.8,12.1-64.9,57.8
			c-3,43.6,31.2,66.2,70.6,55.9l3.8,6.3c-54.8,16.4-89.8-20.3-87.3-64.1c2-36.5,31.2-70.4,78-66.9
			C1590.4,617.4,1603.7,648.4,1602.1,673.6z M1553.7,657.8c-1.9-1.7-4.4-3.6-7.6-4.3c-8.2-2.8-21.9,9.6-24.9,38.3
			c-1.1,11.3,2.5,17.8,7.7,19.5c5,1.9,11.3-1.4,17-7.2L1553.7,657.8z"/>
		<path class="st1" d="M1695.8,603.7l0.3,14h-3.6l-6.5-9.9h-7.9v41.6l7.9,2.5v3h-26.3v-3l7.9-2.5v-41.6h-7.9l-6.5,9.9h-3.6l0.3-14
			H1695.8z M1761.7,651.9v3h-23v-3l6.3-2.5v-29l-14.8,31.5h-3.5l-15.3-29.3v26.8l7.9,2.5v3H1698v-3l8-2.5v-40l-5.4-3v-2.7h13.1
			l17.5,33.9l15.1-33.9h14.2v2.7l-5.2,3v40L1761.7,651.9z"/>
		<path class="st1" d="M1921.1,662.3c0,33.2-26.8,59.9-59.9,59.9s-59.9-26.8-59.9-59.9s26.8-59.9,59.9-59.9
			C1894.3,602.4,1921.1,629.2,1921.1,662.3z M1909.7,662.3c0-27.4-21.4-49.3-48.4-49.3c-27.1,0-48.5,22.1-48.5,49.3
			c0,26.9,21.4,49.1,48.5,49.1C1888.3,711.4,1909.7,689.2,1909.7,662.3z M1880,673.8h8.7v14.3c0,0-9.9,10.4-25.4,10.4
			c-18.7,0-37-12.6-37-35.9c0-22.8,18.7-36.4,38.8-36.4c7.9,0,15,2.5,21.9,6.6c-0.2,0,0,13.7,0,13.7h-7.4l-8-13.5
			c-24.3-2.4-29.9,17.8-29.9,29.5c0,15.8,9.3,27.6,23.2,28.2c3.3,0.2,6.8-0.5,9.9-1.4L1880,673.8z"/>
		<path class="st1" d="M2018.3,626.2c0,16.1-12.9,29-28.8,29s-28.8-12.9-28.8-29c0-15.9,12.9-28.8,28.8-28.8
			S2018.3,610.3,2018.3,626.2z M2013.1,626.2c0-12.9-10.7-23.9-23.6-23.9s-23.6,11-23.6,23.9c0,13.1,10.7,23.9,23.6,23.9
			C2002.4,650.1,2013.1,639.3,2013.1,626.2z M2004.1,639.1v1.4c0,0-7.7,2.2-9.9-1.9l-5.7-10.4h-3v9.9l4.1,0.6v1.6h-13.2v-1.6
			l3.3-0.6v-25.5l-2.7-0.6v-1.6h13.1c7.4,0,10.9,4.6,10.9,9c0,3.9-2.8,7.6-7.9,8.7l5.7,8C2000.6,638.6,2004.1,639.1,2004.1,639.1z
			 M1987.2,625.7c5.2,0,7.4-3.3,7.4-6.5c0-5-3.6-6.5-6.8-6.5h-2.4v12.9L1987.2,625.7L1987.2,625.7z"/>
		<path class="st1" d="M2093.4,665.4l-22.5,38.3h-13.1l31-56.6h9.1l31,56.6h-13.2L2093.4,665.4z"/>
		<path class="st1" d="M2213.4,627l17.8,7.1l-5.4,9.1l-15-12l2.7,19.1H2203l2.8-19.1l-15.1,12l-5.2-9.1l17.8-7.1l-17.8-7.1l5.2-9.1
			l15.1,11.8l-2.8-18.9h10.6l-2.7,18.9l15-11.8l5.4,9.1L2213.4,627z"/>
		<path class="st1" d="M2357.3,611.1l-8.8,1.1v117.7h-21.3V611.7l-6.9-0.3v69.3h-6.5c-21.1-0.3-38.1-17.3-38.1-38.6
			c0-21,17-38.1,38.1-38.4h43.5V611.1z"/>
		<path class="st1" d="M2422.2,671.1c0,27.7,6.3,50.6,14.3,63.8l-4.6,5.7c-13.2-11.7-28-38.3-28-69.5c0-31,14.8-57.8,28-69.3
			l4.6,5.8C2428.5,620.7,2422.2,643.5,2422.2,671.1z"/>
		<path class="st1" d="M82.3,818.8v120.5l22.5,1.9v7.2H65.7V809.7h39.1v7.2L82.3,818.8z"/>
		<path class="st1" d="M197.1,927.9h-14.2l-32.3-116.3h14.2L197.1,927.9z"/>
		<path class="st1" d="M283.7,948.5h-39.1v-7.2l22.5-1.9V818.8l-22.5-1.9v-7.2h39.1V948.5z"/>
		<path class="st1" d="M347.1,879.5c13.5,1.9,25.7,6.9,25.7,19.5v10.9c0,36.1,11.5,35.3,20.5,35.3v4.3c-9.6,0-37,2.5-37-37.5v-13.1
			c0-13.1-12.8-16.1-23.5-16.1v-6.5c10.7,0,23.5-3,23.5-16.1v-13.1c0-40,27.4-37.5,37-37.5v4.3c-9,0-20.5-0.8-20.5,35.3v10.9
			C372.7,872.7,360.6,877.8,347.1,879.5z"/>
		<path class="st1" d="M479.2,811.6l-32.3,116.3h-14.2L465,811.6H479.2z"/>
		<path class="st1" d="M576.9,876.3v6.5c-10.7,0-23.5,3-23.5,16.1V912c0,40-27.4,37.5-37,37.5v-4.3c9,0,20.5,0.8,20.5-35.3V899
			c0-12.6,12.1-17.6,25.7-19.5c-13.5-1.7-25.7-6.8-25.7-19.4v-10.9c0-36.1-11.5-35.3-20.5-35.3v-4.3c9.6,0,37-2.5,37,37.5v13.1
			C553.4,873.3,566.2,876.3,576.9,876.3z"/>
		<path class="st1" d="M663.4,805.6v149.2h-12.8V805.6H663.4z"/>
		<path class="st1" d="M733,805.6v54h-12.8v-54H733z M733,892.2v62.5h-12.8v-62.5H733z"/>
		<path class="st1" d="M868.6,849.9l-61.3,21.9l61.3,21.9v14.7l-85.9-32v-9.1l85.9-32V849.9z M868.6,927.9h-85.9V916h85.9V927.9z"/>
		<path class="st1" d="M991.5,840.7l-67.6,31.5l67.6,31.3v13.1l-85.9-39.9v-9.1l85.9-40V840.7z"/>
		<path class="st1" d="M1119.4,891.5h-36.2v36.2h-13.4v-36.2h-36.2v-13.4h36.2v-36.2h13.4v36.2h36.2V891.5z"/>
		<path class="st1" d="M1245.6,877.3v13.4h-85.9v-13.4H1245.6z"/>
		<path class="st1" d="M1373.5,849.9l-61.3,21.9l61.3,21.9v14.7l-85.9-32v-9.1l85.9-32V849.9z M1373.5,927.9h-85.9V916h85.9V927.9z"
			/>
		<path class="st1" d="M1496.4,840.7l-67.6,31.5l67.6,31.3v13.1l-85.9-39.9v-9.1l85.9-40V840.7z"/>
		<path class="st1" d="M1624.3,891.5h-36.2v36.2h-13.4v-36.2h-36.2v-13.4h36.2v-36.2h13.4v36.2h36.2V891.5z"/>
		<path class="st1" d="M1750.5,877.3v13.4h-85.9v-13.4H1750.5z"/>
		<path class="st1" d="M1876.8,860.7v13.4H1791v-13.4H1876.8z M1876.8,896v13.4H1791V896H1876.8z"/>
		<path class="st1" d="M1976.2,874.1l-15.4,21.9h42.2v13.4h-51.5l-13.5,19.4l-10.9-8.2l7.9-11.2h-17.8V896h27.1l15.3-21.9h-42.4
			v-13.4h51.8l13.7-19.7l10.9,8.2l-8,11.5h17.5v13.4H1976.2z"/>
		<path class="st1" d="M2129.2,878.1v13.2h-85.9v-13.2H2129.2z M2075.6,859c0-5.4,4.6-10.1,9.9-10.1s10.1,4.7,10.1,10.1
			c0,5.4-4.7,9.9-10.1,9.9S2075.6,864.4,2075.6,859z M2075.6,910.1c0-5.4,4.6-10.1,9.9-10.1s10.1,4.7,10.1,10.1s-4.7,9.9-10.1,9.9
			S2075.6,915.4,2075.6,910.1z"/>
		<path class="st1" d="M2222,884.7l25.5,25.7l-9.5,9.5l-25.5-25.7l-25.7,25.7l-9.5-9.5l25.7-25.7l-25.7-25.5l9.5-9.5l25.7,25.5
			l25.5-25.5l9.5,9.5L2222,884.7z"/>
		<path class="st1" d="M2380,867.7v9.1l-85.9,39.9v-13.1l67.6-31.3l-67.6-31.5v-13.1L2380,867.7z"/>
		<path class="st1" d="M2507.2,867.2v9.1l-85.9,32v-14.7l61.3-21.9l-61.3-21.9v-14.7L2507.2,867.2z M2507.2,916v11.8h-85.9V916
			H2507.2z"/>
		<path class="st1" d="M20.2,1086.8H-16v-13.4h36.2v-26.8h13.4v26.8h36.2v13.4H33.6v26.8H20.2V1086.8z M71.5,1124v11.8h-85.9V1124
			H71.5z"/>
		<path class="st1" d="M146.8,1081.3l-22.5,38.3h-13.1l31-56.6h9.1l31,56.6h-13.2L146.8,1081.3z"/>
		<path class="st1" d="M331.1,1019.5l-82.4,116.3h-12.9l82.4-116.3L331.1,1019.5L331.1,1019.5z"/>
		<path class="st1" d="M377.3,1094.2l-8.2-8.5c3.3-4.3,12.9-12.1,23-11.8c11.7,0.3,19.5,8.7,28.5,8.2c6.9-0.3,10.6-5.4,12.3-9.6
			l9.1,5.8c-3,7.4-7.9,14.8-19.4,15.4s-20-7.9-31.2-7.9C385,1085.9,379.8,1091,377.3,1094.2z"/>
		<path class="st1" d="M516.9,1136.9c-13.2,0.5-31.2-8-32-32c-0.9-27.1,22.1-38.6,33.2-39.9c10.7-1.3,19.8,1.6,26.9,7.9
			c-0.6-13.1-3.8-25-9.5-31.7c-7.7-9.1-19.1-7.4-32.5,0.9l-1.9-5.5c28.8-19.1,55.9-10.6,58.8,34.8
			C562.4,1107.9,546.2,1135.8,516.9,1136.9z M545.1,1080.3c-6.5-6.3-14.2-8-22.7-6.8c-11.5,1.7-20.6,12.9-21.7,25.8
			c-1.7,19.1,6.1,30.2,16.1,30.1C535.3,1129.2,544.4,1104.3,545.1,1080.3z"/>
		<path class="st1" d="M698,1077.5c-0.6,32.8-20.8,58.3-45.2,58.3c-6.9,0-13.5-2-19.4-5.7l-4.9,10.6l-9-4.3l6-12.8
			c-10.2-10.6-16.7-27.1-16.4-46.2c0.6-32.6,20.8-58,45.5-58c6.3,0,12.1,1.7,17.5,4.7l4.3-9l9,4.3l-5,10.7
			C691.4,1040.6,698.3,1057.8,698,1077.5z M633.8,1106.2l33.6-71.5c-3.5-5.2-7.7-8.2-12.6-8.2c-13.7,0-23.6,22.4-24.1,51
			C630.5,1088.2,631.6,1098,633.8,1106.2z M672.8,1046.5l-34,72.3c3.8,6.3,8.5,9.9,14,9.9c13.4,0,23.5-22.4,23.9-51.2
			C676.9,1065.7,675.5,1055,672.8,1046.5z"/>
		<path class="st1" d="M855.9,1153.9v5.5h-47.6v-5.5l14.2-4.1v-120.5h-46.8v120.4l14.3,4.3v5.5h-47.6v-5.5l14.3-4.3v-120.5
			l-13.7-4.1v-5.5h112.3v5.5l-14,4.1v120.5L855.9,1153.9z"/>
		<path class="st1" d="M980.3,1120.3l-3.2,34.8h-80.8V1141l39.5-52.9l-39.5-61.3v-7.2h80.8l1.6,32.6h-9.1l-9.6-25.4h-43l35.8,55.3
			l-36.1,58.9h46.8l7.7-20.6L980.3,1120.3L980.3,1120.3z"/>
		<path class="st1" d="M1106.7,1085.2v13.4h-85.9v-13.4H1106.7z"/>
		<path class="st1" d="M1270.5,1031.7h-29.9l-45.1,119.4h-21l-18.9-51.8h-10.9v-14.2h22.5l17.8,49.1l45.5-116.7h39.9L1270.5,1031.7
			L1270.5,1031.7z"/>
		<path class="st1" d="M1400.9,1125.7c-7.9,0-15.6-3-21.4-8.7l-11.8-12.6l-10.6,11.7c-5.4,6-13.2,9-21.3,9
			c-16.5,0-30.2-12.9-30.6-29.3c-0.3-17,12.9-30.7,29.6-30.7c8,0,15.6,3,21.4,8.5l12,12.3l10.4-11.2c5.4-5.8,13.4-9,21.3-9.1
			c16.5-0.3,30.4,13.1,30.7,29.6C1431,1111.5,1417.6,1125.7,1400.9,1125.7z M1335.1,1077.8c-9.6,0.3-17.2,8.2-17,17.8
			c0.2,9.1,8,17,17.6,17c4.6,0,8.8-2.2,12.1-5.5l11.3-11.8l-12-12.9C1343.9,1079.2,1339.5,1077.7,1335.1,1077.8z M1388.8,1108.4
			c3.3,2.8,7.6,4.6,12,4.4c9.8-0.3,17.3-7.7,17.2-17.5c-0.2-9.6-8-17.2-17.8-17.2c-4.6,0-8.8,1.7-12.1,5.4l-11.3,12.1L1388.8,1108.4
			z"/>
		<path class="st1" d="M1532.6,1022.8c0,4.4-3.5,7.9-8,7.9c-4.4,0-6.1-3.5-6.1-7.9c0-1.9,0.3-3.5,0.9-4.9c-4.6-1.1-9.9,3.9-10.6,20
			l-3.2,84.3c-0.6,16.4-8,25.4-23.8,25.4c-15.1,0-16.2-8.2-16.2-10.2c0-4.4,3.5-7.9,8-7.9c4.4,0,6.1,3.5,6.1,7.9
			c0,2-0.3,3.9-1.1,5.4c4.6,1.3,10.2-3.6,10.7-20l3.2-84.3c0.6-16.4,8-25.4,23.8-25.4C1531.5,1013.1,1532.6,1020.9,1532.6,1022.8z"
			/>
		<path class="st1" d="M1640.8,1080.5l-30.4,55.3h-13.1l-29.9-55.3l30.1-56.4h13.1L1640.8,1080.5z M1626,1079.4l-22.1-41.3
			l-21.9,41.6l21.9,42.1L1626,1079.4z"/>
		<path class="st1" d="M1798.5,1130.3v5.5h-44v-5.5l11.7-4.3l-10.7-25.2h-41.6l-10.1,25.2l15.1,4.3v5.5h-41v-5.5l15.8-5l43-107.3
			h4.3l45.7,107.4L1798.5,1130.3z M1734.1,1049.8l-16.7,41.6h34.2L1734.1,1049.8z M1734.6,1007.9l-2.2-3.3c0,0,15.6-17.3,18.4-20
			c3.2-3.2,7.7-5,11-0.3c3.5,5,0.5,8.7-2.8,10.7S1734.6,1007.9,1734.6,1007.9z"/>
		<path class="st1" d="M1955.4,1130.3v5.5h-44v-5.5l11.7-4.3l-10.7-25.2h-41.6l-10.1,25.2l15.1,4.3v5.5h-41v-5.5l15.8-5l43-107.3
			h4.3l45.7,107.4L1955.4,1130.3z M1873.3,984.2c2.8-4.3,7.2-3.5,11,0.3c2.8,2.7,18.4,20,18.4,20l-2.2,3.3c0,0-21.1-10.9-24.4-12.9
			C1872.9,992.9,1869.9,989.3,1873.3,984.2z M1891,1049.8l-16.7,41.6h34.2L1891,1049.8z"/>
		<path class="st1" d="M2112.5,1130.3v5.5h-44v-5.5l11.7-4.3l-10.7-25.2h-41.6l-10.1,25.2l15.1,4.3v5.5h-41v-5.5l15.8-5l43-107.3
			h4.3l45.7,107.4L2112.5,1130.3z M2032,1006.8l-4.1-2.8l21.1-20.6h6.5l21.1,20.6l-4.1,2.8l-20.3-9.8L2032,1006.8z M2048,1049.8
			l-16.7,41.6h34.2L2048,1049.8z"/>
		<path class="st1" d="M2269.4,1130.3v5.5h-44v-5.5l11.7-4.3l-10.7-25.2h-41.6l-10.1,25.2l15.1,4.3v5.5h-41v-5.5l15.8-5l43-107.3
			h4.3l45.7,107.4L2269.4,1130.3z M2185.2,1006.3c-0.6-6.5,3.8-20.6,15.8-20.6c10.4,0,12.1,10.7,19.7,10.6c6.6-0.2,7.9-7.7,7.9-7.7
			h4.7c0,6.1-0.9,17.6-12.6,18.7c-11.8,1.1-13.5-9-20.8-9.5c-8.8-0.6-9.9,8.5-9.9,8.5H2185.2L2185.2,1006.3z M2204.9,1049.8
			l-16.7,41.6h34.2L2204.9,1049.8z"/>
		<path class="st1" d="M2426.3,1130.3v5.5h-44v-5.5l11.7-4.3l-10.7-25.2h-41.6l-10.1,25.2l15.1,4.3v5.5h-41v-5.5l15.8-5l43-107.3
			h4.3l45.7,107.4L2426.3,1130.3z M2339.9,993.2c0-5.2,4.4-9.6,9.6-9.6c5.4,0,9.8,4.4,9.8,9.6c0,5.4-4.4,9.8-9.8,9.8
			C2344.3,1003,2339.9,998.6,2339.9,993.2z M2361.8,1049.8l-16.7,41.6h34.2L2361.8,1049.8z M2372.9,993.2c0-5.2,4.4-9.6,9.6-9.6
			c5.4,0,9.8,4.4,9.8,9.6c0,5.4-4.4,9.8-9.8,9.8C2377.3,1003,2372.9,998.6,2372.9,993.2z"/>
		<path class="st1" d="M2583.3,1130.3v5.5h-44v-5.5l11.7-4.3l-10.7-25.2h-41.6l-10.1,25.2l15.1,4.3v5.5h-41v-5.5l15.8-5l43-107.3
			h4.3l45.7,107.4L2583.3,1130.3z M2518.9,1049.8l-16.7,41.6h34.2L2518.9,1049.8z M2509.1,996.4c0-8,5.8-14.7,14-14.7
			c8,0,13.9,6.6,13.9,14.7c0,8.2-5.8,14.8-13.9,14.8C2515,1011.2,2509.1,1004.6,2509.1,996.4z M2516.2,996.4c0,4.3,2.8,7.4,6.8,7.4
			c4.3,0,6.9-3.2,6.9-7.4c0-4.1-2.7-7.4-6.9-7.4C2519,989,2516.2,992.3,2516.2,996.4z"/>
		<path class="st1" d="M58.3,1315.7l-5.7,28h-83.3v-5.5l11.8-3.9v-25.8h-40.5l-15.3,25.5l15.3,4.3v5.5h-42.5v-5.5l15.3-4.9
			l58.4-97.4l-10.4-3v-5.5h94.8l-0.8,26.8h-7.2l-9.6-18.9H0v45.7h22.8l5.2-14.8h5.5v37.2H28l-5.2-14.5H0v46.9h37l14.3-20.2
			L58.3,1315.7L58.3,1315.7z M-18.9,1299.3v-58.6l-35,58.6H-18.9z"/>
		<path class="st1" d="M255.7,1315.7l-5.7,28h-83.3v-5.5l11.8-3.9v-25.8H138l-15.3,25.5l15.3,4.3v5.5H95.5v-5.5l15.3-4.9l58.4-97.4
			l-10.4-3v-5.5h94.8l-0.8,26.8h-7.2l-9.6-18.9h-38.6v45.7h22.8l5.2-14.8h5.5v37.2h-5.5l-5.2-14.5h-22.8v46.9h37l14.3-20.2
			L255.7,1315.7L255.7,1315.7z M178.5,1299.3v-58.6l-35,58.6H178.5z M194.3,1215.8l-2.2-3.3c0,0,15.6-17.3,18.4-20
			c3.2-3.2,7.7-5,11-0.3c3.5,5,0.5,8.7-2.8,10.7C215.4,1204.9,194.3,1215.8,194.3,1215.8z"/>
		<path class="st1" d="M397.9,1310.5v17.6c0,0-16.2,17.3-41.7,17.3l0.8-2.7h-4.6l-1.1,2.5c-28.7-2-55.3-23-55.3-59.5
			c0-38,30.4-60.5,62.9-60.5c13.1,0,25,4.1,36.4,11c-0.2,0,0,18.1,0,18.1h-10.7l-9.8-18.9c-7.1-2-10.4-2.2-16.1-2
			c-32.5,0.9-42.8,31.3-42.8,51.8c0,28,17.2,48.7,42.5,50.1c6.3,0.3,12.8-0.6,18.6-2.2l9.9-22.7L397.9,1310.5L397.9,1310.5z
			 M356,1345.5h0.2l-2.8,8.7c9.1,0.3,16.9,3.3,16.4,12.9c-0.3,8.3-7.7,11.8-22.4,11.3v-6.9c8.2,0,12.6-1.4,12.6-5.2
			c0-3.6-3.5-4.1-12.9-4.1v-7.1l4.3-9.8C352.9,1345.5,354.5,1345.5,356,1345.5z"/>
		<path class="st1" d="M503.8,1335.8l14.3-20.2h6.9l-5.7,28H436v-5.5l11.8-3.9V1237l-11.8-4.1v-5.5h87l-0.8,26.8H515l-9.6-18.9
			h-38.6v45.7h22.8l5.2-14.8h5.5v37.2h-5.5l-5.2-14.5h-22.8v46.9H503.8L503.8,1335.8z M488.2,1212.5l-2.2,3.3
			c0,0-21.1-10.9-24.4-12.9s-6.3-5.7-2.8-10.7c2.8-4.3,7.2-3.5,11,0.3C472.6,1195.2,488.2,1212.5,488.2,1212.5z"/>
		<path class="st1" d="M630.8,1335.8l14.3-20.2h6.9l-5.7,28H563v-5.5l11.8-3.9V1237l-11.8-4v-5.5h87l-0.8,26.8H642l-9.6-18.9h-38.6
			v45.7h22.8l5.2-14.8h5.5v37.2h-5.5l-5.2-14.5h-22.8v46.9L630.8,1335.8L630.8,1335.8z M601.6,1212.5c0,0,15.6-17.3,18.4-20
			c3.2-3.2,7.7-5,11-0.3c3.5,5,0.5,8.7-2.8,10.7s-24.4,12.9-24.4,12.9L601.6,1212.5z"/>
		<path class="st1" d="M779,1315.7l-5.7,28H690v-5.5l11.8-3.9v-97.2L690,1233v-5.5h87l-0.8,26.8H769l-9.6-18.9h-38.6v45.7h22.8
			l5.2-14.8h5.5v37.2h-5.5l-5.2-14.5h-22.8v46.9h37l14.3-20.2H779L779,1315.7z M714.3,1214.7l-4.1-2.8l21.1-20.6h6.5l21.1,20.6
			l-4.1,2.8l-20.3-9.8L714.3,1214.7z"/>
		<path class="st1" d="M884.7,1335.8l14.3-20.2h6.9l-5.7,28H817v-5.5l11.8-3.9V1237l-11.8-4v-5.5h87l-0.8,26.8H896l-9.6-18.9h-38.6
			v45.7h22.8l5.2-14.8h5.5v37.2h-5.5l-5.2-14.5h-22.8v46.9L884.7,1335.8L884.7,1335.8z M845,1210.9c5.4,0,9.8-4.4,9.8-9.8
			c0-5.2-4.4-9.6-9.8-9.6c-5.2,0-9.6,4.4-9.6,9.6C835.4,1206.5,839.8,1210.9,845,1210.9z M877.9,1210.9c5.4,0,9.8-4.4,9.8-9.8
			c0-5.2-4.4-9.6-9.8-9.6c-5.2,0-9.6,4.4-9.6,9.6C868.3,1206.5,872.7,1210.9,877.9,1210.9z"/>
		<path class="st1" d="M976.5,1237.2v96.7l14.5,4.3v5.5h-46.9v-5.5l14.3-4.3v-96.7l-14.3-4.3v-5.5H991v5.5L976.5,1237.2z
			 M945.7,1192.2c2.8-4.3,7.2-3.5,11,0.3c2.8,2.7,18.4,20,18.4,20l-2.2,3.3c0,0-21.1-10.9-24.4-12.9S942.2,1197.2,945.7,1192.2z"/>
		<path class="st1" d="M1029,1227.5h46.9v5.5l-14.5,4.3v96.7l14.5,4.3v5.5H1029v-5.5l14.3-4.3v-96.7l-14.3-4.3V1227.5z
			 M1048.7,1215.8l-2.2-3.3c0,0,15.6-17.3,18.4-20c3.2-3.2,7.7-5,11-0.3c3.5,5,0.5,8.7-2.8,10.7
			C1069.8,1204.9,1048.7,1215.8,1048.7,1215.8z"/>
		<path class="st1" d="M1117.1,1214.7l-4.1-2.8l21.1-20.6h6.5l21.1,20.6l-4.1,2.8l-20.3-9.8L1117.1,1214.7z M1113.9,1227.5h46.9v5.5
			l-14.5,4.3v96.7l14.5,4.3v5.5h-46.9v-5.5l14.3-4.3v-96.7l-14.3-4.3V1227.5z"/>
		<path class="st1" d="M1196.3,1201.2c0-5.2,4.4-9.6,9.6-9.6c5.4,0,9.8,4.4,9.8,9.6c0,5.4-4.4,9.8-9.8,9.8
			C1200.7,1210.9,1196.3,1206.5,1196.3,1201.2z M1199,1227.5h46.9v5.5l-14.5,4.3v96.7l14.5,4.3v5.5H1199v-5.5l14.3-4.3v-96.7
			l-14.3-4.3V1227.5z M1229.2,1201.2c0-5.2,4.4-9.6,9.6-9.6c5.4,0,9.8,4.4,9.8,9.6c0,5.4-4.4,9.8-9.8,9.8
			C1233.6,1210.9,1229.2,1206.5,1229.2,1201.2z"/>
		<path class="st1" d="M1328,1344c0,17.8-26.6,26-35.8,26l-0.8-3.6c8.5-1.6,18.4-9.1,18.4-22.4v-105.5l-18-5.5v-5.5h36.1V1344H1328z
			"/>
		<path class="st1" d="M1414.8,1344c0,17.8-26.6,26-35.8,26l-0.8-3.6c8.5-1.6,18.4-9.1,18.4-22.4v-105.5l-18-5.5v-5.5h36.1V1344
			H1414.8z"/>
		<path class="st1" d="M1567.1,1289.1c0,26.8-18.7,54.7-57,54.7h-47.9v-5.5l11.8-4.3v-44.6h-13.4v-11h13.4v-41.3l-11.8-4.1v-5.5
			h43.8C1549.6,1227.5,1567.1,1259,1567.1,1289.1z M1547.3,1288.1c0-30.4-17.3-54.5-49.5-54.5h-4.9v44.7h23.9v11h-23.9v47.4h9.1
			C1529,1336.8,1547.3,1315.2,1547.3,1288.1z"/>
		<path class="st1" d="M1694.7,1311l-5.7,32.8h-79.9v-5.5l11.3-3.9v-97l-12.9-4.3v-5.5h44.3v5.5l-12.8,4.3v98.5h32.5l16.2-24.7h7
			V1311z M1665.9,1281.5c0-5.8,4.6-10.6,10.2-10.6c5.8,0,10.6,4.7,10.6,10.6c0,5.7-4.7,10.2-10.6,10.2
			C1670.4,1291.7,1665.9,1287.2,1665.9,1281.5z"/>
		<path class="st1" d="M1850.8,1227.5v5.5l-17.8,4.3v106.5h-8.3l-64.6-94.4v84.6l17.8,4.3v5.4h-45.7v-5.4l17.6-4.3v-96.7l-12-4.3
			v-5.5h31.2l53.9,80.2l-0.3-70.4l-17.6-4.3v-5.5L1850.8,1227.5L1850.8,1227.5z M1767.6,1214.2c-0.6-6.5,3.8-20.6,15.8-20.6
			c10.4,0,12.1,10.7,19.7,10.6c6.6-0.2,7.9-7.7,7.9-7.7h4.7c0,6.1-0.9,17.6-12.6,18.7c-11.8,1.1-13.5-9-20.8-9.5
			c-8.8-0.6-9.9,8.5-9.9,8.5H1767.6z"/>
		<path class="st1" d="M2034.2,1343.7h-71.8c-6.3,1.9-12.9,2.8-19.8,2.4c-31.2-1.9-55-30.7-52.8-64.1c2.2-33.1,29.5-57.5,60.8-56.2
			c3.8,0.2,7.6,0.8,11.2,1.7h76.1l-0.8,26.8h-7.2l-9.6-18.9h-38.6v45.7h22.8l5.2-14.8h5.5v37.2h-5.5l-5.2-14.5h-22.8v46.9h37
			l14.3-20.2h6.9L2034.2,1343.7z M1947.9,1336.5c5.4-0.2,10.4-1.9,14.8-4.7v-92.9c-4.9-2.8-10.6-4.1-16.7-3.8
			c-22.2,0.9-36.1,21.9-35.8,52.9C1910.5,1316.9,1926.6,1337.1,1947.9,1336.5z"/>
		<path class="st1" d="M2194.2,1289.5c-2.2,33.4-29.5,58.8-61,56.6c-31.2-2-55-30.7-52.8-64.1c2.2-33.1,29.5-57.5,60.8-56.2
			C2172.5,1227,2196.4,1256.5,2194.2,1289.5z M2173.6,1283.9c-0.5-30.9-15.1-49.9-36.9-48.8c-22.2,1.1-36.1,21.9-35.8,52.9
			c0.3,29,16.4,49.1,37.6,48.5C2159.7,1336,2174.1,1312.5,2173.6,1283.9z M2126.5,1192.5c-3.8-3.8-8.2-4.6-11-0.3
			c-3.5,5-0.5,8.7,2.8,10.7s24.4,12.9,24.4,12.9l2.2-3.3C2144.9,1212.5,2129.3,1195.2,2126.5,1192.5z"/>
		<path class="st1" d="M2351,1289.5c-2.2,33.4-29.5,58.8-61,56.6c-31.2-2-55-30.7-52.8-64.1c2.2-33.1,29.5-57.5,60.8-56.2
			C2329.2,1227,2353.2,1256.5,2351,1289.5z M2330.3,1283.9c-0.5-30.9-15.1-49.9-36.9-48.8c-22.2,1.1-36.1,21.9-35.8,52.9
			c0.3,29,16.4,49.1,37.6,48.5C2316.5,1336,2330.8,1312.5,2330.3,1283.9z M2290.3,1215.8c0,0,21.1-10.9,24.4-12.9
			c3.3-2,6.3-5.7,2.8-10.7c-3.3-4.7-7.9-2.8-11,0.3c-2.8,2.7-18.4,20-18.4,20L2290.3,1215.8z"/>
		<path class="st1" d="M2507.7,1289.5c-2.2,33.4-29.5,58.8-61,56.6c-31.2-2-55-30.7-52.8-64.1c2.2-33.1,29.5-57.5,60.8-56.2
			C2486,1227,2509.9,1256.5,2507.7,1289.5z M2487.1,1283.9c-0.5-30.9-15.1-49.9-36.9-48.8c-22.2,1.1-36.1,21.9-35.8,52.9
			c0.3,29,16.4,49.1,37.6,48.5C2473.2,1336,2487.5,1312.5,2487.1,1283.9z M2430.5,1214.7l-4.1-2.8l21.1-20.6h6.5l21.1,20.6l-4.1,2.8
			l-20.3-9.8L2430.5,1214.7z"/>
		<path class="st1" d="M153,1497.5c-2.2,33.4-29.5,58.8-61,56.6c-7.6-0.5-14.7-2.5-21-5.8l-9.5,16.4l-8.8-5.7l9.5-16.4
			c-15.1-11.7-24.4-31.2-23-52.6c2.2-33.1,29.5-57.5,60.8-56.2c7.9,0.3,15.3,2.4,21.9,5.8l7.7-13.4l8.8,5.2l-8,13.9
			C145.3,1457,154.4,1476.5,153,1497.5z M69.7,1529.8l46.5-80.3c-5.7-4.6-12.6-6.9-20.6-6.5c-22.2,1.1-36.1,21.9-35.8,52.9
			C59.9,1509.6,63.5,1521.4,69.7,1529.8z M132.4,1491.8c-0.2-14.2-3.5-25.8-9-34.3l-46.3,80.2c5.8,4.6,12.8,6.9,20.3,6.8
			C118.5,1543.9,132.8,1520.5,132.4,1491.8z"/>
		<path class="st1" d="M309.7,1497.5c-2.2,33.4-29.5,58.8-61,56.6c-7.6-0.5-14.7-2.5-21-5.8l-9.5,16.4l-8.8-5.7l9.5-16.4
			c-15.1-11.7-24.4-31.2-23-52.6c2.2-33.1,29.5-57.5,60.8-56.2c7.9,0.3,15.3,2.4,21.9,5.8l7.7-13.4l8.8,5.2l-8,13.9
			C302,1457,311.1,1476.5,309.7,1497.5z M226.4,1529.8l46.5-80.3c-5.7-4.6-12.6-6.9-20.6-6.5c-22.2,1.1-36.1,21.9-35.8,52.9
			C216.6,1509.6,220.3,1521.4,226.4,1529.8z M289.1,1491.8c-0.2-14.2-3.5-25.8-9-34.3l-46.3,80.2c5.8,4.6,12.8,6.9,20.3,6.8
			C275.2,1543.9,289.6,1520.5,289.1,1491.8z M249.1,1423.7l-2.2-3.3c0,0,15.6-17.3,18.4-20c3.2-3.2,7.7-5,11-0.3
			c3.5,5,0.5,8.7-2.8,10.7C270.2,1412.9,249.1,1423.7,249.1,1423.7z"/>
		<path class="st1" d="M427.2,1553.1c-11.3,0-22.2-4.9-24.9-7.1c0.2-0.3,0-13.5,0-13.5H415l2.5,10.7c0,0,4.7,2.5,9,2.4
			c8-0.3,10.7-6.1,10.7-11.2c0-20-38.8-26.9-38.8-46.9c0-5.8,2.5-9.3,2.5-9.3l19.5-22.5c0-6.6-3.3-14.7-15.9-14.7
			c-9,0-23.5,4.3-23.5,24.7v76.2l14.2,4.3v5.5h-45.1v-5.5l11.7-4.3v-74.5c0-25.2,22.2-33.9,44.3-33.9c18,0,36.4,9.3,37,23.5
			l-21.3,22.4c-2.2,2.2-3.3,4.4-3,6.5c1.7,11,38.1,18.6,36.7,45.5C455.3,1537.5,449.6,1553.1,427.2,1553.1z"/>
		<path class="st1" d="M612.3,1435.4v6.3l-16.1,3.5v66.8c0,25.2-12.4,42.8-42.8,42.4c-26.5-0.5-44.4-12.9-44.4-48.2v-61l-14.5-3.5
			v-6.3H543v6.3l-14.3,3.5v60c0,15.6,2.7,38.8,25.7,39.7c22.1,0.9,30.9-14.8,30.9-36.1c0-6.8-0.2-43.5-0.2-63.6l-16.1-3.5v-6.3
			L612.3,1435.4L612.3,1435.4z M531.5,1400.1c2.8-4.3,7.2-3.5,11,0.3c2.8,2.7,18.4,20,18.4,20l-2.2,3.3c0,0-21.1-10.9-24.4-12.9
			S528.1,1405.2,531.5,1400.1z"/>
		<path class="st1" d="M768.1,1435.4v6.3l-16.1,3.5v66.8c0,25.2-12.4,42.8-42.8,42.4c-26.5-0.5-44.4-12.9-44.4-48.2v-61l-14.5-3.5
			v-6.3h48.5v6.3l-14.3,3.5v60c0,15.6,2.7,38.8,25.7,39.7c22.1,0.9,30.9-14.8,30.9-36.1c0-6.8-0.2-43.5-0.2-63.6l-16.1-3.5v-6.3
			L768.1,1435.4L768.1,1435.4z M705.4,1423.7l-2.2-3.3c0,0,15.6-17.3,18.4-20c3.2-3.2,7.7-5,11-0.3c3.5,5,0.5,8.7-2.8,10.7
			C726.5,1412.9,705.4,1423.7,705.4,1423.7z"/>
		<path class="st1" d="M923.9,1435.4v6.3l-16.1,3.5v66.8c0,25.2-12.4,42.8-42.8,42.4c-26.5-0.5-44.4-12.9-44.4-48.2v-61l-14.5-3.5
			v-6.3h48.5v6.3l-14.3,3.5v60c0,15.6,2.7,38.8,25.7,39.7c22.1,0.9,30.9-14.8,30.9-36.1c0-6.8-0.2-43.5-0.2-63.6l-16.1-3.5v-6.3
			L923.9,1435.4L923.9,1435.4z M844.7,1422.6l-4.1-2.8l21.1-20.6h6.5l21.1,20.6l-4.1,2.8l-20.3-9.8L844.7,1422.6z"/>
		<path class="st1" d="M1079.9,1435.4v6.3l-16.1,3.5v66.8c0,25.2-12.4,42.8-42.8,42.4c-26.5-0.5-44.4-12.9-44.4-48.2v-61l-14.5-3.5
			v-6.3h48.5v6.3l-14.3,3.5v60c0,15.6,2.7,38.8,25.7,39.7c22.1,0.9,30.9-14.8,30.9-36.1c0-6.8-0.2-43.5-0.2-63.6l-16.1-3.5v-6.3
			L1079.9,1435.4L1079.9,1435.4z M994.8,1409.1c0-5.2,4.4-9.6,9.6-9.6c5.4,0,9.8,4.4,9.8,9.6c0,5.4-4.4,9.8-9.8,9.8
			C999.2,1418.9,994.8,1414.5,994.8,1409.1z M1027.7,1409.1c0-5.2,4.4-9.6,9.6-9.6c5.4,0,9.8,4.4,9.8,9.6c0,5.4-4.4,9.8-9.8,9.8
			C1032.1,1418.9,1027.7,1414.5,1027.7,1409.1z"/>
		<path class="st1" d="M1278,1435.4v5.5l-13.9,4.7l-32.5,106h-6.1l-26.9-84.6l-26.6,84.6h-6.1l-34.5-105.9l-14.3-4.9v-5.5h48v5.5
			l-13.4,4.3l22.4,71l20-62.5l-2.8-8l-13.4-4.7v-5.5h46.2v5.5l-12.3,4.3l22.4,69l20.5-69l-12.8-4.3v-5.5H1278L1278,1435.4z
			 M1177.2,1422.6l-4.1-2.8l21.1-20.6h6.5l21.1,20.6l-4.1,2.8l-20.3-9.8L1177.2,1422.6z"/>
		<path class="st1" d="M1475.4,1435.4v5.5l-13.9,4.7l-32.5,106h-6.1L1396,1467l-26.6,84.6h-6.1l-34.5-105.9l-14.3-4.9v-5.5h48v5.5
			l-13.4,4.3l22.4,71l20-62.5l-2.8-8l-13.4-4.7v-5.5h46.2v5.5l-12.3,4.3l22.4,69l20.5-69l-12.8-4.3v-5.5H1475.4L1475.4,1435.4z
			 M1378.4,1418.9c5.4,0,9.8-4.4,9.8-9.8c0-5.2-4.4-9.6-9.8-9.6c-5.2,0-9.6,4.4-9.6,9.6C1368.8,1414.5,1373.2,1418.9,1378.4,1418.9z
			 M1411.3,1418.9c5.4,0,9.8-4.4,9.8-9.8c0-5.2-4.4-9.6-9.8-9.6c-5.2,0-9.6,4.4-9.6,9.6C1401.7,1414.5,1406.1,1418.9,1411.3,1418.9z
			"/>
		<path class="st1" d="M1672.8,1435.4v5.5l-13.9,4.7l-32.5,106h-6.1l-26.9-84.6l-26.6,84.6h-6.1l-34.5-105.9l-14.3-4.9v-5.5h48v5.5
			l-13.4,4.3l22.4,71l20-62.5l-2.8-8l-13.4-4.7v-5.5h46.2v5.5l-12.3,4.3l22.4,69l20.5-69l-12.8-4.3v-5.5H1672.8L1672.8,1435.4z
			 M1586.3,1420.4c0,0,15.6-17.3,18.4-20c3.2-3.2,7.7-5,11-0.3c3.5,5,0.5,8.7-2.8,10.7s-24.4,12.9-24.4,12.9L1586.3,1420.4z"/>
		<path class="st1" d="M1870.3,1435.4v5.5l-13.9,4.7l-32.5,106h-6.1l-26.9-84.6l-26.6,84.6h-6.1l-34.5-105.9l-14.3-4.9v-5.5h48v5.5
			l-13.4,4.3l22.4,71l20-62.5l-2.8-8l-13.4-4.7v-5.5h46.2v5.5l-12.3,4.3l22.4,69l20.5-69l-12.8-4.3v-5.5H1870.3L1870.3,1435.4z
			 M1797.4,1420.4l-2.2,3.3c0,0-21.1-10.9-24.4-12.9s-6.3-5.7-2.8-10.7c2.8-4.3,7.2-3.5,11,0.3
			C1781.8,1403.1,1797.4,1420.4,1797.4,1420.4z"/>
		<path class="st1" d="M1971.5,1498.1v43.8l14.8,4.3v5.5h-48.7v-5.5l15-4.3v-42.7l-33.1-53.4l-13.5-4.9v-5.5l46.3,0.3v5.5l-12.3,4.1
			l27.1,43.5l24.3-43.6l-12.6-4.3v-5.5h38.4v5.5l-14.2,4.9L1971.5,1498.1z M1941.2,1422.6l-4.1-2.8l21.1-20.6h6.5l21.1,20.6
			l-4.1,2.8l-20.3-9.8L1941.2,1422.6z"/>
		<path class="st1" d="M2117.5,1498.1v43.8l14.8,4.3v5.5h-48.7v-5.5l15-4.3v-42.7l-33.1-53.4l-13.5-4.9v-5.5l46.3,0.3v5.5l-12.3,4.1
			l27.1,43.5l24.3-43.6l-12.6-4.3v-5.5h38.4v5.5l-14.2,4.9L2117.5,1498.1z M2081.4,1409.1c0-5.2,4.4-9.6,9.6-9.6
			c5.4,0,9.8,4.4,9.8,9.6c0,5.4-4.4,9.8-9.8,9.8C2085.8,1418.9,2081.4,1414.5,2081.4,1409.1z M2114.4,1409.1c0-5.2,4.4-9.6,9.6-9.6
			c5.4,0,9.8,4.4,9.8,9.6c0,5.4-4.4,9.8-9.8,9.8C2118.8,1418.9,2114.4,1414.5,2114.4,1409.1z"/>
		<path class="st1" d="M2263.7,1498.1v43.8l14.8,4.3v5.5h-48.7v-5.5l15-4.3v-42.7l-33.1-53.4l-13.5-4.9v-5.5l46.3,0.3v5.5l-12.3,4.1
			l27.1,43.5l24.3-43.6l-12.6-4.3v-5.5h38.4v5.5l-14.2,4.9L2263.7,1498.1z M2231.9,1400.1c2.8-4.3,7.2-3.5,11,0.3
			c2.8,2.7,18.4,20,18.4,20l-2.2,3.3c0,0-21.1-10.9-24.4-12.9C2231.4,1408.8,2228.4,1405.2,2231.9,1400.1z"/>
		<path class="st1" d="M2409.7,1498.1v43.8l14.8,4.3v5.5h-48.7v-5.5l15-4.3v-42.7l-33.1-53.4l-13.5-4.9v-5.5l46.3,0.3v5.5l-12.3,4.1
			l27.1,43.5l24.3-43.6l-12.6-4.3v-5.5h38.4v5.5l-14.2,4.9L2409.7,1498.1z M2396,1423.7l-2.2-3.3c0,0,15.6-17.3,18.4-20
			c3.2-3.2,7.7-5,11-0.3c3.5,5,0.5,8.7-2.8,10.7C2417.1,1412.9,2396,1423.7,2396,1423.7z"/>
		<path class="st1" d="M54.8,1749.4v3.9l-16.5,7.4c-5,0-9-5.8-9-9.5c0,0-8.5,10.1-21.4,10.1c-11.5,0-21-6.1-21.3-17.8
			c-0.3-12,6.3-17.8,15.4-20.6c8.7-2.5,25-7.7,27.3-8.5v-4.6c0-15.6-8-20.3-15.4-19.2c-3.2,0.5-5.2,1.4-5.2,1.4L3,1704.9H-8.3
			c0,0,0.2-13.4,0-13.4c3-2.5,12.4-7.2,24.6-7.2c28.2,0,29.5,18.3,29.8,28.7v34.7C46,1752.2,54.8,1749.4,54.8,1749.4z M-3.4,1671.5
			l-4.1-2.8l21.1-25.4H20l21.1,25.4l-4.1,2.8L16.7,1658L-3.4,1671.5z M29.3,1720.1c-5.2,1.7-11.2,3.9-16.2,5.8
			c-6.3,2.4-9.8,6.3-9.8,15c0,7.4,5.5,11.8,13.1,11.3c9.3-0.6,12.9-5.7,12.9-5.7S29.3,1720.1,29.3,1720.1z"/>
		<path class="st1" d="M161,1749.4v3.9l-16.5,7.4c-5,0-9-5.8-9-9.5c0,0-8.5,10.1-21.4,10.1c-11.5,0-21-6.1-21.3-17.8
			c-0.3-12,6.3-17.8,15.4-20.6c8.7-2.5,25-7.7,27.3-8.5v-4.6c0-15.6-8-20.3-15.4-19.2c-3.2,0.5-5.2,1.4-5.2,1.4l-5.7,12.9H97.9
			c0,0,0.2-13.4,0-13.4c3-2.5,12.4-7.2,24.6-7.2c28.2,0,29.5,18.3,29.8,28.7v34.7C152.2,1752.2,161,1749.4,161,1749.4z
			 M114.9,1650.4c10.4,0,12.1,10.7,19.7,10.6c6.6-0.2,7.9-7.7,7.9-7.7h4.7c0,6.1-0.9,17.6-12.6,18.7c-11.8,1.1-13.5-9-20.8-9.5
			c-8.8-0.6-9.9,8.5-9.9,8.5h-4.7C98.5,1664.6,102.9,1650.4,114.9,1650.4z M135.5,1746.5V1720c-5.2,1.7-11.2,3.9-16.2,5.8
			c-6.3,2.4-9.8,6.3-9.8,15c0,7.4,5.5,11.8,13.1,11.3C131.9,1751.6,135.5,1746.5,135.5,1746.5z"/>
		<path class="st1" d="M267.2,1749.4v3.9l-16.5,7.4c-5,0-9-5.8-9-9.5c0,0-8.5,10.1-21.4,10.1c-11.5,0-21-6.1-21.3-17.8
			c-0.3-12,6.3-17.8,15.4-20.6c8.7-2.5,25-7.7,27.3-8.5v-4.6c0-15.6-8-20.3-15.4-19.2c-3.2,0.5-5.2,1.4-5.2,1.4l-5.7,12.9H204
			c0,0,0.2-13.4,0-13.4c3-2.5,12.4-7.2,24.6-7.2c28.2,0,29.5,18.3,29.8,28.7v34.7C258.4,1752.2,267.2,1749.4,267.2,1749.4z
			 M203.1,1662.9c0-5.2,4.4-9.6,9.6-9.6c5.4,0,9.8,4.4,9.8,9.6c0,5.4-4.4,9.8-9.8,9.8C207.5,1672.6,203.1,1668.2,203.1,1662.9z
			 M241.7,1746.5V1720c-5.2,1.7-11.2,3.9-16.2,5.8c-6.3,2.4-9.8,6.3-9.8,15c0,7.4,5.5,11.8,13.1,11.3
			C238.1,1751.6,241.7,1746.5,241.7,1746.5z M236,1662.9c0-5.2,4.4-9.6,9.6-9.6c5.4,0,9.8,4.4,9.8,9.6c0,5.4-4.4,9.8-9.8,9.8
			C240.4,1672.6,236,1668.2,236,1662.9z"/>
		<path class="st1" d="M373.4,1749.4v3.9l-16.5,7.4c-5,0-9-5.8-9-9.5c0,0-8.5,10.1-21.4,10.1c-11.5,0-21-6.1-21.3-17.8
			c-0.3-12,6.3-17.8,15.4-20.6c8.7-2.5,25-7.7,27.3-8.5v-4.6c0-15.6-8-20.3-15.4-19.2c-3.2,0.5-5.2,1.4-5.2,1.4l-5.7,12.9h-11.3
			c0,0,0.2-13.4,0-13.4c3-2.5,12.4-7.2,24.6-7.2c28.2,0,29.5,18.3,29.8,28.7v34.7C364.5,1752.2,373.4,1749.4,373.4,1749.4z
			 M321.4,1658c0-8,5.8-14.7,14-14.7c8,0,13.9,6.6,13.9,14.7c0,8.2-5.8,14.8-13.9,14.8C327.2,1672.8,321.4,1666.2,321.4,1658z
			 M347.8,1746.5V1720c-5.2,1.7-11.2,3.9-16.2,5.8c-6.3,2.4-9.8,6.3-9.8,15c0,7.4,5.5,11.8,13.1,11.3
			C344.2,1751.6,347.8,1746.5,347.8,1746.5z M342.2,1658c0-4.1-2.7-7.4-6.9-7.4c-3.9,0-6.8,3.3-6.8,7.4c0,4.3,2.8,7.4,6.8,7.4
			C339.5,1665.4,342.2,1662.2,342.2,1658z"/>
		<path class="st1" d="M518.3,1720.1H471c0,18.4,12.4,31.2,26.1,32c13.5,0.8,19.4-6,19.4-6v3.5c0-0.2-5,12-24.9,12
			c-12.1,0-22.4-5-29-13.2c-3,2.8-13.5,12.3-28.4,13.1c-11.5,0.6-22.5-6.1-22.8-17.8c-0.3-12,6.3-17.8,15.4-20.6
			c8.5-2.5,25.8-7.7,28.5-8.7c0-0.2,0.2-0.3,0.2-0.5v-4.1c0-15.6-9.5-20.2-16.9-19.1c-3.2,0.5-5.2,1.4-5.2,1.4l-5.7,12.9h-11.3
			c0,0,0.2-13.4,0-13.4c3-2.5,12.4-7.2,24.6-7.2c13.7,0,21.1,4.4,25,10.1c5.8-6,13.7-9.6,23-9.6
			C510.7,1684.8,519.6,1704.6,518.3,1720.1z M459.7,1743.8c-3.3-5.8-5.2-12.8-5.2-20.5c0-1.1,0-2.2,0.2-3.3
			c-5.2,1.7-11.7,3.9-16.7,5.8c-6.3,2.4-10.1,6.3-9.8,15c0.3,7.4,5.5,12.1,14.7,11.3C449.1,1751.7,455.8,1747,459.7,1743.8z
			 M502.9,1711.1c0-6-5.2-18.9-15.6-18.9c-12.9,0-16.1,16.2-16.1,22.4L502.9,1711.1z"/>
		<path class="st1" d="M663.2,1720.1H616c0,18.4,12.4,31.2,26.1,32c13.5,0.8,19.4-6,19.4-6v3.5c0-0.2-5,12-24.9,12
			c-12.1,0-22.4-5-29-13.2c-3,2.8-13.5,12.3-28.4,13.1c-11.5,0.6-22.5-6.1-22.8-17.8c-0.3-12,6.3-17.8,15.4-20.6
			c8.5-2.5,25.8-7.7,28.5-8.7c0-0.2,0.2-0.3,0.2-0.5v-4.1c0-15.6-9.5-20.2-16.9-19.1c-3.2,0.5-5.2,1.4-5.2,1.4l-5.7,12.9h-11.3
			c0,0,0.2-13.4,0-13.4c3-2.5,12.4-7.2,24.6-7.2c13.7,0,21.1,4.4,25,10.1c5.8-6,13.7-9.6,23-9.6
			C655.7,1684.8,664.5,1704.6,663.2,1720.1z M604.6,1743.8c-3.3-5.8-5.2-12.8-5.2-20.5c0-1.1,0-2.2,0.2-3.3
			c-5.2,1.7-11.7,3.9-16.7,5.8c-6.3,2.4-10.1,6.3-9.8,15c0.3,7.4,5.5,12.1,14.7,11.3C594.1,1751.7,600.7,1747,604.6,1743.8z
			 M606.8,1676.1l-3.5-1.9c0,0,6-22.5,7.2-26.1c1.4-4.3,4.7-8,9.8-5.4c5.4,2.8,4.4,7.6,2.4,10.9S606.8,1676.1,606.8,1676.1z
			 M647.8,1711.1c0-6-5.2-18.9-15.6-18.9c-12.9,0-16.1,16.2-16.1,22.4L647.8,1711.1z"/>
		<path class="st1" d="M737.3,1761.2l-2.8,8.8c9.1,0.3,16.9,3.3,16.4,12.9c-0.3,8.3-7.7,11.8-22.4,11.3v-6.9
			c8.2,0,12.6-1.4,12.6-5.2c0-3.6-3.5-4.1-12.9-4.1v-7.1l4.4-10.2c-13.9-2.4-29.3-12.1-31-33.7c-2.2-26.8,20-42.1,37.2-42.2
			c12-0.2,19.7,3.9,22.4,5.8l-0.3,14.3l-9.1-0.2l-7.9-12c-16.7-2.5-28.5,17.5-25.2,36.2c2.5,14.3,14.2,22.7,25.2,23.2
			c12.8,0.5,19.4-5.5,19.4-5.5l0.2,3.5c0,0-6.3,9.9-21.6,11C740.2,1761.3,738.8,1761.3,737.3,1761.2z"/>
		<path class="st1" d="M863.4,1746v3.5c0-0.2-5,12-24.9,12c-21.7,0-37.2-16.1-37.2-38.1c0-19.7,13.7-38.1,34.7-38.1
			c21.6,0,30.4,19.4,29.1,34.8h-47.3c0,18.4,12.4,31.2,26.1,32C857.6,1752.8,863.4,1746,863.4,1746z M831.1,1648.1
			c-1.4-4.3-4.7-8-9.8-5.4c-5.4,2.8-4.4,7.6-2.4,10.9s15.9,22.5,15.9,22.5l3.5-1.9C838.4,1674.2,832.4,1651.7,831.1,1648.1z
			 M818.1,1714.5l30.1-3.5c0-2.8-3.6-17.3-14-17.3C821.2,1693.7,818.1,1708.4,818.1,1714.5z"/>
		<path class="st1" d="M965.4,1746v3.5c0-0.2-5,12-24.9,12c-21.7,0-37.2-16.1-37.2-38.1c0-19.7,13.7-38.1,34.7-38.1
			c21.6,0,30.4,19.4,29.1,34.8h-47.3c0,18.4,12.4,31.2,26.1,32C959.5,1752.8,965.4,1746,965.4,1746z M920,1714.5l30.1-3.5
			c0-2.8-3.6-17.3-14-17.3C923.1,1693.7,920,1708.4,920,1714.5z M932.1,1676.1c0,0,13.9-19.2,15.9-22.5s3-8-2.4-10.9
			c-5-2.7-8.3,1.1-9.8,5.4c-1.3,3.6-7.2,26.1-7.2,26.1L932.1,1676.1z"/>
		<path class="st1" d="M1069,1720.1h-47.3c0,18.4,12.4,31.2,26.1,32c13.5,0.8,19.4-6,19.4-6v3.5c0-0.2-5,12-24.9,12
			c-21.7,0-37.2-16.1-37.2-38.1c0-19.7,13.7-38.1,34.7-38.1C1061.4,1685.2,1070.3,1704.6,1069,1720.1z M1016.1,1671.5l-4.1-2.8
			l21.1-25.4h6.5l21.1,25.4l-4.1,2.8l-20.3-13.5L1016.1,1671.5z M1052,1711.1c0-2.8-3.6-17.3-14-17.3c-12.9,0-16.1,14.7-16.1,20.8
			L1052,1711.1z"/>
		<path class="st1" d="M1169.2,1746v3.5c0-0.2-5,12-24.9,12c-21.7,0-37.2-16.1-37.2-38.1c0-19.7,13.7-38.1,34.7-38.1
			c21.6,0,30.4,19.4,29.1,34.8h-47.3c0,18.4,12.4,31.2,26.1,32C1163.4,1752.8,1169.2,1746,1169.2,1746z M1112.2,1662.9
			c0-5.2,4.4-9.6,9.6-9.6c5.4,0,9.8,4.4,9.8,9.6c0,5.4-4.4,9.8-9.8,9.8C1116.6,1672.6,1112.2,1668.2,1112.2,1662.9z M1123.8,1714.5
			l30.1-3.5c0-2.8-3.6-17.3-14-17.3C1127,1693.7,1123.8,1708.4,1123.8,1714.5z M1145.1,1662.9c0-5.2,4.4-9.6,9.6-9.6
			c5.4,0,9.8,4.4,9.8,9.6c0,5.4-4.4,9.8-9.8,9.8C1149.5,1672.6,1145.1,1668.2,1145.1,1662.9z"/>
		<path class="st1" d="M1248.1,1755.7v3.9h-39.7v-3.9l12-3.9v-54l-11.5-2.8v-3.9l27.6-4.1v64.9L1248.1,1755.7z"/>
		<path class="st1" d="M1324.2,1755.7v3.9h-39.7v-3.9l12-3.9v-54l-11.5-2.8v-3.9l27.6-4.1v64.9L1324.2,1755.7z M1290,1653.6
			c-2-3.3-3-8,2.4-10.9c5-2.7,8.3,1.1,9.8,5.4c1.3,3.6,7.2,26.1,7.2,26.1l-3.5,1.9C1305.9,1676.1,1292.1,1656.9,1290,1653.6z"/>
		<path class="st1" d="M1400.3,1755.7v3.9h-39.7v-3.9l12-3.9v-54l-11.5-2.8v-3.9l27.6-4.1v64.9L1400.3,1755.7z M1377.3,1676.1
			l-3.5-1.9c0,0,6-22.5,7.2-26.1c1.4-4.3,4.7-8,9.8-5.4c5.4,2.8,4.4,7.6,2.4,10.9C1391.2,1656.9,1377.3,1676.1,1377.3,1676.1z"/>
		<path class="st1" d="M1455.7,1658l-20.2,13.5l-4.1-2.8l21.1-25.4h6.5l21.1,25.4l-4.1,2.8L1455.7,1658z M1464.9,1751.7l11.7,3.9
			v3.9h-39.7v-3.9l12-3.9v-54l-11.5-2.8v-3.9l27.6-4.1L1464.9,1751.7L1464.9,1751.7z"/>
		<path class="st1" d="M1515.4,1672.6c-5.2,0-9.6-4.4-9.6-9.8c0-5.2,4.4-9.6,9.6-9.6c5.4,0,9.8,4.4,9.8,9.6
			C1525.2,1668.2,1520.8,1672.6,1515.4,1672.6z M1541,1751.7l11.7,3.9v3.9H1513v-3.9l12-3.9v-54l-11.5-2.8v-3.9l27.6-4.1
			L1541,1751.7L1541,1751.7z M1558.1,1662.9c0,5.4-4.4,9.8-9.8,9.8c-5.2,0-9.6-4.4-9.6-9.8c0-5.2,4.4-9.6,9.6-9.6
			C1553.7,1653.3,1558.1,1657.7,1558.1,1662.9z"/>
		<path class="st1" d="M1589.2,1786.5c4.3-0.5,12.8-1.6,12.8-16.4v-72.6l-11.7-2.7v-3.9l27.4-4.1v81.9c0,16.7-14.5,25.4-28.7,20
			L1589.2,1786.5z"/>
		<path class="st1" d="M1735.5,1723.7c-0.2,1.9-0.3,3.9-0.6,5.8c-3.5,21.3-21.9,35-43,30.9c-19.5-3.8-31.7-24.7-27.4-45.7
			c4.1-20.3,23.6-33.6,43-29.1c1.7,0.3,3.3,0.8,4.9,1.4c-2.2-6.9-6-13.5-11.7-19.8l-15.3,9l-4.4-7.7l12.9-7.6
			c-5.7-4.7-12.9-9.3-21.9-13.5l2.2-5.5c11,2.8,20.5,7.7,28.7,13.9l16.9-9.9l4.4,7.7l-14.2,8.3
			C1727.6,1678.6,1736.3,1702.3,1735.5,1723.7z M1718.5,1720.4c-0.3-16.7-7.6-28.5-20.8-27.3c-12.8,1.6-17.2,14.3-16.9,31.2
			c0.5,17.2,6.6,29.9,20.6,28.2C1713.9,1751.1,1718.8,1737.7,1718.5,1720.4z"/>
		<path class="st1" d="M1861.2,1755.7v3.9H1821v-3.9l12-3.9V1739v-27.4c0-15.9-8-18.3-15.3-16.1l-15.1,4.7v51.5l11.7,3.9v3.9h-39.9
			v-3.9l11.8-3.9v-54.2l-10.4-3.3v-3.9l23.9-3.5l2.8,8.8l13.5-7.2c14-7.6,33.4-0.3,33.4,21.9c0,10.1,0.2,31.8,0,41.4L1861.2,1755.7z
			 M1793.8,1658.3c-5.4,1.3-10.9-0.3-12.4-5.4c-1.7-5.4,1.1-11.2,6.6-12.6c4.9-1.3,10.4,1.7,12.6,6.8c6,13.9-6,36.4-22.7,39.5
			l-1.1-3.9C1787,1679.7,1794.4,1669.8,1793.8,1658.3z"/>
		<path class="st1" d="M1986,1755.7v3.9h-40.2v-3.9l12-3.9V1739v-27.4c0-15.9-8-18.3-15.3-16.1l-15.1,4.7v51.5l11.7,3.9v3.9h-39.9
			v-3.9l11.8-3.9v-54.2l-10.4-3.3v-3.9l23.9-3.5l2.8,8.8l13.5-7.2c14-7.6,33.4-0.3,33.4,21.9c0,10.1,0.2,31.8,0,41.4L1986,1755.7z
			 M1918.7,1671.1c-0.6-6.5,3.8-20.6,15.8-20.6c10.4,0,12.1,10.7,19.7,10.6c6.6-0.2,7.9-7.7,7.9-7.7h4.7c0,6.1-0.9,17.6-12.6,18.7
			c-11.8,1.1-13.5-9-20.8-9.5c-8.8-0.6-9.9,8.5-9.9,8.5H1918.7z"/>
		<path class="st1" d="M2052.6,1641.4v110.3l11.7,3.9v3.9h-40v-3.9l11.8-3.9v-99.9l-12.1-3.3v-3.9L2052.6,1641.4z M2063.3,1697.4
			c0-5.8,4.6-10.6,10.2-10.6c5.8,0,10.6,4.7,10.6,10.6c0,5.7-4.7,10.2-10.6,10.2C2067.9,1707.6,2063.3,1703,2063.3,1697.4z"/>
		<path class="st1" d="M2241.3,1720.1H2194c0,18.4,12.4,31.2,26.1,32c13.5,0.8,19.4-6,19.4-6v3.5c0-0.2-5,12-24.9,12
			c-12.3,0-22.5-5.2-29-13.7c-7.9,10.1-20.3,15.3-34.5,12.6c-19.5-3.8-31.7-24.7-27.4-45.7c4.1-20.3,23.6-33.6,43-29.1
			c8.2,1.7,15,6.1,19.5,12.4c6-7.7,14.8-12.8,25.8-12.8C2233.8,1685.2,2242.6,1704.6,2241.3,1720.1z M2177.8,1720.5
			c-0.2-16.7-7.2-28.5-20.5-27.4c-12.8,1.4-17.3,14.2-17.2,31c0.3,17.2,6.3,29.9,20.3,28.4C2173,1751.2,2178,1737.9,2177.8,1720.5z
			 M2224.3,1711.1c0-2.8-3.6-17.3-14-17.3c-12.9,0-16.1,14.7-16.1,20.8L2224.3,1711.1z"/>
		<path class="st1" d="M2350.7,1729.5c-3.5,21.3-21.9,35-43,30.9c-19.5-3.8-31.7-24.7-27.4-45.7c4.1-20.3,23.6-33.6,43-29.1
			C2342.6,1689.5,2354,1709,2350.7,1729.5z M2334.3,1720.4c-0.3-16.7-7.6-28.5-20.8-27.3c-12.8,1.6-17.2,14.3-16.9,31.2
			c0.5,17.2,6.6,29.9,20.6,28.2C2329.7,1751.1,2334.6,1737.7,2334.3,1720.4z M2313.9,1648.1c-1.4-4.3-4.7-8-9.8-5.4
			c-5.4,2.8-4.4,7.6-2.4,10.9s15.9,22.5,15.9,22.5l3.5-1.9C2321.2,1674.2,2315.2,1651.7,2313.9,1648.1z"/>
		<path class="st1" d="M2462,1729.5c-3.5,21.3-21.9,35-43,30.9c-19.5-3.8-31.7-24.7-27.4-45.7c4.1-20.3,23.6-33.6,43-29.1
			C2454,1689.5,2465.3,1709,2462,1729.5z M2445.6,1720.4c-0.3-16.7-7.6-28.5-20.8-27.3c-12.8,1.6-17.2,14.3-16.9,31.2
			c0.5,17.2,6.6,29.9,20.6,28.2C2441.1,1751.1,2446,1737.7,2445.6,1720.4z M2424.4,1676.1c0,0,13.9-19.2,15.9-22.5s3-8-2.4-10.9
			c-5-2.7-8.3,1.1-9.8,5.4c-1.3,3.6-7.2,26.1-7.2,26.1L2424.4,1676.1z"/>
	</g>
</g>
</svg>
