<?xml version="1.0" encoding="utf-8"?>
<!-- Generator: Adobe Illustrator 23.0.0, SVG Export Plug-In . SVG Version: 6.00 Build 0)  -->
<svg version="1.1" xmlns="http://www.w3.org/2000/svg" xmlns:xlink="http://www.w3.org/1999/xlink" x="0px" y="0px"
	 viewBox="0 0 2081 1452" style="enable-background:new 0 0 2081 1452;" xml:space="preserve">
<style type="text/css">
	.st0{fill:#DFDBCF;}
	.st1{fill:#EDA447;}
	.st2{fill:#002E2D;}
	.st3{fill:#EB6931;}
	.st4{fill:none;stroke:#EDA447;stroke-width:19;stroke-miterlimit:10;}
	.st5{fill:#6D6D6D;}
	.st6{fill:#FFFFFF;}
	.st7{opacity:0.37;fill:#C94E23;}
</style>
<g id="Layer_1">
	<rect x="-42" y="-27" class="st0" width="2154" height="1507"/>
</g>
<g id="Layer_2">
	<path class="st3" d="M984.1,981.2H1719v-75.5h-690.8C1028.2,905.7,1011.7,954.8,984.1,981.2"/>
	<g>
		<path class="st5" d="M518.4,513.1v312.1l60,20.9v20.9H380.1v-20.9l60-20.9V513.1h-59.5l-47.5,73.6h-28.7l2.6-104.9h344.4
			l2.6,104.9h-28.7l-47.5-73.6H518.4z"/>
		<path class="st5" d="M858.2,823.1v17.2L795,872.1c-16.7,0-33.9-18.8-33.9-30.3c0,0-23.5,28.7-59.5,30.8
			c-38.1,2.1-77.2-8.9-80.4-58.5c-3.1-50.1,49.6-65.2,59-68.4l80.4-25.6v-15.1c0-51.7-28.2-59.5-52.7-59.5c-5.2,0-9.9,2.1-9.9,2.1
			l-17.2,43.8h-46.4v-45.4c9.9-8.4,40.2-26.6,80.4-26.6c93.4,0,119.5,53.8,119.5,92.9v105.4C834.2,829.9,858.2,823.1,858.2,823.1z
			 M761.1,820v-78.3l-42.3,15.7c-20.9,7.8-27.7,26.1-25.6,47.5c2.6,24.5,11.5,34.4,36.5,32.9C752.2,835.6,761.1,820,761.1,820z"/>
		<path class="st5" d="M865,986.4v-75.7h41.2l13,31.3c11.5,0,20.4-2.6,30.3-23l27.7-56.4l-96.5-200.4l-32.4-20.9v-15.7h140.4v15.7
			l-30.3,17.7l57.9,119c0,0,39.7-84.5,54.3-117.9l-38.1-18.8v-15.7H1151v15.7l-40.2,20.9L989.2,926.9
			C953.2,997.9,890.6,984.9,865,986.4z"/>
		<path class="st5" d="M1254,475.5v354.9l38.6,20.9v15.7h-148.2v-15.7l39.1-20.9V522.5l-40.2-20.9V486L1254,475.5z"/>
		<path class="st5" d="M1550.6,751.6c-2.6,70.5-60.5,125.3-128.4,122.6c-66.8-3.1-119.5-63.1-116.4-133.1
			c2.6-70.5,60.5-125.8,128.4-122.1C1502,621.6,1553.7,680.6,1550.6,751.6z M1478.5,735.9c-1.6-55.8-23-91.3-57.9-83.5
			c-34.4,7.8-45.9,50.6-42.8,106.5c3.1,53.2,20.4,86.1,58.5,81.9C1470.7,837.2,1481.7,790.7,1478.5,735.9z"/>
		<path class="st5" d="M1786.6,634.7v60h-47l-25.1-26.6c-18.3,1.6-38.1,26.6-38.1,26.6v135.7l47.5,20.9v15.7h-158.7v-15.7l38.1-20.9
			l-0.5-154.5l-38.6-23v-15.7l104.4-11l7.8,43.3c0,0,28.7-36.5,35-40.2C1739.6,611.7,1786.6,628.4,1786.6,634.7z"/>
	</g>
	<rect x="375" y="905.7" class="st3" width="452.2" height="75.5"/>
	<g>
		<path class="st6" d="M513.4,510.1v312.1l60,20.9v20.9H375.1v-20.9l60-20.9V510.1h-59.5l-47.5,73.6h-28.7l2.6-104.9h344.4
			l2.6,104.9h-28.7l-47.5-73.6H513.4z"/>
		<path class="st6" d="M853.2,820.1v17.2L790,869.1c-16.7,0-33.9-18.8-33.9-30.3c0,0-23.5,28.7-59.5,30.8
			c-38.1,2.1-77.2-8.9-80.4-58.5c-3.1-50.1,49.6-65.2,59-68.4l80.4-25.6v-15.1c0-51.7-28.2-59.5-52.7-59.5c-5.2,0-9.9,2.1-9.9,2.1
			l-17.2,43.8h-46.4v-45.4c9.9-8.4,40.2-26.6,80.4-26.6c93.4,0,119.5,53.8,119.5,92.9v105.4C829.2,826.9,853.2,820.1,853.2,820.1z
			 M756.1,817v-78.3l-42.3,15.7c-20.9,7.8-27.7,26.1-25.6,47.5c2.6,24.5,11.5,34.4,36.5,32.9C747.2,832.6,756.1,817,756.1,817z"/>
		<path class="st6" d="M860,983.4v-75.7h41.2l13,31.3c11.5,0,20.4-2.6,30.3-23l27.7-56.4l-96.5-200.4l-32.4-20.9v-15.7h140.4v15.7
			l-30.3,17.7l57.9,119c0,0,39.7-84.5,54.3-117.9l-38.1-18.8v-15.7H1146v15.7l-40.2,20.9L984.2,923.9
			C948.2,994.9,885.6,981.9,860,983.4z"/>
		<path class="st6" d="M1249,472.5v354.9l38.6,20.9v15.7h-148.2v-15.7l39.1-20.9V519.5l-40.2-20.9V483L1249,472.5z"/>
		<path class="st6" d="M1545.6,748.6c-2.6,70.5-60.5,125.3-128.4,122.6c-66.8-3.1-119.5-63.1-116.4-133.1
			c2.6-70.5,60.5-125.8,128.4-122.1C1497,618.6,1548.7,677.6,1545.6,748.6z M1473.5,732.9c-1.6-55.8-23-91.3-57.9-83.5
			c-34.4,7.8-45.9,50.6-42.8,106.5c3.1,53.2,20.4,86.1,58.5,81.9C1465.7,834.2,1476.7,787.7,1473.5,732.9z"/>
		<path class="st6" d="M1781.6,631.7v60h-47l-25.1-26.6c-18.3,1.6-38.1,26.6-38.1,26.6v135.7l47.5,20.9v15.7h-158.7v-15.7l38.1-20.9
			l-0.5-154.5l-38.6-23v-15.7l104.4-11l7.8,43.3c0,0,28.7-36.5,35-40.2C1734.6,608.7,1781.6,625.4,1781.6,631.7z"/>
	</g>
</g>
<g id="Layer_3">
</g>
</svg>
